<?xml version="1.0" encoding="UTF-8" standalone="no"?>
<!DOCTYPE svg PUBLIC "-//W3C//DTD SVG 1.1//EN" "http://www.w3.org/Graphics/SVG/1.1/DTD/svg11.dtd">
<svg width="100%" height="100%" viewBox="0 0 2388 1668" version="1.1" xmlns="http://www.w3.org/2000/svg" xmlns:xlink="http://www.w3.org/1999/xlink" xml:space="preserve" xmlns:serif="http://www.serif.com/" style="fill-rule:evenodd;clip-rule:evenodd;stroke-linecap:round;stroke-linejoin:round;stroke-miterlimit:1.5;">
    <rect id="Artboard1" x="0" y="0" width="2388" height="1668" style="fill:white;"/>
    <g id="Artboard11" serif:id="Artboard1">
        <path d="M219.793,1618.27C220.407,1619.1 223.394,1606.38 223.695,1605.18C226.865,1592.5 224.507,1577.91 223.695,1564.92C221.352,1527.44 223.695,1489.04 223.695,1451.48C223.695,1342.84 250.532,1235.41 250.532,1126.99C250.532,1043.69 270.782,962.306 274.93,879.355C276.724,843.478 276.023,806.72 278.589,770.786C281.201,734.22 294.003,698.83 295.668,662.217C297.716,617.142 294.385,571.853 296.887,526.811C301.19,449.357 292.878,376.919 288.348,299.915C286.764,272.976 289.743,236.831 277.369,212.084" style="fill:none;stroke:black;stroke-width:1px;"/>
        <path d="M258.94,1019.86C260.248,1019.65 262.018,1019.83 263.344,1019.83C266.637,1019.83 272.406,1012.18 275.875,1008.37C291.326,991.428 298.24,967.811 313.469,951.109C385.777,871.804 480.952,817.946 564.091,754.117C610.483,718.501 671.67,704.286 722.819,676.237C777.985,645.985 832.604,611.129 881.547,570.87C929.799,531.179 1037.77,496.194 1096.66,474.665C1135.97,460.294 1170.5,427.615 1209.44,410.528C1248.8,393.262 1291.45,385.21 1332.67,376.169" style="fill:none;stroke:black;stroke-width:1px;"/>
        <path d="M775.829,644.705C778.225,641.436 790.87,648.781 792.93,651.041C834.397,696.519 877.142,747.052 918.242,795.348C996.804,887.666 1091.13,957.246 1196.02,1008.37C1528.96,1170.67 1797.28,1080.65 2104.52,912.169" style="fill:none;stroke:black;stroke-width:1px;"/>
        <path d="M1581,1093.65C1584.16,1095.89 1598.74,1031.72 1609.02,986.605C1625.38,914.866 1637.15,838.629 1680.03,778.161C1729.29,708.707 1799.53,644.151 1876.35,617.819C1911.99,605.604 1951,604.37 1984.96,585.751C2055.5,547.067 2124.83,498.708 2206.34,498.708" style="fill:none;stroke:black;stroke-width:1px;"/>
        <path d="M1526.5,1103.48C1524.61,1100.15 1528.85,1093.7 1532.42,1093.7C1533.98,1093.7 1536.35,1101.8 1536.59,1102.87C1543.66,1133.89 1560.16,1167.94 1574.19,1196.78C1611.09,1272.67 1664.78,1335.23 1730.83,1382.32C1892.7,1497.72 2082.35,1439.58 2261.31,1439.58" style="fill:none;stroke:black;stroke-width:1px;"/>
    </g>
</svg>
