<?xml version="1.0" encoding="UTF-8" standalone="no"?>
<!DOCTYPE svg PUBLIC "-//W3C//DTD SVG 1.1//EN" "http://www.w3.org/Graphics/SVG/1.1/DTD/svg11.dtd">
<svg width="100%" height="100%" viewBox="0 0 533 533" version="1.1" xmlns="http://www.w3.org/2000/svg" xmlns:xlink="http://www.w3.org/1999/xlink" xml:space="preserve" xmlns:serif="http://www.serif.com/" style="fill-rule:evenodd;clip-rule:evenodd;stroke-linejoin:round;stroke-miterlimit:2;">
    <g id="Acorn">
        <path d="M363.08,381.077C372.658,396.468 374.15,429.65 346.673,418.569C339.046,415.493 334.263,407.503 329.416,401.296" style="fill:#583d2d;stroke:#000;stroke-width:6.67px;stroke-linecap:round;stroke-miterlimit:1.5;"/>
        <path d="M327.061,204.214C353.189,214.205 364.655,245.746 373.429,269.737C382.763,295.258 396.371,328.429 389.065,356.131C386.04,367.601 378.588,376.253 372.21,385.943C361.875,401.647 347.525,412.797 328.033,413.749C315.696,414.35 303.488,414.48 291.315,412.233C274.154,409.065 263.488,404.4 249.292,394.211C227.314,378.436 218.092,369.824 203.452,347.79C183.017,317.034 181.735,316.705 179.481,279.902" style="fill:#885935;stroke:#000;stroke-width:6.67px;stroke-linecap:round;stroke-miterlimit:1.5;"/>
        <path d="M199.402,200.128C194.24,194.639 190.858,187.306 184.798,182.714C182.83,181.223 180.063,180.31 180.182,177.625C180.498,170.464 188.538,165.337 188.932,160.911C189.577,153.674 168.505,136.069 170.567,127.301C170.71,126.691 173.84,125.833 174.509,125.515C178.878,123.436 182.685,119.739 187.028,117.372C189.745,115.891 195.025,112.344 198.33,112.209C198.514,112.202 199.303,113.962 199.416,114.168C202.986,120.656 206.374,127.289 209.892,133.825C212.083,137.896 214.931,149.251 218.475,151.732C220.553,153.188 226.792,148.82 228.99,151.429C231.593,154.519 226.783,156.336 227.622,159.398C229.49,166.215 234.88,172.126 236.257,178.925" style="fill:#615543;stroke:#000;stroke-width:6.67px;stroke-linecap:round;stroke-miterlimit:1.5;"/>
        <path d="M289.605,152.061C278.48,150.184 268.431,157.521 257.837,158.857C248.393,160.049 240.282,152.552 230.681,154.425C214.435,157.594 190.987,174.913 181.082,187.882C174.087,197.04 168.184,208.929 161.623,218.683C146.658,240.925 133.262,257.524 148.754,284.979C152.416,291.469 157.524,299.011 165.476,300.611C182.332,304.003 196.516,291.067 211.061,284.977C235.878,274.585 258.794,262.29 282.541,249.804C292.681,244.472 302.763,240.22 312.441,233.935C323.047,227.047 330.521,228.754 340.117,217.841C351.279,205.146 359.156,175.302 342.362,163.316C328.202,153.209 306.259,151.557 289.086,152.343" style="fill:#d0a669;stroke:#000;stroke-width:6.67px;stroke-linecap:round;stroke-miterlimit:1.5;"/>
        <path d="M299.781,191.272C300.349,196.533 302.088,202.14 300.556,207.377C300.351,208.078 300.05,211.599 299.337,211.599C292.98,211.605 289.203,201.46 283.461,199.177" style="fill:none;stroke:#000;stroke-width:6.67px;stroke-linecap:round;stroke-miterlimit:1.5;"/>
        <path d="M270.181,215.397C270.181,222.745 277.148,238.111 263.833,231.783C262.457,231.129 261.164,230.304 259.921,229.43C257.632,227.82 255.743,225.98 253.685,224.1" style="fill:none;stroke:#000;stroke-width:6.67px;stroke-linecap:round;stroke-miterlimit:1.5;"/>
        <path d="M247.44,194.519C249.687,195.985 255.478,212.026 250.717,213.845C243.789,216.491 235.279,210.853 229.812,207.041" style="fill:none;stroke:#000;stroke-width:6.67px;stroke-linecap:round;stroke-miterlimit:1.5;"/>
        <path d="M221.03,210.502C220.711,213.35 220.226,216.142 219.735,218.961C219.467,220.496 218.585,229.249 216.628,229.998C213.209,231.305 204.682,222.473 201.491,220.48" style="fill:none;stroke:#000;stroke-width:6.67px;stroke-linecap:round;stroke-miterlimit:1.5;"/>
        <path d="M194.965,225.111C194.117,229.077 192.251,232.828 191.008,236.686C190.535,238.155 190.119,239.651 189.76,241.153C189.626,241.712 189.992,242.922 189.422,242.845C188.513,242.722 186.924,239.937 186.417,239.274C184.159,236.328 181.86,233.404 179.067,230.947" style="fill:none;stroke:#000;stroke-width:6.67px;stroke-linecap:round;stroke-miterlimit:1.5;"/>
        <path d="M172.279,239.949C169.464,249.138 164.293,253.551 159.824,243.261" style="fill:none;stroke:#000;stroke-width:6.67px;stroke-linecap:round;stroke-miterlimit:1.5;"/>
        <path d="M251.571,188.255C256.384,190.988 272.318,201.385 271.144,188.409C270.885,185.54 269.857,182.808 269.407,179.972C268.888,176.71 269.637,173.085 268.152,170.062" style="fill:none;stroke:#000;stroke-width:6.67px;stroke-linecap:round;stroke-miterlimit:1.5;"/>
        <path d="M279.321,171.621C284.884,172.549 306.999,185.115 303.86,171.575C303.545,170.216 303.118,168.857 302.6,167.564C301.709,165.339 300.54,163.14 299.114,161.205" style="fill:none;stroke:#000;stroke-width:6.67px;stroke-linecap:round;stroke-miterlimit:1.5;"/>
        <path d="M248.271,225.965C248.242,228.374 248.044,230.74 247.722,233.127C247.398,235.538 247.162,237.986 247.292,240.421C247.3,240.576 247.584,244.526 247.51,244.53C242.651,244.785 237.199,235.667 233.471,233.071" style="fill:none;stroke:#000;stroke-width:6.67px;stroke-linecap:round;stroke-miterlimit:1.5;"/>
        <path d="M229.724,242.287C229.914,244.981 229.139,247.679 228.824,250.342C228.208,255.554 228.702,260.636 228.634,260.672C226.752,261.666 223.017,259.929 221.298,259.174C215.061,256.434 209.954,251.826 203.961,248.696" style="fill:none;stroke:#000;stroke-width:6.67px;stroke-linecap:round;stroke-miterlimit:1.5;"/>
        <path d="M197.184,252.455C196.712,254.854 196.007,257.205 195.58,259.609C195.2,261.747 194.987,263.859 195.122,266.027C195.185,267.032 196.283,269.33 195.319,269.041C191.939,268.029 188.405,262.166 185.727,259.785" style="fill:none;stroke:#000;stroke-width:6.67px;stroke-linecap:round;stroke-miterlimit:1.5;"/>
        <path d="M176.215,260.433C176.909,262.744 176.07,265.461 175.719,267.773C175.42,269.745 175.518,273.599 174.213,275.284C173.182,276.617 170.546,275.357 169.518,274.768C165.648,272.546 162.092,269.731 157.71,268.571" style="fill:none;stroke:#000;stroke-width:6.67px;stroke-linecap:round;stroke-miterlimit:1.5;"/>
        <path d="M303.199,191.075C307.065,194.092 316.051,209.061 317.341,195.914C317.462,194.682 317.306,193.46 317.078,192.25C316.753,190.518 316.307,188.632 315.507,187.044" style="fill:none;stroke:#000;stroke-width:6.67px;stroke-linecap:round;stroke-miterlimit:1.5;"/>
        <path d="M319.723,183.782C323.265,184.31 342.133,190.787 333.921,181.936C333.164,181.12 332.394,180.312 331.63,179.502C330.516,178.322 329.376,177.167 328.237,176.012" style="fill:none;stroke:#000;stroke-width:6.67px;stroke-linecap:round;stroke-miterlimit:1.5;"/>
        <path d="M331.207,171.708C334.27,173.55 345.524,180.127 340.702,171.327C340.131,170.285 339.538,169.245 338.922,168.227" style="fill:none;stroke:#000;stroke-width:6.67px;stroke-linecap:round;stroke-miterlimit:1.5;"/>
        <path d="M200.288,190.194C201.565,192.437 205.996,211.186 208.614,198.435C208.838,197.344 208.951,196.176 209.039,195.068C209.196,193.097 209.41,190.988 209.089,189.021" style="fill:none;stroke:#000;stroke-width:6.67px;stroke-linecap:round;stroke-miterlimit:1.5;"/>
        <path d="M218.953,181.843C222.675,182.951 235.934,194.901 232.237,183.349C231.828,182.072 231.17,181 230.484,179.852" style="fill:none;stroke:#000;stroke-width:6.67px;stroke-linecap:round;stroke-miterlimit:1.5;"/>
        <path d="M237.296,168.773C239.911,169.241 252.656,173.974 247.605,165.489C247.006,164.482 246.293,163.656 245.455,162.845" style="fill:none;stroke:#000;stroke-width:6.67px;stroke-linecap:round;stroke-miterlimit:1.5;"/>
        <path d="M184.704,196.742C184.979,199.786 184.409,202.751 185.805,205.595C186.151,206.302 186.367,208.133 186.983,207.642C190.807,204.596 193.082,199.361 194.633,194.928" style="fill:none;stroke:#000;stroke-width:6.67px;stroke-linecap:round;stroke-miterlimit:1.5;"/>
        <path d="M325.038,252.289C348.133,269.972 361.464,309.353 367.197,337.057" style="fill:none;stroke:#000;stroke-width:6.67px;stroke-linecap:round;stroke-miterlimit:1.5;"/>
        <path d="M284.721,285.077C291.101,288.303 294.128,295.888 297.609,301.66C302.032,308.997 304.698,316.863 308.249,324.609C312.821,334.581 318.294,344.145 322.872,354.088" style="fill:none;stroke:#000;stroke-width:6.67px;stroke-linecap:round;stroke-miterlimit:1.5;"/>
        <path d="M233.388,304.343C233.788,327.394 253.337,347.78 269.648,362.665C275.907,368.378 282.905,373.216 288.006,380.096" style="fill:none;stroke:#000;stroke-width:6.67px;stroke-linecap:round;stroke-miterlimit:1.5;"/>
        <path d="M324.975,163.679C325.747,161.359 326.478,159.519 326.955,159.037C331.112,154.837 336.165,152.766 342.204,152.961C345.254,153.059 350.867,153.412 356.585,159.477C361.402,164.587 363.079,171.53 361.683,177.913C361.586,179.314 361.427,180.642 361.18,181.487C360.699,183.129 360.058,184.62 359.289,185.963C359.029,195.046 356.399,204.702 352.369,212.763C346.983,223.534 330.401,234.721 319.141,239.224C317.398,239.922 313.854,240.709 311.311,241.216C309.08,243.831 306.915,246.601 304.123,248.695C301.204,250.884 297.616,252.62 293.558,253.804C291.24,254.481 286.59,255.48 285.507,255.709C278.445,259.343 271.951,264.655 264.257,267.219C263.349,267.522 262.042,267.793 260.764,268.014C258.897,269.496 256.323,271.416 254.556,272.3C246.629,276.263 238.529,280.011 230.386,283.501C228.32,284.386 224.462,285.536 222.575,286.079C220.945,287.693 217.528,290.983 215.385,292.412C213.055,293.965 209.755,295.467 205.832,296.399C203.729,296.898 201.146,297.159 199.189,297.486C197.496,298.779 193.722,301.591 191.513,302.696C182.242,307.331 165.89,303.765 159.375,302.035C154.193,301.993 149.026,299.995 145.076,296.045C137.083,288.052 137.083,275.074 145.076,267.082C148.669,263.489 153.468,260.921 159.979,260.762C162.204,260.707 165.066,260.994 168.356,262.005C169.749,262.434 173.122,263.647 175.286,264.437C178.521,262.241 183.684,259.065 187.8,258.036C189.036,257.727 191.863,257.254 193.935,256.929C195.984,254.963 199.14,252.111 201.368,250.774C205.184,248.485 210.09,247.636 214.251,245.853C221.313,242.826 228.34,239.587 235.225,236.161C237.055,234.705 242.088,230.828 245.108,229.619C246.996,228.864 250.304,228.28 252.358,227.976C257.935,225.787 262.497,221.409 267.759,218.778C270.705,217.305 277.006,215.689 280.178,214.929C281.472,213.311 283.575,210.763 284.952,209.386C288.941,205.397 301.14,201.874 304.363,201.003C307.987,199.394 315.022,194.512 316.037,193.801C317.39,190.93 318.355,187.598 318.355,184.466C318.355,176.923 320.23,169.544 324.975,163.679ZM172.272,297.614L172.061,297.777L172.179,297.692L172.272,297.614ZM173.195,296.839L172.941,297.057L173.134,296.897L173.195,296.839ZM343.488,193.916C337.459,194.451 331.252,192.316 326.78,187.573C333.071,194.246 339.286,194.547 343.488,193.916ZM322.861,170.478C321.846,173.706 321.17,176.516 321.17,176.516C321.17,176.516 321.896,173.786 322.861,170.478Z" style="fill-opacity:0.09;"/>
        <path d="M355.838,355.59C356.419,353.205 358.991,342.602 359.562,339.745C359.914,337.983 359.003,336.483 358.491,334.896C357.305,331.22 355.954,327.534 354.991,323.681C350.262,304.762 343.994,286.77 334.281,269.772C331.422,264.769 329.307,258.926 327.36,253.054C326.154,249.42 325.818,245.443 323.509,243.134C315.517,235.141 315.517,222.163 323.509,214.171C331.502,206.178 344.48,206.178 352.472,214.171C357.287,218.986 360.892,225.393 363.631,232.643C365.723,238.181 367.026,244.518 369.845,249.45C381.44,269.742 389.082,291.161 394.728,313.746C397.597,325.221 402.16,335.612 399.726,347.778C398.503,353.895 393.953,372.306 390.774,377.074C388.021,381.205 384.313,385.167 381.726,389.479C374.176,402.063 359.591,416.784 344.259,419.851C322.261,424.25 306.132,421.656 284.441,417.318L277.781,416.029C276.77,416.119 275.67,416.154 274.501,416.099C270.513,415.911 264.713,414.171 263.538,413.583C263.113,413.371 262.21,412.801 261.208,412.137C257.851,410.875 254.767,409.477 254.767,409.477C250.17,407.252 246.761,403.517 244.881,399.136C243.527,398.435 242.175,397.724 240.842,396.987C233.093,392.7 225.722,387.949 219.658,381.884C208.831,371.058 198.304,359.586 190.404,346.418C188.396,343.072 187.709,338.911 185.989,335.471C183.789,331.072 181.272,327.134 178.541,323.038C176.997,320.721 176.174,318.757 175.137,316.614C172.71,313.472 171.17,309.591 170.918,305.331C170.335,295.443 175.272,290.898 177.592,288.781C183.547,283.347 191.586,280.403 201.615,286.12C203.064,286.946 204.997,288.263 206.931,290.451C207.986,291.645 210.471,295.66 211.367,297.453C211.854,298.428 212.623,300.16 212.835,300.643C216.442,306.061 219.71,311.325 222.624,317.153C223.847,319.599 225.484,324.664 225.882,325.918C232.024,335.976 240.309,344.609 248.621,352.921C254.394,358.695 262.41,362.024 269.77,366.087C275.018,368.985 280.073,372.081 284.648,375.639L292.474,377.153C308.351,380.329 320.124,382.907 336.226,379.686C337.691,379.393 338.777,378.04 339.969,376.9C342.69,374.298 344.955,371.152 346.603,368.405C349.259,363.98 352.875,359.818 355.838,355.59ZM210.659,310.993L210.531,311.326L210.588,311.195L210.659,310.993ZM210.682,310.927C211.426,308.971 212.01,306.356 211.807,302.916C211.973,305.722 211.564,308.431 210.682,310.927Z" style="fill-opacity:0.09;"/>
        <path d="M171.87,136.444C171.483,136.209 171.115,135.928 170.773,135.604C168.146,133.112 168.036,128.957 170.528,126.33C172.625,124.119 175.091,123.626 177.742,124.437C178.866,124.781 180.217,125.545 181.374,126.799C182.763,128.305 183.861,130.694 184.076,131.557C184.76,134.289 186.957,136.923 188.986,139.459C191.344,142.407 195.935,148.776 197.471,154.45C198.491,158.213 198.29,161.784 196.828,164.708C196.283,165.798 195.542,166.802 194.675,167.754L193.11,169.456C192.426,171.608 191.919,175.19 190.936,177.924C190.141,180.133 189.039,181.963 187.792,183.21C185.232,185.77 181.075,185.77 178.515,183.21C176.031,180.726 175.957,176.739 178.293,174.166C178.397,173.89 178.921,172.478 179.14,171.599C179.729,169.229 180.176,166.761 180.716,165.141C181.321,163.324 182.327,161.813 183.517,160.473C183.924,160.014 184.617,159.276 184.972,158.899C184.945,158.632 184.888,158.175 184.808,157.88C184.548,156.922 184.12,155.941 183.63,154.978C182.11,151.988 179.977,149.2 178.741,147.655C175.916,144.124 173.236,140.267 171.87,136.444ZM179.783,135.62C179.001,136.358 178.079,136.868 177.102,137.147C178.051,136.922 178.95,136.424 179.783,135.62ZM171.451,135.13L171.348,134.739C171.372,134.833 171.401,134.97 171.451,135.13Z" style="fill-opacity:0.09;"/>
        <path d="M197.462,115.732C199.21,114.76 200.886,114.606 201.941,116.357L201.972,116.371C202.21,116.809 202.394,117.263 202.522,117.725L202.532,117.757C202.701,118.333 203.581,121.328 203.949,122.803C204.198,123.799 206.388,130.912 207.008,132.92C209.666,136.02 214.065,142.331 216.087,145.881C217.063,146.285 219.271,147.224 220.272,147.842C223.21,149.655 224.728,152.196 224.728,155.386C224.728,159.007 221.789,161.946 218.168,161.946C215.727,161.946 213.595,160.61 212.467,158.628C211.394,158.182 209.649,157.421 208.738,156.861C207.023,155.807 205.751,154.448 204.966,152.879C203.597,150.14 198.766,143.132 196.732,141.098C196.396,140.762 195.382,139.49 194.611,137.316C193.519,134.236 191.519,127.177 191.221,125.985C190.889,124.656 190.092,121.958 189.94,121.439C188.432,116.284 193.451,115.533 197.462,115.732Z" style="fill:#ffeaea;fill-opacity:0.09;"/>
        <path d="M250.591,152.419C251.875,151.994 253.591,151.473 254.784,151.274C262.849,149.93 269.744,149.428 277.303,147.539C285.304,145.538 296.218,141.753 305.084,143.197C306.577,143.09 315.262,142.532 319.199,143.517C320.228,143.774 322.072,144.485 323.633,145.12C328.269,144.974 332.952,146.651 336.516,150.156C343.441,156.968 343.532,168.121 336.721,175.046C333.181,178.644 328.809,180.611 323.64,180.871C320.811,181.014 314.466,179.005 311.4,177.965C309.161,178.132 302.967,178.505 299.413,177.928C299.014,178.004 296.198,178.556 294.725,179.003C291.565,179.963 288.513,181.019 285.841,181.688C277.571,183.755 270.026,184.45 261.27,185.884C259.422,186.455 255.21,187.654 252.472,187.654C240.461,187.654 238.631,187.046 231.352,183.342C228.272,183.585 225.089,183.019 222.126,181.538C213.438,177.194 209.911,166.613 214.255,157.925C217.493,151.45 222.23,148.701 227.005,147.456C231.503,146.283 236.998,146.78 242.127,149.344C246.311,151.436 246.695,152.25 250.591,152.419ZM244.782,175.341L244.693,175.474L244.755,175.385L244.782,175.341ZM245.287,174.51L245.121,174.788L245.261,174.559L245.287,174.51Z" style="fill:#ffeaea;fill-opacity:0.09;"/>
        <path d="M180.226,174.263C183.931,169.6 189.911,166.928 196.243,167.735C201.567,168.413 204.297,170.75 205.767,172.057C210.319,176.105 211.809,180.852 211.67,185.72C211.617,187.562 201.087,201.394 201.087,201.394C201.087,201.394 206.771,197.226 207.969,195.435L208.248,194.808C208.173,194.997 208.086,195.26 207.971,195.432L207.969,195.435C206.703,198.1 203.97,201.463 202.389,203.296C198.522,212.024 192.578,220.163 186.501,227.455C185.513,228.642 183.924,230.028 182.988,231.411C182.013,234.846 180.295,239.678 177.855,242.118C177.955,242.019 178.216,241.739 178.216,241.739L173.899,247.845C173.054,250.115 172.596,252.146 171.776,254.324C171.691,256.659 171.358,264.492 170.699,267.242C169.605,271.809 167.426,275.023 165.316,277.132C158.448,284.001 147.295,284.001 140.426,277.132C135.403,272.109 134.053,264.795 136.382,258.543C136.428,256.539 136.565,252.051 136.81,249.826C137.213,246.179 138.175,243.132 139.259,240.965C140.476,238.53 140.525,236.453 141.498,234.02C142.422,231.711 146.378,225.742 149.547,221.473C149.93,219.635 150.456,217.625 151.088,216.361C152.956,212.625 156.771,208.148 159.46,204.921C163.705,199.827 168.134,194.282 170.598,188.123C171.618,185.573 174.906,181.566 176.501,179.706C177.161,178.37 177.957,176.995 178.683,175.906C178.981,175.459 179.538,174.884 180.226,174.263ZM182.437,198.443C183.995,199.904 186.549,201.774 190.892,202.514C187.655,201.931 184.766,200.484 182.437,198.443ZM176.555,187.401C176.838,190.119 177.777,192.729 179.535,195.181C177.957,192.898 176.913,190.239 176.555,187.401Z" style="fill:#ffeaea;fill-opacity:0.09;"/>
    </g>
</svg>
