<?xml version="1.0" encoding="UTF-8" standalone="no"?>
<!DOCTYPE svg PUBLIC "-//W3C//DTD SVG 1.1//EN" "http://www.w3.org/Graphics/SVG/1.1/DTD/svg11.dtd">
<svg width="100%" height="100%" viewBox="0 0 1067 1067" version="1.1" xmlns="http://www.w3.org/2000/svg" xmlns:xlink="http://www.w3.org/1999/xlink" xml:space="preserve" xmlns:serif="http://www.serif.com/" style="fill-rule:evenodd;clip-rule:evenodd;stroke-linejoin:round;stroke-miterlimit:2;">
    <path d="M396.997,250.35C397.034,250.536 403.416,250.894 403.898,250.533C419.888,238.54 429.023,213.732 441.161,198.56C464.933,168.845 508.158,171.525 540.204,183.851C583.91,200.661 577.74,257.365 613.75,278.971C635.051,291.751 725.008,231.816 764.766,311.331C789.63,361.06 749.295,420.237 755.94,436.85C761.138,449.846 832.168,457.385 848.118,521.183C854.945,548.489 834.244,565.638 831.448,590.807C825.453,644.758 852.974,673.284 823.603,737.9C806.461,775.612 769.505,787.874 738.289,809.485C720.156,822.039 676.148,868.846 660.82,873.226C643.014,878.313 623.772,873.202 605.905,875.187C587.632,877.217 570.782,885.383 551.971,883.032C521.024,879.163 549.162,838.272 523.533,834.001C492.147,828.77 471.252,854.782 441.161,852.633C426.559,851.59 404.141,846.974 391.15,839.885C375.774,831.493 378.924,809.201 369.576,796.737C361.043,785.359 346.986,791.799 337.216,782.028C329.209,774.021 332.757,758.938 325.448,751.629C318.449,744.629 307.776,752.067 302.894,739.861C278.623,679.184 243.049,617.64 240.135,550.602C237.484,489.637 282.235,457.643 299.952,404.49C304.455,390.982 285.168,349.725 298.972,322.118C302.451,315.159 321.212,297.273 329.371,295.641C337.41,294.033 344.446,298.675 351.925,300.544C366.243,304.124 381.617,299.412 396.053,302.506C414.669,306.495 481.67,332.227 494.115,344.672C531.087,381.644 539.235,423.145 560.797,468.23C589.761,528.791 663.765,654.826 537.273,654.826C514.48,654.826 338.821,551.583 440.181,551.583" style="fill:none;stroke:#d3662b;stroke-opacity:0.43;stroke-width:333.12px;stroke-linecap:round;stroke-miterlimit:1.5;"/>
    <path d="M480.889,294.357C477.074,295.241 487.102,289.561 490.46,287.547C496.795,283.746 503.382,282.666 511.053,283.624C530.979,286.115 581.324,296.342 586.561,319.907C591.838,343.654 575.377,364.806 583.619,389.531C589.082,405.92 643.955,423.834 657.165,448.368C672.927,477.64 650.683,510.312 660.107,538.585C665.767,555.564 679.375,570.159 686.584,586.636C715.062,651.728 710.906,741.11 643.436,780.798C626.001,791.054 584.338,812.421 562.045,809.236C554.138,808.106 548.423,801.02 540.472,799.43C532.517,797.839 523.267,800.425 515.956,796.488C497.383,786.487 482.477,769.792 463.983,759.224C451.989,752.37 421.861,747.484 416.914,744.515C408.197,739.285 406.022,724.763 400.243,717.058C396.518,712.091 389.641,709.768 387.495,703.329C373.13,660.233 361.999,621.021 361.999,574.868C361.999,562.902 372.569,566.485 370.825,554.275C366.872,526.609 361.337,503.653 366.902,475.826C376.163,429.519 429.233,402.017 474.77,415.027C482.987,417.375 488.181,424.508 497.324,425.814C505.367,426.963 518.232,422.207 524.782,428.756" style="fill:none;stroke:#f9b667;stroke-opacity:0.45;stroke-width:333.12px;stroke-linecap:round;stroke-miterlimit:1.5;"/>
    <path d="M505.151,373.425C505.157,373.565 515.21,371.88 516.937,371.88C529.473,371.88 551.328,364.699 558.123,381.686C563.116,394.17 547.804,412.71 556.161,423.853C572.256,445.312 602.094,454.802 614.999,478.768C628.214,503.31 618.779,528.071 623.824,553.295C626.114,564.743 642.274,579.066 648.34,588.597C667.982,619.463 672.525,672.94 661.088,707.252C660.482,709.069 653.966,710.864 652.262,713.135C640.254,729.146 626.799,779.153 607.154,785.701C568.305,798.651 505.718,773.917 482.615,741.573C476.257,732.672 474.297,721.102 467.906,712.155C461.56,703.271 451.401,705.049 444.371,694.504C410.793,644.137 402.116,582.708 412.991,522.895C415.192,510.793 425.699,501.67 431.623,491.516C440.557,476.199 451.15,443.018 467.906,434.64C472.276,432.454 477.454,432.723 481.634,429.737C493.593,421.194 493.14,411.025 510.072,409.144C538.83,405.948 554.991,489.256 563.026,510.147C587.484,573.739 591.19,597.774 550.278,650.376C540.288,663.22 529.166,672.641 513.014,675.872C502.127,678.049 495.786,658.221 483.596,658.221" style="fill:none;stroke:#ffd889;stroke-opacity:0.76;stroke-width:157.44px;stroke-linecap:round;stroke-miterlimit:1.5;"/>
    <path d="M549.315,533.383C549.157,536.022 554.778,533.481 557.142,534.663C562.353,537.268 571.898,544.547 574.793,549.372C582.194,561.707 560.735,578.787 564.006,583.694C569.802,592.387 581.886,595.167 585.58,606.248C591.597,624.3 570.1,663.743 550.278,667.046C501.91,675.108 506.937,634.621 501.247,632.725C493.714,630.214 481.207,626.172 477.712,618.015C468.378,596.235 478.168,583.238 491.441,569.965C494.178,567.228 487.884,558.812 489.479,557.217C505.158,541.539 543.011,532.877 557.142,561.14" style="fill:none;stroke:#ffedae;stroke-opacity:0.76;stroke-width:157.44px;stroke-linecap:round;stroke-miterlimit:1.5;"/>
</svg>
