<?xml version="1.0" encoding="UTF-8" standalone="no"?>
<!DOCTYPE svg PUBLIC "-//W3C//DTD SVG 1.1//EN" "http://www.w3.org/Graphics/SVG/1.1/DTD/svg11.dtd">
<svg width="100%" height="100%" viewBox="0 0 1067 267" version="1.1" xmlns="http://www.w3.org/2000/svg" xmlns:xlink="http://www.w3.org/1999/xlink" xml:space="preserve" xmlns:serif="http://www.serif.com/" style="fill-rule:evenodd;clip-rule:evenodd;stroke-linejoin:round;stroke-miterlimit:2;">
    <g id="bar">
        <path d="M24.189,29.644C27.301,64.88 23.638,98.987 24.139,134.114C24.413,153.328 28.209,172.142 29.051,191.307C29.732,206.818 29,222.342 29.753,237.849C29.764,238.083 29.714,242.478 30.029,242.611C42.189,247.748 89.056,236.711 104.149,235.291C154.483,230.554 206.505,233.168 256.723,237.709C398.795,250.558 540.954,238.172 683.149,241.26C722.037,242.105 760.936,246.083 799.807,246.22C832.452,246.335 864.961,242.032 897.615,242.616C927.279,243.147 956.933,244.379 986.594,245.065C998.153,245.333 1011.6,247.74 1023.12,246.034C1025.03,245.751 1021.3,219.951 1020.3,213.712C1017.25,194.781 1017.95,176.427 1019.98,157.455C1023.45,125.078 1027.62,92.911 1029.52,60.352C1030,51.976 1032.56,29.091 1031.14,28.009C1016.87,17.18 963.501,19.315 947.098,19.615C875.488,20.924 804.347,24.951 732.632,23.959C645.609,22.755 559.215,17.854 472.168,21.502C401.419,24.467 331.359,19.079 260.686,19.711C232.482,19.963 204.499,24.16 176.363,25.698C125.889,28.458 74.996,28.75 24.416,29.018" style="fill:#ab3a3a;"/>
        <path d="M1016.69,40.58C976.18,28.393 935.513,25.128 893.446,31.835C878.552,34.209 864.516,39.736 849.367,41.114C808.567,44.824 765.366,45.68 724.467,45.329C697.266,45.096 670.18,42.49 642.984,42.192C583.576,41.542 524.182,44.281 464.875,44.213C444.521,44.189 424.445,40.337 404.174,39.171C374.34,37.456 343.827,39.415 313.917,39.208C298.911,39.105 283.997,42.548 269.016,43.378C245.151,44.701 220.982,44.319 197.074,44.661C164.187,45.13 131.488,41.654 98.535,43.098C75.006,44.129 51.784,49.546 28.433,50.22" style="fill:none;stroke:#fff;stroke-opacity:0.09;stroke-width:45.83px;stroke-linecap:round;stroke-miterlimit:1.5;"/>
        <path d="M1017.89,210.294C985.017,194.749 962.951,194.567 938.588,196.919C925.494,198.183 911.588,200.391 893.734,200.309C876.368,200.23 859.4,195.831 841.975,196.065C784.976,196.831 728.462,204.642 671.546,206.567C643.986,207.498 616.829,202.681 589.313,202.52C559.545,202.346 529.886,207.86 500.129,205.01C461.929,201.35 423.872,191.408 385.684,189.333C359.894,187.932 334.137,196.935 308.415,198.644C285.219,200.185 262.754,194.231 239.702,193.689C222.047,193.274 204.391,197.102 186.708,197.403C169.417,197.698 152.141,194.963 134.883,195.624C118.99,196.233 103.453,200.591 87.558,200.914C69.948,201.272 52.355,197.148 34.889,200.813C22.444,203.425 14.461,215.649 17.072,228.094C19.684,240.539 31.908,248.522 44.353,245.911C58.995,242.838 73.732,247.284 88.494,246.984C104.665,246.656 120.479,242.29 136.648,241.67C153.581,241.021 170.528,243.766 187.493,243.477C204.557,243.186 221.583,239.356 238.619,239.756C263.051,240.33 286.887,246.256 311.47,244.623C335.368,243.035 359.221,234.043 383.183,235.345C420.745,237.387 458.162,247.28 495.735,250.88C526.865,253.862 557.902,248.417 589.044,248.599C617.169,248.764 644.933,253.573 673.103,252.62C729.707,250.706 785.908,242.903 842.595,242.141C859.741,241.911 876.433,246.311 893.523,246.389C913.219,246.479 928.571,244.18 943.016,242.786C959.96,241.15 975.329,241.14 998.193,251.951C1009.69,257.387 1023.44,252.467 1028.87,240.972C1034.31,229.476 1029.39,215.73 1017.89,210.294Z" style="fill-opacity:0.09;"/>
        <path d="M986.082,72.858C989.76,111.333 987.081,156.054 981.286,194.428C979.387,207.002 988.053,218.751 1000.63,220.65C1013.2,222.549 1024.95,213.883 1026.85,201.309C1033.18,159.38 1035.97,110.512 1031.95,68.473C1030.74,55.814 1019.48,46.52 1006.83,47.73C994.166,48.94 984.872,60.199 986.082,72.858Z" style="fill-opacity:0.09;"/>
        <path d="M23.908,89.353C21.812,121.406 17.134,151.505 21.651,183.669C23.419,196.261 35.079,205.049 47.671,203.28C60.264,201.512 69.051,189.853 67.283,177.26C63.216,148.302 68.003,121.218 69.89,92.359C70.719,79.67 61.091,68.695 48.402,67.865C35.713,67.035 24.737,76.664 23.908,89.353Z" style="fill:#fff;fill-opacity:0.09;"/>
    </g>
</svg>
