<?xml version="1.0" encoding="UTF-8" standalone="no"?>
<!DOCTYPE svg PUBLIC "-//W3C//DTD SVG 1.1//EN" "http://www.w3.org/Graphics/SVG/1.1/DTD/svg11.dtd">
<svg width="100%" height="100%" viewBox="0 0 1067 267" version="1.1" xmlns="http://www.w3.org/2000/svg" xmlns:xlink="http://www.w3.org/1999/xlink" xml:space="preserve" xmlns:serif="http://www.serif.com/" style="fill-rule:evenodd;clip-rule:evenodd;stroke-linejoin:round;stroke-miterlimit:2;">
    <g id="bar">
        <path d="M24.189,29.644C27.301,64.88 23.638,98.987 24.139,134.114C24.413,153.328 28.209,172.142 29.051,191.307C29.732,206.818 29,222.342 29.753,237.849C29.764,238.083 29.714,242.478 30.029,242.611C42.189,247.748 89.056,236.711 104.149,235.291C154.483,230.554 206.505,233.168 256.723,237.709C398.795,250.558 540.954,238.172 683.149,241.26C722.037,242.105 760.936,246.083 799.807,246.22C832.452,246.335 864.961,242.032 897.615,242.616C927.279,243.147 956.933,244.379 986.594,245.065C998.153,245.333 1011.6,247.74 1023.12,246.034C1025.03,245.751 1021.3,219.951 1020.3,213.712C1017.25,194.781 1017.95,176.427 1019.98,157.455C1023.45,125.078 1027.62,92.911 1029.52,60.352C1030,51.976 1032.56,29.091 1031.14,28.009C1016.87,17.18 963.501,19.315 947.098,19.615C875.488,20.924 804.347,24.951 732.632,23.959C645.609,22.755 559.215,17.854 472.168,21.502C401.419,24.467 331.359,19.079 260.686,19.711C232.482,19.963 204.499,24.16 176.363,25.698C125.889,28.458 74.996,28.75 24.416,29.018" style="fill:#ab3a3a;"/>
    </g>
</svg>
