<?xml version="1.0" encoding="UTF-8" standalone="no"?>
<!DOCTYPE svg PUBLIC "-//W3C//DTD SVG 1.1//EN" "http://www.w3.org/Graphics/SVG/1.1/DTD/svg11.dtd">
<svg width="100%" height="100%" viewBox="0 0 800 600" version="1.1" xmlns="http://www.w3.org/2000/svg" xmlns:xlink="http://www.w3.org/1999/xlink" xml:space="preserve" xmlns:serif="http://www.serif.com/" style="fill-rule:evenodd;clip-rule:evenodd;stroke-linecap:round;stroke-linejoin:round;stroke-miterlimit:1.5;">
    <rect id="movement" x="0" y="0" width="800" height="600" style="fill:none;"/>
    <clipPath id="_clip1">
        <rect x="0" y="0" width="800" height="600"/>
    </clipPath>
    <g clip-path="url(#_clip1)">
        <rect x="0" y="0" width="800" height="600"/>
        <path d="M332.801,206.355C314.012,229.145 299.973,255.762 278.915,276.611C237.921,317.195 189.9,347.25 144.41,382.074" style="fill:none;stroke:#fff;stroke-width:4px;"/>
        <path d="M377.963,251.43C350.489,279.619 318.988,304.364 290.807,331.994C263.013,359.245 238.407,389.265 209.354,415.369" style="fill:none;stroke:#fff;stroke-width:4px;"/>
        <path d="M335.366,205.292C326.864,199.261 318.329,193.239 309.53,187.649C309.319,187.515 307.239,186.32 307.281,186.156C308.561,181.087 322.599,176.094 326.716,174.378C346.044,166.32 368.588,162.643 389.142,158.772C397.003,157.291 427.353,146.436 432.21,150.061C453.371,165.857 441.294,223.48 436.569,245.271C435.649,249.514 433.494,269.762 429.226,271.941C412.942,280.257 391.795,260.477 378.983,251.71" style="fill:none;stroke:#fff;stroke-width:4px;"/>
        <path d="M510.958,317.703C504.253,312.496 453.185,269.582 458.679,260.358C464.376,250.794 481.999,262.167 488.546,262.403C488.639,262.406 472.751,244.074 474.133,242.668C480.086,236.612 488.481,237.328 496.173,237.767C498.346,237.891 494.324,233.824 493.431,231.838C491.775,228.157 489.453,222.348 490.791,218.244C493.011,211.431 505.965,214.09 511.094,212.618C511.104,212.615 497.082,196.919 495.404,195.326C488.917,189.164 432.866,150.56 446.397,141.798C465.931,129.15 502.23,163.13 513.251,176.097C514.794,177.913 531.191,197.015 531.87,196.339C540.459,187.788 549.905,190.369 558.654,198.767C581.205,220.416 586.184,251.156 603.098,275.392" style="fill:none;stroke:#fff;stroke-width:4px;"/>
        <path d="M453.591,114.12C454.651,105.221 455.882,96.346 456.56,87.407" style="fill:none;stroke:#fff;stroke-width:4px;"/>
        <path d="M439.09,119.074C432.54,112.69 425.988,106.285 418.788,100.632" style="fill:none;stroke:#fff;stroke-width:4px;"/>
        <path d="M429.321,132.951C422.039,134.497 414.89,137.001 407.786,139.213" style="fill:none;stroke:#fff;stroke-width:4px;"/>
        <path d="M473.932,123.535C478.388,117.782 482.609,111.825 486.859,105.917" style="fill:none;stroke:#fff;stroke-width:4px;"/>
        <path d="M269.75,464.628C269.728,464.558 278.494,473.946 279.538,475.25C282.696,479.199 301.999,505.687 305.76,505.687" style="fill:none;stroke:#fff;stroke-width:4px;"/>
        <path d="M278.435,440.137C280.16,440.08 276.269,442.888 274.855,443.877C272.092,445.811 269.154,447.513 266.426,449.496C259.259,454.709 252.015,462.485 246.291,469.163" style="fill:none;stroke:#fff;stroke-width:4px;"/>
        <path d="M321.227,474.913C320.169,465.733 297.723,469.01 306.228,486.02C307.793,489.151 310.024,492.241 312.784,494.449C328.661,507.151 322.232,474.699 322.617,474.314C324.638,472.293 339.749,485.552 344.157,485.552" style="fill:none;stroke:#fff;stroke-width:4px;"/>
        <path d="M353.219,482.112C353.123,482.207 363.966,487.751 362.887,488.83C361.368,490.349 354.355,483.968 353.522,483.211C347.875,478.078 327.528,462.146 335.728,452.306C344.484,441.799 354.954,459.886 341.347,462.608" style="fill:none;stroke:#fff;stroke-width:4px;"/>
        <path d="M363.832,428.731C363.719,430.921 368.418,428.381 370.379,429.361C375.571,431.957 379.663,440.6 385.832,440.6" style="fill:none;stroke:#fff;stroke-width:4px;"/>
        <path d="M381.372,423.702C381.229,423.728 381.923,428.69 380.212,429.83C376.057,432.6 370.787,435.005 366.165,436.854" style="fill:none;stroke:#fff;stroke-width:4px;"/>
        <path d="M370.452,389.855C370.045,390.82 383.656,402.433 384.427,403.139C384.986,403.651 397.8,413.854 398.006,413.441C399.056,411.341 392.151,406.905 390.982,405.949C383.833,400.099 376.042,395.237 370.379,387.687C368.984,385.827 363.492,378.146 367.101,375.98C376.907,370.097 400.958,376.06 403.157,388.155C404.289,394.383 399.741,403.479 396.133,408.29" style="fill:none;stroke:#fff;stroke-width:4px;"/>
        <path d="M413.739,383.098C414.501,382.718 421.887,388.155 420.014,390.028C416.462,393.581 413.563,377.956 413.459,376.917C412.61,368.435 418.861,365.751 426.101,363.337" style="fill:none;stroke:#fff;stroke-width:4px;"/>
        <path d="M442.95,364.065C442.981,364.799 443.778,363.923 443.895,363.806C445.561,362.14 441.343,360.039 440.149,359.591C436.76,358.321 428.724,357.372 427.038,361.933C425.05,367.31 433.454,380.101 439.681,378.322C446.236,376.449 440.617,364.72 440.617,360.996C440.617,360.528 440.199,359.801 440.617,359.591C444.771,357.515 457.376,363.806 462.625,363.806" style="fill:none;stroke:#fff;stroke-width:4px;"/>
        <path d="M460.882,342.053C460.52,342.649 462.576,340.951 462.157,340.393C461.272,339.213 459.782,338.863 458.411,338.52C455.298,337.742 446.94,338.164 445.768,342.266C444.07,348.208 457.811,360.726 461.689,354.909C464.657,350.457 457.725,340.143 459.816,338.052C461.418,336.449 468.555,343.343 469.649,344.139C480.091,351.733 489.986,361.597 473.395,369.893" style="fill:none;stroke:#fff;stroke-width:4px;"/>
        <path d="M353.663,524.205C351.569,527.354 365.745,544.601 368.506,547.362" style="fill:none;stroke:#fff;stroke-width:4px;"/>
        <path d="M370.281,534.181C372.032,535.434 365.912,533.729 363.824,534.251C359.194,535.408 351.649,542.305 351.649,547.362" style="fill:none;stroke:#fff;stroke-width:4px;"/>
        <path d="M385.04,530.462C384.329,530.669 386.631,529.294 386.3,528.632C385.822,527.675 383.354,528.063 382.554,528.163C371.399,529.558 370.472,540.829 381.617,543.616C389.534,545.595 392.431,529.753 387.236,526.29" style="fill:none;stroke:#fff;stroke-width:4px;"/>
        <path d="M415.855,512.609C415.576,513.124 417.713,514.838 418.141,515.052C419.352,515.658 417.605,506.953 417.205,505.219C416.908,503.935 412.488,490.486 413.927,489.766C415.773,488.843 421.606,495.666 423.292,493.981C425.622,491.65 423.404,482.237 426.101,481.338C431.713,479.467 443.191,504.4 448.109,501.941" style="fill:none;stroke:#fff;stroke-width:4px;"/>
        <path d="M457.589,481.921C457.308,481.639 459.348,482.823 459.348,482.274C459.348,477.239 448.598,475.245 445.3,476.187C437.342,478.461 446.39,492.707 449.514,495.385C459.1,503.601 458.611,473.912 455.133,468.695" style="fill:none;stroke:#fff;stroke-width:4px;"/>
        <path d="M457.094,464.997C455.284,463.998 459.606,468.339 461.221,469.631C463.964,471.826 469.965,475.873 473.864,474.314C481.439,471.284 474.131,455.182 471.991,450.901" style="fill:none;stroke:#fff;stroke-width:4px;"/>
        <path d="M478.866,453.771C486.562,450.654 489.873,433.634 481.824,436.854C477.732,438.49 478.873,444.606 479.951,447.623C484.844,461.323 498.55,466.747 503.832,450.901C505.071,447.183 504.768,447.24 504.768,443.409" style="fill:none;stroke:#fff;stroke-width:4px;"/>
        <path d="M723.045,48.807C725.464,50.169 727.208,38.82 727.208,41.595" style="fill:none;stroke:#fff;stroke-width:4px;"/>
        <path d="M726.306,47.795C742.679,200.401 733.095,347.455 723.045,499.126C722.063,513.941 727.756,548.12 721.131,561.073C711.755,579.406 615.606,573.215 592.369,574.007C532.903,576.033 476.255,585.817 416.759,584.082C348.055,582.078 280.438,580.815 211.412,583.055C163.759,584.602 118.217,576.58 70.914,574.191C70.019,574.146 62.592,574.449 62.28,573.878C57.606,565.328 63.669,537.986 63.526,527.51C62.86,478.489 59.285,429.476 55.311,380.616C49.055,303.691 60.58,228.708 65.663,152.036C67.309,127.211 70.401,102.568 70.132,77.635C70.002,65.561 69.026,53.515 68.438,41.459C68.436,41.42 68.339,39.038 68.339,39.038C176.067,64.011 239.368,47.374 347.017,43.188C401.548,41.068 456.385,44.517 510.981,43.172C566.587,41.803 623.169,36.263 678.805,39.49C706.653,41.106 726.306,47.795 726.306,47.795Z" style="fill:none;stroke:#fff;stroke-width:4px;"/>
    </g>
</svg>
