<?xml version="1.0" encoding="UTF-8" standalone="no"?>
<!DOCTYPE svg PUBLIC "-//W3C//DTD SVG 1.1//EN" "http://www.w3.org/Graphics/SVG/1.1/DTD/svg11.dtd">
<svg width="100%" height="100%" viewBox="0 0 1200 1000" version="1.1" xmlns="http://www.w3.org/2000/svg" xmlns:xlink="http://www.w3.org/1999/xlink" xml:space="preserve" xmlns:serif="http://www.serif.com/" style="fill-rule:evenodd;clip-rule:evenodd;stroke-linecap:round;stroke-linejoin:round;stroke-miterlimit:1.5;">
    <rect id="instructions" x="0" y="0" width="1200" height="1000" style="fill:none;"/>
    <clipPath id="_clip1">
        <rect x="0" y="0" width="1200" height="1000"/>
    </clipPath>
    <g clip-path="url(#_clip1)">
        <rect x="-220.446" y="0" width="1600" height="1000"/>
        <path d="M172.469,69.123C175.615,63.801 199.514,73.637 205.233,62.198C207.298,58.069 177.061,62.96 176.435,63.127C158.951,67.789 131.696,78.738 129.986,101.215C128.721,117.84 167.502,120.244 178.293,127.226C214.683,150.773 202.829,190.43 168.074,204.332C156.307,209.038 144.36,211.302 131.844,212.692" style="fill:none;stroke:#fff;stroke-width:9.15px;"/>
        <path d="M266.336,157.316C266.572,156.909 266.833,156.599 266.546,156.025C252.508,127.949 192.454,167.354 222.884,207.119C248.138,240.119 282.694,191.089 273.049,159.741C272.678,158.536 268.459,144.385 265.617,145.806C263.643,146.793 264.605,154.868 264.688,156.025C266.281,178.321 275.026,222.141 288.841,240.562C295.864,249.925 309.314,211.361 310.208,208.977" style="fill:none;stroke:#fff;stroke-width:9.15px;"/>
        <path d="M325.032,152.256C332.989,162.843 320.72,189.38 330.645,205.261C342.14,223.652 367.157,167.992 368.734,156.954" style="fill:none;stroke:#fff;stroke-width:9.15px;"/>
        <path d="M380.647,90.64C381.744,93.043 387.313,88.993 387.313,86.351" style="fill:none;stroke:#fff;stroke-width:9.15px;"/>
        <path d="M384.095,140.259C395.09,167.354 391.611,196.425 391.611,225.932" style="fill:none;stroke:#fff;stroke-width:9.15px;"/>
        <path d="M410.3,165.426C411.837,164.707 414.06,179.277 414.253,180.178C416.504,190.679 419.138,201.245 420.756,211.763C421.274,215.13 423.165,224.391 420.756,221.982C411.063,212.289 422.506,153.128 432.833,143.948C441.555,136.195 455.688,141.409 465.347,143.019" style="fill:none;stroke:#fff;stroke-width:9.15px;"/>
        <path d="M477.696,185.854C477.478,185.772 478.353,191.868 478.353,193.184C478.353,202.099 477.424,211.094 477.424,220.124C477.424,221.518 475.715,229.082 475.566,228.485C472.957,218.049 474.637,202.99 474.637,192.255C474.637,156.059 478.388,141.792 515.512,154.167" style="fill:none;stroke:#fff;stroke-width:9.15px;"/>
        <path d="M532.702,167.53C534.545,166.1 545.418,174.925 551.742,164.386C559.112,152.103 537.011,144.101 530.376,156.025C512.657,187.865 524.075,227.952 562.89,196.9" style="fill:none;stroke:#fff;stroke-width:9.15px;"/>
        <path d="M574.405,95.558C570.457,96.456 572.703,177.103 581.469,203.403" style="fill:none;stroke:#fff;stroke-width:9.15px;"/>
        <path d="M794.126,96.314C794.353,97.048 794.011,96.03 794.205,95.641C795.965,92.121 784.376,93.469 779.342,93.783C762.944,94.808 744.093,99.275 734.497,113.668C721.722,132.831 703.023,176.347 736.609,186.681C747.759,190.112 766.102,182.514 768.194,169.959C769.593,161.565 740.669,151.609 748.686,156.954C763.76,167.003 801.036,156.735 817.43,155.096" style="fill:none;stroke:#fff;stroke-width:9.15px;"/>
        <path d="M843.581,158.049C842.736,157.047 848.785,153.478 848.086,151.38C840.863,129.709 803.531,173.711 823.004,193.184C839.706,209.886 843.837,160.936 848.086,158.812C849.655,158.027 851.613,162.263 851.802,162.528C857.76,170.868 859.426,188.603 870.382,192.255" style="fill:none;stroke:#fff;stroke-width:9.15px;"/>
        <path d="M883.829,181.409C882.648,180.602 885.202,185.581 885.245,185.752C885.682,187.501 887.808,200.616 890.819,200.616C897.252,200.616 905.293,171.789 906.612,167.173C908.415,160.861 909.302,151.283 909.399,151.38C910.686,152.667 911.698,174.62 918.689,169.959C925.253,165.583 925.522,149.254 927.978,154.167C931.732,161.675 931.599,185.752 943.771,185.752" style="fill:none;stroke:#fff;stroke-width:9.15px;"/>
        <path d="M960.364,169.492C961.394,165.786 966.894,174.127 970.711,174.604C983.032,176.144 994.199,168.851 1002.3,159.741C1017.87,142.217 985.364,134.31 974.427,164.386C958.401,208.457 997.944,217.974 1024.59,191.326" style="fill:none;stroke:#fff;stroke-width:9.15px;"/>
        <g>
            <path d="M914.692,250.769C914.79,251.689 914.301,248.937 914.355,248.014C914.497,245.607 914.333,242.982 914.791,240.619C915.807,235.376 918.54,230.438 920.043,225.319C920.322,224.369 920.265,221.497 921.079,220.775C921.543,220.362 923.908,226.799 924.033,227.09C926.12,231.962 927.708,236.697 929.311,241.73C929.919,243.638 930.845,246.683 933.106,246.816" style="fill:none;stroke:#fff;stroke-width:4px;"/>
            <path d="M929.089,239.354C929.959,239.919 927.227,238.281 926.192,238.22C923.496,238.061 920.831,238.672 918.242,238.519" style="fill:none;stroke:#fff;stroke-width:4px;"/>
            <path d="M941.658,218.785C941.794,217.728 941.541,220.913 941.478,221.977C941.366,223.887 941.315,225.684 941.403,227.602C941.636,232.676 942.491,237.642 943.591,242.572C943.962,244.237 945.364,240.87 947.536,240.758C951.922,240.53 957.078,243.385 961.081,241.044" style="fill:none;stroke:#fff;stroke-width:4px;"/>
            <path d="M967.06,217.3C967.285,217.722 967.514,221.827 967.713,224.035C968.089,228.197 971.242,235.221 969.631,239.245" style="fill:none;stroke:#fff;stroke-width:4px;"/>
            <path d="M964.805,216.489C968.407,210.993 975.023,214.038 978.574,217.766C979.248,218.474 982.129,221.701 981.063,223.286C979.192,226.068 975.05,226.829 972.108,227.62" style="fill:none;stroke:#fff;stroke-width:4px;"/>
            <path d="M983.398,214.876C983.301,215.057 985.146,215.001 985.384,215.097C986.442,215.52 987.007,216.642 987.274,217.767C988.678,223.696 989.838,235.049 989.476,241.182" style="fill:none;stroke:#fff;stroke-width:4px;"/>
            <path d="M995.187,217.199C996.927,217.666 996.911,221.714 997.173,223.468C997.658,226.703 998.788,238.916 1003.92,239.219" style="fill:none;stroke:#fff;stroke-width:4px;"/>
            <path d="M1000.78,230.437C1000.87,230.333 997.242,229.613 996.813,229.588C994.399,229.446 990.805,230.39 988.532,231.147" style="fill:none;stroke:#fff;stroke-width:4px;"/>
            <path d="M1011.64,235.851C1011.52,235.825 1012.19,235.959 1012.32,235.62C1012.71,234.642 1012.73,233.369 1013.03,232.335C1013.68,230.06 1013.97,227.589 1014.47,225.255C1015.32,221.305 1016.19,217.694 1017.69,213.931C1017.88,213.462 1018.99,209.844 1020.19,210.751C1024.33,213.883 1025.52,223.124 1026.86,227.777C1027.3,229.314 1029.12,237.147 1029.15,236.612" style="fill:none;stroke:#fff;stroke-width:4px;"/>
            <path d="M1027.34,225.932C1022.79,228.636 1015.37,228.379 1010.21,228.075" style="fill:none;stroke:#fff;stroke-width:4px;"/>
        </g>
        <path d="M176.839,509.836C176.106,510.445 178.166,509.827 178.166,510.91C178.166,522.522 170.783,533.372 169.989,546.07C168.994,561.986 174.6,576.489 172.442,592.677C170.204,609.459 166.459,625.323 167.536,642.554C168.248,653.947 174.65,665.615 176.53,676.896C181.2,704.916 185.926,739.111 183.072,767.657C178.642,811.957 163.448,856.121 163.448,900.936" style="fill:none;stroke:#fff;stroke-width:4px;"/>
        <path d="M59.257,520.676C63.656,526.737 50.574,605.672 49.599,617.373C47.322,644.699 62.218,670.467 60.229,698.322C57.687,733.91 43.168,897.235 55.323,921.544" style="fill:none;stroke:#fff;stroke-width:4px;"/>
        <path d="M184.359,738.655C177.169,721.748 264.274,703.406 281.495,705.559C314.742,709.715 349.235,726.881 379.614,739.901C428.949,761.044 486.424,770.224 539.876,766.884C559.759,765.641 579.498,768.394 598.748,761.978" style="fill:none;stroke:#fff;stroke-width:4px;"/>
        <path d="M173.728,826.668C172.134,821.682 224.733,801.937 235.748,800.935C247.513,799.866 259.907,800.935 271.725,800.935C284.768,800.935 297.191,805.48 310.155,806.659C352.983,810.552 395.42,802.497 441.799,808.294C449.911,809.308 455.923,816.684 463.058,819.742C481.897,827.815 514.618,834.046 535.012,832.007C544.32,831.076 552.467,825.706 561.995,824.648C570.987,823.649 587.273,827.147 594.702,822.195" style="fill:none;stroke:#fff;stroke-width:4px;"/>
        <g>
            <path d="M461.779,722.315C461.8,722.358 456.154,722.232 455.478,722.097C451.452,721.292 448.662,718.611 447.11,714.733C444.825,709.02 445.474,708.188 451.127,705.362C452.999,704.426 454.253,702.795 456.482,702.35C464.008,700.844 476.757,705.079 480.246,712.056C483.504,718.573 483.921,726.66 487.609,732.807C489.789,736.441 499.88,739.294 503.674,739.836C515.289,741.495 525.67,737.603 536.81,736.489C547.221,735.448 557.08,736.22 567.267,737.493C573.344,738.253 586.547,741.983 588.353,749.207C590.144,756.371 579.045,761.685 573.292,762.261C556.798,763.91 540.539,762.261 524.091,762.261C517.89,762.261 511.629,765.65 505.348,764.604C495.183,762.909 483.715,752.424 478.572,743.852C473.877,736.027 469.778,726.783 459.16,726.783" style="fill:none;stroke:#fff;stroke-width:4px;"/>
            <path d="M455.62,701.129C454.407,700.118 456.414,690.3 445.437,690.3" style="fill:none;stroke:#fff;stroke-width:4px;"/>
            <path d="M465.901,702.194C465.429,703.75 465.838,698.924 465.519,697.329C464.967,694.572 464.094,688.541 462.172,686.619" style="fill:none;stroke:#fff;stroke-width:4px;"/>
            <path d="M442.229,680.88C441.714,681.061 442.597,679.773 442.425,679.255C442.079,678.218 440.623,676.976 439.412,677.582C432.879,680.849 435.115,691.815 442.09,692.978C450.335,694.352 451.46,685.529 447.78,680.929" style="fill:none;stroke:#fff;stroke-width:4px;"/>
            <path d="M463.01,676.578C464.711,676.573 460.81,672.818 459.16,673.231C455.131,674.238 452.631,682.308 456.147,684.945C461.024,688.603 468.586,681.318 463.845,676.578" style="fill:none;stroke:#fff;stroke-width:4px;"/>
            <path d="M443.778,682.209C443.645,682.754 445.998,681.933 445.437,681.933C442.292,681.933 437.998,684.686 436.065,686.619" style="fill:none;stroke:#fff;stroke-width:4px;"/>
            <path d="M464.571,677.336C463.426,675.531 456.482,676.68 456.482,679.59" style="fill:none;stroke:#fff;stroke-width:4px;"/>
            <path d="M507.427,739.148C506.493,739.394 504.095,733.564 503.674,732.807C500.018,726.225 496.787,718.325 496.311,710.717C494.504,681.803 499.39,658.659 523.087,640.43C531.519,633.944 540.701,632.691 550.867,636.079C562.874,640.082 565.308,651.327 570.614,661.182C577.355,673.701 585.4,697.617 579.986,712.056C576.498,721.357 564.644,727.859 556.222,731.468C551.98,733.287 548.304,736.12 543.504,736.489C531.745,737.393 526.154,728.705 520.409,720.089C512.381,708.047 498.998,690.291 513.046,676.243C516.936,672.353 523.656,665.108 529.446,664.529C547.428,662.73 564.262,684.128 554.883,701.011C549.151,711.329 534.213,717.892 527.438,705.697C526.04,703.18 524.478,700.75 525.095,697.664C527.102,687.628 540.826,679.98 540.826,696.325" style="fill:none;stroke:#fff;stroke-width:4px;"/>
        </g>
        <g>
            <path d="M932.949,722.315C932.926,722.358 938.804,722.232 939.508,722.097C943.698,721.292 946.604,718.611 948.219,714.733C950.598,709.02 949.922,708.188 944.037,705.362C942.089,704.426 940.783,702.795 938.463,702.35C930.628,700.844 917.355,705.079 913.724,712.056C910.331,718.573 909.898,726.66 906.058,732.807C903.788,736.441 893.283,739.294 889.333,739.836C877.242,741.495 866.435,737.603 854.838,736.489C844,735.448 833.736,736.22 823.131,737.493C816.805,738.253 803.06,741.983 801.179,749.207C799.315,756.371 810.87,761.685 816.859,762.261C834.03,763.91 850.956,762.261 868.079,762.261C874.535,762.261 881.052,765.65 887.591,764.604C898.173,762.909 910.111,752.424 915.466,743.852C920.354,736.027 924.621,726.783 935.675,726.783" style="fill:none;stroke:#fff;stroke-width:4px;"/>
            <path d="M939.36,701.129C940.622,700.118 938.534,690.3 949.961,690.3" style="fill:none;stroke:#fff;stroke-width:4px;"/>
            <path d="M928.657,702.194C929.148,703.75 928.723,698.924 929.055,697.329C929.629,694.572 930.538,688.541 932.539,686.619" style="fill:none;stroke:#fff;stroke-width:4px;"/>
            <path d="M953.301,680.88C953.837,681.061 952.917,679.773 953.097,679.255C953.457,678.218 954.972,676.976 956.233,677.582C963.035,680.849 960.707,691.815 953.445,692.978C944.861,694.352 943.691,685.529 947.522,680.929" style="fill:none;stroke:#fff;stroke-width:4px;"/>
            <path d="M931.666,676.578C929.896,676.573 933.957,672.818 935.675,673.231C939.869,674.238 942.471,682.308 938.811,684.945C933.734,688.603 925.862,681.318 930.797,676.578" style="fill:none;stroke:#fff;stroke-width:4px;"/>
            <path d="M951.688,682.209C951.826,682.754 949.377,681.933 949.961,681.933C953.235,681.933 957.705,684.686 959.717,686.619" style="fill:none;stroke:#fff;stroke-width:4px;"/>
            <path d="M930.041,677.336C931.234,675.531 938.463,676.68 938.463,679.59" style="fill:none;stroke:#fff;stroke-width:4px;"/>
            <path d="M885.426,739.148C886.399,739.394 888.895,733.564 889.333,732.807C893.14,726.225 896.504,718.325 896.999,710.717C898.88,681.803 893.793,658.659 869.124,640.43C860.346,633.944 850.787,632.691 840.204,636.079C827.704,640.082 825.17,651.327 819.646,661.182C812.629,673.701 804.254,697.617 809.89,712.056C813.521,721.357 825.861,727.859 834.629,731.468C839.046,733.287 842.872,736.12 847.87,736.489C860.111,737.393 865.932,728.705 871.912,720.089C880.269,708.047 894.202,690.291 879.577,676.243C875.527,672.353 868.532,665.108 862.504,664.529C843.784,662.73 826.259,684.128 836.023,701.011C841.99,711.329 857.541,717.892 864.594,705.697C866.05,703.18 867.676,700.75 867.033,697.664C864.944,687.628 850.657,679.98 850.657,696.325" style="fill:none;stroke:#fff;stroke-width:4px;"/>
        </g>
        <g>
            <path d="M406.306,560.997C411.931,562.758 424.539,561.517 431.403,568.182C436.261,572.9 439.039,592.238 430.366,595.271C419.321,599.133 407.299,582.162 399.695,582.274" style="fill:none;stroke:#fff;stroke-width:4px;"/>
            <path d="M406.743,566.451C406.756,566.473 405.483,564.919 405.171,564.443C403.842,562.421 402.842,560.182 401.493,558.222C397.946,553.066 391.116,546.993 385.511,544.292C358.123,531.097 352.076,526.315 320.529,526.778" style="fill:none;stroke:#fff;stroke-width:4px;"/>
            <path d="M403.31,589.124C407.598,587.507 388.379,574.751 385.21,572.625C367.385,560.668 345.021,556.377 325.487,546.966" style="fill:none;stroke:#fff;stroke-width:4px;"/>
            <path d="M389.156,579.598C388.983,579.143 389.375,580.605 389.274,580.813" style="fill:none;stroke:#fff;stroke-width:4px;"/>
            <path d="M391.523,580.206C391.484,580.155 392.339,581.964 392.351,582.74C392.381,584.84 392.596,587.236 392.63,589.549C392.73,596.375 393.193,603.53 393.293,610.338C393.338,613.367 396.823,618.713 396.823,618.713C396.823,618.713 396.899,612.98 399.059,612.225C401.321,611.434 402.088,615.558 403.071,616.828C404.168,618.248 404.95,614.763 405.933,616.428C406.55,617.47 407.559,617.24 407.539,615.866C407.504,613.495 403.598,587.424 402.784,585.097" style="fill:none;stroke:#fff;stroke-width:4px;"/>
            <path d="M378.966,572.514C378.827,573.446 381.35,585.045 380.269,590.269C379.783,592.617 375.945,607.319 378.565,608.582C378.9,608.743 379.696,604.388 379.757,604.261C379.945,603.872 381.69,607.789 382.673,607.446C383.7,607.086 383.933,605.503 386.218,604.704C389.217,603.656 393.427,591.829 392.443,589.014" style="fill:none;stroke:#fff;stroke-width:4px;"/>
            <path d="M328.999,529.935C326.614,529.249 326.72,526.741 322.896,529.254C320.33,530.94 314.419,531.837 313.664,535.485C312.356,541.805 324.694,554.152 328.697,545.843" style="fill:none;stroke:#fff;stroke-width:4px;"/>
            <path d="M336.65,554.539C331.994,553.513 321.904,562.032 316.948,563.765C311.636,565.623 295.849,569.528 290.66,568.454C288.843,568.078 278.768,563.599 283.01,560.319C287.939,556.508 320.448,560.193 325.352,550.016" style="fill:none;stroke:#fff;stroke-width:4px;"/>
            <path d="M320.809,548.379C320.906,548.128 321.127,549.181 320.857,549.185C318.171,549.225 314.983,550.566 312.282,551.283C307.089,552.663 294.062,555.409 289.179,553.057C288.356,552.66 290.665,549.834 291.28,549.619C292.854,549.069 294.646,548.846 296.283,548.47C299.79,547.665 313.51,547.811 314.879,544.97" style="fill:none;stroke:#fff;stroke-width:4px;"/>
            <path d="M342.622,528.548C343.541,528.854 339.419,517.71 339.032,517.004C334.866,509.407 330.582,502.533 324.563,496.239C311.911,483.009 260.013,468.628 246.228,485.196C241.861,490.446 236.817,502.163 234.919,508.67C233.99,511.852 232.492,515.511 232.509,515.519C236.453,517.419 243.047,513.034 247.532,512.968C263.845,512.728 279.558,512.776 295.597,513.876C303.726,514.434 317.894,532.628 322.44,534.818" style="fill:none;stroke:#fff;stroke-width:4px;"/>
            <path d="M429.85,577.918C429.537,578.381 429.219,577.174 427.798,578.007C425.238,579.508 426.837,582.784 429.575,582.206C431.205,581.861 430.583,578.447 429.213,578.089" style="fill:none;stroke:#fff;stroke-width:4px;"/>
            <path d="M431.347,572.943C432.551,572.606 432.884,580.856 433.422,581.773" style="fill:none;stroke:#fff;stroke-width:4px;"/>
        </g>
        <g>
            <path d="M602.377,904.979C596.484,905.081 584.909,910.232 576.295,906.07C570.198,903.124 561.466,885.647 568.742,880.035C578.006,872.888 594.764,885.206 601.946,882.703" style="fill:none;stroke:#fff;stroke-width:4px;"/>
            <path d="M600.243,899.941C600.224,899.924 601.922,900.998 602.368,901.351C604.267,902.851 605.921,904.661 607.819,906.096C612.811,909.871 621.206,913.482 627.377,914.279C657.529,918.17 664.774,920.802 694.568,910.42" style="fill:none;stroke:#fff;stroke-width:4px;"/>
            <path d="M596.355,877.341C592.796,880.227 615.056,886.276 618.734,887.295C639.418,893.025 661.995,890.048 683.5,892.824" style="fill:none;stroke:#fff;stroke-width:4px;"/>
            <path d="M612.79,881.921C613.098,882.298 612.266,881.034 612.295,880.805" style="fill:none;stroke:#fff;stroke-width:4px;"/>
            <path d="M610.353,882.09C610.406,882.126 609.024,880.679 608.769,879.946C608.077,877.962 607.119,875.757 606.358,873.572C604.111,867.126 601.416,860.482 599.176,854.052C598.179,851.191 593.187,847.216 593.187,847.216C593.187,847.216 594.921,852.68 593.11,854.077C591.212,855.542 589.184,851.87 587.851,850.974C586.362,849.972 586.719,853.526 585.261,852.256C584.347,851.461 583.462,851.998 583.914,853.295C584.694,855.534 596.618,879.046 598.124,880.997" style="fill:none;stroke:#fff;stroke-width:4px;"/>
            <path d="M624.694,885.432C624.532,884.504 618.483,874.291 617.862,868.993C617.583,866.612 616.592,851.449 613.707,851.077C613.338,851.029 613.956,855.413 613.938,855.553C613.882,855.981 610.991,852.814 610.167,853.449C609.305,854.114 609.583,855.69 607.666,857.168C605.151,859.109 604.883,871.66 606.704,874.021" style="fill:none;stroke:#fff;stroke-width:4px;"/>
            <path d="M685.535,910.094C688.014,909.993 688.704,912.407 691.541,908.817C693.444,906.408 698.772,903.693 698.338,899.993C697.587,893.583 681.987,885.754 680.807,894.901" style="fill:none;stroke:#fff;stroke-width:4px;"/>
            <path d="M670.519,889.155C675.26,888.661 682.152,877.396 686.309,874.189C690.765,870.752 704.517,862.071 709.779,861.454C711.622,861.238 722.595,862.314 719.603,866.764C716.127,871.933 684.112,878.682 682.666,889.887" style="fill:none;stroke:#fff;stroke-width:4px;"/>
            <path d="M687.493,890.008C687.48,890.277 686.939,889.347 687.194,889.258C689.731,888.374 692.334,886.097 694.671,884.564C699.164,881.619 710.662,874.906 716.037,875.6C716.943,875.717 715.642,879.127 715.127,879.525C713.807,880.543 712.176,881.319 710.741,882.192C707.667,884.061 694.6,888.246 694.196,891.375" style="fill:none;stroke:#fff;stroke-width:4px;"/>
            <path d="M673.043,915.703C672.074,915.703 679.498,924.979 680.088,925.527C686.436,931.424 692.668,936.598 700.364,940.674C716.541,949.243 770.326,946.534 778.187,926.466C780.677,920.107 781.771,907.397 781.522,900.623C781.4,897.311 781.669,893.367 781.65,893.364C777.308,892.804 772.433,899.044 768.196,900.52C752.791,905.889 737.863,910.796 722.295,914.806C714.405,916.839 695.224,904.037 690.22,903.392" style="fill:none;stroke:#fff;stroke-width:4px;"/>
            <path d="M574.7,896.341C574.851,895.802 575.533,896.848 576.619,895.609C578.576,893.379 576.026,890.773 573.61,892.185C572.172,893.026 573.838,896.07 575.251,895.977" style="fill:none;stroke:#fff;stroke-width:4px;"/>
            <path d="M574.847,901.535C573.811,902.234 570.895,894.509 570.095,893.808" style="fill:none;stroke:#fff;stroke-width:4px;"/>
        </g>
        <g>
            <path d="M1026.11,782.85C1022.85,777.666 1020.57,764.754 1012.2,759.551C1006.28,755.868 986.732,757.898 986.181,767.322C985.479,779.322 1005.28,787.119 1007.27,794.748" style="fill:none;stroke:#fff;stroke-width:4px;"/>
            <path d="M1020.69,783.77C1020.67,783.762 1022.53,784.648 1023.08,784.842C1025.41,785.668 1027.86,786.11 1030.14,786.971C1036.12,789.235 1043.91,794.552 1048.08,799.483C1068.46,823.579 1074.77,828.435 1083.03,860.084" style="fill:none;stroke:#fff;stroke-width:4px;"/>
            <path d="M999.621,792.838C1000.01,788.15 1017.7,804.19 1020.64,806.829C1037.18,821.673 1047.52,842.96 1062.06,860.147" style="fill:none;stroke:#fff;stroke-width:4px;"/>
            <path d="M1012.78,804.617C1013.27,804.677 1011.74,804.649 1011.57,804.801" style="fill:none;stroke:#fff;stroke-width:4px;"/>
            <path d="M1011.54,802.403C1011.6,802.429 1009.61,802.024 1008.85,802.205C1006.8,802.697 1004.41,803.078 1002.16,803.619C995.5,805.216 988.423,806.531 981.783,808.124C978.829,808.833 972.674,806.678 972.674,806.678C972.674,806.678 978.221,805.177 978.358,802.831C978.502,800.372 974.285,800.631 972.78,799.965C971.097,799.22 974.267,797.573 972.378,797.004C971.195,796.647 971.141,795.581 972.48,795.259C974.793,794.705 1001.19,792.127 1003.68,792.362" style="fill:none;stroke:#fff;stroke-width:4px;"/>
            <path d="M1022.48,813.042C1021.61,813.413 1009.65,813.775 1004.87,816.153C1002.73,817.223 989.506,824.715 987.556,822.409C987.306,822.114 991.316,820.237 991.423,820.144C991.749,819.86 987.462,819.088 987.525,818.021C987.59,816.905 989.063,816.278 989.208,813.796C989.399,810.538 999.723,803.389 1002.73,803.673" style="fill:none;stroke:#fff;stroke-width:4px;"/>
            <path d="M1077.63,852.402C1078.95,854.615 1081.36,853.886 1079.97,858.333C1079.05,861.317 1079.81,867.449 1076.47,869.11C1070.69,871.988 1055.3,862.725 1062.26,856.658" style="fill:none;stroke:#fff;stroke-width:4px;"/>
            <path d="M1051.62,850.871C1053.9,855.269 1048.41,867.473 1048.1,872.859C1047.76,878.63 1048.33,895.381 1050.8,900.301C1051.67,902.023 1058.8,910.98 1060.82,905.924C1063.15,900.051 1050.6,868.471 1059.13,861.039" style="fill:none;stroke:#fff;stroke-width:4px;"/>
            <path d="M1061.97,865.173C1062.19,865.014 1061.11,865.056 1061.18,865.326C1061.88,868.021 1061.46,871.541 1061.51,874.419C1061.6,879.952 1062.53,893.657 1066.16,897.953C1066.78,898.677 1068.88,895.666 1068.92,894.998C1069.02,893.288 1068.75,891.441 1068.66,889.711C1068.47,886.006 1064.54,872.329 1066.92,870.254" style="fill:none;stroke:#fff;stroke-width:4px;"/>
            <path d="M1075.21,838.44C1074.66,837.597 1086.62,838.947 1087.42,839.158C1095.94,841.434 1103.8,844.007 1111.58,848.459C1127.92,857.816 1156.22,906.116 1143.93,924.014C1140.04,929.685 1130.05,937.64 1124.26,941.155C1121.42,942.874 1118.28,945.281 1118.27,945.266C1115.34,941.796 1117.78,934.115 1116.6,929.615C1112.33,913.25 1107.94,897.555 1102.45,881.797C1099.66,873.81 1078.08,864.171 1074.7,860.172" style="fill:none;stroke:#fff;stroke-width:4px;"/>
            <path d="M1003.18,763.524C1002.81,763.952 1004.07,763.969 1003.66,765.597C1002.91,768.529 999.283,767.745 999.089,764.864C998.973,763.15 1002.46,762.922 1003.19,764.203" style="fill:none;stroke:#fff;stroke-width:4px;"/>
            <path d="M1007.6,760.79C1007.59,759.503 999.486,761.221 998.446,760.912" style="fill:none;stroke:#fff;stroke-width:4px;"/>
        </g>
        <g>
            <path d="M455.92,608.683C456.2,608.285 456.884,608.99 457.228,609.334C461.277,613.383 464.614,617.464 468.052,621.761C468.432,622.237 469.655,623.545 469.655,624.167" style="fill:none;stroke:#fff;stroke-width:4px;"/>
            <path d="M468.453,601.205C468.455,602.094 478.41,612.076 479.677,613.343" style="fill:none;stroke:#fff;stroke-width:4px;"/>
            <path d="M468.453,622.488C468.453,622.707 455.412,633.174 459.233,636.995C459.551,637.313 469.417,633.936 470.457,633.788C473.139,633.404 488.537,633.767 489.298,633.387C489.692,633.19 489.846,616.576 490.1,614.546C490.496,611.38 495.769,604.341 489.298,606.929C485.265,608.542 482.629,612.396 479.677,615.347" style="fill:none;stroke:#fff;stroke-width:4px;"/>
        </g>
        <g>
            <path d="M991.053,740.17C990.901,740.633 990.041,740.157 989.612,739.928C984.56,737.233 980.18,734.301 975.639,731.19C975.137,730.846 973.586,729.951 973.405,729.355" style="fill:none;stroke:#fff;stroke-width:4px;"/>
            <path d="M981.24,750.973C980.979,750.123 968.549,743.471 966.968,742.628" style="fill:none;stroke:#fff;stroke-width:4px;"/>
            <path d="M975.045,730.611C974.98,730.402 984.409,716.592 979.642,714.049C979.245,713.837 970.79,719.94 969.838,720.385C967.383,721.532 952.547,725.667 951.929,726.252C951.609,726.556 956.298,742.495 956.646,744.511C957.189,747.654 954.193,755.924 959.631,751.564C963.019,748.847 964.42,744.393 966.384,740.71" style="fill:none;stroke:#fff;stroke-width:4px;"/>
        </g>
        <g>
            <path d="M598.748,548.984C598.953,549.236 600.086,542.232 600.558,538.929C600.898,536.543 604.634,513.359 606.276,512.539C606.799,512.277 607.928,513.666 608.035,513.858C611.905,520.824 616.149,540.886 620.351,545.087C620.778,545.515 620.791,543.932 620.791,543.328" style="fill:none;stroke:#fff;stroke-width:4px;"/>
            <path d="M614.935,531.218C615.661,530.128 603.676,532.312 600.997,533.651" style="fill:none;stroke:#fff;stroke-width:4px;"/>
            <path d="M633.35,512.59C634.236,512.357 634.426,513.076 634.426,513.858C634.426,522.218 633.492,531.13 634.866,539.369" style="fill:none;stroke:#fff;stroke-width:4px;"/>
            <path d="M633.992,524.233C633.976,524.733 630.966,526.721 630.467,527.054" style="fill:none;stroke:#fff;stroke-width:4px;"/>
            <path d="M650.756,509.209C650.504,508.357 651.14,516.07 651.14,516.937C651.14,519.774 652.599,539.23 655.978,535.851" style="fill:none;stroke:#fff;stroke-width:4px;"/>
            <path d="M657.343,530.927C656.244,532.987 660.265,525.019 658.177,523.975C653.455,521.614 644.883,528.373 639.704,528.373" style="fill:none;stroke:#fff;stroke-width:4px;"/>
            <path d="M670.101,530.871C669.978,531.235 668.69,531.012 668.294,531.012" style="fill:none;stroke:#fff;stroke-width:4px;"/>
            <path d="M675.165,525.106C675.61,525.61 675.463,523.755 675.331,523.095C674.664,519.76 668.945,519.552 666.534,520.456C662.471,521.98 660.194,529.327 662.136,533.211C665.76,540.46 672.252,533.141 672.252,528.373C672.252,527.836 672.082,527.359 672.692,527.054C675.216,525.792 680.34,532.484 683.249,533.211" style="fill:none;stroke:#fff;stroke-width:4px;"/>
            <path d="M693.692,524.938C693.799,524.859 681.485,525.277 683.688,534.091C684.502,537.346 692.756,533.296 693.805,532.772" style="fill:none;stroke:#fff;stroke-width:4px;"/>
            <path d="M695.552,511.538C695.719,513.144 703.057,527.493 705.681,527.493" style="fill:none;stroke:#fff;stroke-width:4px;"/>
            <path d="M706.915,519.699C707.227,519.251 706.797,520.828 707,521.336C708.362,524.739 712.966,526.174 716.237,526.174" style="fill:none;stroke:#fff;stroke-width:4px;"/>
            <path d="M704.062,518.008C703.955,517.862 706.036,517.771 706.56,517.377C708.57,515.87 710.49,514.328 712.278,512.539" style="fill:none;stroke:#fff;stroke-width:4px;"/>
            <path d="M743.601,507.796C743.604,507.657 744.134,508.636 744.157,508.681C744.522,509.411 744.543,510.291 744.897,511.086C745.765,513.04 746.81,515.65 748.782,516.636C749.544,517.017 750.04,514.055 750.816,513.861C753.298,513.241 757.476,519.701 757.476,513.121L757.476,510.901C757.476,509.463 757.265,508.393 756.921,507.017" style="fill:none;stroke:#fff;stroke-width:4px;"/>
            <path d="M759.697,495.48C759.689,495.815 761.122,498.096 761.361,498.692C762.552,501.67 763.544,504.65 764.32,507.757C764.724,509.373 765.056,510.943 765.43,512.566C765.558,513.12 765.8,514.8 765.8,514.231C765.8,510.008 766.204,506.618 770.98,506.277C777.051,505.843 779.127,512.558 775.049,516.636" style="fill:none;stroke:#fff;stroke-width:4px;"/>
            <path d="M778.173,498.978C778.322,499.573 778.815,497.93 779.119,497.397C779.554,496.637 779.304,495.097 779.304,494.253" style="fill:none;stroke:#fff;stroke-width:4px;"/>
            <path d="M781.995,505.569C782.513,505.369 782.521,506.548 782.819,507.017C784.178,509.153 784.738,512.266 786.518,514.046" style="fill:none;stroke:#fff;stroke-width:4px;"/>
            <path d="M786.747,494.816C786.285,494.73 787.499,495.465 787.628,495.918C787.921,496.941 787.976,498.025 788.183,499.062C788.904,502.666 789.684,505.948 791.328,509.236" style="fill:none;stroke:#fff;stroke-width:4px;"/>
            <path d="M796.864,505.08C796.968,505.761 798.013,504.313 798.542,503.872C800.014,502.646 802.225,496.246 798.358,497.212C795.718,497.872 795.986,502.034 796.878,503.872C798.803,507.842 802.512,509.948 806.867,508.497" style="fill:none;stroke:#fff;stroke-width:4px;"/>
            <path d="M667.074,555.822C661.823,555.898 650.059,558.255 645.09,560.009C642.919,560.775 640.558,562.718 638.195,562.718" style="fill:none;stroke:#fff;stroke-width:4px;"/>
            <path d="M652.986,561.494C652.229,561.149 654.632,561.222 655.433,560.994C656.856,560.587 658.548,560.508 659.865,561.24C663.22,563.104 664.72,567.454 665.036,571.09C665.775,579.581 659.373,587.004 650.261,585.865" style="fill:none;stroke:#fff;stroke-width:4px;"/>
            <path d="M675.131,571.534C675.223,574.805 674.891,576.022 676.856,579.216C681.859,587.346 688.43,577.183 688.43,571.829" style="fill:none;stroke:#fff;stroke-width:4px;"/>
            <path d="M692.179,579.882C691.615,580.617 693.308,578.372 693.601,577.492C693.944,576.464 693.799,574.093 694.586,573.306C694.794,573.098 696.612,576.555 697.787,576.261C699.543,575.822 699.411,572.595 700.25,571.336C700.431,571.065 702.408,575.161 702.466,575.276C703.978,578.3 705.182,580.205 708.13,581.679" style="fill:none;stroke:#fff;stroke-width:4px;"/>
            <path d="M713.642,586.012C712.9,586.786 717.171,587.836 716.748,586.85C714.324,581.194 711.929,576.683 711.085,570.351C710.883,568.839 710.06,564.424 711.577,563.21C715.796,559.835 725.636,569.903 717.487,572.814C715.05,573.684 715.237,573.529 712.808,573.799" style="fill:none;stroke:#fff;stroke-width:4px;"/>
            <path d="M727.667,560.942C727.07,561.312 729.115,560.557 729.553,560.009C730.449,558.889 731.277,554.635 731.277,556.069" style="fill:none;stroke:#fff;stroke-width:4px;"/>
            <path d="M729.587,567.329C728.885,568.738 731.157,573.433 732.262,574.537" style="fill:none;stroke:#fff;stroke-width:4px;"/>
            <path d="M736.765,567.817C736.37,568.216 738.021,567.738 738.418,568.135C738.596,568.313 738.927,570.089 739.157,569.859C741.135,567.881 739.762,560.852 743.343,560.255C747.021,559.642 747.793,567.156 750.731,568.135" style="fill:none;stroke:#fff;stroke-width:4px;"/>
            <path d="M760.929,558.98C760.925,558.982 764.262,556.057 763.536,555.33C761.149,552.944 757.379,556.807 757.379,559.27C757.379,560.624 765.228,559.131 766.49,559.763C766.863,559.949 769.506,561.824 769.692,561.979C777.924,568.839 768.091,573.988 762.304,575.769" style="fill:none;stroke:#fff;stroke-width:4px;"/>
        </g>
        <path d="M599.114,762.846C600.395,763.923 621.538,755.046 625.613,754.141C648.008,749.164 670.642,747.189 693.282,751.434C723.279,757.058 751.566,758.445 781.929,760.231C796.124,761.066 809.652,766.726 823.884,767.674C838.579,768.654 852.398,763.981 867.192,764.968C879.423,765.783 890.422,769.5 903.057,768.351C951.389,763.957 998.912,752.202 1047.19,747.374C1068.01,745.292 1085.97,754.817 1106.06,754.817" style="fill:none;stroke:#fff;stroke-width:4px;"/>
        <path d="M594.01,824.573C590.514,823.585 610.306,820.223 612.079,819.78C625.173,816.506 637.986,812.53 651.327,810.306C688.365,804.133 728.354,802.53 765.688,806.923C801.718,811.161 836.414,826.914 872.606,829.93C887.352,831.159 899.604,824.68 913.884,823.84C940.591,822.269 967.054,820.332 993.733,818.426C1012.83,817.062 1031.35,810.024 1050.58,808.276C1066.48,806.83 1084.7,802.443 1100.65,804.216C1109.88,805.241 1121.85,811.284 1130.42,805.569" style="fill:none;stroke:#fff;stroke-width:4px;"/>
        <path d="M748.267,844.279C747.558,845.722 751.361,851.945 751.796,854.121C752.016,855.221 753.363,857.457 752.241,857.457C751.263,857.457 749.29,852 748.905,851.231C745.832,845.084 744.531,836.242 754.465,839.222C758.223,840.35 758.352,843.94 755.354,846.338C755.127,846.52 752.943,847.298 753.131,847.673C754.296,850.004 768.539,850.739 761.136,856.123C760.54,856.556 758.884,857.628 758.245,857.902C756.688,858.569 755.005,858.569 753.353,858.569" style="fill:none;stroke:#fff;stroke-width:4px;"/>
        <path d="M768.208,850.052C769.168,851.5 775.524,863.292 778.481,855.9C778.829,855.03 779.228,854.159 779.37,853.232C779.517,852.279 779.37,851.305 779.37,850.341" style="fill:none;stroke:#fff;stroke-width:4px;"/>
        <path d="M784.462,840.363C784.792,839.957 785.994,845.901 786.042,846.116C786.668,848.936 788.224,859.518 792.046,860.125C794.613,860.533 796.283,853.859 793.602,852.787C789.853,851.288 785.593,853.855 782.039,854.566" style="fill:none;stroke:#fff;stroke-width:4px;"/>
        <path d="M814.855,840.278C816.1,841.022 817.506,848.262 818.73,852.342C818.85,852.74 819.541,857.235 820.287,857.235C820.79,857.235 819.877,854.841 819.842,854.788C818.736,853.129 812.319,848.69 810.947,852.12C807.751,860.112 820.625,867.338 823.4,859.014" style="fill:none;stroke:#fff;stroke-width:4px;"/>
        <path d="M832.058,856.351C832.736,856.064 831.967,854.181 831.628,853.899C828.876,851.605 825.102,851.843 824.512,855.678C824.399,856.41 824.622,858.972 824.734,859.458C826.123,865.474 832.279,860.054 833.407,857.235" style="fill:none;stroke:#fff;stroke-width:4px;"/>
        <path d="M837.268,856.849C836.28,856.119 837.703,852.939 838.299,852.342C839.773,850.868 841.781,851.399 843.414,852.565C846.785,854.973 844.738,859.894 846.972,862.127" style="fill:none;stroke:#fff;stroke-width:4px;"/>
        <path d="M850.435,840.51C851.161,840.869 850.391,845.088 851.419,846.116" style="fill:none;stroke:#fff;stroke-width:4px;"/>
        <path d="M859.915,845.106C859.835,844.928 859.869,846.648 859.869,846.783C859.869,848.312 860.219,849.708 860.314,851.231C860.54,854.851 860.996,858.186 861.871,861.682" style="fill:none;stroke:#fff;stroke-width:4px;"/>
        <path d="M866.073,856.555C866.848,856.982 864.941,855.043 864.094,854.788C861.794,854.098 859.059,854.627 856.756,855.011" style="fill:none;stroke:#fff;stroke-width:4px;"/>
        <path d="M806.08,885.235C805.798,880.915 795.119,884.65 797.178,889.797C797.612,890.882 799.352,890.338 800.069,890.019C802.566,888.91 805.45,886.305 807.63,889.575C810.981,894.601 805.678,900.624 800.292,898.47" style="fill:none;stroke:#fff;stroke-width:4px;"/>
        <path d="M814.232,883.288C815.048,883.996 816.757,881.583 816.08,880.68C813.523,877.271 810.914,883.62 810.743,884.905C809.951,890.844 816.293,892.692 820.75,890.464" style="fill:none;stroke:#fff;stroke-width:4px;"/>
        <path d="M825.576,872.365C827.211,874.513 826.531,883.79 827.421,887.573C827.745,888.951 827.915,890.851 829.422,891.354" style="fill:none;stroke:#fff;stroke-width:4px;"/>
        <path d="M831.491,887.884C831.233,887.544 831.726,885.8 831.49,885.094C830.471,882.037 825.674,882.459 823.196,882.459" style="fill:none;stroke:#fff;stroke-width:4px;"/>
        <path d="M855.904,874.872C855.111,875.917 855.662,886.056 855.662,887.796C855.662,887.997 855.331,892.021 856.107,892.021C857.282,892.021 857.117,883.15 859.22,883.571C862.162,884.159 862.147,890.687 865.891,890.687" style="fill:none;stroke:#fff;stroke-width:4px;"/>
        <path d="M868.366,876.196C868.339,876.23 868.991,875.798 869.005,875.788C869.801,875.191 870.415,874.676 871.451,874.676" style="fill:none;stroke:#fff;stroke-width:4px;"/>
        <path d="M871.632,885.439C871.968,884.71 871.864,887.035 872.118,887.796C872.427,888.722 873.502,892.774 875.009,892.021" style="fill:none;stroke:#fff;stroke-width:4px;"/>
        <path d="M883.235,871.923C883.338,878.529 881.063,886.784 884.126,892.91" style="fill:none;stroke:#fff;stroke-width:4px;"/>
        <path d="M887.481,886.531C886.527,883.122 883.991,883.571 880.79,883.571" style="fill:none;stroke:#fff;stroke-width:4px;"/>
        <path d="M893.015,868.42C893.828,872.689 892.303,877.466 894.355,881.569" style="fill:none;stroke:#fff;stroke-width:4px;"/>
        <path d="M896.426,892.655C896.144,892.787 896.579,893.266 896.579,893.577" style="fill:none;stroke:#fff;stroke-width:4px;"/>
        <path d="M577.294,533.495C577.284,533.468 568.781,547.474 568.058,548.855C563.562,557.437 559.915,566.323 556.607,575.42" style="fill:none;stroke:#fff;stroke-width:4px;"/>
        <path d="M550.791,544.045C550.518,543.595 552.384,545.09 552.943,545.649C554.696,547.402 555.77,549.532 557.065,551.604C561.371,558.494 567.225,564.221 569.89,572.214" style="fill:none;stroke:#fff;stroke-width:4px;"/>
        <path d="M576.76,555.691C576.763,556.318 575.51,555.035 574.928,555.268C565.347,559.1 556.657,566.239 546.989,570.382" style="fill:none;stroke:#fff;stroke-width:4px;"/>
        <path d="M558.135,535.745C557.167,534.658 560.661,541.515 561.645,546.107C563.608,555.266 563.718,565.149 566.684,574.046" style="fill:none;stroke:#fff;stroke-width:4px;"/>
        <g>
            <path d="M224.314,742.474C227.481,743.004 224.252,769.884 225.429,773.299" style="fill:none;stroke:#fff;stroke-width:4px;"/>
            <path d="M240.309,730.502C241.784,730.175 238.013,732.481 236.741,733.297C235.034,734.393 232.933,735.553 230.952,736.139C223.644,738.298 215.98,738.667 208.494,737.675" style="fill:none;stroke:#fff;stroke-width:4px;"/>
            <path d="M245.896,762.615C245.516,761.958 246.922,761.193 246.675,760.475C244.593,754.437 230.063,758.724 237.382,767.063C244.975,775.716 246.073,760.936 247.009,760.219C247.214,760.062 249.012,764.139 249.16,764.413C250.459,766.806 251.618,769.205 253.028,771.541" style="fill:none;stroke:#fff;stroke-width:4px;"/>
            <path d="M261.355,783.652C261.257,784.163 261.985,785.127 262.397,784.811C263.042,784.317 260.236,777.742 260.125,776.992C259.515,772.859 258.45,763.06 260.957,759.359C263.293,755.91 273.625,762.397 266.458,765.501" style="fill:none;stroke:#fff;stroke-width:4px;"/>
            <path d="M311.339,765.909C311.034,766.136 306.76,761.497 304.362,765.409C302.226,768.895 303.841,773.656 306.874,775.966C310.053,778.387 311.591,772.972 312.051,770.938C312.358,769.577 312.046,765.732 312.894,766.839C315.744,770.559 315.126,774.381 319.956,777.097" style="fill:none;stroke:#fff;stroke-width:4px;"/>
            <path d="M326.617,775.656C327.68,775.23 324.021,777.55 323.324,776.641C321.867,774.738 323.777,768.668 326.233,768.305C330.769,767.635 333.069,775.477 334.516,778.424" style="fill:none;stroke:#fff;stroke-width:4px;"/>
            <path d="M338.595,772.665C338.473,772.334 338.848,773.333 339.063,773.613C339.885,774.687 340.979,775.608 342.413,775.56C343.164,775.535 347.175,771.03 347.216,771.084C347.665,771.67 345.983,774.436 345.821,774.809C344.205,778.528 342.288,785.482 338.957,788.034" style="fill:none;stroke:#fff;stroke-width:4px;"/>
            <path d="M355.289,772.962C355.604,773.346 353.75,777.442 355.813,778.839C357.244,779.808 358.685,777.23 359.968,776.983C360.993,776.786 361.255,779.68 362.728,778.852C364.29,777.974 366.03,775.165 367.018,773.707" style="fill:none;stroke:#fff;stroke-width:4px;"/>
            <path d="M371.95,761.751C371.933,761.739 371.754,762.924 371.208,767.044C370.912,769.282 368.968,778.409 371.298,779.987C372.668,780.915 372.271,773.678 376.967,773.52C379.248,773.444 381.263,779.517 383.216,778.558C385.159,777.605 394.276,768.896 388.211,768.093C385.003,767.668 385.186,775.683 385.776,777.394C387.916,783.6 394.653,781.349 399.036,779.451" style="fill:none;stroke:#fff;stroke-width:4px;"/>
            <path d="M402.815,778.82C402.589,778.575 403.079,780.455 402.8,780.551C402.593,780.622 400.82,780.347 400.731,780.277C399.663,779.426 398.512,773.076 399.976,772.358C402.658,771.041 406.267,778.269 409.929,776.683C412.674,775.494 412.166,770.429 408.938,770.537C404.645,770.681 405.766,788.405 416.495,783.868" style="fill:none;stroke:#fff;stroke-width:4px;"/>
            <path d="M460.731,770.685C459.087,772.06 459.955,792.309 460.339,795.689" style="fill:none;stroke:#fff;stroke-width:4px;"/>
            <path d="M468.615,786.616C469.704,786.35 468.815,784.287 467.894,784.059C463.002,782.85 458.09,784.264 453.217,783.619" style="fill:none;stroke:#fff;stroke-width:4px;"/>
            <path d="M479.814,789.018C481.818,786.979 470.018,777.119 466.299,784.75C462.305,792.947 474.551,799.076 477.829,790.788" style="fill:none;stroke:#fff;stroke-width:4px;"/>
            <path d="M527.296,785.946C525.271,784.998 511.758,784.492 513.33,790.678C514.611,795.719 536.557,803.952 517.757,807.203C515.42,807.607 513.734,807.356 511.512,806.677" style="fill:none;stroke:#fff;stroke-width:4px;"/>
            <path d="M534.556,783.088C534.388,782.686 534.935,784.211 534.936,784.217C535.068,786.232 534.337,788.737 534.075,790.719C533.33,796.339 531.151,804.329 533.047,809.83" style="fill:none;stroke:#fff;stroke-width:4px;"/>
            <path d="M540.086,800.904C535.694,798.114 532.128,797.378 526.377,796.616" style="fill:none;stroke:#fff;stroke-width:4px;"/>
            <path d="M548.408,802.442C548.693,803.203 548.484,800.6 547.873,800.065C546.648,798.991 544.057,798.031 542.415,798.139C538.523,798.395 536.454,805.164 538.385,808.131C539.956,810.545 544.047,810.153 545.397,807.751C546.301,806.144 546.523,804.658 547.186,802.981C547.373,802.51 547.369,801.14 547.678,801.542C549.18,803.504 548.379,806.225 550.698,808.258" style="fill:none;stroke:#fff;stroke-width:4px;"/>
            <path d="M557.834,808.543C558.2,809.202 556.377,807.642 556.292,806.893C556.076,804.999 556.284,802.738 557.074,800.983C558.832,797.079 562.441,796.882 566.271,797.389" style="fill:none;stroke:#fff;stroke-width:4px;"/>
            <path d="M574.904,785.485C574.128,785.977 574.473,791.926 574.404,792.752C573.837,799.471 570.603,809.136 572.868,815.705" style="fill:none;stroke:#fff;stroke-width:4px;"/>
            <path d="M579.582,800.716C580.617,800.151 577.593,802.091 576.441,802.345C573.407,803.014 570.099,803.61 567.005,803.2" style="fill:none;stroke:#fff;stroke-width:4px;"/>
            <path d="M592.454,776.58C593.046,775.444 592.618,779.142 592.577,780.423C592.513,782.421 592.414,784.397 592.385,786.412C592.297,792.411 590.528,798.26 590.923,804.262" style="fill:none;stroke:#fff;stroke-width:4px;"/>
            <path d="M589.952,814.749C589.537,814.335 591.477,813.501 590.931,813.285C588.315,812.251 585.079,818.126 586.445,819.909C588.455,822.533 593.572,815.74 588.588,815.08" style="fill:none;stroke:#fff;stroke-width:4px;"/>
        </g>
    </g>
</svg>
