<?xml version="1.0" encoding="UTF-8" standalone="no"?>
<!DOCTYPE svg PUBLIC "-//W3C//DTD SVG 1.1//EN" "http://www.w3.org/Graphics/SVG/1.1/DTD/svg11.dtd">
<svg width="100%" height="100%" viewBox="0 0 600 600" version="1.1" xmlns="http://www.w3.org/2000/svg" xmlns:xlink="http://www.w3.org/1999/xlink" xml:space="preserve" xmlns:serif="http://www.serif.com/" style="fill-rule:evenodd;clip-rule:evenodd;stroke-linecap:round;stroke-linejoin:round;stroke-miterlimit:1.5;">
    <rect id="jump" x="0" y="0" width="600" height="600" style="fill:none;"/>
    <clipPath id="_clip1">
        <rect x="0" y="0" width="600" height="600"/>
    </clipPath>
    <g clip-path="url(#_clip1)">
        <rect x="0" y="0" width="600" height="600"/>
        <g>
            <path d="M437.595,420.2C427.15,397.043 414.573,376.415 396.434,358.464C381.266,343.451 365.468,338.796 356.009,318.415C346.972,298.946 367.262,298.693 361.111,277.877C356.134,261.031 344.24,248.125 336.631,232.652C327.986,215.07 322.193,158.478 355.714,195.434C373.552,215.099 374.531,246.979 387.626,269.725C388.928,271.987 387.09,264.531 386.808,261.936C386.257,256.854 385.755,247.981 392.602,247.014C397.738,246.288 403.187,249.377 406.947,252.634C409.006,254.418 412.856,261.253 412.598,258.541C411.772,249.872 402.422,227.768 418.48,227.381C427.027,227.174 433.632,236.903 437.142,243.434C438.294,245.58 439.386,247.747 440.449,249.939C440.986,251.046 441.823,254.525 441.972,253.303C442.967,245.121 429.466,207.527 460.163,221.774C473.606,228.012 473.11,254.804 472.493,267.215C470.489,307.59 475.851,340.967 487.498,379.308" style="fill:none;stroke:#fff;stroke-width:4px;"/>
            <path d="M281.505,184.794C291.873,183.974 302.318,183.664 312.716,183.467" style="fill:none;stroke:#fff;stroke-width:4px;"/>
            <path d="M296.416,147.548C304.418,152.864 310.936,160.049 317.562,166.939" style="fill:none;stroke:#fff;stroke-width:4px;"/>
            <path d="M335.767,128.585C334.659,139.837 335.358,153.184 336.155,164.534" style="fill:none;stroke:#fff;stroke-width:4px;"/>
            <path d="M373.413,147.7C368.156,155.022 362.833,162.733 358.275,170.519" style="fill:none;stroke:#fff;stroke-width:4px;"/>
            <path d="M390.352,189.014C384.378,189.976 378.45,191.197 372.462,192.086" style="fill:none;stroke:#fff;stroke-width:4px;"/>
            <path d="M285.975,227.786C292.957,221.297 301.292,214.832 309.643,210.221" style="fill:none;stroke:#fff;stroke-width:4px;"/>
        </g>
        <g>
            <path d="M192.641,274.937C192.87,275.059 192.603,275.464 192.504,275.704C191.599,277.881 184.963,281.633 183.201,283.536C178.566,288.545 171.953,303.001 166.037,305.445" style="fill:none;stroke:#fff;stroke-width:4px;"/>
            <path d="M202.664,282.03C202.098,281.553 203.198,282.276 203.342,282.624C204.544,285.534 201.285,285.467 199.161,284.921C190.743,282.756 181.356,276.637 173.591,272.689" style="fill:none;stroke:#fff;stroke-width:4px;"/>
            <path d="M193.781,313.86C195.28,313.701 193.765,307.955 192.855,306.904C185.466,298.368 176.556,309.888 175.362,316.981C173.942,325.411 183.222,324.009 188.031,321.435C189.941,320.413 191.658,318.697 193.068,317.074C193.84,316.185 194.936,313.319 195.386,314.407C197.22,318.848 191.323,326.645 193.63,332.23" style="fill:none;stroke:#fff;stroke-width:4px;"/>
            <path d="M194.659,349.797C195.401,353.003 196.786,343.55 198.224,340.59C200.372,336.171 207.125,318.322 213.727,318.798C218.429,319.136 220.891,342.734 207.124,331.784C205.379,330.396 204.857,329.321 203.652,327.519" style="fill:none;stroke:#fff;stroke-width:4px;"/>
            <path d="M254.666,332.482C258.643,337.55 240.096,350.897 242.623,357.012" style="fill:none;stroke:#fff;stroke-width:4px;"/>
            <path d="M259.702,346.849C259.524,347.561 259.879,346.359 259.714,345.962C258.082,342.01 249.769,342.638 246.358,341.221" style="fill:none;stroke:#fff;stroke-width:4px;"/>
            <path d="M298.848,341.329C297.978,339.71 297.694,344.822 296.989,346.52C295.634,349.785 294.075,352.753 292.302,355.865C289.462,360.848 277.488,376.568 279.985,382.611" style="fill:none;stroke:#fff;stroke-width:4px;"/>
            <path d="M315.871,356.62C315.884,356.334 317.937,357.255 316.316,360.192C314.383,363.694 312.24,367.072 310.369,370.628C305.902,379.12 298.31,388.012 294.813,396.431" style="fill:none;stroke:#fff;stroke-width:4px;"/>
            <path d="M308.508,381.176C303.491,377.129 295.862,370.817 290.165,365.867" style="fill:none;stroke:#fff;stroke-width:4px;"/>
            <path d="M320.056,391.96C320.673,390.535 324.799,393.046 324.69,391.497C323.666,376.899 307.107,380.209 305.238,392.695C303.172,406.487 322.665,406.5 323.547,394.249" style="fill:none;stroke:#fff;stroke-width:4px;"/>
            <path d="M358.18,369.709C358.338,369.623 357.214,372.605 356.958,373.037C354.989,376.355 352.913,379.692 350.809,382.986C347.061,388.856 333.529,408.753 336.609,416.208" style="fill:none;stroke:#fff;stroke-width:4px;"/>
            <path d="M382.511,385.698C383.886,386.062 381.694,388.718 381.502,389.683C379.268,400.921 367.09,409.732 364.836,421.074C364.832,421.091 363.783,414.196 360.041,412.227C354.945,409.547 349.933,410.953 346.78,415.996C338.327,429.515 356.961,435.18 361.259,424.832" style="fill:none;stroke:#fff;stroke-width:4px;"/>
            <path d="M328.129,435.411C328.118,435.862 330.625,435.35 330.959,435.64C333.672,437.998 333.158,441.588 337.786,442.508C338.104,442.571 340.169,442.598 340.421,441.989C341.941,438.331 324.354,430.066 322.471,428.889C308.849,420.372 277.32,396.353 261.835,395.238" style="fill:none;stroke:#fff;stroke-width:4px;"/>
            <path d="M322.072,441.922C322.859,442.806 310.282,436.016 308.353,434.721C300.237,429.275 292.415,423.55 284.009,418.562" style="fill:none;stroke:#fff;stroke-width:4px;"/>
            <path d="M321.296,455.595C321.995,455.289 320.996,457.717 319.954,457.284C316.783,455.967 313.383,453.827 310.407,452.11C301.453,446.943 293.21,440.935 283.63,436.956" style="fill:none;stroke:#fff;stroke-width:4px;"/>
            <path d="M126.479,347.853C126.493,347.864 123.016,353.002 122.659,353.572C117.612,361.644 112.531,370.257 106.299,377.428" style="fill:none;stroke:#fff;stroke-width:4px;"/>
            <path d="M122.016,367.349C123.61,368.99 119.713,363.32 118.056,361.743C113.884,357.771 108.847,353.482 103.461,351.245" style="fill:none;stroke:#fff;stroke-width:4px;"/>
            <path d="M126.326,381.434C126.294,381.79 127.492,381.492 127.964,381.586C134.841,382.953 126.449,373.061 122.968,372.252C117.704,371.028 112.06,376.042 111.919,381.376C111.639,391.985 127.611,387.884 132.494,384.274" style="fill:none;stroke:#fff;stroke-width:4px;"/>
            <path d="M190.998,393.881C191.207,393.466 191.029,393.661 191.783,393.974" style="fill:none;stroke:#fff;stroke-width:4px;"/>
            <path d="M182.83,406.622C182.89,423.989 157.856,436.006 149.578,415.97" style="fill:none;stroke:#fff;stroke-width:4px;"/>
            <path d="M184.483,424.878C184.721,424.857 185.649,427.079 185.605,427.302C183.781,436.479 184.709,443.569 195.3,436.974C198.492,434.987 198.074,435.218 200.338,432.613" style="fill:none;stroke:#fff;stroke-width:4px;"/>
            <path d="M197.049,444.128C198.597,445.182 194.656,449.209 194.656,449.209C194.656,449.209 196.279,448.538 197.09,448.203C200.921,446.621 204.182,443.826 207.281,441.143C208.635,439.971 211.876,436.372 211.747,438.158C211.66,439.374 208.102,444.333 209.578,445.323C213.138,447.712 218.501,440.156 221.664,441.47C221.828,441.538 214.836,455.969 211.263,464.575" style="fill:none;stroke:#fff;stroke-width:4px;"/>
            <path d="M221.47,475.116C218.681,477.785 217.828,487.508 213.984,489.096C212.804,489.584 212.899,486.853 217.55,475.655C220.056,469.62 226.242,455.008 234.429,454.434C239.475,454.08 242.879,468.428 232.059,461.112C231.331,460.62 230.549,460.216 229.794,459.768" style="fill:none;stroke:#fff;stroke-width:4px;"/>
            <path d="M282.698,481.053C281.071,483.823 278.178,475.265 274.965,475.301C268.603,475.373 261.84,487.642 265.188,493.019C269.095,499.294 285.031,483.111 285.031,483.111C285.031,483.111 284.269,484.945 283.888,485.863C281.984,490.447 277.347,505.731 284.144,508.553" style="fill:none;stroke:#fff;stroke-width:4px;"/>
            <path d="M312.93,478.988C313.091,478.952 312.582,479.057 312.473,479.182C310.072,481.946 307.951,485.438 306.124,488.644C302.853,494.384 299.936,501.012 296.346,506.362" style="fill:none;stroke:#fff;stroke-width:4px;"/>
            <path d="M313.923,492.906C314.23,492.644 313.643,491.476 313.49,491.3C310.344,487.666 299.499,488.313 294.948,486.423" style="fill:none;stroke:#fff;stroke-width:4px;"/>
            <path d="M333.523,483.542C334.281,483.535 332.547,484.702 332.106,485.319C330.006,488.258 327.567,490.712 325.154,493.32C319.785,499.123 313.968,506.658 310.91,514.023" style="fill:none;stroke:#fff;stroke-width:4px;"/>
            <path d="M330.717,499.57C324.482,502.185 318.908,497.583 313.438,495.311" style="fill:none;stroke:#fff;stroke-width:4px;"/>
            <path d="M332.61,511.456C332.557,511.015 340.05,504.236 333.071,501.448C327.946,499.401 320.504,508.948 323.716,513.292C326.784,517.441 337.398,506.192 339.411,508.517C341.74,511.207 336.598,518.262 338.195,522.128" style="fill:none;stroke:#fff;stroke-width:4px;"/>
            <path d="M355.917,517.838C355.818,517.769 354.055,513.542 351.593,513.173C343.068,511.896 338.509,531.686 349.403,527.186" style="fill:none;stroke:#fff;stroke-width:4px;"/>
            <path d="M370.565,501.963C366.707,502.711 356.896,536.333 354.749,541.505" style="fill:none;stroke:#fff;stroke-width:4px;"/>
            <path d="M362.259,521.323C362.449,521.204 368.398,535.918 369.386,538.307" style="fill:none;stroke:#fff;stroke-width:4px;"/>
            <path d="M361.042,527.329C360.878,527.712 365.198,526.651 371.289,524.982C377.99,523.147 381.87,520.67 387.037,516.197" style="fill:none;stroke:#fff;stroke-width:4px;"/>
        </g>
        <path d="M21.964,541.114C22.442,543.093 22.19,537.002 22.834,535.071C23.962,531.687 23.628,524.111 23.628,520.773L23.628,483.44C23.628,444.697 22.834,406.934 22.834,368.263C22.834,313.065 17.06,260.847 12.507,206.221C11.09,189.217 13.326,172.238 10.919,155.384C7.636,132.401 15.947,100.854 20.451,78.334C23.83,61.436 20.451,42.513 20.451,25.114" style="fill:none;stroke:#fff;stroke-width:4px;"/>
        <path d="M25.049,27.87C24.908,27.983 27.79,27.033 29.997,27.474C35.059,28.487 39.656,27.094 44.758,26.456C58.541,24.733 72.5,21.875 86.496,21.875C103.434,21.875 120.04,26.483 136.888,27.474C160.144,28.842 183.328,28.492 206.621,28.492C230.466,28.492 255.544,29.065 279.408,27.474C298.789,26.182 317.027,21.214 336.925,22.384C365.234,24.05 392.643,30.68 420.91,32.564C440.814,33.891 458.564,27.945 477.918,26.456C492.316,25.349 507.811,25.017 522.201,26.456C531.893,27.426 544.393,32.157 553.759,27.474" style="fill:none;stroke:#fff;stroke-width:4px;"/>
    </g>
</svg>
