<?xml version="1.0" encoding="UTF-8" standalone="no"?>
<!DOCTYPE svg PUBLIC "-//W3C//DTD SVG 1.1//EN" "http://www.w3.org/Graphics/SVG/1.1/DTD/svg11.dtd">
<svg width="100%" height="100%" viewBox="0 0 600 600" version="1.1" xmlns="http://www.w3.org/2000/svg" xmlns:xlink="http://www.w3.org/1999/xlink" xml:space="preserve" xmlns:serif="http://www.serif.com/" style="fill-rule:evenodd;clip-rule:evenodd;stroke-linecap:round;stroke-linejoin:round;stroke-miterlimit:1.5;">
    <rect id="movement" x="0" y="0" width="600" height="600" style="fill:none;"/>
    <clipPath id="_clip1">
        <rect x="0" y="0" width="600" height="600"/>
    </clipPath>
    <g clip-path="url(#_clip1)">
        <rect x="0" y="0" width="600" height="600"/>
        <path d="M266.017,207.868C250.426,226.779 238.777,248.866 221.302,266.166C187.286,299.843 147.438,324.782 109.691,353.679" style="fill:none;stroke:#fff;stroke-width:4px;"/>
        <path d="M303.492,245.271C280.694,268.663 254.555,289.196 231.17,312.123C208.107,334.736 187.689,359.647 163.581,381.307" style="fill:none;stroke:#fff;stroke-width:4px;"/>
        <path d="M268.145,206.986C261.09,201.981 254.008,196.984 246.707,192.346C246.532,192.234 244.806,191.243 244.84,191.107C245.903,186.901 257.551,182.758 260.968,181.333C277.006,174.647 295.713,171.596 312.769,168.383C319.291,167.155 344.476,158.147 348.506,161.155C366.066,174.263 356.044,222.078 352.123,240.161C351.36,243.681 349.572,260.483 346.03,262.291C332.518,269.192 314.971,252.778 304.339,245.503" style="fill:none;stroke:#fff;stroke-width:4px;"/>
        <path d="M413.852,300.264C408.287,295.944 365.911,260.333 370.471,252.68C375.198,244.744 389.822,254.18 395.254,254.376C395.331,254.379 382.148,239.167 383.294,238.001C388.234,232.975 395.2,233.569 401.583,233.933C403.386,234.036 400.049,230.662 399.308,229.014C397.934,225.959 396.007,221.139 397.117,217.733C398.959,212.08 409.709,214.286 413.965,213.065C413.973,213.062 402.337,200.038 400.945,198.716C395.562,193.603 349.051,161.569 360.279,154.299C376.488,143.804 406.609,172 415.754,182.76C417.035,184.267 430.641,200.118 431.205,199.557C438.332,192.461 446.17,194.603 453.429,201.572C472.143,219.535 476.274,245.044 490.309,265.155" style="fill:none;stroke:#fff;stroke-width:4px;"/>
        <path d="M366.249,131.331C367.128,123.947 368.15,116.583 368.712,109.165" style="fill:none;stroke:#fff;stroke-width:4px;"/>
        <path d="M354.215,135.442C348.78,130.145 343.344,124.83 337.369,120.139" style="fill:none;stroke:#fff;stroke-width:4px;"/>
        <path d="M346.109,146.957C340.067,148.24 334.135,150.318 328.239,152.153" style="fill:none;stroke:#fff;stroke-width:4px;"/>
        <path d="M383.127,139.144C386.825,134.37 390.328,129.427 393.854,124.524" style="fill:none;stroke:#fff;stroke-width:4px;"/>
        <path d="M213.698,422.183C213.679,422.124 220.953,429.915 221.819,430.997C224.44,434.274 240.457,456.253 243.578,456.253" style="fill:none;stroke:#fff;stroke-width:4px;"/>
        <path d="M220.904,401.86C222.336,401.813 219.107,404.142 217.934,404.964C215.641,406.569 213.203,407.98 210.939,409.626C204.992,413.952 198.981,420.405 194.231,425.946" style="fill:none;stroke:#fff;stroke-width:4px;"/>
        <path d="M256.413,430.717C255.535,423.1 236.909,425.819 243.967,439.934C245.266,442.532 247.117,445.096 249.407,446.928C262.582,457.468 257.247,430.54 257.566,430.22C259.243,428.543 271.783,439.545 275.44,439.545" style="fill:none;stroke:#fff;stroke-width:4px;"/>
        <path d="M282.96,436.69C282.88,436.769 291.878,441.37 290.982,442.265C289.722,443.526 283.903,438.231 283.211,437.603C278.526,433.343 261.642,420.123 268.446,411.958C275.712,403.239 284.4,418.248 273.109,420.506" style="fill:none;stroke:#fff;stroke-width:4px;"/>
        <path d="M291.766,392.396C291.673,394.213 295.572,392.105 297.199,392.918C301.508,395.073 304.903,402.244 310.022,402.244" style="fill:none;stroke:#fff;stroke-width:4px;"/>
        <path d="M306.321,388.222C306.203,388.244 306.778,392.361 305.359,393.307C301.911,395.606 297.538,397.601 293.702,399.135" style="fill:none;stroke:#fff;stroke-width:4px;"/>
        <path d="M297.26,360.136C296.922,360.937 308.216,370.573 308.856,371.159C309.32,371.584 319.953,380.05 320.124,379.708C320.996,377.965 315.266,374.284 314.296,373.491C308.363,368.637 301.898,364.602 297.199,358.337C296.042,356.793 291.484,350.42 294.479,348.623C302.616,343.741 322.574,348.689 324.398,358.725C325.338,363.893 321.564,371.442 318.57,375.433" style="fill:none;stroke:#fff;stroke-width:4px;"/>
        <path d="M333.179,354.529C333.812,354.214 339.941,358.725 338.386,360.28C335.439,363.228 333.033,350.263 332.947,349.4C332.243,342.362 337.43,340.134 343.438,338.132" style="fill:none;stroke:#fff;stroke-width:4px;"/>
        <path d="M357.418,338.736C357.445,339.344 358.106,338.618 358.203,338.52C359.585,337.138 356.085,335.395 355.094,335.023C352.283,333.969 345.614,333.182 344.215,336.966C342.565,341.428 349.538,352.042 354.706,350.566C360.145,349.012 355.483,339.279 355.483,336.189C355.483,335.8 355.135,335.197 355.483,335.023C358.93,333.3 369.389,338.52 373.745,338.52" style="fill:none;stroke:#fff;stroke-width:4px;"/>
        <path d="M372.299,320.47C371.998,320.964 373.704,319.556 373.357,319.092C372.622,318.113 371.386,317.823 370.248,317.538C367.665,316.892 360.73,317.243 359.757,320.647C358.348,325.577 369.75,335.965 372.968,331.138C375.431,327.444 369.679,318.885 371.414,317.15C372.744,315.82 378.666,321.541 379.574,322.201C388.238,328.502 396.449,336.688 382.682,343.572" style="fill:none;stroke:#fff;stroke-width:4px;"/>
        <path d="M283.328,471.62C281.591,474.232 293.354,488.544 295.645,490.835" style="fill:none;stroke:#fff;stroke-width:4px;"/>
        <path d="M297.118,479.897C298.571,480.937 293.493,479.522 291.76,479.955C287.918,480.916 281.657,486.639 281.657,490.835" style="fill:none;stroke:#fff;stroke-width:4px;"/>
        <path d="M309.365,476.812C308.775,476.984 310.685,475.843 310.41,475.293C310.013,474.499 307.966,474.821 307.302,474.904C298.046,476.061 297.276,485.414 306.525,487.727C313.094,489.369 315.498,476.223 311.187,473.35" style="fill:none;stroke:#fff;stroke-width:4px;"/>
        <path d="M334.935,461.998C334.704,462.425 336.477,463.847 336.832,464.025C337.837,464.527 336.387,457.304 336.055,455.865C335.809,454.8 332.141,443.639 333.335,443.042C334.867,442.276 339.708,447.938 341.106,446.539C343.04,444.606 341.199,436.794 343.438,436.048C348.094,434.496 357.619,455.186 361.7,453.145" style="fill:none;stroke:#fff;stroke-width:4px;"/>
        <path d="M369.566,436.532C369.333,436.298 371.025,437.281 371.025,436.826C371.025,432.647 362.105,430.992 359.369,431.774C352.765,433.661 360.273,445.483 362.866,447.705C370.819,454.523 370.414,429.887 367.528,425.557" style="fill:none;stroke:#fff;stroke-width:4px;"/>
        <path d="M369.156,422.489C367.653,421.66 371.239,425.262 372.58,426.334C374.856,428.156 379.836,431.514 383.071,430.22C389.357,427.706 383.292,414.344 381.516,410.792" style="fill:none;stroke:#fff;stroke-width:4px;"/>
        <path d="M387.222,413.173C393.608,410.587 396.355,396.464 389.676,399.135C386.281,400.494 387.228,405.568 388.122,408.072C392.182,419.44 403.555,423.941 407.938,410.792C408.967,407.707 408.715,407.754 408.715,404.575" style="fill:none;stroke:#fff;stroke-width:4px;"/>
        <path d="M589.822,25.786C588.664,26.178 591.339,44.149 590.253,56.093C587.054,91.286 582.31,124.635 582.31,160.15C582.31,175.861 585.453,192.265 583.898,207.809C582.264,224.153 579.064,241.278 580.721,257.852C582.554,276.187 587.424,294.35 589.459,312.66C591.612,332.046 587.41,353.795 585.487,373.029C584.087,387.032 588.026,401.169 586.281,415.128C579.888,466.274 583.104,517.537 583.104,567.638" style="fill:none;stroke:#fff;stroke-width:4px;"/>
        <path d="M593.151,28.111C592.657,29.178 587.766,26.607 587.133,26.336C578.864,22.792 575.021,21.069 565.407,21.069C544.244,21.069 522.938,22.386 501.546,22.386C477.351,22.386 453.236,22.285 429.127,23.703C405.322,25.103 382.144,31.97 358.024,33.578C343.668,34.535 328.79,32.788 314.572,31.603C282.57,28.936 247.028,31.998 215.159,34.895C172.306,38.791 129.765,32.92 86.779,32.92C72.581,32.92 58.745,31.603 44.644,31.603C38.857,31.603 33.332,33.578 27.526,33.578L23.576,33.578C23.576,33.578 28.65,34.004 30.818,32.92" style="fill:none;stroke:#fff;stroke-width:4px;"/>
    </g>
</svg>
