<?xml version="1.0" encoding="UTF-8" standalone="no"?>
<!DOCTYPE svg PUBLIC "-//W3C//DTD SVG 1.1//EN" "http://www.w3.org/Graphics/SVG/1.1/DTD/svg11.dtd">
<svg width="100%" height="100%" viewBox="0 0 1200 1000" version="1.1" xmlns="http://www.w3.org/2000/svg" xmlns:xlink="http://www.w3.org/1999/xlink" xml:space="preserve" xmlns:serif="http://www.serif.com/" style="fill-rule:evenodd;clip-rule:evenodd;stroke-linecap:round;stroke-linejoin:round;stroke-miterlimit:1.5;">
    <rect id="instructions" x="0" y="0" width="1200" height="1000" style="fill:none;"/>
    <clipPath id="_clip1">
        <rect x="0" y="0" width="1200" height="1000"/>
    </clipPath>
    <g clip-path="url(#_clip1)">
        <rect x="-220.446" y="0" width="1600" height="1000"/>
        <path d="M175.615,32.26C178.76,26.937 202.659,36.774 208.379,25.334C210.443,21.205 180.207,26.096 179.58,26.263C162.097,30.926 134.842,41.875 133.132,64.351C131.867,80.977 170.648,83.381 181.438,90.363C217.829,113.909 205.974,153.566 171.22,167.468C159.453,172.175 147.505,174.438 134.99,175.829" style="fill:none;stroke:#fff;stroke-width:9.15px;"/>
        <path d="M269.481,120.452C269.717,120.045 269.978,119.735 269.691,119.161C255.654,91.086 195.599,130.491 226.029,170.255C251.283,203.255 285.84,154.225 276.194,122.877C275.824,121.673 271.605,107.521 268.762,108.942C266.789,109.929 267.751,118.004 267.833,119.161C269.426,141.457 278.171,185.277 291.987,203.698C299.009,213.062 312.459,174.498 313.353,172.113" style="fill:none;stroke:#fff;stroke-width:9.15px;"/>
        <path d="M328.177,115.392C336.135,125.98 323.865,152.516 333.791,168.397C345.286,186.789 370.302,131.129 371.879,120.09" style="fill:none;stroke:#fff;stroke-width:9.15px;"/>
        <path d="M383.793,53.776C384.89,56.18 390.458,52.13 390.458,49.488" style="fill:none;stroke:#fff;stroke-width:9.15px;"/>
        <path d="M387.24,103.396C398.235,130.49 394.756,159.562 394.756,189.069" style="fill:none;stroke:#fff;stroke-width:9.15px;"/>
        <path d="M413.446,128.562C414.982,127.843 417.206,142.413 417.399,143.315C419.649,153.816 422.283,164.381 423.902,174.9C424.42,178.267 426.31,187.527 423.902,185.119C414.209,175.426 425.652,116.264 435.978,107.084C444.701,99.331 458.834,104.546 468.493,106.155" style="fill:none;stroke:#fff;stroke-width:9.15px;"/>
        <path d="M480.841,148.99C480.623,148.909 481.498,155.005 481.498,156.32C481.498,165.236 480.569,174.231 480.569,183.261C480.569,184.654 478.861,192.219 478.711,191.621C476.102,181.185 477.782,166.126 477.782,155.391C477.782,119.195 481.533,104.928 518.657,117.303" style="fill:none;stroke:#fff;stroke-width:9.15px;"/>
        <path d="M535.847,130.666C537.69,129.237 548.564,138.062 554.888,127.522C562.257,115.239 540.157,107.237 533.521,119.161C515.803,151.001 527.22,191.088 566.035,160.036" style="fill:none;stroke:#fff;stroke-width:9.15px;"/>
        <path d="M577.551,58.694C573.603,59.593 575.848,140.24 584.615,166.539" style="fill:none;stroke:#fff;stroke-width:9.15px;"/>
        <path d="M797.272,59.451C797.498,60.184 797.156,59.167 797.351,58.778C799.111,55.258 787.521,56.605 782.487,56.92C766.089,57.945 747.238,62.411 737.643,76.805C724.868,95.967 706.169,139.483 739.754,149.817C750.904,153.248 769.247,145.65 771.339,133.096C772.739,124.701 743.814,114.746 751.831,120.09C766.905,130.14 804.181,119.872 820.575,118.232" style="fill:none;stroke:#fff;stroke-width:9.15px;"/>
        <path d="M846.727,121.185C845.882,120.183 851.931,116.614 851.232,114.516C844.008,92.845 806.676,136.847 826.149,156.32C842.851,173.022 846.982,124.073 851.232,121.948C852.801,121.164 854.758,125.399 854.948,125.664C860.905,134.005 862.572,151.74 873.527,155.391" style="fill:none;stroke:#fff;stroke-width:9.15px;"/>
        <path d="M886.974,144.545C885.793,143.738 888.348,148.717 888.391,148.888C888.828,150.637 890.954,163.752 893.965,163.752C900.398,163.752 908.438,134.925 909.757,130.309C911.561,123.997 912.447,114.419 912.544,114.516C913.832,115.804 914.843,137.756 921.834,133.096C928.398,128.72 928.667,112.39 931.124,117.303C934.878,124.811 934.744,148.888 946.916,148.888" style="fill:none;stroke:#fff;stroke-width:9.15px;"/>
        <path d="M963.51,132.629C964.54,128.922 970.039,137.264 973.857,137.741C986.177,139.281 997.344,131.987 1005.44,122.877C1021.02,105.354 988.509,97.447 977.573,127.522C961.547,171.593 1001.09,181.11 1027.74,154.462" style="fill:none;stroke:#fff;stroke-width:9.15px;"/>
        <g>
            <path d="M917.837,213.905C917.935,214.825 917.446,212.074 917.501,211.15C917.643,208.743 917.479,206.119 917.937,203.755C918.953,198.513 921.685,193.575 923.188,188.456C923.468,187.506 923.411,184.634 924.224,183.911C924.689,183.498 927.054,189.936 927.178,190.226C929.266,195.098 930.854,199.833 932.457,204.867C933.064,206.774 933.991,209.819 936.251,209.952" style="fill:none;stroke:#fff;stroke-width:4px;"/>
            <path d="M932.235,202.49C933.104,203.055 930.372,201.418 929.337,201.357C926.641,201.198 923.976,201.808 921.387,201.656" style="fill:none;stroke:#fff;stroke-width:4px;"/>
            <path d="M944.803,181.922C944.939,180.865 944.687,184.05 944.624,185.113C944.511,187.024 944.46,188.821 944.548,190.738C944.782,195.812 945.637,200.778 946.737,205.709C947.108,207.373 948.509,204.007 950.682,203.894C955.068,203.667 960.224,206.521 964.227,204.181" style="fill:none;stroke:#fff;stroke-width:4px;"/>
            <path d="M970.205,180.436C970.431,180.858 970.659,184.963 970.859,187.171C971.234,191.334 974.387,198.357 972.777,202.381" style="fill:none;stroke:#fff;stroke-width:4px;"/>
            <path d="M967.95,179.626C971.552,174.129 978.169,177.174 981.719,180.903C982.393,181.61 985.275,184.837 984.209,186.423C982.338,189.205 978.195,189.965 975.253,190.757" style="fill:none;stroke:#fff;stroke-width:4px;"/>
            <path d="M986.544,178.012C986.446,178.193 988.291,178.138 988.53,178.233C989.587,178.656 990.153,179.778 990.419,180.903C991.824,186.833 992.983,198.186 992.622,204.319" style="fill:none;stroke:#fff;stroke-width:4px;"/>
            <path d="M998.332,180.335C1000.07,180.803 1000.06,184.85 1000.32,186.605C1000.8,189.839 1001.93,202.053 1007.07,202.355" style="fill:none;stroke:#fff;stroke-width:4px;"/>
            <path d="M1003.93,193.573C1004.01,193.47 1000.39,192.75 999.958,192.725C997.544,192.582 993.951,193.526 991.678,194.284" style="fill:none;stroke:#fff;stroke-width:4px;"/>
            <path d="M1014.79,198.987C1014.67,198.962 1015.33,199.095 1015.47,198.756C1015.86,197.779 1015.88,196.506 1016.17,195.471C1016.82,193.196 1017.11,190.726 1017.61,188.392C1018.46,184.441 1019.33,180.83 1020.84,177.067C1021.03,176.599 1022.13,172.981 1023.33,173.887C1027.48,177.019 1028.66,186.26 1030,190.913C1030.45,192.45 1032.27,200.283 1032.3,199.748" style="fill:none;stroke:#fff;stroke-width:4px;"/>
            <path d="M1030.49,189.069C1025.93,191.773 1018.51,191.515 1013.35,191.211" style="fill:none;stroke:#fff;stroke-width:4px;"/>
        </g>
        <path d="M176.839,509.836C176.106,510.445 178.166,509.827 178.166,510.91C178.166,522.522 170.783,533.372 169.989,546.07C168.994,561.986 174.6,576.489 172.442,592.677C170.204,609.459 166.459,625.323 167.536,642.554C168.248,653.947 174.65,665.615 176.53,676.896C181.2,704.916 185.926,739.111 183.072,767.657C178.642,811.957 163.448,856.121 163.448,900.936" style="fill:none;stroke:#fff;stroke-width:4px;"/>
        <path d="M59.257,520.676C63.656,526.737 50.574,605.672 49.599,617.373C47.322,644.699 62.218,670.467 60.229,698.322C57.687,733.91 43.168,897.235 55.323,921.544" style="fill:none;stroke:#fff;stroke-width:4px;"/>
        <path d="M184.359,738.655C177.169,721.748 264.274,703.406 281.495,705.559C314.742,709.715 349.235,726.881 379.614,739.901C428.949,761.044 486.424,770.224 539.876,766.884C559.759,765.641 579.498,768.394 598.748,761.978" style="fill:none;stroke:#fff;stroke-width:4px;"/>
        <path d="M173.728,826.668C172.134,821.682 224.733,801.937 235.748,800.935C247.513,799.866 259.907,800.935 271.725,800.935C284.768,800.935 297.191,805.48 310.155,806.659C352.983,810.552 395.42,802.497 441.799,808.294C449.911,809.308 455.923,816.684 463.058,819.742C481.897,827.815 514.618,834.046 535.012,832.007C544.32,831.076 552.467,825.706 561.995,824.648C570.987,823.649 587.273,827.147 594.702,822.195" style="fill:none;stroke:#fff;stroke-width:4px;"/>
        <g>
            <path d="M461.779,722.315C461.8,722.358 456.154,722.232 455.478,722.097C451.452,721.292 448.662,718.611 447.11,714.733C444.825,709.02 445.474,708.188 451.127,705.362C452.999,704.426 454.253,702.795 456.482,702.35C464.008,700.844 476.757,705.079 480.246,712.056C483.504,718.573 483.921,726.66 487.609,732.807C489.789,736.441 499.88,739.294 503.674,739.836C515.289,741.495 525.67,737.603 536.81,736.489C547.221,735.448 557.08,736.22 567.267,737.493C573.344,738.253 586.547,741.983 588.353,749.207C590.144,756.371 579.045,761.685 573.292,762.261C556.798,763.91 540.539,762.261 524.091,762.261C517.89,762.261 511.629,765.65 505.348,764.604C495.183,762.909 483.715,752.424 478.572,743.852C473.877,736.027 469.778,726.783 459.16,726.783" style="fill:none;stroke:#fff;stroke-width:4px;"/>
            <path d="M455.62,701.129C454.407,700.118 456.414,690.3 445.437,690.3" style="fill:none;stroke:#fff;stroke-width:4px;"/>
            <path d="M465.901,702.194C465.429,703.75 465.838,698.924 465.519,697.329C464.967,694.572 464.094,688.541 462.172,686.619" style="fill:none;stroke:#fff;stroke-width:4px;"/>
            <path d="M442.229,680.88C441.714,681.061 442.597,679.773 442.425,679.255C442.079,678.218 440.623,676.976 439.412,677.582C432.879,680.849 435.115,691.815 442.09,692.978C450.335,694.352 451.46,685.529 447.78,680.929" style="fill:none;stroke:#fff;stroke-width:4px;"/>
            <path d="M463.01,676.578C464.711,676.573 460.81,672.818 459.16,673.231C455.131,674.238 452.631,682.308 456.147,684.945C461.024,688.603 468.586,681.318 463.845,676.578" style="fill:none;stroke:#fff;stroke-width:4px;"/>
            <path d="M443.778,682.209C443.645,682.754 445.998,681.933 445.437,681.933C442.292,681.933 437.998,684.686 436.065,686.619" style="fill:none;stroke:#fff;stroke-width:4px;"/>
            <path d="M464.571,677.336C463.426,675.531 456.482,676.68 456.482,679.59" style="fill:none;stroke:#fff;stroke-width:4px;"/>
            <path d="M507.427,739.148C506.493,739.394 504.095,733.564 503.674,732.807C500.018,726.225 496.787,718.325 496.311,710.717C494.504,681.803 499.39,658.659 523.087,640.43C531.519,633.944 540.701,632.691 550.867,636.079C562.874,640.082 565.308,651.327 570.614,661.182C577.355,673.701 585.4,697.617 579.986,712.056C576.498,721.357 564.644,727.859 556.222,731.468C551.98,733.287 548.304,736.12 543.504,736.489C531.745,737.393 526.154,728.705 520.409,720.089C512.381,708.047 498.998,690.291 513.046,676.243C516.936,672.353 523.656,665.108 529.446,664.529C547.428,662.73 564.262,684.128 554.883,701.011C549.151,711.329 534.213,717.892 527.438,705.697C526.04,703.18 524.478,700.75 525.095,697.664C527.102,687.628 540.826,679.98 540.826,696.325" style="fill:none;stroke:#fff;stroke-width:4px;"/>
        </g>
        <g>
            <path d="M932.949,722.315C932.926,722.358 938.804,722.232 939.508,722.097C943.698,721.292 946.604,718.611 948.219,714.733C950.598,709.02 949.922,708.188 944.037,705.362C942.089,704.426 940.783,702.795 938.463,702.35C930.628,700.844 917.355,705.079 913.724,712.056C910.331,718.573 909.898,726.66 906.058,732.807C903.788,736.441 893.283,739.294 889.333,739.836C877.242,741.495 866.435,737.603 854.838,736.489C844,735.448 833.736,736.22 823.131,737.493C816.805,738.253 803.06,741.983 801.179,749.207C799.315,756.371 810.87,761.685 816.859,762.261C834.03,763.91 850.956,762.261 868.079,762.261C874.535,762.261 881.052,765.65 887.591,764.604C898.173,762.909 910.111,752.424 915.466,743.852C920.354,736.027 924.621,726.783 935.675,726.783" style="fill:none;stroke:#fff;stroke-width:4px;"/>
            <path d="M939.36,701.129C940.622,700.118 938.534,690.3 949.961,690.3" style="fill:none;stroke:#fff;stroke-width:4px;"/>
            <path d="M928.657,702.194C929.148,703.75 928.723,698.924 929.055,697.329C929.629,694.572 930.538,688.541 932.539,686.619" style="fill:none;stroke:#fff;stroke-width:4px;"/>
            <path d="M953.301,680.88C953.837,681.061 952.917,679.773 953.097,679.255C953.457,678.218 954.972,676.976 956.233,677.582C963.035,680.849 960.707,691.815 953.445,692.978C944.861,694.352 943.691,685.529 947.522,680.929" style="fill:none;stroke:#fff;stroke-width:4px;"/>
            <path d="M931.666,676.578C929.896,676.573 933.957,672.818 935.675,673.231C939.869,674.238 942.471,682.308 938.811,684.945C933.734,688.603 925.862,681.318 930.797,676.578" style="fill:none;stroke:#fff;stroke-width:4px;"/>
            <path d="M951.688,682.209C951.826,682.754 949.377,681.933 949.961,681.933C953.235,681.933 957.705,684.686 959.717,686.619" style="fill:none;stroke:#fff;stroke-width:4px;"/>
            <path d="M930.041,677.336C931.234,675.531 938.463,676.68 938.463,679.59" style="fill:none;stroke:#fff;stroke-width:4px;"/>
            <path d="M885.426,739.148C886.399,739.394 888.895,733.564 889.333,732.807C893.14,726.225 896.504,718.325 896.999,710.717C898.88,681.803 893.793,658.659 869.124,640.43C860.346,633.944 850.787,632.691 840.204,636.079C827.704,640.082 825.17,651.327 819.646,661.182C812.629,673.701 804.254,697.617 809.89,712.056C813.521,721.357 825.861,727.859 834.629,731.468C839.046,733.287 842.872,736.12 847.87,736.489C860.111,737.393 865.932,728.705 871.912,720.089C880.269,708.047 894.202,690.291 879.577,676.243C875.527,672.353 868.532,665.108 862.504,664.529C843.784,662.73 826.259,684.128 836.023,701.011C841.99,711.329 857.541,717.892 864.594,705.697C866.05,703.18 867.676,700.75 867.033,697.664C864.944,687.628 850.657,679.98 850.657,696.325" style="fill:none;stroke:#fff;stroke-width:4px;"/>
        </g>
        <g>
            <path d="M406.306,560.997C411.931,562.758 424.539,561.517 431.403,568.182C436.261,572.9 439.039,592.238 430.366,595.271C419.321,599.133 407.299,582.162 399.695,582.274" style="fill:none;stroke:#fff;stroke-width:4px;"/>
            <path d="M406.743,566.451C406.756,566.473 405.483,564.919 405.171,564.443C403.842,562.421 402.842,560.182 401.493,558.222C397.946,553.066 391.116,546.993 385.511,544.292C358.123,531.097 352.076,526.315 320.529,526.778" style="fill:none;stroke:#fff;stroke-width:4px;"/>
            <path d="M403.31,589.124C407.598,587.507 388.379,574.751 385.21,572.625C367.385,560.668 345.021,556.377 325.487,546.966" style="fill:none;stroke:#fff;stroke-width:4px;"/>
            <path d="M389.156,579.598C388.983,579.143 389.375,580.605 389.274,580.813" style="fill:none;stroke:#fff;stroke-width:4px;"/>
            <path d="M391.523,580.206C391.484,580.155 392.339,581.964 392.351,582.74C392.381,584.84 392.596,587.236 392.63,589.549C392.73,596.375 393.193,603.53 393.293,610.338C393.338,613.367 396.823,618.713 396.823,618.713C396.823,618.713 396.899,612.98 399.059,612.225C401.321,611.434 402.088,615.558 403.071,616.828C404.168,618.248 404.95,614.763 405.933,616.428C406.55,617.47 407.559,617.24 407.539,615.866C407.504,613.495 403.598,587.424 402.784,585.097" style="fill:none;stroke:#fff;stroke-width:4px;"/>
            <path d="M378.966,572.514C378.827,573.446 381.35,585.045 380.269,590.269C379.783,592.617 375.945,607.319 378.565,608.582C378.9,608.743 379.696,604.388 379.757,604.261C379.945,603.872 381.69,607.789 382.673,607.446C383.7,607.086 383.933,605.503 386.218,604.704C389.217,603.656 393.427,591.829 392.443,589.014" style="fill:none;stroke:#fff;stroke-width:4px;"/>
            <path d="M328.999,529.935C326.614,529.249 326.72,526.741 322.896,529.254C320.33,530.94 314.419,531.837 313.664,535.485C312.356,541.805 324.694,554.152 328.697,545.843" style="fill:none;stroke:#fff;stroke-width:4px;"/>
            <path d="M336.65,554.539C331.994,553.513 321.904,562.032 316.948,563.765C311.636,565.623 295.849,569.528 290.66,568.454C288.843,568.078 278.768,563.599 283.01,560.319C287.939,556.508 320.448,560.193 325.352,550.016" style="fill:none;stroke:#fff;stroke-width:4px;"/>
            <path d="M320.809,548.379C320.906,548.128 321.127,549.181 320.857,549.185C318.171,549.225 314.983,550.566 312.282,551.283C307.089,552.663 294.062,555.409 289.179,553.057C288.356,552.66 290.665,549.834 291.28,549.619C292.854,549.069 294.646,548.846 296.283,548.47C299.79,547.665 313.51,547.811 314.879,544.97" style="fill:none;stroke:#fff;stroke-width:4px;"/>
            <path d="M342.622,528.548C343.541,528.854 339.419,517.71 339.032,517.004C334.866,509.407 330.582,502.533 324.563,496.239C311.911,483.009 260.013,468.628 246.228,485.196C241.861,490.446 236.817,502.163 234.919,508.67C233.99,511.852 232.492,515.511 232.509,515.519C236.453,517.419 243.047,513.034 247.532,512.968C263.845,512.728 279.558,512.776 295.597,513.876C303.726,514.434 317.894,532.628 322.44,534.818" style="fill:none;stroke:#fff;stroke-width:4px;"/>
            <path d="M429.85,577.918C429.537,578.381 429.219,577.174 427.798,578.007C425.238,579.508 426.837,582.784 429.575,582.206C431.205,581.861 430.583,578.447 429.213,578.089" style="fill:none;stroke:#fff;stroke-width:4px;"/>
            <path d="M431.347,572.943C432.551,572.606 432.884,580.856 433.422,581.773" style="fill:none;stroke:#fff;stroke-width:4px;"/>
        </g>
        <g>
            <path d="M602.377,904.979C596.484,905.081 584.909,910.232 576.295,906.07C570.198,903.124 561.466,885.647 568.742,880.035C578.006,872.888 594.764,885.206 601.946,882.703" style="fill:none;stroke:#fff;stroke-width:4px;"/>
            <path d="M600.243,899.941C600.224,899.924 601.922,900.998 602.368,901.351C604.267,902.851 605.921,904.661 607.819,906.096C612.811,909.871 621.206,913.482 627.377,914.279C657.529,918.17 664.774,920.802 694.568,910.42" style="fill:none;stroke:#fff;stroke-width:4px;"/>
            <path d="M596.355,877.341C592.796,880.227 615.056,886.276 618.734,887.295C639.418,893.025 661.995,890.048 683.5,892.824" style="fill:none;stroke:#fff;stroke-width:4px;"/>
            <path d="M612.79,881.921C613.098,882.298 612.266,881.034 612.295,880.805" style="fill:none;stroke:#fff;stroke-width:4px;"/>
            <path d="M610.353,882.09C610.406,882.126 609.024,880.679 608.769,879.946C608.077,877.962 607.119,875.757 606.358,873.572C604.111,867.126 601.416,860.482 599.176,854.052C598.179,851.191 593.187,847.216 593.187,847.216C593.187,847.216 594.921,852.68 593.11,854.077C591.212,855.542 589.184,851.87 587.851,850.974C586.362,849.972 586.719,853.526 585.261,852.256C584.347,851.461 583.462,851.998 583.914,853.295C584.694,855.534 596.618,879.046 598.124,880.997" style="fill:none;stroke:#fff;stroke-width:4px;"/>
            <path d="M624.694,885.432C624.532,884.504 618.483,874.291 617.862,868.993C617.583,866.612 616.592,851.449 613.707,851.077C613.338,851.029 613.956,855.413 613.938,855.553C613.882,855.981 610.991,852.814 610.167,853.449C609.305,854.114 609.583,855.69 607.666,857.168C605.151,859.109 604.883,871.66 606.704,874.021" style="fill:none;stroke:#fff;stroke-width:4px;"/>
            <path d="M685.535,910.094C688.014,909.993 688.704,912.407 691.541,908.817C693.444,906.408 698.772,903.693 698.338,899.993C697.587,893.583 681.987,885.754 680.807,894.901" style="fill:none;stroke:#fff;stroke-width:4px;"/>
            <path d="M670.519,889.155C675.26,888.661 682.152,877.396 686.309,874.189C690.765,870.752 704.517,862.071 709.779,861.454C711.622,861.238 722.595,862.314 719.603,866.764C716.127,871.933 684.112,878.682 682.666,889.887" style="fill:none;stroke:#fff;stroke-width:4px;"/>
            <path d="M687.493,890.008C687.48,890.277 686.939,889.347 687.194,889.258C689.731,888.374 692.334,886.097 694.671,884.564C699.164,881.619 710.662,874.906 716.037,875.6C716.943,875.717 715.642,879.127 715.127,879.525C713.807,880.543 712.176,881.319 710.741,882.192C707.667,884.061 694.6,888.246 694.196,891.375" style="fill:none;stroke:#fff;stroke-width:4px;"/>
            <path d="M673.043,915.703C672.074,915.703 679.498,924.979 680.088,925.527C686.436,931.424 692.668,936.598 700.364,940.674C716.541,949.243 770.326,946.534 778.187,926.466C780.677,920.107 781.771,907.397 781.522,900.623C781.4,897.311 781.669,893.367 781.65,893.364C777.308,892.804 772.433,899.044 768.196,900.52C752.791,905.889 737.863,910.796 722.295,914.806C714.405,916.839 695.224,904.037 690.22,903.392" style="fill:none;stroke:#fff;stroke-width:4px;"/>
            <path d="M574.7,896.341C574.851,895.802 575.533,896.848 576.619,895.609C578.576,893.379 576.026,890.773 573.61,892.185C572.172,893.026 573.838,896.07 575.251,895.977" style="fill:none;stroke:#fff;stroke-width:4px;"/>
            <path d="M574.847,901.535C573.811,902.234 570.895,894.509 570.095,893.808" style="fill:none;stroke:#fff;stroke-width:4px;"/>
        </g>
        <g>
            <path d="M1026.11,782.85C1022.85,777.666 1020.57,764.754 1012.2,759.551C1006.28,755.868 986.732,757.898 986.181,767.322C985.479,779.322 1005.28,787.119 1007.27,794.748" style="fill:none;stroke:#fff;stroke-width:4px;"/>
            <path d="M1020.69,783.77C1020.67,783.762 1022.53,784.648 1023.08,784.842C1025.41,785.668 1027.86,786.11 1030.14,786.971C1036.12,789.235 1043.91,794.552 1048.08,799.483C1068.46,823.579 1074.77,828.435 1083.03,860.084" style="fill:none;stroke:#fff;stroke-width:4px;"/>
            <path d="M999.621,792.838C1000.01,788.15 1017.7,804.19 1020.64,806.829C1037.18,821.673 1047.52,842.96 1062.06,860.147" style="fill:none;stroke:#fff;stroke-width:4px;"/>
            <path d="M1012.78,804.617C1013.27,804.677 1011.74,804.649 1011.57,804.801" style="fill:none;stroke:#fff;stroke-width:4px;"/>
            <path d="M1011.54,802.403C1011.6,802.429 1009.61,802.024 1008.85,802.205C1006.8,802.697 1004.41,803.078 1002.16,803.619C995.5,805.216 988.423,806.531 981.783,808.124C978.829,808.833 972.674,806.678 972.674,806.678C972.674,806.678 978.221,805.177 978.358,802.831C978.502,800.372 974.285,800.631 972.78,799.965C971.097,799.22 974.267,797.573 972.378,797.004C971.195,796.647 971.141,795.581 972.48,795.259C974.793,794.705 1001.19,792.127 1003.68,792.362" style="fill:none;stroke:#fff;stroke-width:4px;"/>
            <path d="M1022.48,813.042C1021.61,813.413 1009.65,813.775 1004.87,816.153C1002.73,817.223 989.506,824.715 987.556,822.409C987.306,822.114 991.316,820.237 991.423,820.144C991.749,819.86 987.462,819.088 987.525,818.021C987.59,816.905 989.063,816.278 989.208,813.796C989.399,810.538 999.723,803.389 1002.73,803.673" style="fill:none;stroke:#fff;stroke-width:4px;"/>
            <path d="M1077.63,852.402C1078.95,854.615 1081.36,853.886 1079.97,858.333C1079.05,861.317 1079.81,867.449 1076.47,869.11C1070.69,871.988 1055.3,862.725 1062.26,856.658" style="fill:none;stroke:#fff;stroke-width:4px;"/>
            <path d="M1051.62,850.871C1053.9,855.269 1048.41,867.473 1048.1,872.859C1047.76,878.63 1048.33,895.381 1050.8,900.301C1051.67,902.023 1058.8,910.98 1060.82,905.924C1063.15,900.051 1050.6,868.471 1059.13,861.039" style="fill:none;stroke:#fff;stroke-width:4px;"/>
            <path d="M1061.97,865.173C1062.19,865.014 1061.11,865.056 1061.18,865.326C1061.88,868.021 1061.46,871.541 1061.51,874.419C1061.6,879.952 1062.53,893.657 1066.16,897.953C1066.78,898.677 1068.88,895.666 1068.92,894.998C1069.02,893.288 1068.75,891.441 1068.66,889.711C1068.47,886.006 1064.54,872.329 1066.92,870.254" style="fill:none;stroke:#fff;stroke-width:4px;"/>
            <path d="M1075.21,838.44C1074.66,837.597 1086.62,838.947 1087.42,839.158C1095.94,841.434 1103.8,844.007 1111.58,848.459C1127.92,857.816 1156.22,906.116 1143.93,924.014C1140.04,929.685 1130.05,937.64 1124.26,941.155C1121.42,942.874 1118.28,945.281 1118.27,945.266C1115.34,941.796 1117.78,934.115 1116.6,929.615C1112.33,913.25 1107.94,897.555 1102.45,881.797C1099.66,873.81 1078.08,864.171 1074.7,860.172" style="fill:none;stroke:#fff;stroke-width:4px;"/>
            <path d="M1003.18,763.524C1002.81,763.952 1004.07,763.969 1003.66,765.597C1002.91,768.529 999.283,767.745 999.089,764.864C998.973,763.15 1002.46,762.922 1003.19,764.203" style="fill:none;stroke:#fff;stroke-width:4px;"/>
            <path d="M1007.6,760.79C1007.59,759.503 999.486,761.221 998.446,760.912" style="fill:none;stroke:#fff;stroke-width:4px;"/>
        </g>
        <g>
            <path d="M455.92,608.683C456.2,608.285 456.884,608.99 457.228,609.334C461.277,613.383 464.614,617.464 468.052,621.761C468.432,622.237 469.655,623.545 469.655,624.167" style="fill:none;stroke:#fff;stroke-width:4px;"/>
            <path d="M468.453,601.205C468.455,602.094 478.41,612.076 479.677,613.343" style="fill:none;stroke:#fff;stroke-width:4px;"/>
            <path d="M468.453,622.488C468.453,622.707 455.412,633.174 459.233,636.995C459.551,637.313 469.417,633.936 470.457,633.788C473.139,633.404 488.537,633.767 489.298,633.387C489.692,633.19 489.846,616.576 490.1,614.546C490.496,611.38 495.769,604.341 489.298,606.929C485.265,608.542 482.629,612.396 479.677,615.347" style="fill:none;stroke:#fff;stroke-width:4px;"/>
        </g>
        <g>
            <path d="M991.053,740.17C990.901,740.633 990.041,740.157 989.612,739.928C984.56,737.233 980.18,734.301 975.639,731.19C975.137,730.846 973.586,729.951 973.405,729.355" style="fill:none;stroke:#fff;stroke-width:4px;"/>
            <path d="M981.24,750.973C980.979,750.123 968.549,743.471 966.968,742.628" style="fill:none;stroke:#fff;stroke-width:4px;"/>
            <path d="M975.045,730.611C974.98,730.402 984.409,716.592 979.642,714.049C979.245,713.837 970.79,719.94 969.838,720.385C967.383,721.532 952.547,725.667 951.929,726.252C951.609,726.556 956.298,742.495 956.646,744.511C957.189,747.654 954.193,755.924 959.631,751.564C963.019,748.847 964.42,744.393 966.384,740.71" style="fill:none;stroke:#fff;stroke-width:4px;"/>
        </g>
        <g>
            <path d="M504.944,443.668C505.3,444.103 507.26,431.981 508.076,426.266C508.666,422.136 515.132,382.012 517.972,380.592C518.879,380.138 520.832,382.543 521.017,382.875C527.715,394.931 535.06,429.652 542.332,436.923C543.072,437.663 543.093,434.924 543.093,433.878" style="fill:none;stroke:#fff;stroke-width:4px;"/>
            <path d="M532.96,412.92C534.216,411.033 513.473,414.813 508.837,417.131" style="fill:none;stroke:#fff;stroke-width:4px;"/>
            <path d="M564.83,380.681C566.363,380.278 566.691,381.521 566.691,382.875C566.691,397.343 565.076,412.767 567.453,427.027" style="fill:none;stroke:#fff;stroke-width:4px;"/>
            <path d="M565.94,400.83C565.913,401.696 560.704,405.136 559.84,405.712" style="fill:none;stroke:#fff;stroke-width:4px;"/>
            <path d="M594.954,374.829C594.518,373.354 595.618,386.703 595.618,388.204C595.618,393.113 598.143,426.786 603.992,420.937" style="fill:none;stroke:#fff;stroke-width:4px;"/>
            <path d="M606.354,412.416C604.452,415.98 611.411,402.19 607.798,400.384C599.625,396.297 584.79,407.996 575.826,407.996" style="fill:none;stroke:#fff;stroke-width:4px;"/>
            <path d="M628.434,412.32C628.222,412.949 625.992,412.564 625.307,412.564" style="fill:none;stroke:#fff;stroke-width:4px;"/>
            <path d="M637.199,402.342C637.969,403.214 637.715,400.003 637.486,398.861C636.332,393.09 626.433,392.73 622.262,394.294C615.228,396.931 611.288,409.647 614.649,416.37C620.921,428.914 632.158,416.247 632.158,407.996C632.158,407.067 631.862,406.241 632.919,405.712C637.286,403.529 646.155,415.111 651.189,416.37" style="fill:none;stroke:#fff;stroke-width:4px;"/>
            <path d="M669.264,402.051C669.448,401.914 648.136,402.637 651.95,417.892C653.358,423.525 667.643,416.516 669.458,415.608" style="fill:none;stroke:#fff;stroke-width:4px;"/>
            <path d="M672.481,378.859C672.771,381.639 685.471,406.474 690.012,406.474" style="fill:none;stroke:#fff;stroke-width:4px;"/>
            <path d="M692.148,392.984C692.688,392.208 691.944,394.938 692.295,395.816C694.652,401.707 702.621,404.19 708.281,404.19" style="fill:none;stroke:#fff;stroke-width:4px;"/>
            <path d="M687.21,390.058C687.024,389.805 690.626,389.646 691.534,388.965C695.012,386.357 698.335,383.687 701.43,380.592" style="fill:none;stroke:#fff;stroke-width:4px;"/>
            <path d="M755.641,372.384C755.646,372.143 756.563,373.837 756.602,373.916C757.234,375.178 757.271,376.701 757.883,378.078C759.386,381.459 761.194,385.976 764.606,387.682C765.925,388.342 766.784,383.216 768.128,382.88C772.423,381.806 779.653,392.988 779.653,381.599L779.653,377.758C779.653,375.268 779.289,373.417 778.693,371.034" style="fill:none;stroke:#fff;stroke-width:4px;"/>
            <path d="M783.498,351.067C783.483,351.648 785.964,355.596 786.377,356.628C788.438,361.781 790.155,366.939 791.499,372.315C792.198,375.112 792.772,377.83 793.42,380.639C793.641,381.598 794.06,384.504 794.06,383.52C794.06,376.212 794.759,370.344 803.024,369.754C813.531,369.003 817.125,380.625 810.068,387.682" style="fill:none;stroke:#fff;stroke-width:4px;"/>
            <path d="M815.474,357.122C815.731,358.153 816.584,355.309 817.111,354.387C817.863,353.07 817.431,350.406 817.431,348.944" style="fill:none;stroke:#fff;stroke-width:4px;"/>
            <path d="M822.088,368.529C822.984,368.183 822.998,370.224 823.514,371.034C825.867,374.732 826.836,380.119 829.917,383.2" style="fill:none;stroke:#fff;stroke-width:4px;"/>
            <path d="M830.312,349.918C829.512,349.77 831.614,351.043 831.838,351.825C832.344,353.596 832.439,355.473 832.798,357.268C834.046,363.504 835.396,369.186 838.241,374.876" style="fill:none;stroke:#fff;stroke-width:4px;"/>
            <path d="M847.823,367.682C848.002,368.861 849.811,366.355 850.727,365.592C853.274,363.469 857.101,352.393 850.407,354.066C845.839,355.208 846.303,362.411 847.846,365.592C851.178,372.464 857.597,376.108 865.134,373.596" style="fill:none;stroke:#fff;stroke-width:4px;"/>
            <path d="M623.195,455.501C614.108,455.633 593.747,459.713 585.148,462.748C581.391,464.074 577.304,467.436 573.215,467.436" style="fill:none;stroke:#fff;stroke-width:4px;"/>
            <path d="M598.814,465.317C597.503,464.721 601.663,464.848 603.048,464.452C605.511,463.749 608.439,463.612 610.719,464.878C616.525,468.104 619.122,475.633 619.669,481.926C620.947,496.621 609.868,509.468 594.098,507.496" style="fill:none;stroke:#fff;stroke-width:4px;"/>
            <path d="M637.14,482.694C637.298,488.356 636.724,490.462 640.126,495.99C648.784,510.06 660.156,492.472 660.156,483.204" style="fill:none;stroke:#fff;stroke-width:4px;"/>
            <path d="M666.645,497.142C665.668,498.414 668.598,494.528 669.106,493.006C669.699,491.227 669.448,487.123 670.81,485.761C671.171,485.401 674.317,491.384 676.351,490.875C679.389,490.116 679.16,484.53 680.613,482.352C680.926,481.882 684.348,488.971 684.448,489.171C687.065,494.405 689.148,497.7 694.25,500.251" style="fill:none;stroke:#fff;stroke-width:4px;"/>
            <path d="M703.791,507.751C702.507,509.091 709.898,510.907 709.167,509.201C704.971,499.412 700.826,491.605 699.364,480.647C699.016,478.031 697.59,470.389 700.217,468.288C707.518,462.447 724.548,479.872 710.445,484.909C706.227,486.415 706.551,486.147 702.348,486.614" style="fill:none;stroke:#fff;stroke-width:4px;"/>
            <path d="M728.063,464.363C727.031,465.002 730.569,463.696 731.328,462.748C732.878,460.81 734.311,453.448 734.311,455.929" style="fill:none;stroke:#fff;stroke-width:4px;"/>
            <path d="M731.386,475.416C730.172,477.855 734.104,485.98 736.016,487.892" style="fill:none;stroke:#fff;stroke-width:4px;"/>
            <path d="M743.809,476.262C743.126,476.951 745.984,476.125 746.67,476.812C746.978,477.119 747.55,480.193 747.949,479.795C751.371,476.372 748.996,464.207 755.194,463.174C761.559,462.113 762.896,475.117 767.979,476.812" style="fill:none;stroke:#fff;stroke-width:4px;"/>
            <path d="M785.629,460.968C785.623,460.971 791.398,455.908 790.141,454.65C786.011,450.521 779.486,457.206 779.486,461.469C779.486,463.812 793.07,461.229 795.255,462.321C795.899,462.644 800.473,465.889 800.795,466.157C815.043,478.03 798.025,486.941 788.01,490.023" style="fill:none;stroke:#fff;stroke-width:4px;"/>
        </g>
        <path d="M599.114,762.846C600.395,763.923 621.538,755.046 625.613,754.141C648.008,749.164 670.642,747.189 693.282,751.434C723.279,757.058 751.566,758.445 781.929,760.231C796.124,761.066 809.652,766.726 823.884,767.674C838.579,768.654 852.398,763.981 867.192,764.968C879.423,765.783 890.422,769.5 903.057,768.351C951.389,763.957 998.912,752.202 1047.19,747.374C1068.01,745.292 1085.97,754.817 1106.06,754.817" style="fill:none;stroke:#fff;stroke-width:4px;"/>
        <path d="M594.01,824.573C590.514,823.585 610.306,820.223 612.079,819.78C625.173,816.506 637.986,812.53 651.327,810.306C688.365,804.133 728.354,802.53 765.688,806.923C801.718,811.161 836.414,826.914 872.606,829.93C887.352,831.159 899.604,824.68 913.884,823.84C940.591,822.269 967.054,820.332 993.733,818.426C1012.83,817.062 1031.35,810.024 1050.58,808.276C1066.48,806.83 1084.7,802.443 1100.65,804.216C1109.88,805.241 1121.85,811.284 1130.42,805.569" style="fill:none;stroke:#fff;stroke-width:4px;"/>
        <path d="M748.267,844.279C747.558,845.722 751.361,851.945 751.796,854.121C752.016,855.221 753.363,857.457 752.241,857.457C751.263,857.457 749.29,852 748.905,851.231C745.832,845.084 744.531,836.242 754.465,839.222C758.223,840.35 758.352,843.94 755.354,846.338C755.127,846.52 752.943,847.298 753.131,847.673C754.296,850.004 768.539,850.739 761.136,856.123C760.54,856.556 758.884,857.628 758.245,857.902C756.688,858.569 755.005,858.569 753.353,858.569" style="fill:none;stroke:#fff;stroke-width:4px;"/>
        <path d="M768.208,850.052C769.168,851.5 775.524,863.292 778.481,855.9C778.829,855.03 779.228,854.159 779.37,853.232C779.517,852.279 779.37,851.305 779.37,850.341" style="fill:none;stroke:#fff;stroke-width:4px;"/>
        <path d="M784.462,840.363C784.792,839.957 785.994,845.901 786.042,846.116C786.668,848.936 788.224,859.518 792.046,860.125C794.613,860.533 796.283,853.859 793.602,852.787C789.853,851.288 785.593,853.855 782.039,854.566" style="fill:none;stroke:#fff;stroke-width:4px;"/>
        <path d="M814.855,840.278C816.1,841.022 817.506,848.262 818.73,852.342C818.85,852.74 819.541,857.235 820.287,857.235C820.79,857.235 819.877,854.841 819.842,854.788C818.736,853.129 812.319,848.69 810.947,852.12C807.751,860.112 820.625,867.338 823.4,859.014" style="fill:none;stroke:#fff;stroke-width:4px;"/>
        <path d="M832.058,856.351C832.736,856.064 831.967,854.181 831.628,853.899C828.876,851.605 825.102,851.843 824.512,855.678C824.399,856.41 824.622,858.972 824.734,859.458C826.123,865.474 832.279,860.054 833.407,857.235" style="fill:none;stroke:#fff;stroke-width:4px;"/>
        <path d="M837.268,856.849C836.28,856.119 837.703,852.939 838.299,852.342C839.773,850.868 841.781,851.399 843.414,852.565C846.785,854.973 844.738,859.894 846.972,862.127" style="fill:none;stroke:#fff;stroke-width:4px;"/>
        <path d="M850.435,840.51C851.161,840.869 850.391,845.088 851.419,846.116" style="fill:none;stroke:#fff;stroke-width:4px;"/>
        <path d="M859.915,845.106C859.835,844.928 859.869,846.648 859.869,846.783C859.869,848.312 860.219,849.708 860.314,851.231C860.54,854.851 860.996,858.186 861.871,861.682" style="fill:none;stroke:#fff;stroke-width:4px;"/>
        <path d="M866.073,856.555C866.848,856.982 864.941,855.043 864.094,854.788C861.794,854.098 859.059,854.627 856.756,855.011" style="fill:none;stroke:#fff;stroke-width:4px;"/>
        <path d="M806.08,885.235C805.798,880.915 795.119,884.65 797.178,889.797C797.612,890.882 799.352,890.338 800.069,890.019C802.566,888.91 805.45,886.305 807.63,889.575C810.981,894.601 805.678,900.624 800.292,898.47" style="fill:none;stroke:#fff;stroke-width:4px;"/>
        <path d="M814.232,883.288C815.048,883.996 816.757,881.583 816.08,880.68C813.523,877.271 810.914,883.62 810.743,884.905C809.951,890.844 816.293,892.692 820.75,890.464" style="fill:none;stroke:#fff;stroke-width:4px;"/>
        <path d="M825.576,872.365C827.211,874.513 826.531,883.79 827.421,887.573C827.745,888.951 827.915,890.851 829.422,891.354" style="fill:none;stroke:#fff;stroke-width:4px;"/>
        <path d="M831.491,887.884C831.233,887.544 831.726,885.8 831.49,885.094C830.471,882.037 825.674,882.459 823.196,882.459" style="fill:none;stroke:#fff;stroke-width:4px;"/>
        <path d="M855.904,874.872C855.111,875.917 855.662,886.056 855.662,887.796C855.662,887.997 855.331,892.021 856.107,892.021C857.282,892.021 857.117,883.15 859.22,883.571C862.162,884.159 862.147,890.687 865.891,890.687" style="fill:none;stroke:#fff;stroke-width:4px;"/>
        <path d="M868.366,876.196C868.339,876.23 868.991,875.798 869.005,875.788C869.801,875.191 870.415,874.676 871.451,874.676" style="fill:none;stroke:#fff;stroke-width:4px;"/>
        <path d="M871.632,885.439C871.968,884.71 871.864,887.035 872.118,887.796C872.427,888.722 873.502,892.774 875.009,892.021" style="fill:none;stroke:#fff;stroke-width:4px;"/>
        <path d="M883.235,871.923C883.338,878.529 881.063,886.784 884.126,892.91" style="fill:none;stroke:#fff;stroke-width:4px;"/>
        <path d="M887.481,886.531C886.527,883.122 883.991,883.571 880.79,883.571" style="fill:none;stroke:#fff;stroke-width:4px;"/>
        <path d="M893.015,868.42C893.828,872.689 892.303,877.466 894.355,881.569" style="fill:none;stroke:#fff;stroke-width:4px;"/>
        <path d="M896.426,892.655C896.144,892.787 896.579,893.266 896.579,893.577" style="fill:none;stroke:#fff;stroke-width:4px;"/>
        <g>
            <path d="M261.549,756.236C264.744,756.566 263.206,783.596 264.595,786.931" style="fill:none;stroke:#fff;stroke-width:4px;"/>
            <path d="M276.763,743.284C278.214,742.866 274.595,745.404 273.377,746.298C271.742,747.499 269.718,748.789 267.777,749.497C260.619,752.11 252.993,752.959 245.46,752.439" style="fill:none;stroke:#fff;stroke-width:4px;"/>
            <path d="M284.352,774.985C283.932,774.353 285.287,773.501 284.995,772.8C282.539,766.905 268.306,772.093 276.133,779.958C284.254,788.117 284.423,773.297 285.313,772.523C285.507,772.354 287.557,776.31 287.722,776.574C289.168,778.881 290.475,781.202 292.029,783.446" style="fill:none;stroke:#fff;stroke-width:4px;"/>
            <path d="M301.099,795.011C301.033,795.527 301.82,796.444 302.212,796.103C302.825,795.569 299.612,789.183 299.454,788.441C298.586,784.355 296.909,774.642 299.179,770.791C301.294,767.202 312.013,773.028 305.055,776.576" style="fill:none;stroke:#fff;stroke-width:4px;"/>
            <path d="M349.872,774.17C349.582,774.415 345.026,770.053 342.878,774.107C340.964,777.72 342.875,782.372 346.046,784.487C349.371,786.703 350.566,781.203 350.898,779.144C351.12,777.767 350.567,773.949 351.483,775C354.56,778.534 354.183,782.388 359.174,784.795" style="fill:none;stroke:#fff;stroke-width:4px;"/>
            <path d="M365.731,782.939C366.766,782.448 363.259,784.993 362.507,784.129C360.933,782.321 362.459,776.143 364.887,775.627C369.373,774.674 372.16,782.356 373.788,785.207" style="fill:none;stroke:#fff;stroke-width:4px;"/>
            <path d="M377.499,779.204C377.356,778.881 377.793,779.855 378.024,780.12C378.913,781.141 380.063,781.992 381.491,781.854C382.238,781.782 385.959,777.034 386.004,777.085C386.488,777.642 384.983,780.508 384.845,780.89C383.464,784.703 381.987,791.764 378.823,794.52" style="fill:none;stroke:#fff;stroke-width:4px;"/>
            <path d="M394.178,778.454C394.517,778.817 392.923,783.021 395.069,784.286C396.558,785.163 397.835,782.5 399.1,782.173C400.11,781.912 400.553,784.784 401.971,783.866C403.476,782.892 405.036,779.979 405.931,778.461" style="fill:none;stroke:#fff;stroke-width:4px;"/>
            <path d="M410.104,766.221C410.086,766.209 409.981,767.403 409.695,771.549C409.54,773.801 408.172,783.032 410.597,784.461C412.021,785.301 411.172,778.103 415.848,777.652C418.121,777.433 420.512,783.368 422.401,782.288C424.28,781.215 432.833,771.952 426.73,771.53C423.502,771.307 424.187,779.295 424.883,780.965C427.408,787.025 433.991,784.357 438.246,782.187" style="fill:none;stroke:#fff;stroke-width:4px;"/>
            <path d="M441.978,781.321C441.737,781.09 442.344,782.936 442.072,783.049C441.87,783.133 440.083,782.97 439.99,782.905C438.87,782.123 437.323,775.858 438.739,775.049C441.333,773.567 445.388,780.554 448.944,778.742C451.609,777.383 450.785,772.36 447.57,772.67C443.294,773.083 445.524,790.702 455.948,785.501" style="fill:none;stroke:#fff;stroke-width:4px;"/>
            <path d="M499.271,769.571C497.715,771.047 499.851,791.202 500.447,794.551" style="fill:none;stroke:#fff;stroke-width:4px;"/>
            <path d="M508.137,784.977C509.207,784.643 508.191,782.639 507.258,782.47C502.299,781.57 497.486,783.289 492.582,782.951" style="fill:none;stroke:#fff;stroke-width:4px;"/>
            <path d="M519.465,786.672C521.337,784.511 508.942,775.41 505.709,783.259C502.236,791.691 514.843,797.04 517.595,788.563" style="fill:none;stroke:#fff;stroke-width:4px;"/>
            <path d="M566.661,780.629C564.58,779.81 551.062,780.152 553.019,786.228C554.613,791.178 577.033,798.02 558.473,802.442C556.166,802.992 554.467,802.847 552.207,802.309" style="fill:none;stroke:#fff;stroke-width:4px;"/>
            <path d="M573.727,777.322C573.535,776.931 574.176,778.418 574.177,778.425C574.436,780.428 573.863,782.974 573.725,784.968C573.335,790.623 571.661,798.734 573.898,804.105" style="fill:none;stroke:#fff;stroke-width:4px;"/>
            <path d="M580.364,794.756C575.805,792.246 572.2,791.736 566.412,791.336" style="fill:none;stroke:#fff;stroke-width:4px;"/>
            <path d="M588.765,795.77C589.098,796.511 588.726,793.926 588.083,793.43C586.792,792.435 584.146,791.639 582.514,791.85C578.646,792.35 577.005,799.235 579.118,802.075C580.838,804.386 584.896,803.738 586.093,801.257C586.894,799.596 587.023,798.099 587.58,796.384C587.736,795.902 587.647,794.535 587.98,794.917C589.603,796.781 588.974,799.547 591.415,801.43" style="fill:none;stroke:#fff;stroke-width:4px;"/>
            <path d="M598.556,801.268C598.962,801.902 597.044,800.459 596.913,799.718C596.579,797.841 596.644,795.571 597.323,793.769C598.833,789.763 602.423,789.34 606.277,789.606" style="fill:none;stroke:#fff;stroke-width:4px;"/>
            <path d="M614.146,777.184C613.403,777.724 614.12,783.64 614.103,784.469C613.959,791.21 611.337,801.059 614.008,807.473" style="fill:none;stroke:#fff;stroke-width:4px;"/>
            <path d="M619.77,792.092C620.768,791.464 617.871,793.589 616.737,793.915C613.751,794.773 610.487,795.575 607.374,795.36" style="fill:none;stroke:#fff;stroke-width:4px;"/>
            <path d="M631.104,767.197C631.623,766.026 631.427,769.744 631.467,771.025C631.528,773.022 631.554,775.001 631.651,777.014C631.94,783.007 630.54,788.955 631.311,794.921" style="fill:none;stroke:#fff;stroke-width:4px;"/>
            <path d="M630.999,805.448C630.559,805.06 632.443,804.107 631.884,803.926C629.209,803.057 626.347,809.123 627.823,810.817C629.994,813.31 634.674,806.21 629.659,805.864" style="fill:none;stroke:#fff;stroke-width:4px;"/>
        </g>
        <path d="M377.465,606.996C377.421,606.896 377.221,608.665 377.399,609.021C378.122,610.468 377.008,611.614 376.311,613.007C374.659,616.311 371.775,618.805 367.614,618.805" style="fill:none;stroke:#fff;stroke-width:4px;"/>
        <path d="M383.751,605.797C384.774,605.57 384.609,611.957 383.559,613.007C382.17,614.396 381.346,615.945 379.935,617.355" style="fill:none;stroke:#fff;stroke-width:4px;"/>
        <path d="M398.011,615.638C398.505,614.547 397.802,618.066 397.33,619.167C396.844,620.301 394.409,626.053 392.981,626.053" style="fill:none;stroke:#fff;stroke-width:4px;"/>
        <path d="M401.471,615.205C401.002,615.133 401.531,615.171 401.678,615.906C402.204,618.534 401.427,622.373 399.141,623.516" style="fill:none;stroke:#fff;stroke-width:4px;"/>
        <path d="M405.498,612.751C406.618,612.03 409.015,622.887 408.563,624.241C408.015,625.885 407.593,626.661 406.389,627.865" style="fill:none;stroke:#fff;stroke-width:4px;"/>
        <path d="M387.791,603.205C391.637,603.772 391.894,613.998 391.894,617.718" style="fill:none;stroke:#fff;stroke-width:4px;"/>
        <path d="M972.358,792.297C972.608,792.264 971.961,792.909 971.759,792.758C970.515,791.825 969.487,790.652 967.953,790.141C964.268,788.912 958.662,788.882 955.346,791.092" style="fill:none;stroke:#fff;stroke-width:4px;"/>
        <path d="M973.771,800.67C973.033,800.245 968.264,797.039 965.337,797.039" style="fill:none;stroke:#fff;stroke-width:4px;"/>
        <path d="M975.756,805.204C976.074,804.681 968.756,803.179 966.764,804.175" style="fill:none;stroke:#fff;stroke-width:4px;"/>
        <path d="M988.142,813.456C988.794,813.37 985.119,815.454 984.366,815.831C982.627,816.7 979.914,820.588 978.182,820.588" style="fill:none;stroke:#fff;stroke-width:4px;"/>
        <path d="M988.298,818.56C989.089,817.767 987.677,820.918 986.745,821.54C984.956,822.732 981.416,823.3 980.085,824.632" style="fill:none;stroke:#fff;stroke-width:4px;"/>
        <path d="M992.579,822.967C992.609,822.967 991.2,825.302 991.027,825.821C990.453,827.541 990.714,831.292 988.648,831.292" style="fill:none;stroke:#fff;stroke-width:4px;"/>
        <path d="M449.197,388.453C447.544,386.848 439.588,390.167 437.356,390.167C385.01,390.167 418.325,457.748 450.905,441.458C474.34,429.741 471.479,371.292 441.227,383.393" style="fill:none;stroke:#fff;stroke-width:4px;"/>
        <path d="M438.935,401.532C440.879,402.887 442.191,428.877 441.227,428.877" style="fill:none;stroke:#fff;stroke-width:4px;"/>
        <path d="M933.305,861.228C941.044,853.223 943.753,887.295 929.862,882.664C928.186,882.106 928.482,878.212 929.862,877.522C934.765,875.07 941.459,881.636 946.317,881.636L946.831,881.636" style="fill:none;stroke:#fff;stroke-width:4px;"/>
        <path d="M941.269,852.655C940.029,855.078 936.183,850.268 933.461,850.268C926.865,850.268 923.741,852.776 919.577,857.981C916.075,862.358 915.144,867.979 915.463,873.408C915.799,879.114 917.124,883.428 922.148,886.778C943.9,901.279 965.471,869.936 951.974,856.439C949.457,853.922 941.409,854.896 938.089,854.896" style="fill:none;stroke:#fff;stroke-width:4px;"/>
        <path d="M199.915,759.731C199.945,759.861 212.581,756.087 215.028,763.428C216.46,767.724 203.275,771.602 204.763,773.089C206.524,774.85 212.387,775.807 215.028,777.92C222.602,783.979 213.702,786.374 205.97,786.374" style="fill:none;stroke:#fff;stroke-width:4px;"/>
        <path d="M218.639,745.423C219.209,740.113 202.456,745.807 200.536,747.728C189.505,758.758 188.064,800.013 205.97,804.49C213.35,806.335 220.259,790.354 222.878,785.77C233.922,766.444 229.189,747.903 207.178,743.501" style="fill:none;stroke:#fff;stroke-width:4px;"/>
    </g>
</svg>
