<?xml version="1.0" encoding="UTF-8" standalone="no"?>
<!DOCTYPE svg PUBLIC "-//W3C//DTD SVG 1.1//EN" "http://www.w3.org/Graphics/SVG/1.1/DTD/svg11.dtd">
<svg width="100%" height="100%" viewBox="0 0 800 600" version="1.1" xmlns="http://www.w3.org/2000/svg" xmlns:xlink="http://www.w3.org/1999/xlink" xml:space="preserve" xmlns:serif="http://www.serif.com/" style="fill-rule:evenodd;clip-rule:evenodd;stroke-linecap:round;stroke-linejoin:round;stroke-miterlimit:1.5;">
    <rect id="jump" x="0" y="0" width="800" height="600" style="fill:none;"/>
    <clipPath id="_clip1">
        <rect x="0" y="0" width="800" height="600"/>
    </clipPath>
    <g clip-path="url(#_clip1)">
        <rect x="0" y="0" width="800" height="600"/>
        <g>
            <path d="M650.1,418.529C631.239,401.51 611.442,387.663 587.624,378.499C567.706,370.836 551.367,372.911 534.525,358.04C518.435,343.833 536.917,335.459 522.931,318.861C511.612,305.428 495.538,298.38 482.36,287.26C467.386,274.626 439.37,225.115 484.903,245.513C509.133,256.368 522.823,285.175 543.945,300.754C546.046,302.303 541.37,296.212 540.071,293.947C537.527,289.514 533.506,281.589 539.389,277.955C543.802,275.229 550.034,275.872 554.784,277.346C557.386,278.153 563.655,282.869 562.33,280.488C558.095,272.879 540.661,256.386 555.214,249.587C562.959,245.968 572.914,252.229 578.749,256.802C580.666,258.305 582.536,259.852 584.389,261.433C585.325,262.232 587.487,265.083 587.133,263.904C584.762,256.009 557.309,226.994 591.143,227.724C605.96,228.044 616.256,252.783 620.672,264.398C635.038,302.184 653.344,330.604 679.398,361.048" style="fill:none;stroke:#fff;stroke-width:4px;"/>
            <path d="M412.662,265.547C421.829,260.635 431.272,256.16 440.716,251.807" style="fill:none;stroke:#fff;stroke-width:4px;"/>
            <path d="M411.372,225.448C420.836,227.106 429.689,231.071 438.523,234.723" style="fill:none;stroke:#fff;stroke-width:4px;"/>
            <path d="M439.807,192.288C443.307,203.038 449.303,214.983 454.588,225.06" style="fill:none;stroke:#fff;stroke-width:4px;"/>
            <path d="M481.959,194.689C480.083,203.505 478.301,212.704 477.25,221.665" style="fill:none;stroke:#fff;stroke-width:4px;"/>
            <path d="M514.054,225.733C508.968,229.011 504.028,232.508 498.9,235.725" style="fill:none;stroke:#fff;stroke-width:4px;"/>
            <path d="M434.008,303.132C437.8,294.387 442.839,285.12 448.638,277.545" style="fill:none;stroke:#fff;stroke-width:4px;"/>
        </g>
        <g>
            <path d="M102.033,221.562C102.292,221.549 102.269,222.034 102.306,222.291C102.641,224.625 98.851,231.24 98.31,233.776C96.883,240.45 98.581,256.256 94.743,261.379" style="fill:none;stroke:#fff;stroke-width:4px;"/>
            <path d="M114.273,222.541C113.542,222.42 114.857,222.479 115.159,222.706C117.678,224.593 114.843,226.2 112.738,226.815C104.395,229.254 93.199,228.788 84.507,229.359" style="fill:none;stroke:#fff;stroke-width:4px;"/>
            <path d="M122.893,254.443C124.1,253.541 119.864,249.374 118.544,248.935C107.832,245.371 106.056,259.826 108.652,266.533C111.737,274.507 118.999,268.562 121.818,263.892C122.939,262.038 123.539,259.685 123.922,257.57C124.132,256.412 123.609,253.388 124.552,254.094C128.398,256.975 127.31,266.69 132.146,270.313" style="fill:none;stroke:#fff;stroke-width:4px;"/>
            <path d="M142.004,284.89C144.279,287.268 140.641,278.434 140.366,275.154C139.955,270.257 136.645,251.464 142.563,248.5C146.779,246.39 160.948,265.42 143.519,263.038C141.31,262.736 140.312,262.078 138.356,261.144" style="fill:none;stroke:#fff;stroke-width:4px;"/>
            <path d="M184.749,239.356C190.756,241.681 181.628,262.628 186.924,266.595" style="fill:none;stroke:#fff;stroke-width:4px;"/>
            <path d="M196.416,249.135C196.627,249.838 196.318,248.623 195.974,248.365C192.552,245.802 185.726,250.588 182.07,251.112" style="fill:none;stroke:#fff;stroke-width:4px;"/>
            <path d="M227.252,224.395C225.677,223.447 228.044,227.987 228.305,229.807C228.807,233.306 228.984,236.654 229.048,240.235C229.152,245.97 226.887,265.6 232.12,269.52" style="fill:none;stroke:#fff;stroke-width:4px;"/>
            <path d="M249.697,228.847C249.562,228.594 251.797,228.337 251.904,231.69C252.031,235.688 251.913,239.686 252.121,243.699C252.618,253.282 250.633,264.804 251.927,273.828" style="fill:none;stroke:#fff;stroke-width:4px;"/>
            <path d="M255.909,253.719C249.529,252.801 239.746,251.272 232.319,249.926" style="fill:none;stroke:#fff;stroke-width:4px;"/>
            <path d="M271.345,257.091C271.148,255.551 275.977,255.602 275.093,254.326C266.757,242.3 254.211,253.603 258.981,265.291C264.25,278.204 281.015,268.259 275.516,257.276" style="fill:none;stroke:#fff;stroke-width:4px;"/>
            <path d="M292.756,218.49C292.848,218.335 293.405,221.473 293.405,221.975C293.407,225.833 293.327,229.762 293.201,233.668C292.976,240.63 291.506,264.647 297.961,269.484" style="fill:none;stroke:#fff;stroke-width:4px;"/>
            <path d="M321.841,219.809C323.209,219.419 322.681,222.822 323.008,223.749C326.828,234.552 320.859,248.348 324.714,259.25C324.719,259.266 320.295,253.874 316.072,254.093C310.323,254.391 306.732,258.161 306.597,264.106C306.235,280.047 325.148,275.399 323.558,264.308" style="fill:none;stroke:#fff;stroke-width:4px;"/>
            <path d="M300.479,290.324C300.699,290.717 302.594,288.997 303.029,289.075C306.566,289.716 307.957,293.066 312.406,291.493C312.712,291.385 314.5,290.354 314.407,289.701C313.844,285.78 294.504,287.657 292.283,287.607C276.222,287.242 236.848,282.696 222.966,289.646" style="fill:none;stroke:#fff;stroke-width:4px;"/>
            <path d="M298.597,299.015C299.725,299.373 285.444,299.959 283.124,299.832C273.365,299.295 263.716,298.368 253.942,298.373" style="fill:none;stroke:#fff;stroke-width:4px;"/>
            <path d="M304.913,311.167C305.357,310.546 305.739,313.144 304.622,313.304C301.224,313.792 297.207,313.688 293.772,313.732C283.434,313.863 273.279,312.908 263.011,314.381" style="fill:none;stroke:#fff;stroke-width:4px;"/>
            <path d="M82.395,318.043C82.412,318.045 82.046,324.238 82.031,324.91C81.815,334.428 81.845,344.428 80.151,353.776" style="fill:none;stroke:#fff;stroke-width:4px;"/>
            <path d="M88.515,337.083C90.723,337.68 84.477,334.796 82.247,334.286C76.632,333.002 70.11,331.888 64.337,332.716" style="fill:none;stroke:#fff;stroke-width:4px;"/>
            <path d="M99.415,346.991C99.569,347.313 100.446,346.446 100.9,346.285C107.511,343.948 95.244,339.73 91.837,340.812C86.687,342.448 84.396,349.642 86.999,354.299C92.176,363.563 103.814,351.88 106.167,346.282" style="fill:none;stroke:#fff;stroke-width:4px;"/>
            <path d="M134.393,339.9C134.084,339.894 133.921,341.757 133.785,342.027C133.161,343.275 133.519,345.458 133.519,346.817C133.519,352.749 135.365,360.155 141.768,361.984C148.794,363.992 151.782,348.708 153.21,344.422" style="fill:none;stroke:#fff;stroke-width:4px;"/>
            <path d="M164.848,341.41C165.448,342.135 167.579,340.697 167.579,340.697C167.579,340.697 164.708,342.238 163.322,343.092C160.923,344.568 156.553,346.634 155.605,349.478C155.309,350.365 161.321,352.725 161.991,353.203C165.323,355.583 169.141,359.68 169.974,363.847C171.059,369.274 159.755,369.082 157.202,367.04" style="fill:none;stroke:#fff;stroke-width:4px;"/>
            <path d="M177.142,351.914C177.688,350.522 180.086,350.636 180.086,348.68C180.086,347.239 176.687,348.776 176.36,349.212C173.874,352.527 172.704,356.584 173.22,360.714C173.81,365.434 180.439,365.098 183.811,364.911C186.554,364.759 188.949,364.174 191.527,363.315" style="fill:none;stroke:#fff;stroke-width:4px;"/>
            <path d="M233.349,335.708C233.221,335.519 234.236,334.976 233.836,334.577C230.216,330.956 222.496,338.168 221.596,341.229C217.878,353.871 228.577,373.512 242.883,362.782" style="fill:none;stroke:#fff;stroke-width:4px;"/>
            <path d="M248.184,332.714C249.857,332.7 247.746,342.334 247.673,343.358C247.207,349.875 246.87,357.709 248.471,364.113" style="fill:none;stroke:#fff;stroke-width:4px;"/>
            <path d="M265.384,353.147C266.297,353.587 252.11,346.763 255.124,354.8C256.268,357.851 261.19,360.015 264.171,358.525C265.528,357.846 266.842,355.926 267.364,354.534C267.422,354.378 267.968,352.364 268.428,352.671C271.001,354.386 269.802,362.777 274.282,362.25" style="fill:none;stroke:#fff;stroke-width:4px;"/>
            <path d="M276.699,351.596C276.662,351.614 277.423,353.26 277.475,353.469C277.783,354.701 278.04,355.946 278.274,357.194C278.636,359.128 278.357,363.152 280.402,364.379C283.912,366.485 284.812,357.993 286.256,357.993C286.879,357.993 287.137,360.296 287.853,360.654C291.602,362.528 292.643,350.788 292.643,348.946" style="fill:none;stroke:#fff;stroke-width:4px;"/>
            <path d="M308.628,343.245C308.511,343.91 313.529,342.709 310.205,342.293C306.691,341.854 297.964,344.561 297.964,349.212C297.964,350.163 302.571,350.854 303.286,351.074C308.353,352.633 316.596,358.707 308.342,362.516C307.201,363.043 305.258,363.852 304.085,364.113C303.786,364.179 299.179,364.63 299.029,364.645" style="fill:none;stroke:#fff;stroke-width:4px;"/>
        </g>
        <path d="M27.8,26.343C34.078,151.431 23.5,276.471 30.3,401.674C32.726,446.335 23.5,489.573 21.614,533.96C21.278,541.883 21.631,549.841 21.76,557.766C21.784,559.25 21.846,573.475 21.985,573.476C84.088,574.091 146.479,575.024 208.515,570.691C249.734,567.812 290.079,558.731 331.559,557.432C415.016,554.818 498.686,565.456 582.374,562.195C626.72,560.467 670.685,555.253 714.861,551.426C726.774,550.394 738.667,549.21 750.598,548.394C751.022,548.365 755.342,548.273 755.4,548.02C784.876,418.095 763.115,291.43 762.02,160.871C761.969,154.782 765.235,28.729 764.504,27.657C762.394,24.563 732.359,22.507 722.448,21.362C675.772,15.971 628.974,21.588 582.266,19.309C546.748,17.576 511.35,13.462 475.751,13.787C418.634,14.308 360.979,19.845 303.921,17.714C255.452,15.905 208.077,16.013 159.71,15.495C112.628,14.992 69.645,12.325 23.76,23.486" style="fill:none;stroke:#fff;stroke-width:4px;"/>
        <g>
            <path d="M453.375,110.588C450.711,125.387 453.345,144.518 453.345,158.582" style="fill:none;stroke:#fff;stroke-width:4px;"/>
            <path d="M473.99,105.882C475.16,108.831 475.967,154.894 474.885,157.999" style="fill:none;stroke:#fff;stroke-width:4px;"/>
            <path d="M455.153,106.268C451.8,102.994 438.82,109.159 435.869,104.924C435.223,103.998 439.578,101.147 439.933,100.842C443.02,98.184 445.837,97.147 448.062,92.677C450.051,88.679 463.348,55.706 467.57,61.765C472.416,68.72 476.616,81.895 479.762,90.927C481.446,95.759 484.328,100.533 485.859,104.924C486.05,105.474 487.078,105.508 487.078,105.508C487.078,105.508 485.463,104.924 484.639,104.924C480.374,104.924 476.304,104.341 472.04,104.341" style="fill:none;stroke:#fff;stroke-width:4px;"/>
        </g>
        <g>
            <path d="M467.387,447.23C471.137,432.669 469.924,413.395 470.964,399.37" style="fill:none;stroke:#fff;stroke-width:4px;"/>
            <path d="M446.481,450.399C445.532,447.373 448.131,401.376 449.439,398.36" style="fill:none;stroke:#fff;stroke-width:4px;"/>
            <path d="M465.295,451.407C468.397,454.919 481.797,449.731 484.427,454.172C485.002,455.144 480.449,457.665 480.072,457.943C476.797,460.366 473.911,461.192 471.362,465.485C469.083,469.325 453.386,501.225 449.623,494.871C445.304,487.577 442.09,474.127 439.619,464.888C438.297,459.944 435.775,454.971 434.574,450.478C434.424,449.915 433.401,449.806 433.401,449.806C433.401,449.806 434.968,450.507 435.79,450.568C440.043,450.883 444.059,451.765 448.311,452.081" style="fill:none;stroke:#fff;stroke-width:4px;"/>
        </g>
        <g>
            <path d="M542.563,118.583C536.5,120.686 522.663,127.17 532.258,134.633C535.85,137.427 541.066,137.928 544.123,141.367C552.044,150.278 534.915,154.516 528.73,154.516" style="fill:none;stroke:#fff;stroke-width:4px;"/>
            <path d="M557.252,136.458C558.231,141.369 553.846,154.449 559.837,158.043C563.902,160.482 567.159,150.81 569.779,149.064C571.083,148.194 572.393,153.868 574.91,153.554C582.581,152.595 585.172,140.446 585.172,134.312" style="fill:none;stroke:#fff;stroke-width:4px;"/>
            <path d="M598.163,144.098C599.008,144.931 600.769,142.963 599.924,142.329C594.138,137.99 584.389,139.135 583.889,147.14C583.161,158.796 598,163.361 598,150.347" style="fill:none;stroke:#fff;stroke-width:4px;"/>
            <path d="M606.097,144.057C605.317,142.846 607.461,146.67 607.62,148.102C607.73,149.084 607.204,158.364 607.941,158.364C608.191,158.364 607.361,154.823 607.3,154.516C606.903,152.533 606.692,150.113 606.979,148.102C607.848,142.018 609.436,139.914 614.996,138.802" style="fill:none;stroke:#fff;stroke-width:4px;"/>
            <path d="M638.337,123.798C640.647,121.508 637.766,127.902 637.766,131.746C637.766,139.454 636.423,151.189 640.011,158.364C640.519,159.381 639.69,155.478 637.445,153.233C635.852,151.64 628.82,145.829 626.221,148.422C618.686,155.941 631.081,175.278 639.69,160.929" style="fill:none;stroke:#fff;stroke-width:4px;"/>
        </g>
        <g>
            <path d="M354.78,124.632C353.35,134.314 340.803,143.348 336.686,151.581C335.895,153.164 351.869,155.715 352.264,155.32C353.233,154.352 352.307,151.496 352.887,150.335C354.358,147.394 369.532,130.839 365.35,126.657C364.191,125.498 358.438,126.316 356.626,125.41" style="fill:none;stroke:#fff;stroke-width:4px;"/>
            <path d="M344.471,102.112C342.023,104.046 340.338,106.936 339.179,109.833C335.666,118.615 344.637,113.689 349.149,114.817C356.567,116.672 365.907,122.574 372.827,126.034C374.953,127.097 388.743,138.781 390.898,136.627C391.649,135.875 391.262,132.342 392.144,131.019C392.96,129.794 397.548,125.002 397.129,124.164C392.634,115.174 355.408,114.25 349.772,102.978" style="fill:none;stroke:#fff;stroke-width:4px;"/>
            <path d="M382.662,114.149C385,114.928 393.821,100.119 395.882,97.37C398.914,93.328 409.591,83.887 409.591,79.3C409.591,78.835 408.76,79.715 408.345,79.923C403.327,82.432 395.259,80.643 395.259,75.561C395.259,68.263 398.72,58.391 402.737,54.375C403.666,53.446 404.912,51.565 403.983,50.636C403.734,50.387 401.746,52.617 401.491,53.129C400.053,56.005 396.663,59.825 394.013,62.476C381.362,75.127 374.405,94.546 362.857,106.094" style="fill:none;stroke:#fff;stroke-width:4px;"/>
            <path d="M385.227,89.567C385.65,87.543 384.567,93.78 383.42,95.501C381.285,98.704 380.314,100.476 377.812,102.978" style="fill:none;stroke:#fff;stroke-width:4px;"/>
        </g>
        <g>
            <path d="M524.669,70.138C524.65,69.998 524.61,78.174 524.206,79.99C522.898,85.877 523.218,93.473 524.206,99.406C524.784,102.871 526.013,109.791 526.013,109.791L526.013,107.082C526.013,103.624 525.561,100.231 525.561,96.696C525.561,90.943 520.505,64.652 528.722,63.283C548.78,59.94 554.197,98.916 531.431,103.469" style="fill:none;stroke:#fff;stroke-width:4px;"/>
            <path d="M557.92,93.203C558.721,92.573 557.42,95.246 557.62,96.245C557.901,97.652 557.247,105.54 558.523,106.179C559.383,106.609 559.323,102.632 559.426,102.115C560.118,98.655 561.428,94.164 563.49,91.278C566.943,86.443 572.666,88.267 577.487,89.472" style="fill:none;stroke:#fff;stroke-width:4px;"/>
            <path d="M585.972,97.628C590.178,96.369 574.021,90.507 577.036,102.566C578.324,107.721 585.312,106.933 588.324,103.921C589.276,102.969 588.784,100.309 590.13,100.309C591.354,100.309 592.818,106.179 596.903,106.179" style="fill:none;stroke:#fff;stroke-width:4px;"/>
            <path d="M608.266,91.295C607.235,91.055 606.246,92.928 603.225,94.439C602.082,95.01 599.373,96.577 600.515,97.148C603.224,98.502 606.945,95.622 609.998,97.148C627.098,105.698 608.013,119.002 598.258,120.628" style="fill:none;stroke:#fff;stroke-width:4px;"/>
            <path d="M653.956,70.793C653.906,70.845 652.65,66.976 648.829,68.25C644.803,69.592 642.614,75.003 641.605,78.635C640.189,83.731 639.492,114.306 647.023,114.306" style="fill:none;stroke:#fff;stroke-width:4px;"/>
            <path d="M654.614,95.536C655.464,93.6 650.463,96.349 648.378,96.696C644.901,97.276 636.798,98.663 633.929,95.793" style="fill:none;stroke:#fff;stroke-width:4px;"/>
            <path d="M665.983,96.858C666.114,92.351 650.878,90.714 651.99,98.502C653.076,106.103 669.148,104.5 669.148,96.696" style="fill:none;stroke:#fff;stroke-width:4px;"/>
            <path d="M679.244,98.225C672.622,91.102 682.732,81.796 693.983,81.796" style="fill:none;stroke:#fff;stroke-width:4px;"/>
        </g>
        <g>
            <path d="M517.699,448.923C517.726,448.893 517.804,451.501 517.804,452.047L517.804,458.063C517.804,464.973 519.274,471.105 517.804,477.963C517.123,481.145 516.879,487.682 516.879,487.682C516.879,487.682 516.682,480.218 515.953,476.575C514.751,470.565 511.399,451.106 520.581,449.27C538.141,445.758 535.157,464.427 521.97,471.021" style="fill:none;stroke:#fff;stroke-width:4px;"/>
            <path d="M542.218,462.468C543.25,464.483 546.035,456.915 546.035,455.749" style="fill:none;stroke:#fff;stroke-width:4px;"/>
            <path d="M541.105,475.708C540.825,475.606 542.267,480.547 542.332,481.203C542.722,485.1 541.87,488.897 541.87,492.773" style="fill:none;stroke:#fff;stroke-width:4px;"/>
            <path d="M554.781,480.302C556.122,479.593 553.913,492.698 553.902,492.773C553.771,493.689 553.902,496.475 553.902,495.549C553.902,482.245 566.398,478.104 566.398,491.384" style="fill:none;stroke:#fff;stroke-width:4px;"/>
            <path d="M572.117,483.364C571.609,483.831 585.343,481.323 577.505,477.963C569.379,474.481 559.387,492.31 579.356,492.31" style="fill:none;stroke:#fff;stroke-width:4px;"/>
            <path d="M598.542,476.379C598.138,476.752 595.607,473.783 592.314,474.724C587.843,476.001 585.392,483.143 586.298,487.219C588.043,495.072 593.91,492.9 599.719,489.996" style="fill:none;stroke:#fff;stroke-width:4px;"/>
            <path d="M613.432,482.622C616.028,482.151 604.809,474.677 604.809,488.145C604.809,489.868 604.949,492.557 606.661,493.698C612.041,497.285 622.583,488.795 617.305,483.517" style="fill:none;stroke:#fff;stroke-width:4px;"/>
            <path d="M622.504,488.688C622.097,488.386 626.988,476.557 628.875,477.5C631.674,478.9 630.566,492.773 633.04,492.773" style="fill:none;stroke:#fff;stroke-width:4px;"/>
            <path d="M640.396,481.468C641.639,486.557 654.855,475.662 650.163,474.724C639.618,472.615 632.632,500.313 656.642,492.31" style="fill:none;stroke:#fff;stroke-width:4px;"/>
        </g>
        <g>
            <path d="M356.199,451.837C354.352,451.716 354.856,458.209 356.511,457.381C357.124,457.075 363.995,449.671 364.842,451.365C365.841,453.363 364.684,462.314 363.916,461.546C361.113,458.743 367.432,456.362 369.47,457.381C371.176,458.234 368.081,462.934 368.081,462.934C368.081,462.934 369.358,462.392 369.932,462.009C372.545,460.267 377.163,464.437 377.8,465.711C378.788,467.687 371.321,467.1 371.321,467.1C371.321,467.1 377.962,469.714 376.412,471.265C375.722,471.955 373.635,470.339 373.635,470.339C373.635,470.339 375.049,471.728 375.949,471.728C376.337,471.728 378.327,473.052 377.8,473.579C377.709,473.67 375.3,473.855 375.949,474.504C377.021,475.576 379.82,475.011 380.577,477.281C381.666,480.548 375.381,482.991 373.635,485.611C373.174,486.302 372.709,487.925 372.709,487.925C372.709,487.925 374.416,484.223 373.172,484.223C371.798,484.223 371.07,486.788 370.395,487.462C368.571,489.286 364.954,486.313 363.916,488.388C362.663,490.895 364.162,486.32 363.453,485.611C362.52,484.678 355.044,491.086 352.809,488.851C351.264,487.306 353.92,479.78 355.586,481.446C355.774,481.634 350.369,489.019 349.107,488.388C346.899,487.284 351.314,479.88 349.107,480.983C348.177,481.448 344.402,486.923 344.016,486.537C343.581,486.102 347.008,478.454 347.718,477.744C347.828,477.635 348.072,477.635 348.181,477.744C350.333,479.895 342.465,484.523 340.314,482.372C339.405,481.463 341.734,474.504 342.165,474.504L342.165,475.893C342.165,477.364 344.934,474.033 344.016,473.116C343.179,472.279 341.827,475.092 341.239,474.504C340.013,473.278 345.479,470.654 345.867,469.876C346.826,467.96 342.943,460.305 344.479,458.769C345.408,457.841 348.008,458.48 348.644,457.844C349.346,457.141 346.584,454.35 347.718,453.216C351.161,449.773 356.692,448.769 360.214,452.29" style="fill:none;stroke:#fff;stroke-width:4px;"/>
            <path d="M350.364,463.663C350.887,464.448 356.049,469.412 356.049,466.174" style="fill:none;stroke:#fff;stroke-width:4px;"/>
            <path d="M358.644,471.331C359.767,470.92 365.767,475.168 365.767,469.876" style="fill:none;stroke:#fff;stroke-width:4px;"/>
            <path d="M354.9,472.733C355.507,472.516 354.782,475.551 355.123,475.893C355.823,476.593 358.225,476.355 359.288,476.355" style="fill:none;stroke:#fff;stroke-width:4px;"/>
            <path d="M364.951,480.578C364.122,480.144 366.683,481.446 367.618,481.446C369.905,481.446 371.656,479.259 373.172,477.744" style="fill:none;stroke:#fff;stroke-width:4px;"/>
            <path d="M388.559,450.247C388.141,450.944 391.069,450.052 391.221,449.976C394.582,448.296 397.007,445.232 400.477,443.497" style="fill:none;stroke:#fff;stroke-width:4px;"/>
            <path d="M395.608,465.995C395.426,466.142 399.67,466.04 400.477,466.174C403.66,466.705 406.968,468.713 410.195,467.1" style="fill:none;stroke:#fff;stroke-width:4px;"/>
            <path d="M390.583,489.094C390.956,489.562 401.849,496.718 402.328,496.718" style="fill:none;stroke:#fff;stroke-width:4px;"/>
            <path d="M369.436,501.167C369.744,502.828 369.553,511.99 367.618,511.99" style="fill:none;stroke:#fff;stroke-width:4px;"/>
            <path d="M347.059,498.835C349.576,501.361 337.607,508.733 335.686,509.214" style="fill:none;stroke:#fff;stroke-width:4px;"/>
            <path d="M328.729,480.943C329.763,483.685 322.882,481.446 319.951,481.446" style="fill:none;stroke:#fff;stroke-width:4px;"/>
            <path d="M332.101,459.011C331.697,459.771 324.709,458.437 323.653,457.381" style="fill:none;stroke:#fff;stroke-width:4px;"/>
            <path d="M347.548,441.001C348.194,441.692 345.333,440.453 338.463,437.018" style="fill:none;stroke:#fff;stroke-width:4px;"/>
            <path d="M373.72,440.565C373.215,441.489 376.13,441.465 376.874,440.72C378.229,439.366 378.563,436.116 379.188,434.241" style="fill:none;stroke:#fff;stroke-width:4px;"/>
        </g>
    </g>
</svg>
