<?xml version="1.0" encoding="UTF-8" standalone="no"?>
<!DOCTYPE svg PUBLIC "-//W3C//DTD SVG 1.1//EN" "http://www.w3.org/Graphics/SVG/1.1/DTD/svg11.dtd">
<svg width="100%" height="100%" viewBox="0 0 1067 1067" version="1.1" xmlns="http://www.w3.org/2000/svg" xmlns:xlink="http://www.w3.org/1999/xlink" xml:space="preserve" xmlns:serif="http://www.serif.com/" style="fill-rule:evenodd;clip-rule:evenodd;stroke-linecap:round;stroke-linejoin:round;stroke-miterlimit:1.5;">
    <g id="nom">
        <path d="M444.664,196.489C435.731,184.474 428.562,171.815 422.655,158.096C418.65,148.793 415.457,139.349 412.183,129.782C383.589,46.238 357.865,162.017 355.029,191.899C354.925,192.995 354.745,204.316 354.384,204.419C352.105,205.066 350.492,205.144 347.867,205.146C324.003,205.158 235.436,171.208 207.412,161.413C204.229,160.3 195.427,155.348 193.848,159.67C181.424,193.662 279.503,278.703 271.003,298.853C258.876,327.596 185.369,357.278 156.723,373.484C146.082,379.504 134.255,383.481 122.496,386.744C118.912,387.738 115.257,388.434 111.589,389.038C109.778,389.336 104.706,388.879 106.165,389.993C123.366,403.134 149.334,405.486 169.158,413.196C186.064,419.771 202.938,427.734 218.494,437.091C242.866,451.749 221.757,457.843 200.606,469.504C181.991,479.767 56.755,548.521 61.568,573.389C65.798,595.238 162.461,611.465 184.46,618.838C186.852,619.64 226.231,629.308 225.793,632.725C222.247,660.4 163.888,703.447 146.409,727.475C130.967,748.701 118.968,771.455 108.679,795.535C105.263,803.53 76.858,846.486 88.949,854.77C115.26,872.796 191.735,841.663 218.392,829.328C230.869,823.554 261.798,805.733 263.747,807.987C274.109,819.973 242.743,920.982 241.727,944.581C241.478,950.38 239.063,991.996 253.106,991.836C302.903,991.268 378.87,856.345 439.839,876.958C470.259,887.242 471.196,934.965 487.904,958.512C501.323,977.422 521.662,989.922 539.476,1004.28C544.594,1008.4 556.125,1021.95 564.022,1021.55C602.584,1019.64 619.024,883.862 666.109,895.378C703.547,904.535 836.04,1031.64 868.529,1012.48C911.016,987.431 835.318,862.139 859.276,838.972C864.384,834.033 871.222,831.517 877.906,829.549C901.489,822.606 925.565,824.577 949.68,822.129C972.615,819.8 995.73,813.388 1018.49,809.441C1022.54,808.739 1033.15,808.431 1030.77,802.155C1021.06,776.496 908.937,692.892 879.568,662.904C874.223,657.448 835.605,614.908 837.481,607.92C843.017,587.295 1000.23,612.673 1001.93,583.927C1002.99,565.98 970.464,547.811 959.201,539.322C934.932,521.033 848.409,450.232 839.932,420.269C836.362,407.651 873.093,385.464 880.506,380.473C932.903,345.196 941.98,347.183 977.273,291.882C980.257,287.207 991.517,276.705 991.806,271.074C992.152,264.31 951.158,268.276 946.591,269.122C924.791,273.16 813.635,332.971 804.799,327.855C784.181,315.918 837.095,254.553 819.87,161.664C817.535,149.069 808.396,114.497 804.397,115.016C777.221,118.542 740.733,256.043 677.397,257.433C638.337,258.289 645.501,113.501 625.605,106.668C584.923,92.697 555.871,213.24 542.231,214.619C517.881,217.08 513.245,76.477 471.433,123.8C463.957,132.261 456.495,142.127 451.607,152.347C446.369,163.3 444.343,173.698 443.254,185.647" style="fill:rgb(105,0,0);stroke:black;stroke-width:8.33px;"/>
        <path d="M342.905,714.917C329.647,671.379 310.713,629.83 297.591,586.286C296.087,581.294 289.298,574.079 293.616,571.158C323.919,550.659 461.326,719.253 423.908,590.594C419.556,575.632 414.285,561.03 408.975,546.39C400.642,523.413 391.912,500.526 383.259,477.666" style="fill:none;stroke:rgb(255,251,251);stroke-width:15.24px;"/>
        <g transform="matrix(1,0,0,1,23.4729,-13.1707)">
            <path d="M495.885,471.805C490.396,426.541 439.452,471.266 425.84,488.98C379.181,549.706 455.171,621.162 517.339,609.766C593.521,595.802 546.344,466.303 493.21,446.643" style="fill:none;stroke:rgb(255,251,251);stroke-width:15.24px;"/>
        </g>
        <path d="M620.907,544.763C581.286,456.547 585.958,421.058 588.785,420.695C604.699,418.654 634.89,445.633 643.717,438.516C663.705,422.399 643.073,378.585 653.919,369.59C680.595,347.468 759.912,451.117 774.066,472.805" style="fill:none;stroke:rgb(255,251,251);stroke-width:15.24px;"/>
    </g>
</svg>
