<?xml version="1.0" encoding="UTF-8" standalone="no"?>
<!DOCTYPE svg PUBLIC "-//W3C//DTD SVG 1.1//EN" "http://www.w3.org/Graphics/SVG/1.1/DTD/svg11.dtd">
<svg width="100%" height="100%" viewBox="0 0 533 533" version="1.1" xmlns="http://www.w3.org/2000/svg" xmlns:xlink="http://www.w3.org/1999/xlink" xml:space="preserve" xmlns:serif="http://www.serif.com/" style="fill-rule:evenodd;clip-rule:evenodd;stroke-linejoin:round;stroke-miterlimit:2;">
    <g id="pickup">
        <path d="M196.275,141.624C206.009,137.166 219.958,133.768 222.814,133.768C239.928,133.768 263.56,146.174 278.343,154.387C290.086,160.911 302.643,166.174 313.068,174.862C322.34,182.588 330.342,192.19 339.937,199.866C376.836,229.385 386.429,234.947 405.991,280.592C412.282,295.271 418.57,324.144 414.383,345.629C411.422,360.821 403.957,373.12 392.789,381.097C385.672,386.18 359.277,402.372 344.391,409.224C337.074,412.591 330.96,414.189 327.417,414.632C313.22,416.407 299.602,413.065 286.938,406.284C275.09,399.941 264.154,390.044 254.716,382.493C244.259,374.128 232.431,367.553 221.833,359.31C202.18,344.024 186.48,324.948 171.078,305.696C139.07,265.686 130.77,268.358 127.047,216.248C125.602,196.014 129.851,178.23 143.804,162.533C159.398,144.989 177.469,139.688 196.275,141.624Z" style="fill:#ffea73;"/>
        <path d="M207.334,65.053C206.592,55.66 206.458,47.095 207.411,41.242C211.536,15.893 228.932,7.976 243.096,7.976C252.242,7.976 258.242,11.234 262.443,14.365C267.301,17.986 270.733,22.526 272.933,27.866L272.99,28.043C279.451,29.511 285.512,33 290.137,38.428C293.821,42.75 298.67,51.603 302.637,63.426C306.028,73.53 309.51,86.971 312.975,98.58C326.026,88.304 340.222,79.049 355.438,73.725C359.17,72.083 370.8,67.124 376.119,66.481C389.195,64.901 398.71,69.978 404.777,76.046C405.72,76.989 421.03,91.788 410.627,113.109C408.892,116.663 399.553,133.877 398.719,135.337C397.837,136.88 396.331,139.38 394.466,142.553C409.545,140.382 426.303,139.261 439.93,140.125C459.84,141.388 474.425,148.49 480.305,154.371C489.435,163.5 492.779,174.796 487.568,188.445C486.21,192.003 483.286,197.715 477.008,202.651C473.346,205.531 465.247,209.361 463.664,209.889C461.233,210.699 459.192,211.895 456.961,213.147C471.249,219.93 484.511,229.271 496.357,239.143C498.092,240.588 509.037,248.52 514.385,254.214C519.202,259.343 521.981,264.515 523.346,268.265C527.11,278.608 525.495,287.508 521.936,294.626C516.475,305.547 505.537,314.894 487.202,313.32C481.847,312.86 471.658,308.89 463.826,305.518C472.208,314.601 480.076,324.369 485.692,333.673C497.161,352.673 499.491,371.365 494.991,384.865C490.545,398.201 480.07,408.455 462.342,411.493C459.73,411.941 456.814,412.196 453.67,412.243C454.592,414.572 455.433,416.918 456.182,419.268C461.434,435.757 462.186,452.508 457.226,467.387C450.345,488.032 436.939,494.705 418.268,497.816C392.583,502.097 373.884,493.247 358.921,477.78C357.779,476.6 356.663,475.367 355.576,474.087C353.793,478.32 351.814,482.417 349.312,486.169C345.367,492.087 328.073,510.428 313.994,521.654C304.468,529.249 295.297,533.734 289.981,535.063C279.346,537.721 271.414,535.601 265.574,532.777C256.697,528.484 250.129,521.247 247.304,510.321C245.989,505.238 245.523,497.957 247.518,489.582C249.635,480.692 257.381,464.659 259.283,460.803C259.987,458.997 260.808,456.714 261.679,454.073C248.474,465.525 232.619,477.797 218.672,485.55C196.603,497.819 176.044,497.854 164.518,492.091C151.512,485.588 144.63,474.518 144.941,459.183C145.057,453.471 146.77,446.074 150.334,438.697C153.532,432.078 159.968,422.771 161.113,421.135L163.477,417.335C164.77,415.219 166.062,413.102 167.355,410.985L171.478,404.028C160.173,406.663 148.754,408.501 137.84,409.34C124.065,410.4 110.643,408.515 97.576,404.595C97.914,404.696 99.865,405.186 99.865,405.186C99.865,405.186 82.033,399.461 77.238,395.312C63.521,383.443 62.305,369.364 69.156,355.662C71.684,350.606 76.647,344.176 85.485,339.62C90.48,337.045 103.65,333.293 106.227,332.573C110.165,330.832 116.878,328.003 124.669,324.384C100.228,321.127 76.994,314.955 53.864,301.738C49.617,299.311 23.936,284.035 15.641,274.276C2.997,259.4 4.862,244.379 9.712,234.677C12.211,229.68 16.414,224.269 23.633,220.243C26.662,218.554 31.133,216.749 36.674,215.669C43.089,214.418 56.873,213.789 58.16,213.733L61.983,213.313C63.543,213.184 65.104,213.056 66.665,212.927L69.338,212.771C56.954,201.744 45.746,189.395 35.519,175.332C32.065,170.583 23.973,159.115 20.771,149.517C16.769,137.526 18.048,126.392 22.3,117.889C32.956,96.576 56.741,96.476 70.657,104.825C78.668,109.632 85.647,112.897 94.73,115.568L97.19,116.326C94.089,109.457 91.5,102.38 89.813,95.421C83.896,71 87.926,47.854 105.191,30.589C116.271,19.509 129.577,16.239 143.79,18.778C158.168,21.347 175.118,34.186 182.94,41.03C191.454,48.479 199.35,56.813 207.334,65.053ZM203.386,146.444C210.81,156.179 212.058,165.719 211.79,170.98C211.09,184.702 205.036,196.841 186.479,201.481C181.995,202.602 176.698,203.141 170.806,203.07C174.994,205.659 178.647,208.227 180.738,210.355C192.966,222.797 193.599,236.544 190.081,247.097C187.856,253.771 183.761,259.882 177.73,264.68C187.142,265.357 198.573,266.781 205.635,270.297C215.358,275.138 221.71,282.456 225.104,290.94C228.783,300.139 229.275,310.269 226.124,320.421C235.497,321.827 243.479,326.437 249.686,334.713C254.29,340.852 258.259,351.422 256.698,365.299C260.453,361.118 264.241,357.447 267.53,355.333C281.19,346.555 294.201,347.617 304.19,352.612C316.769,358.902 325.99,370.229 330.567,385.533C332.243,384.28 333.817,383.353 335.155,382.684C341.25,379.636 347.306,378.402 353.273,378.836C341.519,359.014 357.166,341.578 358.35,340.394C362.581,336.163 368.611,332.286 377.112,330.991C380.625,330.456 385.58,330.347 391.279,331.45C395,332.171 399.8,333.704 403.841,335.124C397.88,329.608 392.5,325.245 389.078,322.964C383.558,319.284 363.331,305.538 356.894,295.068C350.018,283.885 349.602,272.787 352.756,263.325C354.598,257.799 357.366,252.791 361.005,248.417C357.615,243.169 355.361,236.732 355.584,229.444C346.895,231.172 338.992,229.661 332.358,226.344C318.177,219.254 309.499,206.22 309.622,187.05C309.628,186.114 309.662,185.149 309.732,184.158C301.58,186.306 294.857,184.343 291.771,183.314C283.088,180.42 274.424,173.765 268.379,162.975C259.065,173.555 243.453,176.996 230.255,170.397C223.114,166.827 217.901,160.928 215.083,154.078C210.999,151.562 207.582,149.284 205.853,148.13C205.024,147.578 204.202,147.017 203.386,146.444Z" style="fill:#ffc700;fill-opacity:0.51;"/>
        <path d="M149.65,97.061C149.168,89.256 150.779,82.34 156.422,78.647C169.83,69.872 187.435,72.529 197.725,84.218C199.524,85.448 201.187,86.678 202.048,87.539C205.759,91.25 209.442,94.933 213.125,98.616L215.233,100.811C220.878,93.199 229.128,87.679 241.345,85.643C253.783,83.57 269.772,88.222 283.466,104.046C285.834,106.782 289.096,110.874 292.43,115.177C294.51,114.165 296.723,113.434 299.063,113.044C313.769,110.593 326.613,115.065 337.536,125.024C342.047,129.136 347.832,137.394 352.177,144.103C362.744,143.858 374.336,145.904 381.048,154.294C389.139,164.408 393.275,177.27 395.472,191.015L396.094,194.644C397.788,194.746 399.342,194.97 400.741,195.256C414.579,198.089 422.843,206.347 426.136,219.515C427.238,223.926 427.677,229.341 427.202,235.337C432.652,238.514 437.905,243.007 442.372,248.979C449.158,258.049 454.092,270.094 455.301,279.242C456.544,288.635 454.71,296.691 451.709,302.693C450.505,305.101 449.103,307.304 447.488,309.284C454.233,321.477 455.004,333.464 451.688,343.413C448.942,351.651 443.966,358.205 436.298,362.439C442.399,375.079 443.464,388.023 438.218,401.138C432.303,415.926 422.715,423.203 410.744,425.575C410.527,435.688 406.725,443.852 400.27,450.306C395.957,454.619 390.23,457.785 384.312,459.264C378.355,460.753 372.154,460.909 365.804,459.795C362.934,459.291 358.298,457.858 354.85,456.712C351.964,459.797 348.613,462.803 345.355,464.432C341.017,466.601 332.441,467.053 326.036,467.037C320.646,468.573 312.16,470.573 306.791,469.806C299.502,468.765 292.493,466.032 285.804,462.021L285.202,461.647C283.253,462.448 278.797,464.196 275.561,464.844C266.893,466.577 255.325,465.317 243.479,459.377C228.978,452.105 212.629,436.951 206.533,428.823C203.075,424.212 201.036,419.91 199.923,416.026C192.879,416.179 186.489,414.688 181.036,411.962C170.938,406.913 165.877,399.006 164.018,389.659C163.704,388.078 163.215,385.397 163.29,382.066C157.093,382.188 150.78,381.846 146.578,380.446C134.206,376.323 126.986,367.919 123.676,357.989C120.382,348.106 121.375,338.195 127.115,328.812C128.884,325.92 132.08,322.846 135.601,320.03C132.803,319.109 130.059,318.079 127.407,316.947C111.236,310.04 98.567,299.159 92.172,286.368C88.654,279.333 88.202,272.791 89.104,266.912C89.986,261.162 92.307,255.743 96.382,250.913C97.532,249.55 99.969,247.986 102.87,246.453C96.987,240.202 91.637,233.933 88.467,228.881C79.695,214.902 80.322,202.062 82.865,194.432C86.559,183.35 94.983,173.397 110.124,171.214L110.06,170.942C107.381,153.782 115.698,144.256 123.523,139.188C121.859,130.485 123.5,122.942 126.569,116.802C131.645,106.652 139.561,99.894 149.65,97.061ZM280.935,458.883C275.046,461.207 270.71,462.45 270.71,462.45C270.71,462.45 275.207,463.13 276.896,463.13C279.65,463.13 283.304,462.131 285.096,461.58C283.866,460.822 282.412,459.874 280.935,458.883ZM249.213,428.791L249.146,431.004L249.412,430.932L249.292,427.954L249.213,428.791ZM198.888,173.046C197.323,178.298 194.536,183.232 190.441,187.794C190.75,188.479 191.041,189.168 191.317,189.861C195.704,200.863 197.101,212.46 194.099,224.466C192.587,230.514 189.978,235.571 186.278,239.555C188.103,241.717 189.684,243.86 190.689,245.718C194.106,252.037 195.284,258.121 195.141,263.561C199.909,263.719 204.784,264.196 209.01,265.323C220.19,268.304 228.91,274.509 234.594,283.035C239.958,291.081 242.256,299.651 241.228,308.518C245.279,309.326 248.75,310.492 251.491,311.862C260.544,316.389 265.664,322.683 268.764,329.065C271.514,334.725 272.826,340.898 272.335,347.517C281.081,354.786 286.854,365.218 289.362,377.562C290.303,382.194 290.648,387.07 290.484,391.99C296.826,393.73 302.941,396.783 308.788,400.655L314.203,404.349C314.841,404.185 315.438,404.053 315.97,403.964C316.654,403.85 317.51,403.79 318.471,403.784C323.179,399.876 329.092,396.336 335.792,395.219C336.617,395.081 337.468,394.912 338.336,394.72C338.783,386.128 341.739,378.411 347.063,371.755C350.853,367.018 355.31,363.445 360.434,361.074C355.703,349.194 355.315,336.944 360.734,324.3C363.199,318.547 366.703,313.751 371.264,310.065C368.374,302.716 367.31,295.311 368.075,288.041C365.429,285.39 363.257,282.263 361.521,278.789C358.882,273.512 356.878,265.763 357.94,256.096C355.928,254.768 354.057,253.231 352.327,251.501C342.433,241.607 337.161,228.441 334.555,213.745C334.094,211.143 333.711,208.487 333.319,205.831C325.486,205.482 317.788,203.553 312.682,198.447C311.302,197.067 309.502,194.764 307.574,192.076C300.303,195.357 291.259,195.821 283.735,193.313C275.028,190.411 265.892,184.119 257.644,174.939L257.527,174.805C255.042,177.122 252.22,179.057 249.086,180.632C243.336,183.522 235.999,185.513 226.336,184.133C216.627,182.746 207.398,178.819 198.888,173.046ZM120.041,238.967L120.349,238.849C120.349,238.849 118.298,239.193 117.824,239.298C118.37,239.177 119.125,239.065 120.041,238.967Z" style="fill:#fff58e;fill-opacity:0.51;"/>
    </g>
</svg>
