<?xml version="1.0" encoding="UTF-8" standalone="no"?>
<!DOCTYPE svg PUBLIC "-//W3C//DTD SVG 1.1//EN" "http://www.w3.org/Graphics/SVG/1.1/DTD/svg11.dtd">
<svg width="100%" height="100%" viewBox="0 0 1067 1067" version="1.1" xmlns="http://www.w3.org/2000/svg" xmlns:xlink="http://www.w3.org/1999/xlink" xml:space="preserve" xmlns:serif="http://www.serif.com/" style="fill-rule:evenodd;clip-rule:evenodd;stroke-linecap:round;stroke-linejoin:round;stroke-miterlimit:1.5;">
    <g id="Artboard1" transform="matrix(2.08333,0,0,2.08333,0,0)">
        <rect x="0" y="0" width="512" height="512" style="fill:none;"/>
        <g id="flying0" transform="matrix(0.827226,0,0,0.827226,-27.0848,5.933)">
            <g transform="matrix(1.11429,0,0,1.11429,7.15682,-29.2279)">
                <path d="M331.927,299.979C342.119,308.093 349.517,322.888 345.499,336.3C342.56,346.114 335.8,356.565 336.078,367.076C336.208,372.016 336.244,377.604 337.758,382.359C338.386,384.332 341.643,386.45 341.622,388.225C341.592,390.824 338.093,395.951 335.112,395.868C333.074,395.811 331.06,394.195 329.308,393.319C326.182,391.757 322.587,390.593 320.158,387.967C316.188,383.677 316.326,376.979 313.795,371.855C308.666,361.471 300.434,350.941 290.121,345.423" style="fill:rgb(173,178,184);stroke:black;stroke-width:3.47px;"/>
                <path d="M339.502,394.886C341.057,394.871 342.548,395.138 344.054,395.527C345.008,395.773 346.003,396.029 346.908,396.425C355.815,400.32 341.53,403.377 338.506,405.37C336.366,406.78 332.32,410.573 337.128,412.189C338.692,412.714 340.912,412.175 342.413,411.683C344.325,411.057 346.775,410.721 348.398,409.482C350.783,407.662 353.071,404.677 356.082,403.908C358.976,403.169 362.427,405.065 365.057,403.379C367.243,401.977 368.05,397.878 369.986,396.859C370.279,396.705 370.007,397.521 369.989,397.852C369.951,398.571 369.88,399.277 369.958,399.998C370.103,401.341 371.934,401.98 372.962,402.376C378.155,404.377 388.065,405.732 392.896,402.171C394.031,401.334 392.747,399.432 391.923,398.935C389.704,397.595 386.479,398.028 383.997,398.075C382.682,398.101 381.329,398.099 380.023,398.262C379.876,398.281 377.896,398.506 377.895,398.482C377.854,396.923 383.069,395.584 384.135,395.277C386.905,394.482 389.512,393.232 392.254,392.364C394.661,391.602 396.091,391.919 398.047,390.006C399.181,388.896 400.939,387.074 400.784,385.316C400.488,381.966 395.973,384.019 394.309,384.701C388.456,387.1 382.853,390.323 376.967,392.549C375.389,393.146 372.526,390.611 370.736,390.574C367.377,390.504 364.255,392.704 360.819,392.248C354.734,391.442 349.267,387.992 343.004,387.785" style="fill:rgb(250,106,123);stroke:black;stroke-width:3.47px;"/>
            </g>
            <g transform="matrix(1.11429,0,0,1.11429,7.15682,-29.2279)">
                <path d="M234.088,341.142C209.684,331.068 186.46,356.346 167.2,367.157C159.64,371.4 146.309,377.7 142.989,386.3C139.64,394.977 150.227,401.576 157.584,401.039C160.547,400.823 163.672,400.164 166.547,399.421C167.518,399.17 168.485,398.907 169.455,398.653C170.025,398.504 171.689,397.947 171.173,398.233C161.219,403.763 145.442,407.134 141.934,419.342C140.352,424.848 138.988,431.26 145.37,434.159C149.811,436.178 154.898,434.937 159.181,433.078C160.531,432.493 161.859,431.789 163.138,431.063C163.886,430.639 166.033,430.124 165.306,429.665C163.647,428.617 158.305,430.062 156.56,430.426C150.197,431.753 137.992,433.446 141.103,443.01C141.52,444.292 142.125,445.657 142.99,446.707C148.26,453.098 156.904,446.362 161.958,443.035C163.612,441.946 165.304,440.919 166.674,439.466C167.293,438.809 169.202,437.065 168.341,437.334C164.897,438.407 161.464,441.617 158.666,443.845C153.851,447.68 141.81,456.388 150.836,462.523C152.181,463.437 153.585,464.304 155.085,464.944C163.902,468.706 173.308,462.833 178.664,456.077C180.521,453.735 182.124,451.155 183.696,448.616C184.216,447.777 184.727,446.934 185.213,446.075C185.413,445.722 186.184,444.806 185.855,445.042C180.894,448.61 176.275,454.135 173.173,459.353C172.863,459.874 169.867,464.84 171.551,465.418C180.384,468.446 190.606,458.011 193.795,451.033C195.015,448.363 195.958,445.558 196.612,442.701C196.828,441.756 197.01,440.806 197.206,439.857C197.313,439.342 197.781,437.833 197.66,438.345C197.19,440.33 196.242,442.181 195.451,444.049C193.136,449.514 181.646,465.239 195.264,466.946C198.952,467.409 200.767,464.086 202.17,461.194C204.664,456.054 205.083,450.518 205.966,444.968C206.365,442.459 207.102,440.029 207.791,437.588C208.004,436.834 208.237,436.065 208.494,435.324C208.63,434.933 209.125,433.793 208.969,434.177C206.357,440.626 203.943,447.255 202.993,454.192C202.627,456.863 202.27,461.041 205.498,462.114C216.351,465.722 225.738,451.668 227.669,442.72C228.34,439.615 229.185,436.582 229.765,433.45C229.965,432.372 230.241,431.332 230.52,430.273C230.675,429.685 230.958,427.895 230.962,428.503C230.995,434.952 229.271,441.28 229.044,447.725C229.005,448.819 228.126,452.596 229.157,453.093C232.243,454.581 236.165,451.945 239.006,450.919C241.505,450.017 244.281,449.817 246.638,448.53C252.55,445.302 254.867,437.693 255.733,431.474C256.293,427.448 256.636,423.359 257.136,419.318C257.29,418.073 257.347,416.82 257.471,415.572C257.543,414.853 257.841,412.728 257.899,413.447C258.326,418.743 257.684,424.256 257.664,429.584C257.662,430.184 257.146,434.211 257.695,434.721C258.349,435.328 260.755,434.873 261.558,434.818C265.766,434.528 268.742,432.66 272.05,430.204C275.059,427.971 278.364,425.308 280.306,422.035C285.29,413.632 281.536,402.518 279.521,393.596C279.348,392.833 279.917,395.11 280.116,395.867C280.43,397.062 280.774,398.248 281.12,399.434C282.092,402.764 282.92,407.178 284.933,410.102C287.683,414.096 295.528,408.321 297.88,406.083C309.288,395.227 299.753,377.597 298.374,365.129C297.692,358.957 299.718,352.748 298.882,346.761" style="fill:rgb(68,62,62);stroke:black;stroke-width:3.47px;"/>
            </g>
            <g transform="matrix(1.11429,0,0,1.11429,7.15682,-29.2279)">
                <path d="M249.844,315.444C241.196,312.236 238.417,307.181 242.546,297.236C243.662,294.548 245.22,292.064 247.041,289.804C248.902,287.496 250.501,286.191 250.451,286.324C247.146,295.276 237.857,302.88 231.54,309.581C228.496,312.81 225.264,317.208 220.67,318.238C216.467,319.18 212.497,314.771 213.376,310.66C214.241,306.61 218.683,302.4 221.781,299.85C222.793,299.016 220.502,302.151 219.702,303.189C218.132,305.226 216.136,306.913 213.975,308.297C207.624,312.366 195.915,320.016 189.172,313.034C180.574,304.13 193.968,291.239 199.547,285.102C201.38,283.086 204.71,278.513 207.401,277.707C209.042,277.216 204.655,280.771 204.446,281.004C202.351,283.335 200.161,285.47 197.777,287.503C191.409,292.936 182.035,304.696 172.669,298.737C162.432,292.224 175.128,283.546 180.816,279.683C183.03,278.179 184.923,276.266 187.027,274.622C187.911,273.931 190.782,272.518 189.66,272.524C188.187,272.532 184.759,276.618 183.459,277.475C178.558,280.706 172.934,283.416 166.982,283.954C154.691,285.066 165.621,269.303 168.547,265.755C170.007,263.985 171.351,262.235 173.126,260.756C175.566,258.724 177.208,257.256 176.189,257.858C170.728,261.082 165.135,266.472 158.341,266.653C151.498,266.835 147.035,259.473 149.286,253.391C151.366,247.77 158.304,243.181 163.072,239.893C164.197,239.117 161.152,241.859 160.032,242.642C157.928,244.111 155.591,245.81 153.174,246.731C147.273,248.98 139.896,243.433 135.937,239.483C128.668,232.231 133.586,223.343 141.775,219.897C143.132,219.327 146.829,217.213 148.174,217.596C148.513,217.692 147.627,218.042 147.353,218.264C146.384,219.046 145.379,219.752 144.328,220.421C141.611,222.151 138.497,223.936 135.506,225.14C127.189,228.489 119.039,226.559 111.233,222.758C109.312,221.822 104.418,219.646 103.433,217.513C102.469,215.424 105.922,212.08 107.2,210.995C112.157,206.786 120.655,205.284 126.833,203.998C129.035,203.54 131.233,203.068 133.433,202.604C134.715,202.334 138.442,202.526 137.296,201.892C133.608,199.85 128.579,200.338 124.55,200C113.906,199.107 102.012,197.153 92.155,192.721C82.104,188.201 89.121,182.026 97.209,180.863C104.661,179.791 111.425,182.585 118.836,179.502C119.436,179.252 117.567,179.229 116.936,179.074C115.833,178.804 114.736,178.503 113.632,178.237C110.574,177.501 107.47,176.971 104.403,176.271C93.383,173.755 82.523,169.43 72.499,164.173C71.454,163.625 63.798,160.291 64.593,157.849C65.456,155.202 71.198,155.369 73.203,155.421C82.602,155.662 91.956,156.468 101.326,157.121C104.58,157.349 107.66,157.632 110.914,157.204C112.018,157.059 113.118,156.893 114.22,156.74C114.838,156.654 116.621,156.768 116.072,156.472C99.391,147.474 78.332,147.159 62.363,136.504C59.369,134.506 49.174,129.082 50.273,124.882C51.471,120.304 58.709,119.791 62.46,120.254C74.472,121.735 85.865,128.747 97.597,131.658C101.197,132.551 104.802,133.287 108.377,134.292C109.751,134.678 111.133,135.025 112.516,135.374C113.126,135.528 114.531,136.434 114.345,135.833C113.833,134.176 100.765,128.326 98.531,127.063C84.435,119.092 70.21,111.215 56.222,103.097C53.068,101.267 44.314,97.665 42.934,93.492C42.809,93.115 47.328,93.259 47.514,93.285C52.007,93.913 56.291,96.073 60.446,97.797C70.998,102.174 80.932,106.972 90.916,112.497C93.728,114.054 96.534,115.592 99.449,116.947C100.347,117.364 101.263,117.793 102.206,118.101C102.75,118.279 104.197,119.036 103.858,118.574C99.897,113.175 91.287,108.954 85.579,105.701C80.59,102.857 75.748,99.852 70.844,96.868C53.45,86.286 27.601,71.017 34.511,47.08C35.445,43.846 36.486,39.736 38.811,37.186C38.915,37.073 42.059,43.276 42.206,43.614C44.112,48.005 45.466,52.16 48.089,56.247C57.35,70.681 70.205,80.895 83.528,91.276C86.847,93.862 90.11,96.372 93.701,98.582C93.76,98.618 97.135,100.641 97.153,100.612C97.692,99.729 93.098,94.097 92.621,93.455C87.41,86.442 79.645,79.731 76.888,71.187C75.719,67.563 75.684,63.696 74.774,60.007C74.442,58.664 74.003,57.357 73.628,56.027C73.392,55.187 72.433,52.865 73.057,53.474C81.041,61.267 87.356,70.27 96.203,77.372C109.823,88.306 125.114,95.73 140.678,103.266C155.168,110.282 169.251,118.077 184.414,123.55C193.684,126.896 202.722,131.069 212.164,133.901C212.737,134.072 220.814,136.737 221.232,135.914C222.348,133.717 216.415,128.555 215.288,127.534C213.809,126.195 212.316,124.891 210.75,123.657C206.756,120.507 191.277,109.453 198.973,103.019C207.037,96.277 219.129,100.343 226.252,106.409C228.087,107.972 230.853,113.516 233.207,114.132C237.198,115.177 241.322,113.039 245.428,114.54C249.868,116.163 254.903,119.887 257.569,123.916C258.572,125.432 258.57,127.912 259.769,129.081C261.39,130.66 265.746,129.993 266.797,132.123C267.898,134.354 264.761,137.759 265.371,139.061C265.925,140.243 271.013,139.197 272.079,139.344C273.628,139.557 274.394,142.738 276.101,143.41C278.937,144.526 283.028,142.488 285.406,144.281C287.741,146.04 286.231,149.082 288.11,150.969C290.339,153.208 293.504,153.7 295.962,155.505C297.426,156.58 297.495,158.867 298.948,160.157C299.948,161.043 303.01,162.206 303.175,163.769C303.705,168.791 299.322,169.082 298.591,172.231C298.356,173.245 300.656,171.97 301.69,171.855C303.486,171.654 305.888,172.399 306.046,174.502C306.417,179.45 297.406,183.59 296.405,189.173" style="fill:rgb(197,197,197);stroke:black;stroke-width:3.47px;"/>
            </g>
            <g transform="matrix(1.11429,0,0,1.11429,7.15682,-29.2279)">
                <path d="M310.704,183.117C303.915,186.353 296.355,189.613 290.882,194.908C273.181,212.033 274.564,240.848 269.193,262.77C264.135,283.419 254.814,302.291 245.991,321.46C242.933,328.104 234.487,338.072 234.624,345.91C234.763,353.837 199.478,399.525 206.258,401.513C214.11,403.815 229.032,407.085 252.438,394.995C258.118,392.062 269.816,370.664 292.392,360.232C300.044,356.697 309.598,366.035 317.656,361.363C323.01,358.26 326.589,351.866 329.318,346.512C338.095,329.292 335.554,311.153 339.336,292.972C341.79,281.179 345.831,269.261 352.131,258.944C356.228,252.234 366.146,237.926 366.627,230.418C367.105,222.948 363.162,216.242 357.797,211.337C349.752,203.98 340.007,199.868 330.591,194.745C324.346,191.347 318.649,186.845 311.877,184.469" style="fill:rgb(173,178,184);stroke:black;stroke-width:3.47px;"/>
            </g>
            <g transform="matrix(1.11429,0,0,1.11429,7.15682,-29.2279)">
                <path d="M290.963,204.891C295.86,195.805 302.171,187.385 310.974,181.787C321.768,174.923 335.326,172.602 347.308,168.579C356.485,165.498 364.973,160.382 374.7,159.112C395.215,156.434 408.686,173.807 407.975,192.557C407.348,209.122 384.766,207.316 375.178,216.414C368.575,222.68 366.306,231.256 362.827,239.34C358.95,248.349 354.186,256.94 348.081,264.648" style="fill:rgb(109,137,175);stroke:black;stroke-width:3.47px;"/>
            </g>
            <g transform="matrix(1.11429,0,0,1.11429,7.15682,-29.2279)">
                <path d="M403.207,193.647C408.978,197.264 412.383,204.333 414.397,210.615C415.352,213.593 415.875,217.512 414.007,220.279C413.829,220.543 413.569,219.817 413.35,219.585C412.916,219.124 412.496,218.648 412.062,218.187C410.791,216.837 409.508,215.495 408.218,214.164C404.18,210.002 400.093,205.517 394.311,203.938" style="stroke:black;stroke-width:3.47px;"/>
            </g>
            <g transform="matrix(1.11429,0,0,1.11429,7.15682,-29.2279)">
                <path d="M389.392,186.924C389.862,181.632 384.552,172.217 378.097,176.657C372.177,180.729 376.817,187.165 382.212,188.166C384.724,188.632 387.143,188.16 389.653,188.261" style="stroke:black;stroke-width:3.47px;"/>
            </g>
            <g transform="matrix(1.11429,0,0,1.11429,7.15682,-29.2279)">
                <path d="M307.297,309.883C310.771,319.866 313.112,329.242 311.274,339.858C309.919,347.679 305.454,355.892 305.92,363.921C306.053,366.209 306.396,369.091 308.138,370.762C310.991,373.497 316.091,374.596 315.498,379.572C315.299,381.245 313.347,382.062 312.022,382.685C309.01,384.103 304.993,387.347 301.464,385.863C289.499,380.832 292.805,370.863 291.15,360.351C289.949,352.72 285.635,347.158 279.401,342.962" style="fill:rgb(173,178,184);stroke:black;stroke-width:3.47px;"/>
                <path d="M310.516,385.582C312.805,385.188 315.017,385.454 317.314,385.57C318.816,385.647 320.247,385.662 321.709,386.066C322.622,386.318 323.568,386.484 324.472,386.766C325.083,386.956 325.645,387.245 326.201,387.558C331.139,390.338 322.626,392.719 320.442,394.483C318.775,395.83 314.981,401.289 319.198,402.227C324.41,403.386 329.271,396.723 333.421,394.417C334.943,393.571 336.65,394.992 338.198,394.027C339.453,393.246 338.725,391.745 340.252,391.181C342.787,390.247 346.424,391.339 349.077,391.461C353.547,391.667 358.513,391.116 362.892,390.253C364.914,389.855 369.886,386.273 366.147,384.45C364.811,383.799 362.666,383.886 361.229,384.195C360.727,384.304 359.231,384.977 358.726,384.752C358.721,384.75 359.47,384.333 359.477,384.33C359.942,384.113 360.427,383.948 360.92,383.805C362.606,383.318 364.223,382.776 365.814,382.021C368.815,380.598 378.146,379.232 373.701,374.108C373.23,373.566 372.655,373.001 372.049,372.609C370.641,371.698 368.611,372.664 367.104,372.937C362.264,373.815 357.425,376.7 352.662,378.105C347.427,379.649 341.987,379.612 336.578,379.501C329.811,379.363 322.93,378.976 316.279,377.6" style="fill:rgb(250,106,123);stroke:black;stroke-width:3.47px;"/>
            </g>
            <g transform="matrix(1.11429,0,0,1.11429,7.15682,-29.2279)">
                <path d="M285.323,195.361C286.598,188.937 281.312,182.383 277.622,177.755C267.763,165.385 252.89,151.022 237.987,144.842" style="fill:none;stroke:black;stroke-width:3.47px;"/>
            </g>
            <g transform="matrix(1.11429,0,0,1.11429,7.15682,-29.2279)">
                <path d="M292.722,189.261C291.614,166.634 270.727,153.958 251.919,145.76" style="fill:none;stroke:black;stroke-width:3.47px;"/>
            </g>
            <g transform="matrix(1.11429,0,0,1.11429,7.15682,-29.2279)">
                <g opacity="0.1">
                    <path d="M372.433,213.354C365.818,216.126 362.492,224.374 359.127,230.025C357.523,232.719 355.444,235.178 353.73,237.815C352.121,240.29 350.079,242.347 348.833,245.055C346.897,249.261 346.105,253.757 343.818,257.875C338.533,267.389 331.834,276.581 330.114,287.499C329.149,293.618 329.494,299.799 329.126,305.944C328.597,314.754 326.889,323.697 325.273,332.342C323.71,340.7 322.348,349.348 316.602,356.035" style="fill:none;stroke:black;stroke-width:16px;"/>
                    <path d="M341.652,261.385C342.027,267.98 338.41,272.95 336.559,278.835C335.269,282.937 335.059,287.351 334.097,291.531" style="fill:none;stroke:black;stroke-width:16px;"/>
                    <path d="M359.462,236.83C357.634,240.951 354.59,245.411 351.494,248.74" style="fill:none;stroke:black;stroke-width:16px;"/>
                    <path d="M283.983,356.941C279.136,362.765 270.762,364.707 264.971,369.545C258.492,374.957 255.601,384.937 248.907,390.393C246.934,392.001 244.148,392.412 241.839,393.341C237.635,395.032 232.97,397.611 228.415,398.123C222.909,398.743 217.414,397.145 211.984,397.727" style="fill:none;stroke:black;stroke-width:16px;"/>
                    <path d="M339.738,315.024C339.512,318.552 341.549,322.211 342.258,325.604C343.094,329.602 342.65,334.157 341.931,338.155C341.194,342.258 338.436,345.908 337.05,349.866C334.184,358.055 332.647,367.719 334.245,376.316" style="fill:none;stroke:black;stroke-width:3.86px;"/>
                    <path d="M338.383,310.713C340.06,312.135 340.851,314.455 341.568,316.459C343.507,321.873 344.789,328.695 342.68,334.229" style="fill:none;stroke:black;stroke-width:3.86px;"/>
                    <path d="M305.159,312.092C306.546,319.439 309.328,327.287 308.815,334.906C308.54,339.001 307.116,342.59 306.286,346.554C304.99,352.743 304.136,358.946 304.227,365.293C304.278,368.884 304.537,374.179 307.116,376.94C307.28,377.116 310.315,379.6 310.525,379.431C311.439,378.695 310.712,375.575 309.609,375.215C309.04,375.029 310.457,376.058 310.887,376.474C311.137,376.715 314.466,380.055 312.142,379.782C311.473,379.704 310.88,377.882 310.656,377.373C309.818,375.466 308.847,373.982 307.118,372.822" style="fill:none;stroke:black;stroke-width:3.86px;"/>
                    <path d="M281.798,341.238C293.349,348.911 292.958,363.701 296.091,375.413C296.856,378.274 300.072,383.201 303.194,383.817C305.458,384.263 306.797,383.284 308.835,382.574" style="fill:none;stroke:black;stroke-width:3.86px;"/>
                    <path d="M312.975,365.204C315.169,368.277 316.416,371.548 317.553,375.102" style="fill:none;stroke:black;stroke-width:3.86px;"/>
                    <path d="M313.591,383.335C315.5,382.473 318.462,382.284 320.488,382.7C321.853,382.981 323.218,383.299 324.482,383.899C325.565,384.413 326.676,384.772 327.603,385.56C329.324,387.023 328.744,389.29 327.667,391.012C325.564,394.377 321.453,396.505 319.474,399.895C319.114,400.513 320.9,400.201 321.611,400.111C323.057,399.929 324.969,398.702 326.273,397.999C327.921,397.112 329.245,395.672 330.941,394.892C332.24,394.295 334.045,394.379 335.192,393.549C336.107,392.886 336.579,391.762 337.511,391.087C342.4,387.543 351.302,389.031 357.038,388.568C358.932,388.415 362.182,388.851 363.706,387.443" style="fill:none;stroke:black;stroke-width:3.86px;"/>
                    <path d="M342.005,392.361C343.428,392.859 344.782,393.446 346.166,394.035C347.094,394.43 347.938,394.763 348.756,395.376C352.304,398.034 350.817,399.165 347.719,401.432C345.536,403.03 343.345,404.611 341.207,406.269C340.17,407.073 338.853,407.915 338.508,409.302C338.355,409.922 341.071,410.313 341.419,410.275C343.96,409.997 346.407,408.509 348.635,407.344C350.66,406.284 351.057,403.338 353.109,402.618C356.657,401.371 360.825,402.827 364.332,401.105" style="fill:none;stroke:black;stroke-width:3.86px;"/>
                    <path d="M372.257,398.035C373.867,402.142 381.762,402.276 385.52,402.215C386.766,402.195 388.84,402.384 389.881,401.546" style="fill:none;stroke:black;stroke-width:3.86px;"/>
                    <path d="M380.501,395.493C383.275,394.77 385.205,393.172 387.688,392.013C390.742,390.589 394.431,390.383 397.718,390.328" style="fill:none;stroke:black;stroke-width:3.86px;"/>
                    <path d="M243.217,287.025C237.475,290.172 232.643,294.971 228.137,299.685C226.921,300.957 225.832,302.314 224.88,303.793C224.335,304.639 224.229,306.868 223.343,306.391C219.325,304.229 222.715,295.031 216.353,296.272C211.017,297.312 209.097,303.848 203.076,304.932C202.503,305.035 200.348,305.984 199.858,305.637C197.862,304.222 201.159,295.798 201.526,293.806C201.696,292.883 202.379,290.972 201.305,290.305C197.672,288.05 191.753,292.365 188.016,293.388C186.23,293.877 183.782,294.08 182.981,291.85C182.33,290.039 185.435,287.352 186.505,286.32C189.306,283.62 191.706,280.402 191.139,276.245C190.438,271.096 186.318,268.395 181.413,268.609C179.76,268.681 177.948,269.212 176.582,270.192C175.9,270.682 174.01,272.322 174.743,271.912C179.149,269.44 187.447,257.227 183.077,252.047C179.578,247.9 171.939,252.335 168.278,254.488C167.561,254.91 163.825,257.63 162.978,256.258C160.808,252.741 167.904,247.019 169.905,244.607C170.484,243.909 172.695,241.642 172.122,240.545C169.677,235.863 160.371,235.477 155.933,236.721C155.433,236.861 147.417,239.156 147.287,238.722C145.895,234.088 154.238,230.08 153.177,226.42C152.644,224.582 148.61,223.942 147.068,223.655C146.124,223.478 143.701,224.392 144.188,223.564C145.249,221.754 147.275,219.479 144.343,218.337C136.926,215.449 128.438,220.452 120.842,220.074C119.882,220.026 114.206,219.862 114.306,218.349C114.46,216.013 120.666,214.406 122.482,213.988C128.459,212.609 134.795,212.403 140.636,210.564C143.141,209.776 145.721,208.57 146.185,205.71C146.669,202.728 143.682,199.507 141.666,197.722C135.34,192.12 124.053,193.126 116.237,192.38C113.184,192.089 110.25,192.003 107.246,191.343C106.369,191.15 105.489,190.953 104.604,190.799C104.122,190.715 102.702,190.712 103.159,190.538C110.719,187.664 124.02,188.727 126.215,178.157C127.05,174.136 119.979,173.135 117.574,172.49C106.673,169.571 95.747,163.557 84.327,162.837C83.373,162.777 86.141,163.442 87.056,163.721C89.625,164.505 92.168,165.082 94.861,165.249C101.662,165.671 117.524,163.695 118.287,154.367C118.695,149.374 111.464,147.299 108.018,145.471C101.221,141.867 94.014,140.763 86.847,138.253C81.723,136.459 77.067,133.551 71.904,131.923" style="fill:none;stroke:black;stroke-width:24.68px;"/>
                    <path d="M115.204,127.987C113.53,122.473 107.368,121.523 102.572,120.36C96.283,118.834 89.03,116.041 83.121,113.415C79.675,111.884 76.32,109.783 73.145,107.771C72.053,107.079 70.911,106.459 69.785,105.825C69.218,105.506 67.436,104.712 68.03,104.975C76.431,108.7 83.947,112.97 93.237,114.173C95.745,114.498 101.117,115.219 101.989,111.807C103.383,106.356 96.699,102.674 92.835,100.684C83.732,95.997 71.495,91.957 64.14,84.706C59.238,79.874 55.843,72.71 53.672,66.27C52.948,64.121 52.16,62.057 51.267,59.973C50.835,58.964 50.818,55.797 50.376,56.802C42.59,74.527 66.638,89.207 80.756,94.776C85.624,96.695 92.302,99.508 97.636,97.909C105.672,95.501 97.146,83.72 94.505,80.74C92.426,78.395 90.179,76.166 87.922,73.991" style="fill:none;stroke:black;stroke-width:24.68px;"/>
                    <path d="M208.471,106.762C214.165,109.969 217.529,116.422 223.441,119.11C230.705,122.412 238.738,123.146 245.823,126.149C252.107,128.812 255.496,135.865 261.083,139.716C275.226,149.464 294.813,156.896 297.205,176.592C297.677,180.48 296.208,184.865 295.645,188.679" style="fill:none;stroke:black;stroke-width:24.68px;"/>
                    <path d="M272.785,210.482C277.422,205.772 273.628,197.223 271.724,192.125C267.502,180.816 260.471,172.176 251.131,164.709C247.497,161.804 243.464,159.507 239.828,156.593C238.038,155.159 235.943,153.815 234.935,151.665C234.897,151.584 236.34,151.276 236.393,151.27C237.77,151.104 239.06,151.488 240.31,152.049C244.693,154.019 248.579,158.043 252.072,161.252C258.571,167.222 264.535,174.087 269.791,181.152C272.923,185.362 276.662,188.981 278.158,194.224C280.024,200.769 277.463,207.659 274.317,213.412C273.333,215.212 272.857,217.122 272.294,219.077C272.11,219.717 271.933,220.358 271.776,221.005C271.7,221.316 271.687,222.249 271.59,221.945C270.248,217.773 272.242,212.801 270.896,208.37C266.266,193.13 254.85,182.398 243.096,172.196C237.618,167.441 231.018,163.397 224.869,159.498C223.006,158.317 221.113,157.479 219.023,156.793C218.324,156.563 217.627,156.328 216.929,156.092C216.52,155.954 215.492,156.014 215.714,155.644C216.365,154.56 220.011,154.246 221.169,154.068C226.177,153.298 230.527,150.918 235.661,150.885C237.481,150.873 239.459,150.894 241.205,151.45C241.809,151.642 242.398,151.898 242.976,152.159C243.335,152.321 244.421,152.752 244.031,152.691C236.275,151.488 229.041,147.779 220.959,148.15C216.179,148.369 212.319,151.131 207.79,151.965" style="fill:none;stroke:black;stroke-width:12.88px;"/>
                    <path d="M360.981,170.238C355.437,167.626 347.136,173.342 341.829,175.32C335.392,177.719 327.956,180.478 321.974,183.858C319.163,185.446 316.859,187.89 314.036,189.523C306.972,193.611 299.138,197.573 293.568,203.702C285.184,212.931 281.375,226.077 281.214,238.313C281.133,244.431 282.318,250.488 281.869,256.617C281.436,262.535 279.359,268.219 277.619,273.844C272.272,291.127 259.135,304.959 250.803,320.811C245.55,330.804 242.423,341.813 237.606,352.025C236.098,355.221 233.764,357.924 232.096,361.033C227.902,368.849 224.547,376.921 220.083,384.594" style="fill:none;stroke:rgb(255,254,254);stroke-width:20.68px;"/>
                    <path d="M115.747,95.459C122.588,98.185 128.194,103.608 134.838,106.793C144.084,111.226 154.191,113.904 163.172,118.904C173.823,124.834 183.145,131.31 195.31,133.698C202.892,135.186 209.945,138.801 217.715,139.571C220.441,139.842 224.448,138.578 224.2,135.261" style="fill:none;stroke:rgb(255,254,254);stroke-width:4.27px;"/>
                </g>
            </g>
        </g>
    </g>
</svg>
