<?xml version="1.0" encoding="UTF-8" standalone="no"?>
<!DOCTYPE svg PUBLIC "-//W3C//DTD SVG 1.1//EN" "http://www.w3.org/Graphics/SVG/1.1/DTD/svg11.dtd">
<svg width="100%" height="100%" viewBox="0 0 1067 1067" version="1.1" xmlns="http://www.w3.org/2000/svg" xmlns:xlink="http://www.w3.org/1999/xlink" xml:space="preserve" xmlns:serif="http://www.serif.com/" style="fill-rule:evenodd;clip-rule:evenodd;stroke-linecap:round;stroke-linejoin:round;stroke-miterlimit:1.5;">
    <g id="Artboard1" transform="matrix(2.08333,0,0,2.08333,0,0)">
        <rect x="0" y="0" width="512" height="512" style="fill:none;"/>
        <g id="flying1" transform="matrix(0.809592,0.0841689,-0.0841689,0.809592,-1.34872,-19.1273)">
            <g transform="matrix(0.987281,-0.158986,0.158986,0.987281,63.4945,63.129)">
                <path d="M295.446,197.456C295.618,198.007 303.947,197.529 304.552,197.529C314.676,197.529 324.645,197.15 334.527,199.346C354.527,203.79 378.571,220.201 396.293,230.834C423.404,247.101 443.526,270.68 470.473,286.848C474.634,289.345 477.362,293.863 481.373,296.537C486.233,299.777 493.004,302.655 498.328,305.317C503.125,307.716 509.899,306.897 513.77,310.767C516.254,313.252 506.58,313.795 505.595,313.795C500.338,313.795 494.502,314.125 489.548,312.887C487.289,312.322 484.975,311.206 482.887,310.162C482.426,309.931 481.373,309.859 481.373,309.859C481.373,309.859 484.078,310.445 485.006,311.373C486.699,313.065 488.679,314.555 490.153,316.52C494.428,322.219 499.28,330.073 505.292,334.081C508.147,335.984 511.926,336.792 514.981,338.32C515.613,338.636 520.662,340.51 520.431,340.742C512.567,348.606 501.241,342.52 492.273,339.531C490.598,338.972 483.175,333.186 481.07,335.292C480.198,336.164 483.602,339.145 484.098,340.136C485.766,343.473 496.99,353.283 492.878,357.395C492.251,358.022 493.591,360.52 492.575,361.028C490.62,362.006 487.283,359.465 485.612,358.908C478.206,356.44 470.245,353.837 464.417,348.008C463.519,347.11 456.711,338.76 456.545,338.925C455.884,339.587 461.63,346.612 461.995,347.706C464.44,355.041 466.99,363.98 458.362,368.294C455.678,369.636 451.558,366.585 449.581,365.267C442.811,360.753 438.942,351.599 432.929,345.586C431.97,344.627 425.687,336.781 425.662,336.806C424.829,337.639 429.484,342.632 429.901,343.467C432.007,347.68 444.951,359.905 439.287,365.569C436.39,368.467 431.129,366.406 427.781,365.569C416.225,362.68 410.723,356.786 403.862,346.495C402.018,343.729 399.84,341.204 398.109,338.32C397.288,336.951 395.385,334.384 395.385,334.384C395.385,334.384 396.192,335.191 396.596,335.595C398.375,337.374 399.551,339.815 400.834,341.953C404.146,347.473 405.645,354.209 409.009,359.817C409.794,361.124 411.782,365.522 410.221,367.083C404.24,373.064 385.193,368.97 381.154,362.239C379.054,358.738 380.905,352.767 379.943,348.917C379.341,346.511 378.521,343.604 377.218,341.65C376.634,340.773 376.31,338.622 376.31,338.622C376.31,338.622 376.713,339.834 376.915,340.439C377.756,342.96 378.701,345.463 379.337,348.008C380.725,353.559 386.285,374.497 373.585,371.322C365.5,369.301 359.678,360.592 358.749,353.156C358.291,349.495 359.354,346.092 359.354,342.559C359.354,340.717 360.263,337.109 360.263,337.109C360.263,337.109 359.993,339.362 360.263,340.439C360.829,342.706 361.171,345.642 361.171,348.008C361.171,355.712 362.1,368.148 350.574,365.267C343.605,363.525 340.279,356.97 340.279,349.825L340.279,339.834C340.279,339.834 340.214,342.903 340.582,344.375C341.123,346.54 342.632,351.478 341.491,353.761C339.052,358.639 334.127,362.341 327.563,361.028C319.585,359.432 323.627,343.247 323.627,338.017C323.627,337.108 323.644,330.145 324.838,330.145C325.218,330.145 323.963,333.98 323.93,334.081C323.327,335.89 323.706,338.228 323.324,340.136C321.874,347.386 325.931,360.62 311.819,357.092C304.654,355.301 299.475,345.305 301.221,338.32C302.568,332.933 304.372,323.664 302.433,325.603C301.297,326.739 302.735,333.46 302.735,334.686C302.735,341.336 302.845,345.476 297.891,350.431C294.819,353.503 289.88,351.283 287.899,348.311C284.223,342.797 284.382,332.426 282.752,325.906C282.404,324.513 283.153,320.252 282.147,319.245C281.296,318.395 281.364,321.113 281.238,321.364C280.568,322.704 278.62,325.027 277.302,325.906C273.051,328.74 267.882,329.485 263.072,330.448C257.835,331.495 254.46,328.369 250.355,325.906C240.304,319.875 230.069,306.022 230.069,294.417" style="fill:rgb(197,197,197);stroke:black;stroke-width:3.93px;"/>
            </g>
            <g transform="matrix(1.10887,0.109799,-0.109799,1.10887,40.5746,-62.8565)">
                <path d="M331.927,299.979C342.119,308.093 349.517,322.888 345.499,336.3C342.56,346.114 335.8,356.565 336.078,367.076C336.208,372.016 336.244,377.604 337.758,382.359C338.386,384.332 341.643,386.45 341.622,388.225C341.592,390.824 338.093,395.951 335.112,395.868C333.074,395.811 331.06,394.195 329.308,393.319C326.182,391.757 322.587,390.593 320.158,387.967C316.188,383.677 316.326,376.979 313.795,371.855C308.666,361.471 300.434,350.941 290.121,345.423" style="fill:rgb(173,178,184);stroke:black;stroke-width:3.53px;"/>
                <path d="M339.502,394.886C341.057,394.871 342.548,395.138 344.054,395.527C345.008,395.773 346.003,396.029 346.908,396.425C355.815,400.32 341.53,403.377 338.506,405.37C336.366,406.78 332.32,410.573 337.128,412.189C338.692,412.714 340.912,412.175 342.413,411.683C344.325,411.057 346.775,410.721 348.398,409.482C350.783,407.662 353.071,404.677 356.082,403.908C358.976,403.169 362.427,405.065 365.057,403.379C367.243,401.977 368.05,397.878 369.986,396.859C370.279,396.705 370.007,397.521 369.989,397.852C369.951,398.571 369.88,399.277 369.958,399.998C370.103,401.341 371.934,401.98 372.962,402.376C378.155,404.377 388.065,405.732 392.896,402.171C394.031,401.334 392.747,399.432 391.923,398.935C389.704,397.595 386.479,398.028 383.997,398.075C382.682,398.101 381.329,398.099 380.023,398.262C379.876,398.281 377.896,398.506 377.895,398.482C377.854,396.923 383.069,395.584 384.135,395.277C386.905,394.482 389.512,393.232 392.254,392.364C394.661,391.602 396.091,391.919 398.047,390.006C399.181,388.896 400.939,387.074 400.784,385.316C400.488,381.966 395.973,384.019 394.309,384.701C388.456,387.1 382.853,390.323 376.967,392.549C375.389,393.146 372.526,390.611 370.736,390.574C367.377,390.504 364.255,392.704 360.819,392.248C354.734,391.442 349.267,387.992 343.004,387.785" style="fill:rgb(250,106,123);stroke:black;stroke-width:3.53px;"/>
            </g>
            <g transform="matrix(1.11019,-0.095561,0.095561,1.11019,-23.9791,-7.24562)">
                <path d="M234.088,341.142C209.684,331.068 186.46,356.346 167.2,367.157C159.64,371.4 146.309,377.7 142.989,386.3C139.64,394.977 150.227,401.576 157.584,401.039C160.547,400.823 163.672,400.164 166.547,399.421C167.518,399.17 168.485,398.907 169.455,398.653C170.025,398.504 171.689,397.947 171.173,398.233C161.219,403.763 145.442,407.134 141.934,419.342C140.352,424.848 138.988,431.26 145.37,434.159C149.811,436.178 154.898,434.937 159.181,433.078C160.531,432.493 161.859,431.789 163.138,431.063C163.886,430.639 166.033,430.124 165.306,429.665C163.647,428.617 158.305,430.062 156.56,430.426C150.197,431.753 137.992,433.446 141.103,443.01C141.52,444.292 142.125,445.657 142.99,446.707C148.26,453.098 156.904,446.362 161.958,443.035C163.612,441.946 165.304,440.919 166.674,439.466C167.293,438.809 169.202,437.065 168.341,437.334C164.897,438.407 161.464,441.617 158.666,443.845C153.851,447.68 141.81,456.388 150.836,462.523C152.181,463.437 153.585,464.304 155.085,464.944C163.902,468.706 173.308,462.833 178.664,456.077C180.521,453.735 182.124,451.155 183.696,448.616C184.216,447.777 184.727,446.934 185.213,446.075C185.413,445.722 186.184,444.806 185.855,445.042C180.894,448.61 176.275,454.135 173.173,459.353C172.863,459.874 169.867,464.84 171.551,465.418C180.384,468.446 190.606,458.011 193.795,451.033C195.015,448.363 195.958,445.558 196.612,442.701C196.828,441.756 197.01,440.806 197.206,439.857C197.313,439.342 197.781,437.833 197.66,438.345C197.19,440.33 196.242,442.181 195.451,444.049C193.136,449.514 181.646,465.239 195.264,466.946C198.952,467.409 200.767,464.086 202.17,461.194C204.664,456.054 205.083,450.518 205.966,444.968C206.365,442.459 207.102,440.029 207.791,437.588C208.004,436.834 208.237,436.065 208.494,435.324C208.63,434.933 209.125,433.793 208.969,434.177C206.357,440.626 203.943,447.255 202.993,454.192C202.627,456.863 202.27,461.041 205.498,462.114C216.351,465.722 225.738,451.668 227.669,442.72C228.34,439.615 229.185,436.582 229.765,433.45C229.965,432.372 230.241,431.332 230.52,430.273C230.675,429.685 230.958,427.895 230.962,428.503C230.995,434.952 229.271,441.28 229.044,447.725C229.005,448.819 228.126,452.596 229.157,453.093C232.243,454.581 236.165,451.945 239.006,450.919C241.505,450.017 244.281,449.817 246.638,448.53C252.55,445.302 254.867,437.693 255.733,431.474C256.293,427.448 256.636,423.359 257.136,419.318C257.29,418.073 257.347,416.82 257.471,415.572C257.543,414.853 257.841,412.728 257.899,413.447C258.326,418.743 257.684,424.256 257.664,429.584C257.662,430.184 257.146,434.211 257.695,434.721C258.349,435.328 260.755,434.873 261.558,434.818C265.766,434.528 268.742,432.66 272.05,430.204C275.059,427.971 278.364,425.308 280.306,422.035C285.29,413.632 281.536,402.518 279.521,393.596C279.348,392.833 279.917,395.11 280.116,395.867C280.43,397.062 280.774,398.248 281.12,399.434C282.092,402.764 282.92,407.178 284.933,410.102C287.683,414.096 295.528,408.321 297.88,406.083C309.288,395.227 299.753,377.597 298.374,365.129C297.692,358.957 299.718,352.748 298.882,346.761" style="fill:rgb(68,62,62);stroke:black;stroke-width:3.53px;"/>
            </g>
            <g transform="matrix(1.11429,0,0,1.11429,7.15682,-29.2279)">
                <path d="M310.704,183.117C303.915,186.353 296.355,189.613 290.882,194.908C273.181,212.033 274.564,240.848 269.193,262.77C264.135,283.419 254.814,302.291 245.991,321.46C242.933,328.104 234.487,338.072 234.624,345.91C234.763,353.837 194.601,399.916 201.381,401.904C209.233,404.206 226.962,409.7 250.368,397.61C256.048,394.677 269.816,370.664 292.392,360.232C300.044,356.697 309.598,366.035 317.656,361.363C323.01,358.26 326.589,351.866 329.318,346.512C338.095,329.292 335.554,311.153 339.336,292.972C341.79,281.179 345.831,269.261 352.131,258.944C356.228,252.234 366.146,237.926 366.627,230.418C367.105,222.948 363.162,216.242 357.797,211.337C349.752,203.98 340.007,199.868 330.591,194.745C324.346,191.347 318.649,186.845 311.877,184.469" style="fill:rgb(173,178,184);stroke:black;stroke-width:3.53px;"/>
            </g>
            <g transform="matrix(1.10482,-0.144953,0.144953,1.10482,-22.3924,16.4432)">
                <path d="M290.963,204.891C295.86,195.805 302.171,187.385 310.974,181.787C321.768,174.923 335.326,172.602 347.308,168.579C356.485,165.498 364.973,160.382 374.7,159.112C395.215,156.434 408.686,173.807 407.975,192.557C407.348,209.122 384.766,207.316 375.178,216.414C368.575,222.68 366.306,231.256 362.827,239.34C358.95,248.349 354.186,256.94 348.081,264.648" style="fill:rgb(109,137,175);stroke:black;stroke-width:3.53px;"/>
            </g>
            <g transform="matrix(1.11429,0,0,1.11429,-2.12089,-43.2685)">
                <path d="M403.207,193.647C408.978,197.264 412.383,204.333 414.397,210.615C415.352,213.593 415.875,217.512 414.007,220.279C413.829,220.543 413.569,219.817 413.35,219.585C412.916,219.124 412.496,218.648 412.062,218.187C410.791,216.837 409.508,215.495 408.218,214.164C404.18,210.002 400.093,205.517 394.311,203.938" style="stroke:black;stroke-width:3.53px;"/>
            </g>
            <g transform="matrix(1.11429,0,0,1.11429,1.73192,-46.2559)">
                <path d="M389.392,186.924C389.862,181.632 384.552,172.217 378.097,176.657C372.177,180.729 376.817,187.165 382.212,188.166C384.724,188.632 387.143,188.16 389.653,188.261" style="stroke:black;stroke-width:3.53px;"/>
            </g>
            <g transform="matrix(1.10078,-0.172988,0.172988,1.10078,-43.6345,30.826)">
                <path d="M307.297,309.883C310.771,319.866 313.112,329.242 311.274,339.858C309.919,347.679 305.454,355.892 305.92,363.921C306.053,366.209 306.396,369.091 308.138,370.762C310.991,373.497 316.091,374.596 315.498,379.572C315.299,381.245 313.347,382.062 312.022,382.685C309.01,384.103 304.993,387.347 301.464,385.863C289.499,380.832 292.805,370.863 291.15,360.351C289.949,352.72 285.635,347.158 279.401,342.962" style="fill:rgb(173,178,184);stroke:black;stroke-width:3.53px;"/>
                <path d="M310.516,385.582C312.805,385.188 315.017,385.454 317.314,385.57C318.816,385.647 320.247,385.662 321.709,386.066C322.622,386.318 323.568,386.484 324.472,386.766C325.083,386.956 325.645,387.245 326.201,387.558C331.139,390.338 322.626,392.719 320.442,394.483C318.775,395.83 314.981,401.289 319.198,402.227C324.41,403.386 329.271,396.723 333.421,394.417C334.943,393.571 336.65,394.992 338.198,394.027C339.453,393.246 338.725,391.745 340.252,391.181C342.787,390.247 346.424,391.339 349.077,391.461C353.547,391.667 358.513,391.116 362.892,390.253C364.914,389.855 369.886,386.273 366.147,384.45C364.811,383.799 362.666,383.886 361.229,384.195C360.727,384.304 359.231,384.977 358.726,384.752C358.721,384.75 359.47,384.333 359.477,384.33C359.942,384.113 360.427,383.948 360.92,383.805C362.606,383.318 364.223,382.776 365.814,382.021C368.815,380.598 378.146,379.232 373.701,374.108C373.23,373.566 372.655,373.001 372.049,372.609C370.641,371.698 368.611,372.664 367.104,372.937C362.264,373.815 357.425,376.7 352.662,378.105C347.427,379.649 341.987,379.612 336.578,379.501C329.811,379.363 322.93,378.976 316.279,377.6" style="fill:rgb(250,106,123);stroke:black;stroke-width:3.53px;"/>
            </g>
            <g transform="matrix(1.11429,-1.38778e-17,1.38778e-17,1.11429,7.15682,-29.2279)">
                <g opacity="0.1">
                    <path d="M372.433,213.354C365.818,216.126 362.492,224.374 359.127,230.025C357.523,232.719 355.444,235.178 353.73,237.815C352.121,240.29 350.079,242.347 348.833,245.055C346.897,249.261 346.105,253.757 343.818,257.875C338.533,267.389 331.834,276.581 330.114,287.499C329.149,293.618 329.494,299.799 329.126,305.944C328.597,314.754 326.889,323.697 325.273,332.342C323.71,340.7 322.348,349.348 316.602,356.035" style="fill:none;stroke:black;stroke-width:16.26px;"/>
                    <path d="M341.652,261.385C342.027,267.98 338.41,272.95 336.559,278.835C335.269,282.937 335.059,287.351 334.097,291.531" style="fill:none;stroke:black;stroke-width:16.26px;"/>
                    <path d="M359.462,236.83C357.634,240.951 354.59,245.411 351.494,248.74" style="fill:none;stroke:black;stroke-width:16.26px;"/>
                    <path d="M283.983,356.941C279.136,362.765 270.762,364.707 264.971,369.545C258.492,374.957 255.601,384.937 248.907,390.393C246.934,392.001 244.148,392.412 241.839,393.341C237.635,395.032 232.97,397.611 228.415,398.123C222.909,398.743 217.414,397.145 211.984,397.727" style="fill:none;stroke:black;stroke-width:16.26px;"/>
                    <g transform="matrix(0.990637,0.136521,-0.136521,0.990637,44.4585,-41.6731)">
                        <path d="M339.738,315.024C339.512,318.552 341.549,322.211 342.258,325.604C343.094,329.602 342.65,334.157 341.931,338.155C341.194,342.258 338.436,345.908 337.05,349.866C334.184,358.055 332.647,367.719 334.245,376.316" style="fill:none;stroke:black;stroke-width:3.93px;"/>
                    </g>
                    <path d="M338.383,310.713C340.06,312.135 340.851,314.455 341.568,316.459C343.507,321.873 344.789,328.695 342.68,334.229" style="fill:none;stroke:black;stroke-width:3.93px;"/>
                    <g transform="matrix(0.983736,-0.179619,0.179619,0.983736,-53.359,61.9904)">
                        <path d="M305.159,312.092C306.546,319.439 309.328,327.287 308.815,334.906C308.54,339.001 307.116,342.59 306.286,346.554C304.99,352.743 304.136,358.946 304.227,365.293C304.278,368.884 304.537,374.179 307.116,376.94C307.28,377.116 310.315,379.6 310.525,379.431C311.439,378.695 310.712,375.575 309.609,375.215C309.04,375.029 310.457,376.058 310.887,376.474C311.137,376.715 314.466,380.055 312.142,379.782C311.473,379.704 310.88,377.882 310.656,377.373C309.818,375.466 308.847,373.982 307.118,372.822" style="fill:none;stroke:black;stroke-width:3.93px;"/>
                    </g>
                    <g transform="matrix(0.974269,-0.22539,0.22539,0.974269,-68.0509,80.0318)">
                        <path d="M281.798,341.238C293.349,348.911 292.958,363.701 296.091,375.413C296.856,378.274 300.072,383.201 303.194,383.817C305.458,384.263 306.797,383.284 308.835,382.574" style="fill:none;stroke:black;stroke-width:3.93px;"/>
                    </g>
                    <path d="M312.975,365.204C315.169,368.277 316.416,371.548 317.553,375.102" style="fill:none;stroke:black;stroke-width:3.93px;"/>
                    <g transform="matrix(0.990088,-0.140449,0.140449,0.990088,-39.589,46.2552)">
                        <path d="M313.591,383.335C315.5,382.473 318.462,382.284 320.488,382.7C321.853,382.981 323.218,383.299 324.482,383.899C325.565,384.413 326.676,384.772 327.603,385.56C329.324,387.023 328.744,389.29 327.667,391.012C325.564,394.377 321.453,396.505 319.474,399.895C319.114,400.513 320.9,400.201 321.611,400.111C323.057,399.929 324.969,398.702 326.273,397.999C327.921,397.112 329.245,395.672 330.941,394.892C332.24,394.295 334.045,394.379 335.192,393.549C336.107,392.886 336.579,391.762 337.511,391.087C342.4,387.543 351.302,389.031 357.038,388.568C358.932,388.415 362.182,388.851 363.706,387.443" style="fill:none;stroke:black;stroke-width:3.93px;"/>
                    </g>
                    <g transform="matrix(0.992737,0.120302,-0.120302,0.992737,39.1282,-36.9426)">
                        <path d="M342.005,392.361C343.428,392.859 344.782,393.446 346.166,394.035C347.094,394.43 347.938,394.763 348.756,395.376C352.304,398.034 350.817,399.165 347.719,401.432C345.536,403.03 343.345,404.611 341.207,406.269C340.17,407.073 338.853,407.915 338.508,409.302C338.355,409.922 341.071,410.313 341.419,410.275C343.96,409.997 346.407,408.509 348.635,407.344C350.66,406.284 351.057,403.338 353.109,402.618C356.657,401.371 360.825,402.827 364.332,401.105" style="fill:none;stroke:black;stroke-width:3.93px;"/>
                    </g>
                    <g transform="matrix(1,2.77556e-17,-2.77556e-17,1,-11.5149,4.83125)">
                        <path d="M372.257,398.035C373.867,402.142 381.762,402.276 385.52,402.215C386.766,402.195 388.84,402.384 389.881,401.546" style="fill:none;stroke:black;stroke-width:3.93px;"/>
                    </g>
                    <g transform="matrix(1,2.77556e-17,-2.77556e-17,1,-9.63226,2.30886)">
                        <path d="M380.501,395.493C383.275,394.77 385.205,393.172 387.688,392.013C390.742,390.589 394.431,390.383 397.718,390.328" style="fill:none;stroke:black;stroke-width:3.93px;"/>
                    </g>
                    <path d="M360.981,170.238C355.437,167.626 347.136,173.342 341.829,175.32C335.392,177.719 327.956,180.478 321.974,183.858C319.163,185.446 316.859,187.89 314.036,189.523C306.972,193.611 299.138,197.573 293.568,203.702C285.184,212.931 281.375,226.077 281.214,238.313C281.133,244.431 282.318,250.488 281.869,256.617C281.436,262.535 279.359,268.219 277.619,273.844C272.272,291.127 259.135,304.959 250.803,320.811C245.55,330.804 242.423,341.813 237.606,352.025C236.098,355.221 233.764,357.924 232.096,361.033C227.902,368.849 224.547,376.921 220.083,384.594" style="fill:none;stroke:rgb(255,254,254);stroke-width:21.02px;"/>
                    <path d="M115.747,95.459C122.588,98.185 128.194,103.608 134.838,106.793C144.084,111.226 154.191,113.904 163.172,118.904C173.823,124.834 183.145,131.31 195.31,133.698C202.892,135.186 209.945,138.801 217.715,139.571C220.441,139.842 224.448,138.578 224.2,135.261" style="fill:none;stroke:rgb(255,254,254);stroke-width:4.34px;"/>
                </g>
            </g>
            <g transform="matrix(0.987281,-0.158986,0.158986,0.987281,63.4945,63.129)">
                <path d="M245.256,164.502C245.169,164.547 247.735,165.733 248.431,166.082C250.374,167.053 252.673,167.272 254.761,168.315C260.597,171.233 266.833,178.393 272.259,182.463C278.724,187.312 288.427,188.26 294.598,192.888C306.649,201.926 317.122,210.572 327.733,221.183C343.129,236.579 362.714,265.456 372.037,284.103C377.33,294.687 387.954,300.623 379.856,312.771C374.73,320.459 366.565,294.181 363.474,290.06C361.61,287.574 358.109,284.76 357.145,281.869C356.916,281.183 356.028,280.008 356.028,280.008C356.028,280.008 357.338,283.09 358.262,284.475C360.089,287.216 363.046,290.207 363.847,293.411C367.532,308.152 373.126,310.421 366.825,326.174C365.624,329.176 363.568,334.318 360.496,335.854C359.424,336.389 357.865,336.052 356.773,336.598C356.279,336.845 353.835,340.734 353.05,339.949C349.651,336.551 351.561,319.117 351.561,315.004C351.561,310.6 350.071,306.577 350.071,302.346L350.071,300.857L350.071,303.463C350.071,306.045 350.654,310.845 351.188,313.515C352.573,320.441 355.842,335.388 351.561,341.811C349.427,345.01 330.363,358.216 327.361,355.214C327.097,354.95 327.243,354.45 327.361,354.097C328.949,349.333 328.961,343.897 329.594,338.832C330.369,332.638 328.227,326.441 328.85,320.217C329.173,316.988 330.99,315.659 331.828,313.143C332.362,311.542 330.339,308.303 330.339,308.303C330.339,308.303 330.746,311.957 329.967,313.515C328.921,315.607 329.858,322.28 330.339,324.684C332.508,335.531 329.418,349.512 325.499,359.309C324.296,362.316 322.195,362.148 319.542,363.032C317.413,363.742 315.25,363.47 313.213,364.149C312.62,364.346 309.009,366.646 308.745,366.383C306.994,364.631 309.546,359.346 309.862,357.447C311.25,349.123 314.843,340.875 316.936,332.503C317.514,330.189 318.629,328.339 319.17,326.174C319.29,325.691 321.184,323.195 321.031,323.195C316.603,323.195 318.118,343.761 315.447,347.767C310.055,355.855 300.981,359.999 294.97,366.011C294.545,366.436 288.702,366.817 288.641,366.755C287.647,365.762 289.456,359.691 289.758,358.937C292.448,352.211 295.788,345.585 298.321,338.832C299.648,335.291 302.416,328.596 302.416,324.684C302.416,321.951 302.044,316.494 302.044,316.494C302.044,316.494 302.009,318.052 301.671,318.727C300.419,321.232 300.72,328.694 300.182,331.386C297.252,346.038 296.367,353.91 283.801,362.287C281.725,363.671 275.575,372.136 272.259,370.478C270.905,369.801 273.514,364.715 273.748,363.777C275.451,356.965 276.752,349.462 280.45,343.3C280.86,342.616 286.569,337.505 285.662,336.598C285.388,336.324 284.99,336.898 284.918,336.971C281.594,340.294 281.958,345.887 278.588,349.257C277.301,350.544 277.146,352.917 275.982,354.469C272.565,359.025 259.001,366.9 254.016,361.915C252.729,360.628 259.299,354.701 259.973,353.352C262.746,347.806 262.143,341.194 264.813,335.854C265.861,333.758 266.639,331.864 267.419,329.524C267.455,329.416 269.477,325.801 268.908,325.801C267.489,325.801 264.25,332.758 263.324,333.992C257.782,341.382 251.315,361.682 237.635,354.841C228.47,350.259 244.262,341.252 248.059,331.758C249.483,328.199 252.317,325.894 253.271,322.078C253.406,321.54 254.016,320.589 254.016,320.589C254.016,320.589 253.223,321.803 252.899,322.451C251.466,325.317 249.143,328.643 247.315,331.386C242.907,337.996 223.576,354.274 217.158,341.438C216.994,341.11 220.095,338.432 229.444,330.641C233.024,327.658 235.42,323.176 238.751,319.844C240.617,317.979 243.964,313.888 243.964,313.888C243.964,313.888 238.69,318.789 236.145,321.334C229.763,327.716 221.914,333.179 214.551,338.087C212.292,339.594 207.446,339.886 205.988,336.971C200.768,326.53 215.043,324.192 221.998,317.238C225.005,314.231 229.109,310.238 231.678,306.814C232.099,306.252 233.167,305.324 233.167,305.324C233.167,305.324 231.867,306.252 231.305,306.814C228.442,309.677 224.472,311.413 221.625,314.26C212.987,322.898 201.837,332.074 191.841,322.078C190.919,321.157 197.827,316.474 198.915,315.749C204.598,311.96 211.099,309.682 216.413,305.697C218.855,303.865 224.604,301.601 224.604,301.601L223.487,301.601C221.841,301.601 216.26,304.47 214.551,305.324C209.206,307.997 187.337,322.007 183.278,313.888C181.254,309.84 201.213,300.452 205.616,298.251C207.683,297.217 209.693,295.65 211.945,294.9C212.334,294.77 215.602,293.716 215.296,293.411C213.332,291.447 207.806,296.043 205.988,297.134C201.389,299.894 188.018,308.811 182.533,306.069C178.222,303.913 182.42,299.593 183.65,297.134C186.143,292.149 191.625,289.263 199.287,286.709C200.152,286.421 210.737,283.64 210.456,283.358C209.263,282.165 203.304,286.356 201.893,286.709C195.531,288.3 185.52,297.76 178.438,293.038C175.169,290.859 184.185,279.775 186.628,278.146C188.614,276.822 192.156,275.283 192.958,273.678C192.958,273.678 193.082,272.81 192.585,273.306C191.238,274.653 188.27,273.898 189.979,272.189C192.776,269.393 198.915,263.645 198.915,259.158" style="fill:rgb(197,197,197);stroke:black;stroke-width:3.93px;"/>
            </g>
            <g opacity="0.08">
                <g transform="matrix(1.29288,-0.134414,0.134414,1.29288,-21.4687,8.35219)">
                    <path d="M337.292,230.228C339.131,230.001 340.88,234.262 341.904,236.053C345.762,242.805 350.851,249.161 355.342,255.576C357.321,258.404 360.227,260.784 361.68,263.69C361.973,264.274 363.867,266.32 363.202,266.986C362.341,267.847 356.359,261.918 356.102,261.661C356.058,261.617 354.593,259.875 354.328,260.14C353.279,261.189 354.612,266.919 354.835,268.254C355.729,273.618 354.184,285.506 349.257,288.791C345.741,291.135 344.186,277.456 344.186,275.86C344.186,275.486 344.148,271.005 344.946,271.803C345.822,272.679 344.548,278.539 344.439,279.41C343.482,287.068 343.675,295.385 336.072,299.947C334.011,301.184 332.029,302.983 329.987,304.004C329.29,304.352 329.017,306.33 328.466,305.779C327.589,304.902 328.321,301.973 328.466,300.961C329.122,296.365 328.719,292.528 328.719,287.777C328.719,287.536 328.57,282.706 328.466,282.706C328.169,282.706 326.801,288.099 326.691,288.537C325.336,293.955 325.807,302.353 321.62,306.539C320.641,307.518 320.333,309.348 319.338,310.343C318.225,311.456 316.529,311.651 315.788,313.132C315.702,313.305 315.133,313.998 315.028,313.892C314.061,312.925 317.657,307.47 318.07,306.539C319.883,302.46 319.338,297.698 319.338,293.355C319.338,290.565 319.428,287.818 318.324,285.241C318.226,285.012 316.803,282.452 316.295,282.959C313.702,285.553 312.626,292.15 312.239,295.637C311.674,300.721 309.738,305.167 308.182,309.835C307.513,311.843 306.26,311.201 304.886,312.117C304.587,312.317 302.945,314.74 302.604,314.399C299.575,311.37 302.704,301.472 304.125,297.919C304.399,297.234 306.227,290.276 305.647,290.566C303.81,291.484 302.416,294.746 301.59,296.397C299.232,301.114 297.028,305.774 294.744,310.343C294.135,311.561 292.343,317.129 290.941,316.428C289.983,315.949 290.18,312.476 290.18,311.61C290.18,306.614 293.421,300.62 294.998,295.89C295.244,295.152 297.486,291.787 296.519,290.819C295.375,289.676 291.616,293.888 291.194,294.369C289.163,296.691 284.32,302.09 283.588,305.018C282.985,307.429 283.937,311.056 281.306,312.371C277.987,314.03 278.517,308.037 278.517,306.032C278.517,302.45 284.504,289.4 278.01,287.777C268.977,285.519 267.98,299.217 265.586,304.004C265.09,304.995 261.252,307.506 260.515,306.032C259.772,304.547 262.5,302.019 263.304,301.215C266.359,298.16 267.37,292.681 269.643,289.045C269.866,288.687 271.484,284.227 271.164,284.227C267.761,284.227 264.013,288.791 261.529,290.566C260.374,291.391 258.033,292.134 257.219,293.355C256.4,294.584 255.423,297.295 254.176,297.919C252.685,298.665 248.739,300.595 247.077,298.933C245.913,297.769 252.402,294.002 252.909,293.608C257.413,290.105 260.806,286.434 263.304,281.438C263.524,280.999 265.385,277.914 264.318,277.381C263.018,276.731 260.322,279.633 259.247,280.17C255.69,281.949 252.591,283.071 249.359,285.495C247.408,286.959 247.183,289.193 245.556,290.819C244.325,292.05 240.992,293.355 240.992,293.355C240.992,293.355 237.506,294.686 236.428,293.608C236.191,293.372 241.29,289.507 241.753,289.045C245.68,285.117 251.376,281.716 253.923,276.621C254.506,275.456 256.179,272.512 255.444,271.043C254.669,269.491 249.058,271.706 248.091,272.057C241.751,274.362 236.079,278.438 232.118,283.72C231.402,284.675 224.503,287.261 224.511,287.27C225.805,288.563 229.187,284.744 230.343,283.974C235.012,280.861 241.368,276.948 243.527,271.55C243.894,270.633 245.352,267.845 244.795,266.732C240.536,258.215 229.356,271.973 225.526,274.846C223.346,276.481 220.209,276.744 217.919,277.888C217.586,278.055 215.582,279.862 215.637,279.917C216.234,280.513 222.597,276.213 223.244,275.86C228.109,273.207 240.115,269.543 236.175,261.661C235.557,260.427 232.719,261.598 231.611,261.915C227.405,263.117 222.005,267.211 218.933,270.282C217.807,271.408 216.114,271.834 215.13,272.818C214.931,273.017 213.342,273.832 213.355,273.832C214.279,273.832 217.454,271.066 218.426,270.536C223.337,267.857 228.977,264.143 232.625,259.887C233.568,258.786 235.51,256.022 234.653,254.309C230.795,246.593 219.723,257.426 215.384,258.872C214.429,259.191 211.649,260.97 210.566,259.887C210.035,259.356 216.575,254.176 217.412,253.548C221.84,250.227 222.447,246.52 224.511,242.392C225.405,240.605 224.671,234.146 225.272,231.743C225.966,228.969 229.495,225.833 230.85,223.122C233.184,218.455 234.242,212.995 236.175,208.163C239.454,199.965 243.125,192.025 245.302,183.315C246.845,177.146 254.43,172.835 254.43,166.581" style="fill:none;stroke:black;stroke-width:7.49px;"/>
                </g>
                <g transform="matrix(1.22198,-0.127043,0.127043,1.22198,4.0781,23.2018)">
                    <path d="M256.869,182.287C256.928,182.296 255.217,182.622 254.937,182.808C253.547,183.735 253.001,185.191 252.148,186.612C249.901,190.356 247.621,194.057 245.302,197.768C242.966,201.506 242.178,206.045 240.231,209.938C237.865,214.671 234.471,217.95 233.386,223.376C232.72,226.703 231.104,229.4 231.104,232.757C231.104,234.703 231.357,238.589 231.357,238.589C231.357,238.589 231.079,235.185 231.357,233.518C231.878,230.395 233.237,226.715 234.653,223.883C239.254,214.681 245.26,206.219 249.866,197.007C252.269,192.202 256.175,191.712 259.501,188.386C259.83,188.057 262.99,186.298 262.036,185.344C259.696,183.003 255.674,190.14 254.937,191.429C251.584,197.297 247.376,202.898 243.527,208.67C241.058,212.375 237.874,214.983 236.428,219.319C235.013,223.565 234.865,228.572 233.639,232.25C233.36,233.089 233.621,235.8 232.625,235.8" style="fill:none;stroke:black;stroke-width:12.93px;"/>
                </g>
                <g transform="matrix(1.22198,-0.127043,0.127043,1.22198,4.0781,23.2018)">
                    <path d="M324.766,190.83C324.734,191.151 324.859,190.085 325.147,189.941C325.828,189.6 327.161,190.156 327.677,190.525C330.592,192.607 333.354,193.265 336.437,194.807C346.576,199.877 357.147,205.318 366.803,211.353C379.12,219.051 392.119,226.043 403.982,234.517C407.897,237.313 412.924,238.986 417.024,241.719C422.258,245.208 426.602,250.022 431.623,253.787C434.556,255.987 438.454,256.59 441.551,258.654C445.339,261.18 448.748,264.103 453.425,264.883C456.323,265.366 459.142,265.339 461.989,266.051C462.388,266.15 464.325,266.808 464.325,267.413C464.325,267.8 460.913,268.144 460.627,268.192C457.807,268.662 450.127,266.018 448.948,269.555C448.362,271.31 449.881,272.966 450.505,274.421C452.693,279.526 458.392,279.331 461.6,283.18C461.938,283.586 466.457,288.538 465.883,288.825C465.32,289.107 462.835,286.425 462.184,286.1C458.249,284.132 451.569,276.819 446.806,279.677C444.902,280.819 445.502,284.285 446.222,285.906C448.125,290.185 452.204,293.197 454.203,297.196C454.326,297.441 452.283,297.74 451.867,298.363C451.48,298.945 451.089,301.009 451.089,300.31C451.089,299.184 447.546,296.573 446.806,295.833C442.827,291.854 438.515,288.32 434.543,284.348C433.661,283.467 430.043,279.396 428.314,280.261C426.721,281.057 428.086,286.32 428.314,287.463C429.398,292.883 431.318,298.282 432.207,303.619C432.398,304.761 432.698,308.63 431.429,309.264C430.117,309.92 426.642,302.279 425.978,301.283C421.745,294.933 415.379,286.245 408.654,282.402C408.156,282.117 403.308,277.626 402.814,278.119C401.433,279.5 402.775,283.31 403.204,284.738C404.954,290.572 407.921,297.287 410.601,302.646C411.619,304.684 414.132,308.764 411.184,310.237C409.522,311.069 406.939,307.308 405.734,306.344C403.031,304.182 401.212,301.298 398.921,298.753C396.38,295.929 393.166,293.977 390.551,291.161C389.964,290.529 385.235,283.892 383.933,284.543C382.221,285.399 383.046,292.328 383.349,293.692C384.649,299.545 389.671,310.728 384.322,316.077C382.21,318.19 378.825,312.628 378.482,311.6C376.71,306.282 375.313,300.368 374.395,294.86C374.107,293.133 373.999,288.819 372.643,287.463C372.182,287.002 371.157,287.196 370.696,287.657C369.92,288.434 371.648,291.183 371.086,291.745C370.847,291.984 370.341,290.628 370.307,290.577C369.845,289.884 368.575,289.266 367.776,289.799C366.731,290.496 366.636,293.75 366.414,294.86C365.482,299.519 367.888,304.035 366.998,308.486C366.719,309.878 367.107,312.616 365.635,313.352C362.377,314.981 359.27,312.755 359.017,309.459C358.751,305.996 360.432,299.443 358.822,296.222C358.193,294.963 357.719,294.038 357.265,292.524C357.047,291.796 356.486,290.383 356.486,290.383C356.486,290.383 355.886,291.323 356.097,291.745C356.683,292.916 356.714,295.633 356.486,297.001C356.163,298.943 353.689,301.586 352.593,303.23C351.368,305.068 349.285,308.29 347.727,309.848C346.882,310.693 343.834,308.903 343.834,310.043" style="fill:none;stroke:black;stroke-width:12.93px;"/>
                </g>
            </g>
            <g transform="matrix(1.22198,-0.127043,0.127043,1.22198,4.0781,23.2018)">
                <path d="M240.41,174.073C240.047,179.09 244.872,185.446 248.491,189.065C249.063,189.637 251.452,192.683 252.109,192.683" style="fill:none;stroke:black;stroke-width:3.2px;"/>
            </g>
            <g transform="matrix(1.22198,-0.127043,0.127043,1.22198,4.0781,23.2018)">
                <path d="M235.866,189.516C235.919,189.496 235.838,192.607 235.934,192.896C236.59,194.863 238.033,197.009 239.339,198.642C240.773,200.434 244.055,203.55 246.15,204.388C247.123,204.778 249.557,204.816 250.193,205.452" style="fill:none;stroke:black;stroke-width:3.2px;"/>
            </g>
        </g>
    </g>
</svg>
