<?xml version="1.0" encoding="UTF-8" standalone="no"?>
<!DOCTYPE svg PUBLIC "-//W3C//DTD SVG 1.1//EN" "http://www.w3.org/Graphics/SVG/1.1/DTD/svg11.dtd">
<svg width="100%" height="100%" viewBox="0 0 534 534" version="1.1" xmlns="http://www.w3.org/2000/svg" xmlns:xlink="http://www.w3.org/1999/xlink" xml:space="preserve" xmlns:serif="http://www.serif.com/" style="fill-rule:evenodd;clip-rule:evenodd;stroke-linecap:round;stroke-linejoin:round;stroke-miterlimit:1.5;">
    <path d="M221.369,54.88C236.42,41.61 253.83,31.431 274.183,26.908C288.564,23.712 306.852,23.808 326.342,28.926C329.327,29.71 332.381,30.631 335.459,31.664L335.79,31.721C345.922,33.92 354.836,37.747 362.549,42.75C372.605,47.48 381.634,52.392 388.054,56.186C420.755,75.509 451.99,102.526 470.879,136.108C481.228,154.506 485.22,175.171 490.44,195.305C497.167,221.254 503.364,251.315 502.079,278.292C499.531,331.798 471.876,384.605 431.756,419.376C409.557,438.615 388.617,443.575 361.408,450.996C339.652,456.929 318.224,460.319 296.195,465.108C280.552,468.508 254.084,475.505 232.112,477.284C213.384,478.8 196.372,476.913 183.237,472.765C107.411,448.82 90.842,391.428 87.401,322.597C86.08,296.189 81.418,276.43 86.337,248.555C89.947,228.099 99.894,205.154 109.24,186.282C110.732,181.633 116.725,163.515 121.942,154.572C136.976,128.799 158.324,105.751 179.267,84.808C190.641,73.434 205.314,63.216 221.369,54.88Z" style="fill-opacity:0.25;"/>
    <path d="M227.069,98.093C229.318,96.41 231.64,94.782 232.899,94.153C237.645,91.78 242.674,89.217 247.671,87.433C265.708,80.991 289.177,79.406 307.656,84.445C357.933,98.157 402.291,127.448 431.026,171.857C443.904,191.759 450.139,222.458 447.484,245.579C446.439,254.676 442.668,263.27 441.53,272.379C437.979,300.782 437.152,333.007 425.114,359.491C419.521,371.796 411.302,379.774 401.749,388.796C397.469,392.838 394.929,398.419 390.737,402.611C380.203,413.145 365.739,423.548 353.001,431.191C343.534,436.871 330.915,438.788 320.402,441.416C304.512,445.389 289.027,451.17 272.163,449.297C254.707,447.357 239.83,439.889 226.661,429.163C215.71,420.243 206.492,408.14 196.174,399.756C185.972,391.467 173.006,382.496 163.209,371.673C152.479,359.82 144.9,346.067 142.265,330.255C139.363,312.842 142.827,296.861 147.171,280.209C150.566,267.195 151.768,253.401 157.346,241.005C160.341,234.351 164.885,228.342 166.976,221.283C171.927,204.574 176.796,187.932 182.315,171.374C187.532,155.723 194.882,139.616 207.072,127.91C207.548,124.226 208.706,119.916 211.083,115.043C214.704,107.621 220.365,101.854 227.069,98.093ZM282.234,221.492C283.047,233.844 278.009,246.379 267.621,254.69C265.898,256.068 266.587,258.615 266.127,260.694C265.298,264.441 264.734,268.268 264.168,271.999C262.791,281.086 260.791,291.46 260.881,301.383C260.895,302.888 260.267,304.642 260.33,306.071C263.939,304.412 269.393,301.889 272.734,300.286C278.91,297.321 285.545,295.086 290.661,290.397C294.181,287.17 302.836,276.283 307.302,270.568L305.815,263.39C302.184,245.233 293.653,233.85 282.234,221.492Z" style="fill:#636363;fill-opacity:0.25;"/>
    <path d="M253.403,144.801C254.639,143.426 260.265,137.376 264.677,135.538C271.381,132.745 279.842,132.619 286.917,132.619C324.228,132.619 349.664,159.374 368.013,188.426C372.839,196.068 379.22,202.956 383.492,210.89C399.827,241.227 405.114,282.543 395.887,315.759C391.909,330.082 383.026,343.929 375.562,356.618C362.616,378.628 346.01,399.905 319.672,405.548C311.029,407.401 301.214,404.699 292.498,404.118C291.279,404.037 290.03,404.502 288.775,404.664C285.754,405.053 282.761,405.119 279.874,404.638C257.745,400.95 232.52,390.154 218.04,372.456C213.677,367.124 211.423,360.277 207.162,354.95C200.003,346.002 193.297,337.055 190.637,325.527C186.836,309.058 187.193,276.297 191.827,259.305C192.497,256.85 193.543,254.59 194.863,252.468C195.781,250.992 197.187,249.793 197.912,248.223C198.569,246.799 198.41,245.176 198.583,243.617C198.929,240.494 199.4,237.4 200.325,234.441C204.825,220.04 214.321,206.567 223.066,194.543C229.727,185.385 233.22,173.977 239.584,164.885C241.656,161.926 244.115,159.555 246.837,157.545C246.79,152.612 249.125,147.776 253.403,144.801ZM363.894,314.39C355.67,325.125 345.697,335.296 338.949,341.431C332.493,347.3 324.983,358.281 316.198,365.648C311.627,369.481 306.753,372.475 301.633,374.339C302.802,374.519 303.977,374.716 305.155,374.909C307.9,375.359 310.66,376.062 313.236,375.51C330.868,371.732 340.416,355.777 349.084,341.042C354.041,332.615 360.034,323.709 363.894,314.39ZM224.499,263.456C223.309,265.397 221.837,267.468 221.228,268.307C217.87,281.682 217.697,306.169 220.57,318.619C222.158,325.5 226.877,330.419 231.15,335.76C235.342,341 237.524,347.757 241.816,353.003C248.785,361.521 259.576,367.297 270.651,370.873C267.495,368.903 264.581,366.47 261.903,363.683C255.023,356.524 249.822,346.775 245.659,339.205C230.279,311.242 231.14,299.758 225.927,270.564C225.5,268.171 224.995,265.811 224.499,263.456ZM335.12,229.209C338.447,240.061 340.501,250.487 340.501,262.304C340.501,270.527 340.667,278.749 340.12,286.955C339.921,289.943 339.669,292.956 339.321,295.959C340.216,294.799 341.083,293.63 341.917,292.459C345.626,287.25 348.926,282.222 349.55,277.854C350.979,267.854 348.201,257.153 343.859,246.668C341.395,240.719 338.395,234.853 335.12,229.209ZM286.383,195.113C282.402,193.1 277.731,192.721 273.397,191.933C271.228,191.539 268.866,190.477 266.665,191.027C263.481,191.823 260.874,194.769 258.638,197.843C255.932,201.563 253.881,205.89 253.579,209.668C253.159,214.923 254.573,220.14 254.973,225.334C255.156,227.711 255.109,230.045 254.908,232.352L256.366,229.655C259.276,224.251 262.219,216.609 266.321,210.469C270.75,203.839 276.414,198.713 283.261,196.146C284.325,195.747 285.365,195.402 286.383,195.113ZM292.822,225.761C291.91,226.737 291.375,228.239 290.625,229.559L289.689,231.275C290.772,230.999 291.888,230.803 293.034,230.688C293.523,230.639 294.006,230.606 294.484,230.591C294.134,229.293 293.73,227.987 293.249,226.729C293.139,226.441 292.987,226.104 292.822,225.761Z" style="fill:#979797;fill-opacity:0.24;"/>
    <g>
        <path d="M340.173,281.253C340.224,281.294 339.741,278.833 339.671,278.532C339.236,276.662 338.779,274.878 338.431,272.974C337.403,267.352 338.573,261.964 336.728,256.666C335.664,253.612 331.888,250.574 331.565,247.479C331.144,243.45 332.927,239.414 332.369,235.443C331.855,231.794 329.332,228.953 327.27,226.084C323.72,221.145 320.055,213.775 314.129,211.547" style="fill:none;stroke:#000;stroke-opacity:0.09;stroke-width:20.8px;"/>
        <path d="M306.854,171.316C307.547,172.479 309.637,171.156 310.905,171.633C313.276,172.524 315.802,174.873 317.442,176.642C321.136,180.627 312.836,184.242 315.896,187.543C317.08,188.821 318.599,187.076 319.419,186.316C321.706,184.196 321.517,181.157 325.07,180.786C328.567,180.421 331.821,186.808 332.08,189.29C332.19,190.345 329.382,191.928 329.757,192.754C330.024,193.343 332.457,193.623 332.971,193.707C335.533,194.126 340.417,193.771 341.774,196.761C345.116,204.13 335.795,203.803 332.122,206.146C331.621,206.465 328.593,208.35 328.626,208.659C328.843,210.739 331.426,209.521 332.455,209.333C335.017,208.865 340.575,205.646 341.512,209.676C341.96,211.604 344.011,216.067 342.483,217.951C340.292,220.653 336.511,220.787 334.4,223.843C334.1,224.276 331.94,226.597 332.161,227.084C332.268,227.32 339.076,222.478 340.132,222.17C344.461,220.907 350.869,225.237 351.335,229.699C351.476,231.047 352.259,233.828 352.113,235.095C351.544,240.037 343.159,240.047 339.948,240.983C337.776,241.617 335.7,242.447 333.517,243.158C332.335,243.544 329.109,244.563 330.273,245.001C332.058,245.672 336.155,243.148 338.13,243.106C344.077,242.982 347.357,250.223 347.82,254.659C348.359,259.824 340.531,262.045 337.358,263.484C336.342,263.945 335.217,264.085 334.142,264.572C334.117,264.583 332.389,265.189 332.604,265.269C334.583,266.013 337.93,263.666 339.79,263.123C342.92,262.21 349.326,261.748 351.446,264.698C353.298,267.275 353.315,276.029 349.395,276.94C346.52,277.609 343.236,278.799 340.253,278.861C339.122,278.885 338.049,278.929 336.926,278.887C336.285,278.862 334.453,278.212 335.053,278.438C339.162,279.982 348.788,273.836 350.901,281.079C351.287,282.4 351.357,283.709 351.206,285.02C349.825,297.011 335.785,283.736 334.734,292.862C334.131,298.098 341.868,290.529 344.294,293.904C345.274,295.268 348.066,301.477 346.523,302.907C345.511,303.845 342.103,305.468 341.041,305.95C340.456,306.215 339.168,305.501 339.168,305.501C339.168,305.501 341.549,305.375 342.635,305.783C345.415,306.829 347.711,306.346 349.145,309.507C350.99,313.575 347.73,320.79 342.678,320.599C340.969,320.534 335.737,320.334 334.403,321.571C334.04,321.908 335.311,323.163 335.464,323.5C336.308,325.361 336.442,326.962 334.901,328.392C334.183,329.057 328.846,331.806 329.222,332.636C330.84,336.203 335.026,336.836 336.371,341.448C338.033,347.143 324.703,355.296 320.455,354.601C317.605,354.135 315.946,352.501 313.944,350.878C313.516,350.53 312.576,348.346 311.989,348.612C310.136,349.453 312.287,353.726 312.655,354.986C313.733,358.681 312.462,362.793 309.404,364.991C308.911,365.345 307.025,365.136 306.217,365.324C304.578,365.705 303.39,367.331 301.463,367.109C299.284,366.858 294.563,362.935 293.753,361.148C293.183,359.892 291.392,357.694 290.206,357.008C289.436,356.562 287.915,355.636 287.915,355.636C287.915,355.636 288.106,356.942 288.529,357.398C289.569,358.52 291.166,359.604 291.097,361.426C290.921,366.08 288.166,371.955 282.953,372.908C279.451,373.548 273.073,372.137 270.208,370.158C269.057,369.363 268.149,367.706 267.779,366.438C267.723,366.245 267.53,364.882 267.305,364.984C264.479,366.266 263.028,370.163 259.054,371.323C258.118,371.596 253,371.878 252.429,370.619C252.093,369.879 252.186,367.1 250.894,367.235C244.068,367.948 239.643,366.96 236.783,360.654C236.234,359.445 228.807,360.216 227.028,358.773C223.341,355.783 219.894,352.154 219.378,347.222C219.144,344.976 221.54,341.767 220.643,339.787C219.624,337.542 212.781,339.052 210.609,337.291C208.565,335.634 206.573,330.09 206.676,327.392C206.698,326.795 210.174,326.609 209.891,326.304C208.731,325.053 205.895,325.515 204.442,324.511C200.524,321.804 200.208,314.559 200.372,310.223C200.511,306.55 206.298,304.316 209.35,304.667C209.908,304.732 215.385,304.889 215.248,304.588C214.657,303.284 211.873,303.586 210.833,303.439C208.033,303.041 199.841,302.894 197.641,300.52C196.603,299.401 197.384,297.066 197.141,295.74C196.247,290.845 200.063,285.839 203.749,282.914C205.619,281.431 210.218,282.54 212.275,283.313C212.795,283.508 215.641,284.697 215.628,284.573C215.491,283.261 211.267,281.148 210.18,280.739C205,278.792 201.038,279.933 199.256,273.826C198.827,272.354 199.454,271.115 200.238,269.857C202.228,266.661 203.331,264.032 207.846,264.552C209.509,264.743 213.4,266.248 214.862,264.893C218.239,261.762 212.309,255.878 211.992,252.842C211.68,249.847 217.27,243.339 219.13,242.002C220.816,240.79 224.153,242.052 225.67,242.93C228.814,244.75 235.502,248.67 239.197,246.994C239.701,246.766 235.941,244.54 235.816,244.448C234.141,243.206 231.015,240.917 229.894,239.16C227.461,235.344 229.312,229.32 232.868,226.499C238.32,222.173 242.3,227.875 245.751,231.597C246.617,232.532 250.189,235.716 251.395,234.229C252.344,233.06 249.387,229.037 248.828,228.161C245.601,223.101 241.776,219.34 238.077,214.679C237.101,213.448 236.101,209.895 237.104,208.444C237.858,207.353 239.306,206.853 240.293,206.07C247.625,200.252 251.944,207.373 256.024,213.771C256.97,215.253 260.288,220.741 262.393,219.227C264.701,217.569 263.346,213.17 262.093,211.204C261.327,210.003 259.746,209.458 258.796,208.434C255.683,205.076 250.694,196.416 253.75,191.993C256.955,187.354 264.591,189.727 266.663,194.296C267.49,196.118 267.915,198.568 269.006,200.28C269.634,201.264 271.34,202.333 272.555,202.379C273.191,202.403 273.992,201.542 274.484,201.318C277.863,199.786 276.155,198.727 274.321,195.644C272.87,193.204 267.662,183.11 269.833,180.433C273.479,175.937 281.467,179.18 285.654,181.788C286.439,182.277 290.362,185.958 291.102,185.622C291.374,185.498 289.337,177.752 290.801,177.599C293.162,177.352 298.536,184.265 300.05,182.862C301.357,181.649 301.975,179.568 301.452,177.775C301.288,177.216 300.13,175.037 301.119,174.588C302.087,174.149 303.523,174.054 304.558,173.585C305.933,172.961 305.525,171.907 307.242,172.553" style="fill:#927147;stroke:#000;stroke-width:6.67px;"/>
        <path d="M316.956,233.148C316.982,233.284 316.702,232.486 316.415,232.617C315.814,232.889 315.882,235.178 315.025,235.794C313.364,236.988 311.201,236.621 309.328,236.963C306.489,237.482 304.431,239.132 301.305,238.621C297.813,238.049 296.341,234.612 293.479,233.537" style="fill:none;stroke:#000;stroke-width:6.67px;"/>
        <path d="M286.085,199.392C285.965,199.408 286.527,202.895 287.061,203.471C289.92,206.555 298.399,214.232 301.31,206.491" style="fill:none;stroke:#000;stroke-width:6.67px;"/>
        <path d="M279.822,257.218C280.19,257.385 279.001,256.804 278.632,256.971C278.471,257.045 277.866,257.792 277.671,257.973C275.845,259.666 272.623,258.737 270.374,258.735C262.958,258.729 257.555,255.124 254.552,248.503" style="fill:none;stroke:#000;stroke-width:6.67px;"/>
        <path d="M276.684,269.754C276.855,269.655 277.974,270.988 278.151,271.201C279.658,273.019 281.429,274.378 283.225,275.835C288.257,279.915 295.815,281.888 302.145,280.416C303.981,279.99 307.277,280.037 308.504,278.523" style="fill:none;stroke:#000;stroke-width:6.67px;"/>
        <path d="M320.458,260.942C317.93,261.768 315.306,263.549 312.719,264.723C307.284,267.187 298.114,264.976 295.506,259.225" style="fill:none;stroke:#000;stroke-width:6.67px;"/>
        <path d="M278.709,293.512C278.748,293.439 279.607,294.139 279.647,294.159C280.275,294.469 281.031,294.679 281.694,294.928C283.495,295.605 286.703,296.17 288.627,296.171C292.685,296.175 296.713,296.325 300.512,294.602C302.726,293.598 304.347,291.306 306.383,290.383" style="fill:none;stroke:#000;stroke-width:6.67px;"/>
        <path d="M296.755,306.23C296.357,306.189 297.392,306.759 297.558,307.124C297.866,307.804 298.024,308.635 298.281,309.343C299.048,311.45 300.115,313.465 301.519,315.234C305.483,320.23 311.023,322.246 316.813,319.62C318.372,318.913 319.965,318.486 320.612,316.765" style="fill:none;stroke:#000;stroke-width:6.67px;"/>
        <path d="M223.705,276.344C223.691,276.353 224.524,275.911 224.767,276.448C225.278,277.574 225.14,280.273 225.211,281.484C225.394,284.593 224.888,288.792 227.06,290.552C229.598,292.611 233.569,289.225 236.064,288.874C238.548,288.525 240.884,289.907 242.805,290.629" style="fill:none;stroke:#000;stroke-width:6.67px;"/>
        <path d="M241.852,265.642C241.832,265.159 242.56,266.359 242.696,266.823C242.962,267.737 243.184,268.694 243.483,269.61C244.264,272.004 244.452,274.933 246.163,276.778C246.688,277.344 247.661,276.32 248.432,276.321C251.188,276.323 253.726,276.588 256.445,276.974C256.908,277.039 260.732,277.426 260.609,277.752" style="fill:none;stroke:#000;stroke-width:6.67px;"/>
        <path d="M248.152,298.783C247.69,299.259 249.069,299.808 249.24,300.449C249.48,301.348 249.604,302.367 249.942,303.244C251.328,306.851 253.475,310.815 255.885,313.852C256.441,314.553 257.725,316.447 258.849,316.33C260.537,316.153 262.407,313.324 264.121,312.664C269.079,310.759 276.661,308.226 281.81,310.161" style="fill:none;stroke:#000;stroke-width:6.67px;"/>
        <path d="M299.442,333.871C298.83,334.123 297.722,335.695 297.15,336.181C295.162,337.869 292.961,339.096 290.703,340.379C277.643,347.795 272.634,334.236 263.149,327.683" style="fill:none;stroke:#000;stroke-width:6.67px;"/>
        <path d="M228.853,321.182C228.245,321.257 229.746,322.063 229.999,322.621C230.537,323.806 230.9,324.92 231.425,326.078C232.953,329.446 234.111,332.693 236.666,335.449C237.017,335.827 238.089,337.103 238.798,337.029C241.047,336.794 243.458,334.895 245.542,334.112C247.745,333.285 250.203,333.181 252.414,332.411C253.277,332.11 256.282,330.207 256.468,331.987" style="fill:none;stroke:#000;stroke-width:6.67px;"/>
        <path d="M245.774,347.314C246.364,347.022 248.504,351.434 248.792,351.886C250.633,354.773 253.543,358.593 256.487,360.427C258.966,361.97 262.734,359.575 264.98,358.556C267.503,357.412 270.475,357.245 273.174,356.963C273.984,356.878 275.654,355.753 276.097,355.92" style="fill:none;stroke:#000;stroke-width:6.67px;"/>
        <path d="M338.653,308.814C337.63,313.769 331.958,319.083 329.356,324.203C327.298,328.251 326.389,333.179 324.11,337.115C322.747,339.469 321.023,341.595 319.62,343.848C319.221,344.489 318.77,345.978 318.245,346.465C313.766,350.617 308.362,351.821 302.769,353.768C299.838,354.789 297.979,356.082 294.828,356.658C291.882,357.197 288.55,355.995 285.56,356.307C281.916,356.688 278.23,358.484 274.765,359.495C271.864,360.342 268.069,359.31 265.218,358.844C264.187,358.675 263.175,359.42 262.128,359.249C254.554,358.01 244.654,355.82 237.867,351.891C233.457,349.338 231.866,342.932 229.017,338.967C226.43,335.369 222.677,333.1 219.798,329.627C217.906,327.344 216.618,324.435 215.042,321.963C213.477,319.51 213.821,316.733 213.074,314.173C211.551,308.952 211.247,303.854 209.718,298.615C208.034,292.842 211.084,287.063 211.299,281.387C211.376,279.351 212.443,277.482 212.398,275.337C212.387,274.801 212.478,273.166 211.713,273.513" style="fill:none;stroke:#000;stroke-opacity:0.09;stroke-width:20.8px;"/>
        <path d="M340.147,288.914C340.045,288.84 341.094,285.865 341.146,285.549C341.769,281.738 343.91,276.848 343.13,272.978C342.27,268.715 341.089,264.637 340.888,260.188C340.632,254.541 341.05,248.395 339.572,242.851C338.917,240.397 338.949,237.43 338.183,235.083C336.818,230.895 334.774,226.904 334.31,222.463C333.677,216.403 335.898,209.269 332.352,203.709C329.36,199.019 324.616,194.147 319.767,191.341C314.966,188.561 311.608,184.65 305.613,183.669C303.038,183.248 300.854,184.635 298.424,185.079C295.843,185.551 293.346,185.441 290.785,186.124C288.574,186.714 285.98,186.511 283.747,186.612C277.54,186.893 268.133,193.788 265.349,199.084C263.469,202.661 262.839,207.489 260.555,210.795C258.334,214.01 255.778,216.833 253.981,220.466C251.016,226.463 250.052,233.411 245.749,238.718C242.483,242.746 238.599,249.02 233.895,251.496C225.361,255.989 217.629,257.013 211.226,264.909C210.095,266.304 210.164,268.776 209.57,270.357" style="fill:none;stroke:#fff;stroke-opacity:0.09;stroke-width:20.8px;"/>
        <path d="M273.382,273.953C274.137,274.766 277.07,275.293 278.159,275.971C280.714,277.562 283.005,279.709 285.557,281.298C287.413,282.453 290.421,282.666 292.507,283.127C299.178,284.603 303.493,285.546 310.166,282.52" style="fill:none;stroke:#000;stroke-opacity:0.09;stroke-width:7.68px;"/>
        <path d="M306.104,295.72C306.153,295.715 306.807,296.284 306.507,296.42C304.552,297.307 300.261,297.402 297.924,297.893C291.836,299.173 285.526,301.85 279.642,299.638" style="fill:none;stroke:#000;stroke-opacity:0.09;stroke-width:7.68px;"/>
        <path d="M295.978,312.918C296.024,312.845 296.462,316.837 296.491,317.331C296.684,320.62 297.578,323.348 300.669,324.973C303.729,326.581 306.782,324.958 309.96,324.745C314.155,324.463 318.124,324.963 322.383,324.519" style="fill:none;stroke:#000;stroke-opacity:0.09;stroke-width:7.68px;"/>
        <path d="M298.112,336.226C298.506,336.095 295.898,339.234 295.594,339.516C293.798,341.18 293.161,344.377 290.568,345.069C282.894,347.116 275.932,345.246 268.793,342.562" style="fill:none;stroke:#000;stroke-opacity:0.09;stroke-width:7.68px;"/>
        <path d="M253.268,335.109C253.085,335.143 253.789,335.454 253.565,335.662C252.385,336.756 248.801,337.607 247.277,337.802C243.09,338.338 239.064,337.752 234.94,337.277" style="fill:none;stroke:#000;stroke-opacity:0.09;stroke-width:7.68px;"/>
        <path d="M245.036,299.754C246.955,300.378 246.878,303.037 247.196,304.675C247.919,308.391 248.81,313 250.877,316.242C254.558,322.014 259.297,319.943 264.478,318.614C266.857,318.004 269.432,318.74 271.752,318.019C274.211,317.254 276.262,315.561 278.771,314.978" style="fill:none;stroke:#000;stroke-opacity:0.09;stroke-width:7.68px;"/>
        <path d="M220.501,279.046C220.31,278.738 219.657,280.513 219.56,280.772C219.02,282.206 219.832,284.125 220.543,285.45C222.55,289.192 221.788,295.53 225.038,298.499C226.267,299.621 228.774,297.421 229.738,296.936C233.215,295.188 237.559,294.636 241.326,294.242" style="fill:none;stroke:#000;stroke-opacity:0.09;stroke-width:7.68px;"/>
        <path d="M240.694,265.557C240.877,265.896 240.01,266.235 240.169,266.585C241.994,270.609 242.611,275.107 244.45,279.161C245.049,280.483 246.251,282.815 247.901,283.005C249.208,283.155 250.833,281.583 252.086,281.249C254.515,280.601 257.223,281.042 259.703,280.783" style="fill:none;stroke:#000;stroke-opacity:0.09;stroke-width:7.68px;"/>
        <path d="M252.211,251.683C252.436,253.035 253.731,253.963 254.468,255.118C257.875,260.46 263.151,263.106 269.48,263.112C273.297,263.115 276.811,261.707 280.724,261.855" style="fill:none;stroke:#000;stroke-opacity:0.09;stroke-width:7.68px;"/>
        <path d="M317.579,240.14C317.388,239.841 317.699,239.189 317.561,238.885C317.312,238.336 315.83,239.243 315.63,239.334C313.094,240.484 310.636,241.946 308.01,242.932C304.886,244.105 301.426,242.436 298.872,240.672" style="fill:none;stroke:#000;stroke-opacity:0.09;stroke-width:7.68px;"/>
        <path d="M281.896,203.283C282.469,204.142 282.409,205.425 283.001,206.308C283.764,207.445 285.338,207.904 286.389,208.757C288.197,210.223 289.929,213.447 292.285,213.911C293.554,214.161 295.25,212.761 296.406,212.327C298.148,211.673 300.562,211.382 302.415,211.452" style="fill:none;stroke:#000;stroke-opacity:0.09;stroke-width:7.68px;"/>
        <path d="M321.61,263.851C321.679,263.955 316.958,266.289 315.586,266.54C311.901,267.213 308.834,266.684 305.223,265.973C302.132,265.364 301.281,262.608 297.951,265.002" style="fill:none;stroke:#000;stroke-opacity:0.09;stroke-width:7.68px;"/>
        <path d="M310.541,271.977C310.926,271.72 309.628,272.173 309.166,272.156C308.222,272.12 306.634,271.649 305.841,271.102C304.325,270.054 302.425,269.714 300.887,268.652C299.41,267.631 299.228,265.482 297.436,264.808" style="fill:none;stroke:#000;stroke-opacity:0.09;stroke-width:7.68px;"/>
        <path d="M226.571,277.385C226.096,276.547 226.787,279.303 227.005,280.241C227.535,282.522 228.311,284.544 229.854,286.208C230.002,286.369 234.012,283.647 235.799,283.939C238.721,284.417 242.681,287.512 241.393,290.938" style="fill:none;stroke:#fff;stroke-opacity:0.09;stroke-width:7.68px;"/>
        <path d="M250.694,299.264C250.181,299.404 251.396,300.063 251.706,300.494C252.27,301.279 253.006,302.42 253.398,303.285C255.007,306.832 256.616,309.859 260.666,310.522C261.186,310.607 265.101,310.658 265.429,310.354C266.615,309.255 266.741,307.547 268.457,306.988C272.16,305.781 281.85,308.169 284.546,311.078" style="fill:none;stroke:#fff;stroke-opacity:0.09;stroke-width:7.68px;"/>
        <path d="M246.196,261.609C245.811,261.412 247.085,261.547 247.489,261.699C248.385,262.036 249.558,262.566 249.676,263.696C249.972,266.53 249.932,269.352 252.459,271.401C254.46,273.023 261.765,271.324 262.133,274.842" style="fill:none;stroke:#fff;stroke-opacity:0.09;stroke-width:7.68px;"/>
        <path d="M301.261,289.543C300.348,290.695 298.067,290.486 296.406,290.468C292.188,290.423 287.209,290.414 283.146,291.359" style="fill:none;stroke:#fff;stroke-opacity:0.09;stroke-width:7.68px;"/>
        <path d="M300.491,307.328C300.205,306.606 301.723,308.296 302.206,308.904C303.036,309.95 304.803,310.86 305.937,311.482C309.444,313.404 316.385,318.556 320.651,316.622" style="fill:none;stroke:#fff;stroke-opacity:0.09;stroke-width:7.68px;"/>
        <path d="M258.378,246.041C259.487,246.089 259.883,247.57 260.588,248.214C262.71,250.152 264.538,251.902 267.128,253.219C270.834,255.102 274.109,252.318 277.556,253.613" style="fill:none;stroke:#fff;stroke-opacity:0.09;stroke-width:7.68px;"/>
        <path d="M283.438,269.489C287.642,273.814 293.839,276.578 299.463,278.692" style="fill:none;stroke:#fff;stroke-opacity:0.09;stroke-width:7.68px;"/>
        <path d="M297.112,251.606C297.211,251.325 297.495,252.071 297.618,252.343C297.92,253.009 298.38,253.787 298.818,254.36C299.875,255.744 301.39,257.336 302.784,258.397C306.692,261.375 315.899,265.187 318.575,258.067" style="fill:none;stroke:#fff;stroke-opacity:0.09;stroke-width:7.68px;"/>
        <path d="M315.237,230.158C315.123,230.146 315.816,230.503 315.916,230.237C316.205,229.469 314.652,231.292 314.113,231.909C312.902,233.293 311.567,234.73 309.647,234.93C304.279,235.491 300.439,232.448 295.769,230.692" style="fill:none;stroke:#fff;stroke-opacity:0.09;stroke-width:7.68px;"/>
        <path d="M290.685,198.886C290.791,198.635 293.737,201.822 294.012,202.026C296.724,204.036 298.594,205.511 301.839,206.731" style="fill:none;stroke:#fff;stroke-opacity:0.09;stroke-width:7.68px;"/>
        <path d="M232.251,318.31C232.608,317.944 232.726,319.216 232.938,319.682C233.39,320.679 233.944,321.587 234.394,322.58C235.679,325.412 237.048,330.028 239.257,332.046C243.255,335.697 245.294,329.877 248.679,328.342C249.999,327.743 251.309,328.999 252.562,328.431" style="fill:none;stroke:#fff;stroke-opacity:0.09;stroke-width:7.68px;"/>
        <path d="M269.298,326.067C269.341,326.943 271.136,326.054 271.896,326.494C273.435,327.385 275.186,328.965 276.334,330.317C278.428,332.782 281.542,338.462 285.36,338.606C286.605,338.653 288.066,337.379 289.137,336.893C290.305,336.363 291.331,335.858 292.229,334.921C292.98,334.138 294.682,332.563 295.021,331.662" style="fill:none;stroke:#fff;stroke-opacity:0.09;stroke-width:7.68px;"/>
        <path d="M269.383,352.756C269.732,352.97 270.991,352.985 270.608,352.841C268.967,352.224 267.431,353.214 265.823,353.588C264.202,353.964 262.602,353.633 260.995,353.927C259.627,354.177 258.694,355.522 257.282,355.469C252.698,355.295 251.989,347.995 248.621,346.729" style="fill:none;stroke:#fff;stroke-opacity:0.09;stroke-width:7.68px;"/>
        <path d="M268.674,226.17C269.534,224.897 275,234.464 276.493,236.075C279.873,239.721 281.744,233.817 285.099,235.078" style="fill:none;stroke:#fff;stroke-opacity:0.09;stroke-width:7.68px;"/>
        <path d="M264.532,228.014C264.458,228.486 265.519,228.472 265.627,228.937C266.127,231.085 267.304,232.368 268.647,234.062C270.566,236.479 272.427,238.531 274.446,240.709C275.111,241.427 275.842,242.747 277.014,242.792C278.347,242.842 281.12,241.625 282.469,241.013C283.305,240.634 286.833,240.442 287.156,239.584" style="fill:none;stroke:#000;stroke-width:6.67px;"/>
    </g>
    <g>
        <path d="M221.513,249.401C222.881,249.1 229.026,251.582 228.301,253.757C227.317,256.708 221.013,254.505 219.543,257.444C218.939,258.652 221.263,261.93 221.848,262.515C223.109,263.776 219.184,265.307 218.852,265.972C218.182,267.311 219.214,269.709 217.469,270.581C214.322,272.155 207.499,270.931 205.715,274.5C204.721,276.488 210.989,275.523 211.707,275.882C213.933,276.995 220.631,279.765 219.313,283.719C218.071,287.442 209.676,287.143 206.867,289.25C205.794,290.054 203.208,291.857 202.488,292.938C201.42,294.539 203.097,295.851 204.101,296.856C206.415,299.17 209.244,299.16 212.859,299.16" style="fill:none;stroke:#ff3900;stroke-opacity:0.33;stroke-width:11.2px;"/>
        <path d="M229.483,252.175C229.079,251.735 232.7,253.889 233.372,254.448C235.339,256.088 242.747,257.928 244.665,255.37C245.282,254.547 244.895,252.637 244.895,251.683C244.895,249.198 245.555,240.802 244.204,238.776C243.293,237.409 241.195,236.919 240.055,235.78C239.555,235.279 238.673,234.166 238.673,234.166C238.673,234.166 239.744,237.462 240.516,239.006C241.036,240.046 242.871,239.1 243.974,239.467C246.327,240.252 255.163,242.147 256.419,239.006C257.183,237.097 254.943,234.044 254.114,232.553C251.618,228.06 244.621,220.469 246.278,215.498C246.852,213.776 244.117,212.66 245.817,211.81C246.884,211.277 248.402,218.642 248.583,219.185C250.773,225.754 255.677,232.418 262.872,227.022C264.802,225.574 271.16,218.706 269.787,215.959C267.954,212.294 262.317,209.954 261.49,205.818C261.031,203.523 262.529,202.119 262.872,200.056C263.101,198.684 262.412,195.907 262.412,195.907C262.412,195.907 262.19,199.571 262.872,201.208C264.452,205 267.819,208.211 271.631,209.736C272.105,209.926 274.278,211.237 274.857,210.658C275.937,209.578 274.572,204.333 275.318,202.591C276.805,199.123 278.495,195.595 279.697,191.989C280.35,190.03 277.815,188.148 278.545,186.688C279.308,185.163 283.615,187.38 283.615,187.38C283.615,187.38 281.621,187.149 280.619,187.149C278.467,187.149 276.912,186.708 275.549,188.071" style="fill:none;stroke:#ff3900;stroke-opacity:0.33;stroke-width:11.2px;"/>
        <path d="M284.841,191.023C284.5,190.537 285.53,192.071 285.53,192.665C285.53,194.065 285.375,195.22 285.046,196.535C283.955,200.898 280.7,204.735 279.241,209.113C278.521,211.272 277.325,211.828 276.097,213.466C274.079,216.157 273.218,219.796 271.501,222.658C270.193,224.838 267.893,225.775 266.421,227.737C263.605,231.492 264.1,235.799 261.826,239.59C259.786,242.989 254.075,242.256 251.183,243.702C249.836,244.375 249.965,248.064 248.764,249.265C246.643,251.386 242.72,255.144 241.507,257.973C240.316,260.754 239.468,263.998 237.637,266.439C234.563,270.538 225.918,269.801 223.608,274.421C222.942,275.754 222.9,277.756 222.399,279.258C221.498,281.96 217.191,283.907 215.626,286.515C214.69,288.074 215.142,290.769 215.142,292.562C215.142,293.01 214.772,295.82 215.142,296.19C215.363,296.411 217.698,292.012 217.803,291.836C219.287,289.364 220.934,286.957 222.157,284.338C223.685,281.062 225.937,276.866 226.269,273.211C226.553,270.091 225.296,265.487 226.269,262.569C226.861,260.793 229.141,259.696 230.381,258.457C232.518,256.32 237.082,252.978 240.298,254.586C241.827,255.351 238.208,258.169 237.879,258.457C234.089,261.773 228.884,263.098 225.301,266.681C221.104,270.878 222.328,275.472 221.673,280.71C221.071,285.53 220.351,290.667 218.529,295.223" style="fill:none;stroke:#ff8100;stroke-opacity:0.33;stroke-width:11.2px;"/>
        <path d="M289.838,196.053C289.917,196.05 289.884,198.828 289.884,198.953C289.884,202.054 287.655,205.082 286.014,207.661C283.476,211.649 279.668,213.906 276.58,217.337C273.124,221.177 271.189,226.655 268.115,230.882C265.332,234.708 262.317,236.783 260.858,241.525C258.663,248.658 254.13,258.861 247.796,263.294C243.135,266.557 237.241,267.711 232.8,271.518C228.423,275.269 229.216,281.779 226.027,286.031C223.854,288.928 219.506,290.124 217.803,293.529C216.059,297.017 216.489,301.48 214.9,304.656C214.208,306.04 216.422,307.488 215.626,308.284C215.347,308.563 214.173,308.287 213.933,308.768C213.134,310.367 216.255,314.67 214.9,316.025C213.145,317.78 209.992,316.296 209.337,314.331C208.983,313.269 209.233,309.84 209.095,309.977" style="fill:none;stroke:#ff8100;stroke-opacity:0.33;stroke-width:11.2px;"/>
        <path d="M286.135,198.946C285.55,198.68 287.365,198.527 287.9,198.17C289.485,197.113 290.702,195.564 292.331,194.477C296.105,191.961 305.925,193.069 307.102,191.893C308.343,190.652 306.766,187.394 307.471,185.984C308.137,184.654 309.318,181.922 309.318,181.922C309.318,181.922 304.824,182.681 302.671,183.399C298.228,184.88 290.782,187.975 288.638,192.262" style="fill:none;stroke:#ff8100;stroke-opacity:0.33;stroke-width:11.2px;"/>
    </g>
</svg>
