<?xml version="1.0" encoding="UTF-8" standalone="no"?>
<!DOCTYPE svg PUBLIC "-//W3C//DTD SVG 1.1//EN" "http://www.w3.org/Graphics/SVG/1.1/DTD/svg11.dtd">
<svg width="100%" height="100%" viewBox="0 0 1066 533" version="1.1" xmlns="http://www.w3.org/2000/svg" xmlns:xlink="http://www.w3.org/1999/xlink" xml:space="preserve" xmlns:serif="http://www.serif.com/" style="fill-rule:evenodd;clip-rule:evenodd;stroke-linecap:round;stroke-linejoin:round;stroke-miterlimit:1.5;">
    <path d="M184.322,158.282C187.794,155.56 211.602,137.101 225.538,130.766C238.517,124.867 253.662,121.72 265.949,114.553C279.399,106.707 291.286,96.011 305.226,89.041C340.909,71.2 383.307,55.6 422.798,49.364C503.988,36.545 599.465,42.833 660.715,108.794C683.901,133.763 704.73,161.495 719.987,192.009C726.283,204.601 734.389,216.429 737.843,230.245C740.198,239.668 740.452,248.087 740.465,256.897C740.579,258.842 740.615,260.794 740.561,262.749C748.369,290.184 746.892,326.249 740.124,353.32C736.266,368.752 733.231,383.828 725.349,398.017C703.384,437.552 667.6,467.538 622.206,478.013C611.038,480.59 599.79,482.348 588.283,482.972C417.464,492.247 407.082,501.262 299.828,452.313C263.008,435.509 234.73,421.041 213.199,408.848C207.17,409.032 201.092,408.34 195.076,406.535C186.212,403.876 144.265,383.01 138.966,380.366C134.301,378.796 128.332,376.264 121.659,371.964C118.63,370.013 108.844,362.079 101.912,356.365C90.062,351.646 80.436,344.261 72.696,334.751C64.006,324.074 56.285,309.436 56.285,288.589C56.285,263.867 66.395,247.888 77.161,236.763C82.641,231.101 88.874,226.3 95.967,222.602C102.522,216.629 114.4,206.356 122.713,202.199C130.388,198.362 135.358,191.135 141.725,185.633C154.469,174.622 168.249,165.032 184.322,158.282ZM99.54,220.86C102.516,219.034 104.569,217.877 104.569,217.877C104.569,217.877 101.948,219.337 99.292,220.974L99.54,220.86Z" style="fill:#494949;fill-opacity:0.22;"/>
    <path d="M694.358,271.711C697.273,280.875 699.209,289.893 700.053,298.338C702.638,324.186 694.47,347.905 685.209,371.059C677.743,389.724 661.151,405.067 639.339,414.439C615.744,424.576 586.183,427.669 567.776,425.828C542.009,423.251 516.011,420.963 491.251,411.959C475.652,406.287 461.23,396.924 445.949,390.557C443.815,389.668 441.327,390.114 438.947,389.891C432.713,389.308 426.526,388.548 420.664,387.082C404.407,383.018 388.622,375.199 372.089,372.193C333.283,365.137 294.002,352.888 256.815,338.943C247.397,335.411 238.246,328.843 228.621,326.437C223.891,325.254 198.508,319.414 186.043,313.574C174.901,308.353 168.071,301.186 164.648,295.99C155.51,282.119 155.434,268.259 162.105,254.917C173.656,231.817 189.549,217.553 208.179,206.089C220.772,198.34 234.99,192.275 249.271,183.349C265.068,173.476 278.974,163.402 296.152,155.767C305.831,151.465 316.538,150.051 325.929,145.355C347.457,134.591 371.009,121.656 394.827,116.552C405.884,114.183 417.247,114.937 428.335,112.719C451.85,108.016 477.073,102.529 501.148,105.969C519.359,108.57 537.805,114.914 554.894,121.487C580.933,131.502 612.918,142.858 634.425,161.293C663.778,186.452 686.778,228.95 694.358,271.711Z" style="fill:#ff5800;fill-opacity:0.4;"/>
    <path d="M278.029,241.978C278.281,241.853 278.535,241.745 278.79,241.65C279.163,241.511 281.876,240.583 282.861,240.091C286.502,238.27 290.377,237.878 294.133,236.376C305.214,231.944 316.51,228.695 327.874,225.286C360.429,215.519 393.026,205.866 425.314,195.104C450.244,186.794 485.186,170.612 510.399,167.811C524.212,166.276 538.367,169.629 551.926,170.985C568.3,172.622 587.777,175.995 602.454,184.801C611.821,190.421 619.792,199.499 626.438,210.123C634.627,223.213 640.873,238.715 646.592,250.152C654.627,266.223 663.838,307.028 660.15,325.466C656.534,343.546 652.91,354.64 646.585,362.676C639.811,371.284 629.88,377.2 611.538,382.441C599.433,385.899 586.046,390.22 573.172,388.789C566.73,388.074 544.618,377.68 535.964,374.796C526.5,371.641 516.346,371.144 506.158,370.605C493.482,369.934 480.75,369.289 468.688,365.999C447.93,360.338 427.539,352.84 407.227,346.069C390.304,340.428 375.683,329.173 358.569,324.505C339.522,319.31 319.153,311.422 299.528,308.969C290.67,307.861 277.397,307.66 269.562,303.742C266.952,302.437 262.539,298.874 261.737,298.218C253.544,294.919 245.427,291.036 237.063,288.946C235.186,288.476 233.202,288.34 231.213,288.34C229.055,288.34 224.286,288.337 222.569,287.873C220.248,287.246 218.487,286.244 217.181,285.275C213.052,282.212 211.24,278.237 210.92,273.921C210.692,270.841 210.914,266.237 215.564,261.587C219.235,257.916 225.061,255.043 232.303,253.779C240.987,252.263 252.736,253.148 258.566,252.419C262.295,251.953 266.014,251.463 269.72,250.939C271.233,248.099 273.168,245.567 275.273,243.794C275.853,243.148 276.753,242.538 278.029,241.978ZM492.799,332.926C487.603,335.148 481.815,336.137 475.739,336.074L476.771,336.362C486.745,339.082 497.301,339.373 507.783,339.928C514.13,340.264 520.453,340.68 526.667,341.49C526.298,341.126 525.934,340.754 525.572,340.376C524.681,339.446 523.807,338.479 522.958,337.469C522.052,337.593 521.148,337.691 520.247,337.764C511.138,338.5 501.795,336.687 492.799,332.926ZM607.217,264.853C608.278,275.006 608.053,285.317 607.192,295.077C606.441,303.581 604.959,316.053 601.084,326.564C600.54,328.039 599.948,329.476 599.301,330.866L616.09,304.855C617.468,290.364 613.645,277.109 607.217,264.853ZM573.346,303.094C570.028,308.462 565.918,313.511 561.22,317.994C564.023,319.459 566.714,320.786 569.241,321.961C571.481,319.758 572.383,316.016 573.399,312.393C573.742,311.17 574.048,309.93 574.32,308.688C573.65,306.899 573.32,304.999 573.346,303.094ZM525.952,258.355C525.774,260.757 525.777,263.209 525.852,265.585C526.118,274.098 529.484,287.463 535.256,299.792C536.776,298.665 538.237,297.437 539.625,296.14C545.83,290.341 550.751,283.015 551.632,275.458L551.688,274.784C544.559,268.833 536.779,263.661 528.633,259.588C527.758,259.151 526.865,258.739 525.952,258.355Z" style="fill:#ffecb0;fill-opacity:0.4;"/>
    <g>
        <path d="M606.506,281.086C606.557,281.127 606.074,278.666 606.004,278.365C605.57,276.495 605.112,274.711 604.764,272.807C603.737,267.185 604.907,261.797 603.061,256.499C601.998,253.445 598.221,250.407 597.898,247.312C597.477,243.283 599.26,239.247 598.702,235.276C598.189,231.627 595.666,228.786 593.603,225.917C590.054,220.978 586.389,213.608 580.463,211.381" style="fill:none;stroke:#000;stroke-opacity:0.09;stroke-width:20.8px;"/>
        <path d="M573.187,171.149C573.881,172.313 575.971,170.99 577.238,171.466C579.609,172.358 582.135,174.706 583.776,176.476C587.469,180.46 579.169,184.076 582.229,187.376C583.414,188.654 584.932,186.91 585.752,186.149C588.039,184.03 587.851,180.99 591.404,180.619C594.9,180.254 598.154,186.642 598.413,189.123C598.523,190.179 595.716,191.762 596.09,192.587C596.357,193.177 598.79,193.456 599.304,193.54C601.866,193.96 606.751,193.604 608.107,196.595C611.449,203.963 602.129,203.637 598.455,205.979C597.954,206.299 594.927,208.183 594.959,208.492C595.176,210.573 597.76,209.354 598.788,209.166C601.35,208.698 606.908,205.479 607.845,209.509C608.293,211.437 610.345,215.9 608.816,217.785C606.626,220.486 602.844,220.62 600.733,223.676C600.434,224.109 598.273,226.43 598.494,226.917C598.601,227.153 605.409,222.312 606.465,222.004C610.795,220.74 617.202,225.07 617.668,229.533C617.809,230.88 618.592,233.661 618.447,234.928C617.878,239.871 609.492,239.88 606.282,240.817C604.109,241.451 602.033,242.28 599.85,242.992C598.668,243.377 595.442,244.397 596.606,244.834C598.392,245.505 602.489,242.981 604.463,242.94C610.411,242.815 613.69,250.056 614.153,254.493C614.693,259.657 606.864,261.879 603.691,263.318C602.675,263.779 601.55,263.918 600.476,264.405C600.45,264.417 598.723,265.022 598.938,265.103C600.916,265.847 604.264,263.499 606.124,262.956C609.253,262.043 615.659,261.581 617.779,264.531C619.632,267.109 619.648,275.862 615.729,276.774C612.853,277.442 609.569,278.632 606.586,278.695C605.455,278.718 604.383,278.763 603.259,278.72C602.618,278.696 600.786,278.045 601.387,278.271C605.495,279.816 615.121,273.669 617.235,280.912C617.62,282.233 617.69,283.542 617.539,284.854C616.159,296.844 602.118,283.569 601.067,292.695C600.465,297.932 608.201,290.362 610.627,293.737C611.607,295.101 614.399,301.31 612.856,302.741C611.844,303.679 608.436,305.301 607.374,305.783C606.79,306.048 605.502,305.334 605.502,305.334C605.502,305.334 607.883,305.209 608.968,305.617C611.749,306.662 614.044,306.179 615.478,309.34C617.323,313.408 614.064,320.624 609.012,320.432C607.302,320.368 602.071,320.167 600.736,321.404C600.373,321.741 601.644,322.996 601.797,323.334C602.641,325.195 602.776,326.796 601.234,328.225C600.516,328.89 595.179,331.639 595.556,332.47C597.174,336.037 601.359,336.67 602.705,341.281C604.367,346.977 591.036,355.129 586.788,354.434C583.938,353.968 582.279,352.334 580.278,350.711C579.849,350.364 578.909,348.179 578.323,348.445C576.469,349.286 578.621,353.559 578.988,354.819C580.067,358.514 578.795,362.626 575.738,364.824C575.244,365.179 573.358,364.969 572.55,365.157C570.911,365.538 569.723,367.164 567.797,366.942C565.617,366.691 560.897,362.768 560.086,360.982C559.516,359.725 557.725,357.528 556.54,356.841C555.769,356.396 554.248,355.47 554.248,355.47C554.248,355.47 554.439,356.775 554.862,357.231C555.902,358.353 557.499,359.437 557.43,361.259C557.254,365.914 554.499,371.788 549.286,372.741C545.784,373.382 539.406,371.97 536.542,369.991C535.39,369.196 534.482,367.539 534.113,366.271C534.056,366.078 533.863,364.716 533.639,364.817C530.813,366.099 529.361,369.997 525.387,371.156C524.451,371.429 519.333,371.711 518.762,370.452C518.427,369.712 518.519,366.933 517.228,367.068C510.402,367.781 505.976,366.793 503.116,360.487C502.568,359.278 495.141,360.049 493.362,358.606C489.674,355.616 486.227,351.988 485.712,347.055C485.477,344.809 487.874,341.6 486.976,339.62C485.958,337.376 479.114,338.885 476.942,337.124C474.899,335.467 472.907,329.924 473.009,327.225C473.032,326.628 476.507,326.443 476.225,326.138C475.065,324.886 472.228,325.348 470.775,324.344C466.857,321.637 466.541,314.393 466.705,310.056C466.845,306.383 472.631,304.149 475.683,304.501C476.241,304.565 481.718,304.722 481.582,304.422C480.99,303.117 478.207,303.42 477.166,303.272C474.367,302.875 466.174,302.727 463.974,300.354C462.936,299.234 463.717,296.899 463.475,295.573C462.58,290.679 466.397,285.672 470.082,282.748C471.952,281.264 476.551,282.373 478.608,283.146C479.128,283.342 481.975,284.531 481.962,284.407C481.825,283.094 477.601,280.981 476.514,280.573C471.334,278.625 467.371,279.766 465.589,273.659C465.16,272.187 465.787,270.948 466.571,269.69C468.561,266.495 469.664,263.865 474.179,264.385C475.842,264.577 479.734,266.081 481.195,264.726C484.572,261.596 478.643,255.711 478.326,252.676C478.013,249.68 483.603,243.172 485.463,241.835C487.149,240.623 490.486,241.885 492.003,242.763C495.148,244.583 501.835,248.504 505.53,246.828C506.034,246.599 502.274,244.373 502.15,244.281C500.474,243.039 497.348,240.75 496.228,238.993C493.794,235.177 495.646,229.154 499.201,226.332C504.653,222.006 508.634,227.709 512.084,231.43C512.951,232.365 516.523,235.55 517.728,234.063C518.677,232.893 515.72,228.871 515.162,227.995C511.934,222.934 508.109,219.173 504.41,214.512C503.434,213.281 502.434,209.729 503.437,208.277C504.191,207.186 505.64,206.686 506.626,205.904C513.958,200.085 518.278,207.206 522.358,213.604C523.303,215.086 526.621,220.574 528.727,219.06C531.034,217.402 529.68,213.004 528.426,211.037C527.66,209.836 526.079,209.291 525.13,208.267C522.016,204.909 517.027,196.25 520.083,191.826C523.288,187.187 530.924,189.56 532.996,194.129C533.823,195.951 534.248,198.401 535.34,200.113C535.968,201.098 537.673,202.166 538.888,202.212C539.524,202.237 540.325,201.375 540.818,201.152C544.196,199.619 542.488,198.561 540.655,195.477C539.204,193.037 533.996,182.943 536.167,180.266C539.812,175.77 547.801,179.014 551.987,181.621C552.773,182.11 556.695,185.791 557.435,185.455C557.707,185.332 555.671,177.585 557.134,177.432C559.495,177.186 564.87,184.098 566.383,182.695C567.691,181.483 568.308,179.401 567.785,177.609C567.622,177.05 566.463,174.87 567.452,174.422C568.421,173.982 569.856,173.888 570.891,173.418C572.266,172.794 571.858,171.74 573.576,172.386" style="fill:#927147;stroke:#000;stroke-width:6.67px;"/>
        <path d="M583.29,232.981C583.316,233.118 583.035,232.32 582.748,232.45C582.147,232.723 582.216,235.012 581.359,235.628C579.697,236.822 577.534,236.454 575.661,236.797C572.823,237.315 570.764,238.966 567.638,238.454C564.146,237.883 562.674,234.446 559.812,233.37" style="fill:none;stroke:#000;stroke-width:6.67px;"/>
        <path d="M552.418,199.225C552.298,199.241 552.861,202.728 553.394,203.304C556.253,206.388 564.733,214.066 567.643,206.324" style="fill:none;stroke:#000;stroke-width:6.67px;"/>
        <path d="M546.155,257.052C546.524,257.219 545.334,256.637 544.966,256.805C544.804,256.878 544.2,257.626 544.005,257.807C542.179,259.499 538.956,258.57 536.708,258.569C529.292,258.562 523.888,254.957 520.886,248.336" style="fill:none;stroke:#000;stroke-width:6.67px;"/>
        <path d="M543.018,269.587C543.188,269.488 544.308,270.821 544.484,271.035C545.991,272.852 547.762,274.212 549.558,275.668C554.59,279.748 562.148,281.721 568.478,280.25C570.314,279.823 573.61,279.87 574.838,278.356" style="fill:none;stroke:#000;stroke-width:6.67px;"/>
        <path d="M586.791,260.775C584.263,261.601 581.639,263.382 579.052,264.556C573.618,267.021 564.448,264.809 561.839,259.059" style="fill:none;stroke:#000;stroke-width:6.67px;"/>
        <path d="M545.042,293.346C545.081,293.272 545.94,293.972 545.98,293.992C546.608,294.303 547.364,294.512 548.028,294.762C549.829,295.439 553.036,296.003 554.961,296.005C559.018,296.008 563.047,296.159 566.845,294.436C569.059,293.432 570.681,291.139 572.716,290.216" style="fill:none;stroke:#000;stroke-width:6.67px;"/>
        <path d="M563.089,306.063C562.69,306.023 563.726,306.592 563.891,306.957C564.199,307.637 564.357,308.469 564.614,309.176C565.381,311.283 566.449,313.298 567.852,315.067C571.817,320.063 577.357,322.079 583.146,319.454C584.705,318.746 586.299,318.319 586.946,316.598" style="fill:none;stroke:#000;stroke-width:6.67px;"/>
        <path d="M490.039,276.177C490.025,276.186 490.857,275.744 491.101,276.282C491.611,277.407 491.473,280.106 491.544,281.317C491.727,284.426 491.222,288.625 493.393,290.386C495.931,292.444 499.902,289.059 502.398,288.708C504.881,288.358 507.217,289.741 509.138,290.463" style="fill:none;stroke:#000;stroke-width:6.67px;"/>
        <path d="M508.185,265.476C508.166,264.992 508.893,266.192 509.029,266.657C509.296,267.57 509.518,268.527 509.817,269.443C510.597,271.837 510.785,274.766 512.496,276.612C513.021,277.178 513.994,276.153 514.766,276.154C517.521,276.156 520.059,276.421 522.779,276.807C523.241,276.872 527.065,277.26 526.943,277.586" style="fill:none;stroke:#000;stroke-width:6.67px;"/>
        <path d="M514.485,298.616C514.023,299.092 515.402,299.641 515.573,300.282C515.813,301.182 515.938,302.2 516.275,303.077C517.661,306.684 519.808,310.648 522.219,313.686C522.775,314.387 524.058,316.28 525.182,316.163C526.87,315.987 528.74,313.157 530.455,312.498C535.412,310.592 542.995,308.059 548.143,309.995" style="fill:none;stroke:#000;stroke-width:6.67px;"/>
        <path d="M565.775,333.704C565.164,333.956 564.055,335.528 563.483,336.015C561.495,337.703 559.295,338.93 557.036,340.212C543.976,347.629 538.967,334.069 529.482,327.517" style="fill:none;stroke:#000;stroke-width:6.67px;"/>
        <path d="M495.187,321.015C494.578,321.09 496.079,321.896 496.332,322.454C496.87,323.64 497.233,324.753 497.759,325.912C499.286,329.28 500.445,332.526 502.999,335.282C503.35,335.66 504.422,336.937 505.132,336.863C507.38,336.628 509.791,334.728 511.876,333.945C514.078,333.118 516.536,333.014 518.747,332.244C519.61,331.944 522.615,330.04 522.801,331.821" style="fill:none;stroke:#000;stroke-width:6.67px;"/>
        <path d="M512.107,347.148C512.698,346.855 514.837,351.268 515.125,351.72C516.966,354.606 519.876,358.426 522.82,360.26C525.299,361.804 529.068,359.408 531.313,358.39C533.837,357.245 536.808,357.078 539.507,356.796C540.318,356.712 541.987,355.586 542.431,355.753" style="fill:none;stroke:#000;stroke-width:6.67px;"/>
        <path d="M604.987,308.648C603.963,313.602 598.291,318.917 595.689,324.036C593.632,328.084 592.722,333.012 590.444,336.948C589.08,339.303 587.357,341.429 585.954,343.681C585.555,344.322 585.103,345.812 584.578,346.298C580.099,350.451 574.695,351.654 569.103,353.602C566.172,354.622 564.313,355.916 561.162,356.492C558.215,357.03 554.883,355.828 551.893,356.141C548.249,356.521 544.564,358.318 541.098,359.329C538.198,360.175 534.402,359.144 531.551,358.677C530.52,358.508 529.508,359.254 528.461,359.082C520.887,357.843 510.987,355.653 504.201,351.724C499.79,349.171 498.2,342.766 495.35,338.801C492.764,335.203 489.01,332.933 486.132,329.46C484.239,327.177 482.951,324.269 481.375,321.796C479.811,319.344 480.154,316.567 479.407,314.006C477.884,308.785 477.58,303.687 476.052,298.448C474.367,292.675 477.417,286.896 477.632,281.22C477.709,279.185 478.776,277.315 478.731,275.171C478.72,274.634 478.811,272.999 478.046,273.346" style="fill:none;stroke:#000;stroke-opacity:0.09;stroke-width:20.8px;"/>
        <path d="M606.481,288.748C606.379,288.674 607.427,285.699 607.479,285.382C608.102,281.572 610.244,276.681 609.463,272.811C608.604,268.549 607.423,264.47 607.221,260.021C606.965,254.374 607.384,248.228 605.905,242.684C605.25,240.23 605.282,237.264 604.517,234.916C603.152,230.728 601.107,226.738 600.644,222.297C600.011,216.236 602.231,209.103 598.685,203.543C595.694,198.852 590.949,193.98 586.101,191.174C581.3,188.395 577.941,184.483 571.946,183.503C569.371,183.081 567.188,184.468 564.757,184.913C562.176,185.385 559.68,185.275 557.118,185.958C554.907,186.547 552.313,186.344 550.08,186.445C543.873,186.727 534.467,193.621 531.682,198.918C529.802,202.495 529.172,207.323 526.888,210.628C524.667,213.843 522.112,216.666 520.315,220.3C517.349,226.296 516.386,233.244 512.082,238.552C508.816,242.58 504.932,248.853 500.228,251.33C491.694,255.822 483.962,256.847 477.56,264.742C476.429,266.137 476.498,268.609 475.903,270.191" style="fill:none;stroke:#fff;stroke-opacity:0.09;stroke-width:20.8px;"/>
        <path d="M539.716,273.787C540.471,274.6 543.404,275.126 544.493,275.804C547.047,277.395 549.338,279.542 551.891,281.131C553.746,282.287 556.754,282.499 558.841,282.961C565.511,284.436 569.827,285.379 576.499,282.353" style="fill:none;stroke:#000;stroke-opacity:0.09;stroke-width:7.68px;"/>
        <path d="M572.437,295.554C572.486,295.549 573.141,296.117 572.84,296.253C570.885,297.14 566.594,297.236 564.257,297.727C558.17,299.006 551.859,301.683 545.975,299.471" style="fill:none;stroke:#000;stroke-opacity:0.09;stroke-width:7.68px;"/>
        <path d="M562.311,312.752C562.357,312.679 562.796,316.67 562.825,317.165C563.018,320.453 563.911,323.181 567.002,324.806C570.062,326.415 573.115,324.791 576.293,324.578C580.488,324.296 584.458,324.797 588.716,324.352" style="fill:none;stroke:#000;stroke-opacity:0.09;stroke-width:7.68px;"/>
        <path d="M564.446,336.059C564.839,335.928 562.231,339.067 561.927,339.349C560.132,341.013 559.494,344.21 556.902,344.902C549.227,346.949 542.265,345.079 535.126,342.395" style="fill:none;stroke:#000;stroke-opacity:0.09;stroke-width:7.68px;"/>
        <path d="M519.601,334.942C519.419,334.976 520.122,335.288 519.898,335.495C518.718,336.589 515.134,337.441 513.61,337.636C509.424,338.172 505.397,337.585 501.273,337.111" style="fill:none;stroke:#000;stroke-opacity:0.09;stroke-width:7.68px;"/>
        <path d="M511.369,299.587C513.288,300.212 513.211,302.87 513.53,304.508C514.253,308.224 515.143,312.833 517.211,316.076C520.891,321.847 525.63,319.776 530.812,318.447C533.19,317.837 535.765,318.574 538.086,317.852C540.544,317.088 542.595,315.395 545.104,314.811" style="fill:none;stroke:#000;stroke-opacity:0.09;stroke-width:7.68px;"/>
        <path d="M486.835,278.879C486.644,278.572 485.99,280.346 485.893,280.605C485.354,282.04 486.166,283.959 486.876,285.283C488.883,289.025 488.121,295.364 491.371,298.332C492.6,299.454 495.108,297.254 496.071,296.77C499.548,295.022 503.893,294.469 507.66,294.076" style="fill:none;stroke:#000;stroke-opacity:0.09;stroke-width:7.68px;"/>
        <path d="M507.027,265.391C507.21,265.729 506.343,266.068 506.502,266.418C508.327,270.442 508.944,274.94 510.783,278.995C511.383,280.317 512.584,282.648 514.234,282.838C515.541,282.989 517.166,281.417 518.42,281.082C520.848,280.434 523.557,280.876 526.037,280.617" style="fill:none;stroke:#000;stroke-opacity:0.09;stroke-width:7.68px;"/>
        <path d="M518.544,251.517C518.769,252.868 520.065,253.796 520.801,254.951C524.208,260.293 529.485,262.94 535.814,262.945C539.63,262.948 543.145,261.54 547.058,261.688" style="fill:none;stroke:#000;stroke-opacity:0.09;stroke-width:7.68px;"/>
        <path d="M583.912,239.973C583.721,239.675 584.033,239.023 583.895,238.718C583.645,238.169 582.163,239.076 581.963,239.167C579.427,240.317 576.969,241.779 574.343,242.765C571.219,243.939 567.759,242.27 565.205,240.505" style="fill:none;stroke:#000;stroke-opacity:0.09;stroke-width:7.68px;"/>
        <path d="M548.229,203.116C548.802,203.976 548.742,205.258 549.335,206.141C550.097,207.278 551.671,207.737 552.723,208.59C554.531,210.056 556.262,213.28 558.619,213.744C559.888,213.994 561.583,212.594 562.74,212.16C564.481,211.506 566.895,211.215 568.748,211.285" style="fill:none;stroke:#000;stroke-opacity:0.09;stroke-width:7.68px;"/>
        <path d="M587.943,263.685C588.012,263.789 583.291,266.122 581.919,266.373C578.234,267.047 575.167,266.518 571.557,265.807C568.465,265.198 567.615,262.441 564.284,264.835" style="fill:none;stroke:#000;stroke-opacity:0.09;stroke-width:7.68px;"/>
        <path d="M576.874,271.81C577.259,271.554 575.961,272.007 575.499,271.989C574.555,271.953 572.968,271.483 572.175,270.935C570.658,269.887 568.758,269.548 567.22,268.485C565.743,267.465 565.562,265.315 563.769,264.642" style="fill:none;stroke:#000;stroke-opacity:0.09;stroke-width:7.68px;"/>
        <path d="M492.904,277.218C492.43,276.38 493.121,279.137 493.339,280.075C493.869,282.356 494.644,284.377 496.187,286.042C496.336,286.202 500.346,283.48 502.132,283.772C505.055,284.25 509.015,287.345 507.727,290.771" style="fill:none;stroke:#fff;stroke-opacity:0.09;stroke-width:7.68px;"/>
        <path d="M517.027,299.097C516.515,299.237 517.729,299.897 518.039,300.328C518.603,301.113 519.339,302.253 519.732,303.118C521.34,306.665 522.949,309.692 526.999,310.355C527.52,310.44 531.434,310.492 531.763,310.187C532.948,309.088 533.074,307.381 534.791,306.821C538.493,305.614 548.183,308.003 550.879,310.911" style="fill:none;stroke:#fff;stroke-opacity:0.09;stroke-width:7.68px;"/>
        <path d="M512.529,261.443C512.144,261.245 513.418,261.38 513.823,261.532C514.718,261.869 515.891,262.399 516.009,263.529C516.305,266.364 516.265,269.185 518.792,271.234C520.793,272.857 528.099,271.157 528.466,274.675" style="fill:none;stroke:#fff;stroke-opacity:0.09;stroke-width:7.68px;"/>
        <path d="M567.595,289.377C566.682,290.528 564.4,290.32 562.74,290.302C558.521,290.256 553.542,290.248 549.479,291.192" style="fill:none;stroke:#fff;stroke-opacity:0.09;stroke-width:7.68px;"/>
        <path d="M566.825,307.161C566.538,306.44 568.056,308.129 568.539,308.737C569.369,309.783 571.136,310.693 572.27,311.315C575.777,313.238 582.718,318.39 586.985,316.455" style="fill:none;stroke:#fff;stroke-opacity:0.09;stroke-width:7.68px;"/>
        <path d="M524.711,245.875C525.82,245.922 526.217,247.404 526.922,248.047C529.044,249.985 530.871,251.735 533.462,253.052C537.167,254.935 540.442,252.151 543.889,253.447" style="fill:none;stroke:#fff;stroke-opacity:0.09;stroke-width:7.68px;"/>
        <path d="M549.772,269.323C553.976,273.647 560.172,276.411 565.796,278.525" style="fill:none;stroke:#fff;stroke-opacity:0.09;stroke-width:7.68px;"/>
        <path d="M563.445,251.439C563.545,251.159 563.828,251.905 563.951,252.176C564.253,252.842 564.713,253.621 565.151,254.194C566.208,255.577 567.724,257.169 569.117,258.231C573.026,261.209 582.232,265.02 584.909,257.9" style="fill:none;stroke:#fff;stroke-opacity:0.09;stroke-width:7.68px;"/>
        <path d="M581.571,229.991C581.456,229.979 582.15,230.336 582.25,230.07C582.538,229.303 580.985,231.125 580.446,231.742C579.236,233.127 577.901,234.563 575.981,234.764C570.613,235.324 566.773,232.281 562.102,230.525" style="fill:none;stroke:#fff;stroke-opacity:0.09;stroke-width:7.68px;"/>
        <path d="M557.018,198.719C557.125,198.468 560.071,201.656 560.345,201.859C563.057,203.87 564.927,205.344 568.172,206.564" style="fill:none;stroke:#fff;stroke-opacity:0.09;stroke-width:7.68px;"/>
        <path d="M498.584,318.144C498.942,317.778 499.06,319.05 499.271,319.515C499.723,320.513 500.277,321.42 500.727,322.413C502.012,325.245 503.381,329.861 505.59,331.879C509.589,335.531 511.627,329.71 515.012,328.175C516.332,327.576 517.642,328.833 518.896,328.264" style="fill:none;stroke:#fff;stroke-opacity:0.09;stroke-width:7.68px;"/>
        <path d="M535.631,325.9C535.675,326.776 537.469,325.888 538.229,326.327C539.769,327.219 541.519,328.798 542.667,330.15C544.761,332.616 547.875,338.295 551.693,338.439C552.938,338.487 554.399,337.212 555.471,336.726C556.638,336.197 557.664,335.691 558.562,334.755C559.314,333.971 561.015,332.397 561.354,331.496" style="fill:none;stroke:#fff;stroke-opacity:0.09;stroke-width:7.68px;"/>
        <path d="M535.717,352.59C536.065,352.804 537.324,352.818 536.941,352.674C535.3,352.057 533.765,353.047 532.156,353.421C530.535,353.798 528.935,353.467 527.328,353.76C525.96,354.01 525.027,355.356 523.615,355.302C519.031,355.129 518.322,347.829 514.954,346.562" style="fill:none;stroke:#fff;stroke-opacity:0.09;stroke-width:7.68px;"/>
        <path d="M535.007,226.003C535.867,224.731 541.333,234.298 542.827,235.909C546.206,239.554 548.078,233.65 551.432,234.911" style="fill:none;stroke:#fff;stroke-opacity:0.09;stroke-width:7.68px;"/>
        <path d="M530.865,227.847C530.791,228.319 531.853,228.305 531.961,228.771C532.46,230.918 533.637,232.201 534.981,233.895C536.899,236.312 538.76,238.365 540.779,240.543C541.445,241.26 542.175,242.581 543.347,242.625C544.681,242.676 547.453,241.458 548.803,240.846C549.638,240.468 553.166,240.275 553.489,239.417" style="fill:none;stroke:#000;stroke-width:6.67px;"/>
    </g>
    <g>
        <path d="M487.846,249.234C489.215,248.934 495.36,251.415 494.635,253.59C493.651,256.541 487.346,254.338 485.876,257.278C485.273,258.485 487.596,261.763 488.181,262.348C489.442,263.609 485.518,265.14 485.185,265.805C484.516,267.144 485.547,269.542 483.802,270.415C480.655,271.988 473.832,270.764 472.048,274.333C471.054,276.321 477.322,275.357 478.04,275.716C480.266,276.829 486.964,279.598 485.646,283.552C484.405,287.276 476.009,286.977 473.2,289.083C472.128,289.888 469.541,291.691 468.821,292.771C467.753,294.373 469.43,295.684 470.435,296.689C472.749,299.003 475.578,298.994 479.193,298.994" style="fill:none;stroke:#ff3900;stroke-opacity:0.33;stroke-width:11.2px;"/>
        <path d="M495.816,252.009C495.413,251.568 499.034,253.722 499.705,254.282C501.672,255.921 509.08,257.761 510.998,255.203C511.616,254.38 511.229,252.47 511.229,251.516C511.229,249.031 511.888,240.635 510.537,238.609C509.626,237.242 507.528,236.753 506.389,235.613C505.888,235.112 505.006,234 505.006,234C505.006,234 506.078,237.296 506.85,238.84C507.37,239.88 509.204,238.933 510.307,239.301C512.66,240.085 521.496,241.981 522.753,238.84C523.516,236.93 521.276,233.877 520.448,232.386C517.952,227.893 510.955,220.302 512.612,215.331C513.186,213.609 510.451,212.494 512.151,211.644C513.218,211.11 514.735,218.475 514.916,219.019C517.106,225.587 522.01,232.251 529.206,226.855C531.135,225.408 537.494,218.539 536.12,215.792C534.288,212.127 528.65,209.787 527.823,205.651C527.364,203.357 528.862,201.952 529.206,199.889C529.435,198.517 528.745,195.741 528.745,195.741C528.745,195.741 528.524,199.405 529.206,201.042C530.786,204.834 534.152,208.045 537.964,209.569C538.438,209.759 540.612,211.07 541.191,210.491C542.27,209.412 540.905,204.166 541.651,202.425C543.138,198.956 544.829,195.428 546.031,191.823C546.684,189.863 544.148,187.982 544.878,186.522C545.641,184.996 549.949,187.213 549.949,187.213C549.949,187.213 547.954,186.983 546.952,186.983C544.801,186.983 543.245,186.541 541.882,187.905" style="fill:none;stroke:#ff3900;stroke-opacity:0.33;stroke-width:11.2px;"/>
        <path d="M551.174,190.856C550.833,190.371 551.863,191.904 551.863,192.498C551.863,193.898 551.708,195.053 551.38,196.368C550.289,200.731 547.033,204.569 545.574,208.946C544.855,211.106 543.659,211.662 542.43,213.3C540.412,215.99 539.552,219.629 537.834,222.491C536.526,224.671 534.226,225.609 532.755,227.571C529.938,231.326 530.433,235.633 528.159,239.423C526.119,242.822 520.408,242.089 517.516,243.535C516.169,244.208 516.298,247.897 515.097,249.098C512.976,251.22 509.053,254.977 507.841,257.806C506.649,260.587 505.801,263.831 503.971,266.272C500.896,270.372 492.251,269.634 489.941,274.254C489.275,275.587 489.233,277.589 488.732,279.092C487.832,281.793 483.524,283.74 481.959,286.348C481.024,287.907 481.476,290.602 481.476,292.395C481.476,292.843 481.105,295.653 481.476,296.024C481.697,296.245 484.031,291.845 484.136,291.67C485.62,289.197 487.268,286.791 488.49,284.171C490.019,280.896 492.27,276.699 492.602,273.045C492.886,269.924 491.629,265.321 492.602,262.402C493.194,260.627 495.474,259.53 496.714,258.29C498.851,256.153 503.415,252.812 506.631,254.42C508.16,255.184 504.541,258.002 504.213,258.29C500.422,261.607 495.218,262.931 491.635,266.514C487.438,270.711 488.661,275.305 488.006,280.543C487.404,285.363 486.684,290.5 484.862,295.056" style="fill:none;stroke:#ff8100;stroke-opacity:0.33;stroke-width:11.2px;"/>
        <path d="M556.171,195.886C556.25,195.883 556.217,198.661 556.217,198.787C556.217,201.888 553.989,204.915 552.347,207.495C549.809,211.483 546.001,213.739 542.914,217.17C539.457,221.01 537.522,226.488 534.448,230.715C531.666,234.541 528.65,236.616 527.191,241.358C524.996,248.492 520.463,258.694 514.13,263.128C509.468,266.391 503.574,267.545 499.133,271.352C494.757,275.103 495.549,281.613 492.36,285.864C490.187,288.762 485.839,289.957 484.136,293.363C482.393,296.85 482.822,301.313 481.234,304.489C480.542,305.874 482.755,307.322 481.959,308.118C481.68,308.397 480.507,308.121 480.266,308.601C479.467,310.2 482.588,314.503 481.234,315.858C479.478,317.613 476.325,316.129 475.67,314.165C475.316,313.103 475.566,309.673 475.429,309.811" style="fill:none;stroke:#ff8100;stroke-opacity:0.33;stroke-width:11.2px;"/>
        <path d="M552.468,198.779C551.884,198.513 553.698,198.36 554.233,198.004C555.819,196.946 557.035,195.397 558.664,194.311C562.438,191.795 572.259,192.903 573.435,191.726C574.676,190.485 573.1,187.228 573.805,185.817C574.47,184.487 575.651,181.755 575.651,181.755C575.651,181.755 571.157,182.515 569.004,183.232C564.562,184.713 557.115,187.808 554.972,192.095" style="fill:none;stroke:#ff8100;stroke-opacity:0.33;stroke-width:11.2px;"/>
    </g>
</svg>
