<?xml version="1.0" encoding="UTF-8" standalone="no"?>
<!DOCTYPE svg PUBLIC "-//W3C//DTD SVG 1.1//EN" "http://www.w3.org/Graphics/SVG/1.1/DTD/svg11.dtd">
<svg width="100%" height="100%" viewBox="0 0 3200 1067" version="1.1" xmlns="http://www.w3.org/2000/svg" xmlns:xlink="http://www.w3.org/1999/xlink" xml:space="preserve" xmlns:serif="http://www.serif.com/" style="fill-rule:evenodd;clip-rule:evenodd;stroke-linecap:round;stroke-linejoin:round;stroke-miterlimit:1.5;">
    <path d="M1677.58,77.268C1593.99,60.965 1508.28,77.812 1424.2,77.327C1144.37,75.712 862.501,72.062 583.419,94.674C454.558,105.115 305.204,84.194 193.068,154.493C26.418,258.968 37.878,508.943 42.183,670.494C44.132,743.635 34.544,836.263 86.712,897.715C115.415,931.526 171.796,946.596 215.261,955.257C362.815,984.663 516.491,969.79 665.923,971.59C778.202,972.942 888.799,991.25 1000.65,995.207C1112.2,999.154 1223.7,993.326 1335.15,989.507C1446.93,985.676 1555.64,951.356 1666.48,939.326C1833.94,921.148 2001.51,937.6 2168.06,954.043C2254.71,962.597 2342.22,971.501 2429.53,971.713C2474.32,971.822 2518.42,962.646 2563.35,963.881C2690.79,967.384 2997.66,986.305 3100.51,906.49C3132.13,881.945 3145.01,842.619 3152.1,806.318C3169.99,714.681 3156.69,315.735 3111.39,218.295C3097.5,188.414 3068.29,165.373 3037.22,151.439C3001.52,135.43 2961.5,133.637 2923.03,127.541C2878.43,120.474 2835.37,107.992 2789.93,105.418C2671.64,98.721 2552.51,114.612 2433.92,111.715C2283.76,108.046 2135.63,78.151 1985.15,77.21C1836.72,76.282 1949.29,70.55 1800.87,75.279C1758.74,76.622 1677.58,77.268 1677.58,77.268Z" style="stroke:#fff;stroke-width:29.22px;"/>
    <g>
        <path d="M639.839,697.503C638.902,696.87 639.638,692.984 639.638,694.116C639.638,710.041 631.277,725.76 631.277,742.425C631.277,744.967 631.029,757.072 629.418,758.682C627.568,760.533 617.009,755.364 615.019,754.966C602.234,752.409 586.749,752.639 573.677,753.573C540.824,755.919 508.117,748.845 475.666,746.141C467.132,745.429 444.173,747.256 439.434,737.779C438.138,735.187 439.844,729.963 439.434,727.096C438.211,718.534 434.185,710.693 433.396,702.012C432.717,694.553 435.718,687.182 435.718,679.716C435.718,679.48 435.169,677.943 435.254,677.858C438.871,674.241 474.902,682.111 480.776,682.503C498.847,683.708 518.942,687.607 536.981,686.219C557.32,684.654 577.871,679.198 598.296,676.929C608.655,675.778 620.46,677.825 629.883,680.18C633.887,681.181 637.55,683.374 641.496,684.361C642.409,684.589 644.283,684.825 644.283,684.825L644.283,693.187" style="fill:none;stroke:#fff;stroke-width:12.7px;"/>
        <path d="M640.889,671.92C643.666,669.962 636.876,658.106 635.922,655.561C625.974,629.034 620.192,621.716 600.154,601.678C587.386,588.91 566.508,586.349 549.523,586.349C540.931,586.349 522.193,583.524 514.685,587.278C505.591,591.825 498.941,602.093 491.924,609.11C484.416,616.618 473.776,619.771 465.911,626.762C450.615,640.359 447.331,661.865 447.331,681.109" style="fill:none;stroke:#fff;stroke-width:12.7px;"/>
        <path d="M540.434,595.782C539.336,595.004 542.83,592.526 541.626,591.924C537.317,589.769 525.076,602.248 522.581,604.465C507.82,617.587 489.143,633.811 479.382,651.381C476.313,656.905 477.26,665.016 474.272,669.497" style="fill:none;stroke:#fff;stroke-width:12.7px;"/>
        <path d="M558.697,591.846C574.898,602.752 595.703,625.449 597.832,646.736C598.506,653.478 593.459,665.236 590.4,671.355" style="fill:none;stroke:#fff;stroke-width:12.7px;"/>
        <path d="M555.143,596.149C555.088,596.095 553.425,598.611 553.239,598.891C551.708,601.188 549.919,603.77 548.129,605.859C546.05,608.285 545.248,610.693 544.413,613.755C540.722,627.291 532.576,640.604 531.407,654.632C530.739,662.653 534.659,668.845 534.659,676.464" style="fill:none;stroke:#fff;stroke-width:12.7px;"/>
        <path d="M541.974,582.742C545.959,579.012 548.729,570.421 553.239,565.911C574.316,544.834 609.677,535.95 637.315,547.795C657.732,556.545 669.173,572.028 678.656,590.995C679.73,593.141 684.954,610.882 680.514,612.362C666.76,616.947 653.014,587.184 643.818,577.988C626.227,560.397 604.157,566.354 584.361,574.272C575.781,577.704 570.623,577.791 563.923,584.491" style="fill:none;stroke:#fff;stroke-width:12.7px;"/>
        <path d="M679.039,612.086C679.443,611.152 668.082,614.526 667.044,615.149C660.758,618.921 655.852,630.361 658.683,637.91C665.479,656.035 687.603,663.826 703.74,650.916C716.565,640.656 706.147,614.347 693.056,609.11C687.045,606.706 675.009,611.498 669.366,613.755" style="fill:none;stroke:#fff;stroke-width:12.7px;"/>
    </g>
    <path d="M715.668,475.682C714.865,471.409 744.038,458.647 750.952,455.19C751.475,454.928 749.314,470.694 748.594,474.053C745.736,487.392 741.442,514.31 754.489,524.748C764.721,532.934 801.647,514.11 801.647,502.348" style="fill:none;stroke:#fff;stroke-width:12.7px;"/>
    <path d="M560.984,400.939C559.047,407.87 597.604,377.802 602.152,374.163C602.718,373.711 607.033,371.971 608.047,372.984C614.935,379.873 586.621,439.414 582.11,448.437C581.385,449.886 579.482,452.428 580.931,453.153C581.745,453.56 636.286,427.216 649.31,427.216" style="fill:none;stroke:#fff;stroke-width:12.7px;"/>
    <g>
        <path d="M1163.16,347.641C1164.09,346.335 1162.93,347.774 1163.5,349.484C1169.28,366.828 1168.72,384.576 1172.77,402.792C1182.55,446.801 1184.19,490.119 1186.67,534.903C1186.82,537.544 1193.62,602.129 1193.63,602.118C1197.52,598.223 1189.53,582.877 1188.99,581.258C1169.57,522.988 1156.03,466.289 1149.59,405.11C1145.6,367.17 1131.82,299.266 1149.59,263.728C1169.2,224.506 1234.2,254.27 1244.96,286.558C1255.25,317.395 1254.94,356.264 1235.35,384.25C1232.07,388.927 1192.79,421.979 1193.63,423.652C1203.96,444.318 1258.44,480.071 1277.07,511.726C1286.68,528.064 1316.05,599.8 1339.64,599.8" style="fill:none;stroke:#fff;stroke-width:19.05px;"/>
        <path d="M1422.86,480.782C1423.31,482.412 1438.82,481.595 1439.31,481.595C1486.87,481.595 1518.64,378.009 1497.25,372.662C1398.91,348.075 1381.83,722.643 1573.74,562.716" style="fill:none;stroke:#fff;stroke-width:19.05px;"/>
        <path d="M1796.48,404.98C1790.3,408.35 1822.07,395.499 1817.1,400.475C1798.76,418.814 1764.74,429.974 1742.93,444.512C1727.66,454.692 1713.39,464.682 1696.58,472.324C1695.86,472.649 1668.56,485.39 1671.08,486.231C1707.37,498.327 1764.37,477.452 1791.6,516.362C1829.81,570.945 1785.83,632.248 1726.71,632.248" style="fill:none;stroke:#fff;stroke-width:19.05px;"/>
        <path d="M1925.02,249.717C1935.52,250.793 1943.64,333.175 1944.58,342.531C1951.86,415.366 1950.56,593.234 1979.34,650.79" style="fill:none;stroke:#fff;stroke-width:19.05px;"/>
        <path d="M2043.51,511.811C2065.5,509.25 2068.03,451.281 2028.01,453.783C1955.48,458.316 1876.15,504.296 1810.15,532.586" style="fill:none;stroke:#fff;stroke-width:19.05px;"/>
    </g>
    <path d="M680.753,331.005C687.855,331.174 721.755,316.609 723.766,322.642C725.919,329.101 716.403,338.653 713.722,343.568C704.32,360.805 690.851,414.655 725.44,390.442C730.504,386.898 735.411,383.089 740.507,379.561C746.649,375.309 754.55,371.377 759.759,366.168" style="fill:none;stroke:#fff;stroke-width:12.7px;"/>
    <g>
        <path d="M2604.29,693.254C2603.35,692.62 2604.08,688.734 2604.08,689.866C2604.08,705.791 2595.72,721.51 2595.72,738.175C2595.72,740.717 2595.47,752.822 2593.87,754.432C2592.01,756.283 2581.45,751.114 2579.47,750.716C2566.68,748.159 2551.2,748.389 2538.12,749.323C2505.27,751.669 2472.56,744.595 2440.11,741.891C2431.58,741.179 2408.62,743.006 2403.88,733.529C2402.59,730.938 2404.29,725.714 2403.88,722.846C2402.66,714.284 2398.63,706.443 2397.84,697.762C2397.16,690.303 2400.16,682.932 2400.16,675.466C2400.16,675.23 2399.62,673.693 2399.7,673.608C2403.32,669.991 2439.35,677.861 2445.22,678.253C2463.29,679.458 2483.39,683.357 2501.43,681.969C2521.77,680.404 2542.32,674.948 2562.74,672.679C2573.1,671.528 2584.91,673.575 2594.33,675.93C2598.33,676.931 2602,679.124 2605.94,680.111C2606.86,680.339 2608.73,680.575 2608.73,680.575L2608.73,688.937" style="fill:none;stroke:#fff;stroke-width:12.7px;"/>
        <path d="M2605.34,667.67C2608.11,665.712 2601.32,653.856 2600.37,651.311C2590.42,624.784 2584.64,617.466 2564.6,597.428C2551.83,584.66 2530.95,582.099 2513.97,582.099C2505.38,582.099 2486.64,579.274 2479.13,583.028C2470.04,587.575 2463.39,597.843 2456.37,604.86C2448.86,612.368 2438.22,615.521 2430.36,622.512C2415.06,636.109 2411.78,657.615 2411.78,676.859" style="fill:none;stroke:#fff;stroke-width:12.7px;"/>
        <path d="M2504.88,591.532C2503.78,590.754 2507.28,588.276 2506.07,587.674C2501.76,585.519 2489.52,597.998 2487.03,600.215C2472.27,613.337 2453.59,629.561 2443.83,647.131C2440.76,652.655 2441.71,660.766 2438.72,665.247" style="fill:none;stroke:#fff;stroke-width:12.7px;"/>
        <path d="M2523.14,587.596C2539.34,598.502 2560.15,621.199 2562.28,642.486C2562.95,649.229 2557.91,660.986 2554.85,667.105" style="fill:none;stroke:#fff;stroke-width:12.7px;"/>
        <path d="M2519.59,591.899C2519.53,591.845 2517.87,594.361 2517.68,594.641C2516.15,596.938 2514.37,599.52 2512.58,601.609C2510.5,604.035 2509.7,606.444 2508.86,609.506C2505.17,623.041 2497.02,636.354 2495.85,650.382C2495.18,658.403 2499.11,664.595 2499.11,672.214" style="fill:none;stroke:#fff;stroke-width:12.7px;"/>
        <path d="M2506.42,578.492C2510.41,574.762 2513.18,566.171 2517.68,561.661C2538.76,540.584 2574.12,531.7 2601.76,543.545C2622.18,552.295 2633.62,567.778 2643.1,586.745C2644.18,588.891 2649.4,606.632 2644.96,608.112C2631.21,612.697 2617.46,582.934 2608.26,573.738C2590.67,556.147 2568.6,562.104 2548.81,570.022C2540.23,573.454 2535.07,573.541 2528.37,580.241" style="fill:none;stroke:#fff;stroke-width:12.7px;"/>
        <path d="M2643.49,607.836C2643.89,606.902 2632.53,610.276 2631.49,610.899C2625.2,614.671 2620.3,626.111 2623.13,633.66C2629.93,651.785 2652.05,659.576 2668.19,646.666C2681.01,636.406 2670.59,610.097 2657.5,604.86C2651.49,602.456 2639.46,607.248 2633.81,609.506" style="fill:none;stroke:#fff;stroke-width:12.7px;"/>
    </g>
    <path d="M2680.12,471.432C2679.31,467.159 2708.48,454.397 2715.4,450.94C2715.92,450.679 2713.76,466.444 2713.04,469.803C2710.18,483.142 2705.89,510.06 2718.93,520.498C2729.17,528.684 2766.09,509.86 2766.09,498.098" style="fill:none;stroke:#fff;stroke-width:12.7px;"/>
    <path d="M2525.43,396.689C2523.49,403.62 2562.05,373.552 2566.6,369.913C2567.16,369.461 2571.48,367.721 2572.49,368.735C2579.38,375.623 2551.07,435.164 2546.56,444.187C2545.83,445.636 2543.93,448.178 2545.38,448.903C2546.19,449.31 2600.73,422.966 2613.76,422.966" style="fill:none;stroke:#fff;stroke-width:12.7px;"/>
    <path d="M2645.2,326.755C2652.3,326.924 2686.2,312.359 2688.21,318.392C2690.37,324.851 2680.85,334.403 2678.17,339.318C2668.77,356.555 2655.3,410.405 2689.89,386.192C2694.95,382.648 2699.86,378.839 2704.95,375.311C2711.1,371.059 2719,367.127 2724.2,361.918" style="fill:none;stroke:#fff;stroke-width:12.7px;"/>
    <g>
        <path d="M1047.91,752.932C1049.55,752.117 1043.81,752.526 1042.48,753.785C1039.18,756.917 1035.85,759.82 1032.62,763.128C1022.01,774.023 1011.37,786.63 1008.41,802.036C1003.67,826.697 1036.44,866.77 1057.32,853.641" style="fill:none;stroke:#fff;stroke-width:10.16px;"/>
        <path d="M1090.86,782.998C1090.95,779.668 1092.74,789.396 1093.9,792.522C1099.81,808.552 1104.72,826.342 1107.89,843.352C1108.51,846.665 1112.13,855.721 1109.82,853.275C1099.76,842.663 1070.01,760.786 1082.72,759.316C1096.99,757.667 1112.06,772.674 1126.42,765.972" style="fill:none;stroke:#fff;stroke-width:10.16px;"/>
        <path d="M1157.05,794.656C1161.32,790.233 1178.82,791.079 1186.26,784.029C1206.3,765.031 1168.32,756.409 1158.02,784.753C1143.24,825.442 1164.4,866.885 1206.74,838.324" style="fill:none;stroke:#fff;stroke-width:10.16px;"/>
        <path d="M1267.39,759.424C1267.02,759.827 1274.79,759.818 1275.8,757.912C1276.99,755.696 1265.37,756.446 1264.87,756.522C1257.44,757.668 1231.31,764.622 1228.23,773.089C1227.19,775.96 1231.87,779.398 1233.51,780.909C1246.66,793.059 1304.89,811.828 1277.04,834.725C1265.82,843.946 1253.95,850.799 1239.3,851.263" style="fill:none;stroke:#fff;stroke-width:10.16px;"/>
        <path d="M1334.65,835.569C1335.32,835.06 1335.84,837.398 1334,837.349C1325.64,837.125 1320.45,827.379 1316.9,820.438C1307.56,802.15 1300.14,772.393 1314.28,754.556C1323.98,742.323 1386.28,778.667 1317.55,796.324" style="fill:none;stroke:#fff;stroke-width:10.16px;"/>
        <path d="M1402.57,788.759C1402.56,788.758 1388.16,751.897 1368.85,764.794C1359.37,771.129 1360.34,810.913 1372.12,806.562C1377.33,804.639 1376.41,800.26 1377.89,795.748C1380.67,787.336 1379.93,775.287 1384.14,767.397C1385.24,765.333 1388.19,769.989 1389.5,771.929C1395.13,780.27 1398.83,789.684 1407.52,795.446C1408.88,796.349 1410.4,796.985 1411.84,797.755" style="fill:none;stroke:#fff;stroke-width:10.16px;"/>
        <path d="M1439.4,790.752C1458.4,818.734 1469.18,809.049 1483.56,782.128C1484.81,779.79 1492.09,794.361 1496.48,791.249C1504.43,785.609 1504.71,765.965 1506.15,757.507" style="fill:none;stroke:#fff;stroke-width:10.16px;"/>
        <path d="M1526.21,810.359C1528.56,812.139 1528.53,804.891 1529.09,801.996C1531.34,790.418 1531.04,769.72 1545.37,766.544C1560.95,763.089 1576.25,802.156 1582.56,812.204" style="fill:none;stroke:#fff;stroke-width:10.16px;"/>
        <path d="M1723.61,777.462C1761.16,796.362 1762.97,721.698 1717.36,734.651C1692.96,741.581 1693.85,848.803 1745.22,800.112" style="fill:none;stroke:#fff;stroke-width:10.16px;"/>
        <path d="M1784.84,807.132C1775.85,793.052 1784.87,756.631 1795.55,764.168C1811.79,775.637 1811.69,803.858 1828.17,815.498" style="fill:none;stroke:#fff;stroke-width:10.16px;"/>
        <path d="M1844.25,779.691C1844.48,779.739 1847.41,792.419 1850.68,794.165C1866.99,802.872 1893.2,761.673 1875.62,764.121C1852.17,767.385 1865.78,862.302 1890.53,821.557" style="fill:none;stroke:#fff;stroke-width:10.16px;"/>
        <path d="M1917.04,817.934C1916.97,817.89 1918.1,820.716 1919.06,821.225C1921.78,822.677 1925.87,786.998 1928.82,784.194C1934.15,779.149 1937.41,802.023 1942.93,790.057C1944.05,787.626 1944.54,782.571 1945.38,780.251C1945.71,779.345 1948.94,770.475 1951.13,770.533C1963.47,770.864 1973.25,807.473 1977.32,816.206" style="fill:none;stroke:#fff;stroke-width:10.16px;"/>
        <path d="M1983.67,749.426C1978.73,750.554 1996.46,754.341 1998.85,749.875" style="fill:none;stroke:#fff;stroke-width:10.16px;"/>
        <path d="M2000.46,805.933C2000.77,805.809 2004.5,825.207 2004.4,828.998" style="fill:none;stroke:#fff;stroke-width:10.16px;"/>
        <path d="M2041.24,785.838C2055.36,793.846 2067.08,764.239 2064.29,763.695C2044.96,759.939 1992.3,851.964 2063.91,818.528" style="fill:none;stroke:#fff;stroke-width:10.16px;"/>
        <path d="M2126.02,743.667C2126.13,743.552 2089.02,744.9 2092.96,757.883C2097.51,772.847 2170.77,790.294 2111.43,805.543" style="fill:none;stroke:#fff;stroke-width:10.16px;"/>
        <path d="M2162.17,711.834C2162.49,709.065 2166.72,715.111 2168.64,717.135C2174.7,723.53 2185.52,731.664 2188.88,739.614C2197.89,760.931 2186.81,782.737 2174.11,799.545" style="fill:none;stroke:#fff;stroke-width:10.16px;"/>
    </g>
</svg>
