<?xml version="1.0" encoding="UTF-8" standalone="no"?>
<!DOCTYPE svg PUBLIC "-//W3C//DTD SVG 1.1//EN" "http://www.w3.org/Graphics/SVG/1.1/DTD/svg11.dtd">
<svg width="100%" height="100%" viewBox="0 0 3200 1067" version="1.1" xmlns="http://www.w3.org/2000/svg" xmlns:xlink="http://www.w3.org/1999/xlink" xml:space="preserve" xmlns:serif="http://www.serif.com/" style="fill-rule:evenodd;clip-rule:evenodd;stroke-linecap:round;stroke-linejoin:round;stroke-miterlimit:1.5;">
    <path d="M1681.8,169.705C1598.2,156.52 1512.5,170.145 1428.42,169.752C1148.59,168.446 866.716,165.495 587.634,183.781C458.773,192.225 309.419,175.306 197.283,232.158C30.633,316.648 42.093,518.807 46.398,649.455C48.347,708.605 38.759,783.515 90.927,833.212C119.63,860.555 176.01,872.742 219.476,879.747C367.03,903.528 520.706,891.5 670.138,892.955C782.417,894.049 893.014,908.855 1004.86,912.055C1116.41,915.247 1227.91,910.534 1339.36,907.445C1451.14,904.348 1559.86,876.592 1670.69,866.863C1838.15,852.162 2005.72,865.467 2172.28,878.765C2258.93,885.683 2346.44,892.884 2433.74,893.055C2478.53,893.143 2522.63,885.722 2567.56,886.721C2695,889.554 3001.88,904.856 3104.72,840.308C3136.35,820.458 3149.22,788.655 3156.31,759.298C3174.21,685.19 3160.9,362.556 3115.61,283.755C3101.72,259.59 3072.51,240.956 3041.43,229.688C3005.73,216.741 2965.72,215.291 2927.25,210.361C2882.65,204.646 2839.59,194.551 2794.14,192.47C2675.85,187.054 2556.72,199.905 2438.13,197.562C2287.98,194.596 2139.85,170.419 1989.36,169.658C1840.93,168.907 1953.5,164.272 1805.08,168.096C1762.95,169.182 1681.8,169.705 1681.8,169.705Z" style="stroke:white;stroke-width:29.22px;"/>
    <g>
        <path d="M644.054,702.701C643.117,702.068 643.853,698.182 643.853,699.313C643.853,715.239 635.491,730.958 635.491,747.622C635.491,750.165 635.244,762.27 633.633,763.88C631.783,765.731 621.224,760.562 619.234,760.164C606.449,757.607 590.964,757.837 577.892,758.771C545.039,761.117 512.332,754.043 479.881,751.338C471.346,750.627 448.387,752.454 443.649,742.977C442.353,740.385 444.059,735.161 443.649,732.294C442.426,723.732 438.4,715.891 437.61,707.21C436.932,699.751 439.933,692.38 439.933,684.914C439.933,684.678 439.383,683.141 439.468,683.056C443.086,679.438 479.116,687.309 484.99,687.701C503.062,688.905 523.156,692.804 541.196,691.417C561.534,689.852 582.086,684.396 602.511,682.127C612.87,680.976 624.675,683.022 634.098,685.378C638.102,686.379 641.764,688.572 645.711,689.559C646.624,689.787 648.498,690.023 648.498,690.023L648.498,698.384" style="fill:none;stroke:white;stroke-width:12.7px;"/>
        <path d="M645.104,677.117C647.881,675.16 641.091,663.303 640.136,660.759C630.189,634.231 624.407,626.914 604.369,606.876C591.601,594.108 570.723,591.547 553.738,591.547C545.146,591.547 526.408,588.722 518.9,592.476C509.806,597.023 503.156,607.291 496.139,614.308C488.631,621.816 477.991,624.969 470.126,631.96C454.829,645.557 451.546,667.062 451.546,686.307" style="fill:none;stroke:white;stroke-width:12.7px;"/>
        <path d="M544.649,600.98C543.551,600.202 547.045,597.723 545.841,597.121C541.532,594.967 529.291,607.445 526.796,609.663C512.035,622.784 493.358,639.009 483.597,656.579C480.528,662.103 481.475,670.213 478.487,674.694" style="fill:none;stroke:white;stroke-width:12.7px;"/>
        <path d="M562.912,597.043C579.113,607.95 599.918,630.647 602.047,651.933C602.721,658.676 597.674,670.434 594.615,676.552" style="fill:none;stroke:white;stroke-width:12.7px;"/>
        <path d="M559.358,601.347C559.303,601.293 557.64,603.809 557.454,604.089C555.922,606.386 554.134,608.968 552.344,611.057C550.265,613.483 549.463,615.891 548.628,618.953C544.937,632.489 536.791,645.802 535.622,659.83C534.953,667.85 538.873,674.043 538.873,681.662" style="fill:none;stroke:white;stroke-width:12.7px;"/>
        <path d="M546.189,587.94C550.174,584.21 552.944,575.618 557.454,571.109C578.531,550.032 613.892,541.148 641.53,552.993C661.947,561.743 673.388,577.226 682.871,596.192C683.945,598.339 689.169,616.08 684.729,617.56C670.975,622.145 657.229,592.382 648.033,583.186C630.442,565.595 608.372,571.552 588.576,579.47C579.996,582.902 574.838,582.988 568.138,589.689" style="fill:none;stroke:white;stroke-width:12.7px;"/>
        <path d="M683.254,617.284C683.658,616.35 672.297,619.724 671.259,620.347C664.973,624.118 660.067,635.559 662.897,643.108C669.694,661.233 691.818,669.024 707.955,656.114C720.78,645.854 710.362,619.545 697.271,614.308C691.26,611.904 679.224,616.696 673.581,618.953" style="fill:none;stroke:white;stroke-width:12.7px;"/>
    </g>
    <path d="M719.883,480.88C719.08,476.607 748.253,463.845 755.167,460.388C755.69,460.126 753.529,475.892 752.809,479.251C749.951,492.59 745.657,519.508 758.704,529.946C768.936,538.131 805.862,519.308 805.862,507.546" style="fill:none;stroke:white;stroke-width:12.7px;"/>
    <path d="M565.199,406.136C563.262,413.068 601.819,383 606.367,379.361C606.933,378.908 611.247,377.168 612.261,378.182C619.15,385.071 590.836,444.612 586.325,453.635C585.6,455.084 583.696,457.626 585.146,458.351C585.96,458.758 640.501,432.414 653.525,432.414" style="fill:none;stroke:white;stroke-width:12.7px;"/>
    <path d="M1163.16,433.062C1164.09,431.756 1162.93,433.196 1163.5,434.905C1169.28,452.249 1168.72,469.998 1172.77,488.213C1182.55,532.222 1184.19,575.541 1186.67,620.325C1186.82,622.966 1193.62,687.55 1193.63,687.539C1197.52,683.644 1189.53,668.298 1188.99,666.679C1169.57,608.409 1156.03,551.711 1149.59,490.531C1145.6,452.591 1131.82,384.688 1149.59,349.149C1169.2,309.928 1234.2,339.691 1244.96,371.979C1255.25,402.816 1254.94,441.685 1235.35,469.672C1232.07,474.348 1192.79,507.4 1193.63,509.073C1203.96,529.74 1258.44,565.492 1277.07,597.147C1286.68,613.485 1316.05,685.221 1339.64,685.221" style="fill:none;stroke:white;stroke-width:19.05px;"/>
    <path d="M1422.86,566.204C1423.31,567.833 1438.82,567.017 1439.31,567.017C1486.87,567.017 1518.64,463.43 1497.25,458.083C1398.91,433.497 1381.83,808.064 1573.74,648.138" style="fill:none;stroke:white;stroke-width:19.05px;"/>
    <path d="M1796.48,490.401C1790.3,493.771 1822.07,480.921 1817.1,485.896C1798.76,504.235 1764.74,515.395 1742.93,529.933C1727.66,540.113 1713.39,550.103 1696.58,557.746C1695.86,558.07 1668.56,570.811 1671.08,571.652C1707.37,583.749 1764.37,562.873 1791.6,601.783C1829.81,656.366 1785.83,717.67 1726.71,717.67" style="fill:none;stroke:white;stroke-width:19.05px;"/>
    <path d="M1925.02,335.139C1935.52,336.214 1943.64,418.596 1944.58,427.952C1951.86,500.787 1950.56,678.656 1979.34,736.212" style="fill:none;stroke:white;stroke-width:19.05px;"/>
    <path d="M2043.51,597.233C2065.5,594.671 2068.03,536.702 2028.01,539.204C1955.48,543.737 1876.15,589.717 1810.15,618.007" style="fill:none;stroke:white;stroke-width:19.05px;"/>
    <path d="M684.968,336.203C692.07,336.372 725.97,321.807 727.981,327.84C730.134,334.299 720.618,343.851 717.937,348.766C708.535,366.003 695.066,419.853 729.655,395.64C734.718,392.096 739.625,388.287 744.722,384.759C750.863,380.507 758.765,376.574 763.974,371.366" style="fill:none;stroke:white;stroke-width:12.7px;"/>
    <g>
        <path d="M2608.5,698.451C2607.56,697.818 2608.3,693.932 2608.3,695.063C2608.3,710.989 2599.94,726.708 2599.94,743.372C2599.94,745.915 2599.69,758.02 2598.08,759.63C2596.23,761.481 2585.67,756.312 2583.68,755.914C2570.9,753.357 2555.41,753.587 2542.34,754.521C2509.49,756.867 2476.78,749.793 2444.33,747.089C2435.79,746.377 2412.83,748.204 2408.1,738.727C2406.8,736.135 2408.51,730.911 2408.1,728.044C2406.87,719.482 2402.85,711.641 2402.06,702.96C2401.38,695.501 2404.38,688.13 2404.38,680.664C2404.38,680.428 2403.83,678.891 2403.91,678.806C2407.53,675.188 2443.56,683.059 2449.44,683.451C2467.51,684.656 2487.6,688.554 2505.64,687.167C2525.98,685.602 2546.53,680.146 2566.96,677.877C2577.32,676.726 2589.12,678.773 2598.54,681.128C2602.55,682.129 2606.21,684.322 2610.16,685.309C2611.07,685.537 2612.94,685.773 2612.94,685.773L2612.94,694.134" style="fill:none;stroke:white;stroke-width:12.7px;"/>
        <path d="M2609.55,672.867C2612.33,670.91 2605.54,659.053 2604.58,656.509C2594.64,629.981 2588.85,622.664 2568.82,602.626C2556.05,589.858 2535.17,587.297 2518.18,587.297C2509.59,587.297 2490.85,584.472 2483.35,588.226C2474.25,592.773 2467.6,603.041 2460.59,610.058C2453.08,617.566 2442.44,620.719 2434.57,627.71C2419.28,641.307 2415.99,662.812 2415.99,682.057" style="fill:none;stroke:white;stroke-width:12.7px;"/>
        <path d="M2509.1,596.73C2508,595.952 2511.49,593.474 2510.29,592.871C2505.98,590.717 2493.74,603.195 2491.24,605.413C2476.48,618.534 2457.8,634.759 2448.04,652.329C2444.97,657.853 2445.92,665.963 2442.93,670.444" style="fill:none;stroke:white;stroke-width:12.7px;"/>
        <path d="M2527.36,592.793C2543.56,603.7 2564.36,626.397 2566.49,647.684C2567.17,654.426 2562.12,666.184 2559.06,672.303" style="fill:none;stroke:white;stroke-width:12.7px;"/>
        <path d="M2523.8,597.097C2523.75,597.043 2522.09,599.559 2521.9,599.839C2520.37,602.136 2518.58,604.718 2516.79,606.807C2514.71,609.233 2513.91,611.641 2513.08,614.703C2509.38,628.239 2501.24,641.552 2500.07,655.58C2499.4,663.601 2503.32,669.793 2503.32,677.412" style="fill:none;stroke:white;stroke-width:12.7px;"/>
        <path d="M2510.64,583.69C2514.62,579.96 2517.39,571.369 2521.9,566.859C2542.98,545.782 2578.34,536.898 2605.98,548.743C2626.39,557.493 2637.83,572.976 2647.32,591.942C2648.39,594.089 2653.62,611.83 2649.18,613.31C2635.42,617.895 2621.68,588.132 2612.48,578.936C2594.89,561.345 2572.82,567.302 2553.02,575.22C2544.44,578.652 2539.28,578.738 2532.58,585.439" style="fill:none;stroke:white;stroke-width:12.7px;"/>
        <path d="M2647.7,613.034C2648.11,612.1 2636.74,615.474 2635.7,616.097C2629.42,619.868 2624.51,631.309 2627.34,638.858C2634.14,656.983 2656.26,664.774 2672.4,651.864C2685.23,641.604 2674.81,615.295 2661.72,610.058C2655.71,607.654 2643.67,612.446 2638.03,614.703" style="fill:none;stroke:white;stroke-width:12.7px;"/>
    </g>
    <path d="M2684.33,476.63C2683.53,472.357 2712.7,459.595 2719.61,456.138C2720.14,455.876 2717.97,471.642 2717.26,475.001C2714.4,488.34 2710.1,515.258 2723.15,525.696C2733.38,533.881 2770.31,515.058 2770.31,503.296" style="fill:none;stroke:white;stroke-width:12.7px;"/>
    <path d="M2529.64,401.886C2527.71,408.818 2566.26,378.75 2570.81,375.111C2571.38,374.659 2575.69,372.918 2576.71,373.932C2583.6,380.821 2555.28,440.362 2550.77,449.385C2550.05,450.834 2548.14,453.376 2549.59,454.101C2550.41,454.508 2604.95,428.164 2617.97,428.164" style="fill:none;stroke:white;stroke-width:12.7px;"/>
    <path d="M2649.41,331.953C2656.52,332.122 2690.42,317.557 2692.43,323.59C2694.58,330.049 2685.06,339.601 2682.38,344.516C2672.98,361.753 2659.51,415.603 2694.1,391.39C2699.16,387.846 2704.07,384.037 2709.17,380.509C2715.31,376.257 2723.21,372.324 2728.42,367.116" style="fill:none;stroke:white;stroke-width:12.7px;"/>
</svg>
