<?xml version="1.0" encoding="UTF-8" standalone="no"?>
<!DOCTYPE svg PUBLIC "-//W3C//DTD SVG 1.1//EN" "http://www.w3.org/Graphics/SVG/1.1/DTD/svg11.dtd">
<svg width="100%" height="100%" viewBox="0 0 1067 1067" version="1.1" xmlns="http://www.w3.org/2000/svg" xmlns:xlink="http://www.w3.org/1999/xlink" xml:space="preserve" xmlns:serif="http://www.serif.com/" style="fill-rule:evenodd;clip-rule:evenodd;stroke-linecap:round;stroke-linejoin:round;stroke-miterlimit:1.5;">
    <g id="slash">
        <path d="M515.503,221.104C527.069,179.854 563.678,135.818 590.969,103.566C593.992,99.994 611.137,69.72 618.708,72.588C665.251,90.218 581.152,226.178 627.218,225.199C672.285,224.242 715.987,159.551 758.786,141.458C770.683,136.429 797.021,123.531 808.085,136.584C817.758,147.996 800.834,169.219 795.157,178.452C784.377,195.985 723.724,297.726 736.426,314.584C756.691,341.48 878.539,301.157 924.208,314.812C976.27,330.377 984.945,341.268 983.919,343.001C974.569,358.778 934.854,364.279 919.334,371.54C900.246,380.471 830.487,422.007 824.645,445.916C822.207,455.898 870.764,475.004 876.467,478.28C918.218,502.265 951.158,540.174 976.11,580.81C981.935,590.296 1000.72,618.998 999.562,621.054C991.462,635.505 878.259,640.175 876.49,647.128C873.43,659.154 949.021,774.053 960.993,801.64C966.402,814.103 982.939,849.511 980.855,852.276C963.06,875.899 861.944,799.219 826.711,819.25C812.359,827.41 875.164,966.728 854.035,979.584C837.428,989.689 811.116,961.245 801.395,951.785C766.557,917.885 733.269,859.029 682.223,845.735C666.673,841.686 661.031,870.522 659.202,879.636C653.644,907.334 664.079,986.005 622.115,992.962C578.72,1000.15 530.155,861.35 505.355,861.306C490.501,861.279 397.235,948.094 371.464,964.859C366.037,968.39 333.892,989.793 332.333,988.786C326.76,985.187 344.382,907.004 341.274,874.707C340.984,871.688 337.418,838.89 333.255,839.003C316.293,839.462 226.689,913.592 206.64,927.219C193.483,936.162 180.208,943.557 165.628,949.87C159.896,952.352 154.191,954.794 148.592,957.57C146.591,958.562 142.672,962.674 142.541,960.445C140.437,924.749 200.631,857.231 215.965,822.395C221.031,810.886 232.519,774.91 226.532,774.35C194.171,771.321 154.873,807.196 100.176,801.244C88.354,799.957 76.745,796.86 65.283,793.819C61.211,792.739 50.033,793.602 53.047,790.658C73.813,770.372 106.618,769.039 130.257,753.56C136.297,749.605 195.77,669.416 192.356,656.092C185.433,629.076 144.638,611.28 125.827,592.851C107.446,574.844 90.284,554.696 77.748,532.154C73.099,523.794 51.942,493.609 58.62,482.546C69.092,465.196 171.615,475.782 192.986,475.839C204.499,475.87 239.429,478.182 240.168,459.153C240.573,448.722 160.422,310.284 148.257,281.241C145.681,275.09 124.403,232.881 127.699,228.485C143.326,207.638 275.963,244.313 299.955,253.268C312.242,257.854 324.214,263.386 336.079,268.954C337.031,269.4 353.176,277.845 354.539,276.375C356.297,274.48 350.959,186.944 351.233,176.725C355.103,32.391 463.818,181.256 519.529,210.638" style="fill:rgb(224,224,224);stroke:black;stroke-width:8.33px;"/>
        <path d="M329.102,539.94C329.049,539.991 329.482,537.667 329.482,536.549C329.482,532.646 320.772,531.376 318.064,532.343C293.902,540.972 258.391,579.062 269.99,608.06C273.872,617.765 291.433,617.074 299.435,617.074C318.888,617.074 343.954,618.098 361.932,626.088C387.518,637.459 388.866,664.36 368.542,681.974C359.64,689.689 348.746,693.569 339.097,700.002" style="fill:none;stroke:black;stroke-width:8.33px;"/>
        <path d="M379.092,544.314C381.527,544.744 381.258,548.76 382.363,550.972C386.999,560.244 392.246,569.618 397.387,578.614C408.263,597.647 422.379,614.229 434.043,632.698C438.993,640.535 442.286,649.297 447.865,656.735" style="fill:none;stroke:black;stroke-width:8.33px;"/>
        <path d="M494.093,598.503C496.412,595.389 481.296,588.568 479.714,588.229C460.46,584.103 442.684,596.336 455.076,616.473C461.67,627.189 485.24,641.222 496.54,629.092C504.643,620.395 498.281,598.882 494.737,589.431C494.34,588.372 492.106,584.738 493.535,584.023C499.687,580.947 540.428,609.566 553.027,611.665" style="fill:none;stroke:black;stroke-width:8.33px;"/>
        <path d="M555.207,518.619C556.157,518.205 556.164,516.25 555.431,515.517C551.621,511.707 543.529,523.023 542.211,524.531C534.941,532.838 521.969,546.86 525.385,559.385C533.25,588.225 628.011,570.935 578.867,620.078" style="fill:none;stroke:black;stroke-width:8.33px;"/>
        <path d="M550.981,455.927C556.479,458.142 562.874,472.987 566.248,477.658C579.502,496.011 594.129,513.816 605.308,533.545C610.22,542.212 615.106,550.894 620.331,559.385C620.637,559.881 627.891,569.979 628.143,569.6C630.629,565.871 626.117,555.598 625.139,552.173C622.065,541.415 611.232,487.253 641.364,508.306C647.045,512.275 646.544,512.284 651.58,517.32C657.352,523.092 657.003,522.746 661.795,528.737C668.165,536.7 674.498,552.029 682.828,557.582" style="fill:none;stroke:black;stroke-width:8.33px;"/>
        <path d="M645.618,398.954C644.114,398.402 646.948,401.912 647.974,403.143C649.868,405.416 651.886,407.656 653.983,409.753C659.777,415.547 665.243,421.866 670.208,428.382C685.058,447.872 704.265,475.463 715.278,497.489" style="fill:none;stroke:black;stroke-width:8.33px;"/>
        <path d="M734.496,519.338C735.135,507.45 714.076,501.115 714.076,517.921C714.076,536.471 739.49,533.4 730.301,517.32" style="fill:none;stroke:black;stroke-width:8.33px;"/>
    </g>
</svg>
