<?xml version="1.0" encoding="UTF-8" standalone="no"?>
<!DOCTYPE svg PUBLIC "-//W3C//DTD SVG 1.1//EN" "http://www.w3.org/Graphics/SVG/1.1/DTD/svg11.dtd">
<svg width="100%" height="100%" viewBox="0 0 1067 1067" version="1.1" xmlns="http://www.w3.org/2000/svg" xmlns:xlink="http://www.w3.org/1999/xlink" xml:space="preserve" xmlns:serif="http://www.serif.com/" style="fill-rule:evenodd;clip-rule:evenodd;stroke-linejoin:round;stroke-miterlimit:2;">
    <g id="Layer1">
        <path d="M973.258,543.846C956.963,537.889 916.767,598.76 919.737,601.437" style="fill:none;stroke:black;stroke-width:6.72px;stroke-linecap:round;stroke-miterlimit:1.5;"/>
        <path d="M642.597,781.753C649.558,765.68 670.782,748.94 681.165,731.798C711.242,682.144 732.628,616.18 799.756,598.284C844.227,586.428 979.278,589.47 972.249,654.353C965.237,719.077 838.113,694.075 821.446,737.389C814.23,756.141 826.367,773.937 826.238,792.801C826.003,827.414 797.286,861.176 768.156,881.426C725.567,911.032 661.396,899.545 611.665,901.613C577.999,903.013 544.064,906.83 510.309,905.847C471.146,904.706 432.748,899.159 393.765,897.286C329.253,894.187 264.494,894.045 200.093,896.801C163.61,898.363 97.9,901.697 96.747,855.189C96.451,843.243 99.569,829.229 106.606,818.94C127.591,788.262 216.577,811.259 253.467,810.241C291.919,809.181 328.927,801.014 367.699,801.971C418.314,803.22 472.339,814.219 522.953,807.066C567.944,800.708 605.441,774.172 648.909,764.462" style="fill:rgb(132,121,109);stroke:black;stroke-width:6.72px;stroke-linecap:round;stroke-miterlimit:1.5;"/>
        <path d="M978.383,452.041C986.184,451.591 994.902,459.44 1000.41,463.519C1006.11,467.743 1013.43,471.211 1016.15,477.795C1020.82,489.128 1015.46,498.146 1011.36,508.581C1005.31,523.931 1002.9,542.629 981.148,543.763C945.631,545.616 938.564,516.014 941.118,489.687C942.264,477.873 946.158,463.325 957.189,455.607C963.328,451.312 972.412,453.812 979.534,453.587" style="fill:white;stroke:black;stroke-width:6.72px;stroke-linecap:round;stroke-miterlimit:1.5;"/>
        <path d="M838.09,444.802C843.613,431.552 871.717,445.416 878.635,449.688C880.995,451.145 883.366,452.489 885.561,454.159C909.1,472.075 915.459,513.663 893.04,534.696C888.385,539.062 882.342,540.73 876.559,543.465C872.258,545.5 867.567,548.375 862.671,549.142C846.911,551.61 834.915,541.743 830.14,528.58C824.103,511.936 823.912,493.958 826.219,476.659C827.505,467.021 829.314,456.425 836.849,448.969" style="fill:white;stroke:black;stroke-width:6.72px;stroke-linecap:round;stroke-miterlimit:1.5;"/>
        <path d="M868.745,496.92C878.745,483.951 889.713,504.573 876.948,510.761C866.635,515.761 857.502,499.848 866.58,494.534C874.801,489.722 882.352,499.922 874.704,504.468C871.667,506.273 871.321,493.464 876.844,495.146C885.505,497.783 865.037,514.598 868.769,501.123C869.16,499.711 869.753,498.227 871.029,497.274" style="fill:none;stroke:black;stroke-width:6.72px;stroke-linecap:round;stroke-miterlimit:1.5;"/>
        <path d="M979.142,503.356C989.142,490.386 1000.11,511.009 987.345,517.197C977.032,522.196 967.899,506.284 976.977,500.97C985.198,496.158 992.749,506.358 985.101,510.903C982.064,512.708 981.718,499.9 987.241,501.582C995.902,504.219 975.434,521.033 979.166,507.559C979.557,506.147 980.15,504.662 981.426,503.71" style="fill:none;stroke:black;stroke-width:6.72px;stroke-linecap:round;stroke-miterlimit:1.5;"/>
        <path d="M862.861,549.199C858.262,550.254 852.043,561.122 850.695,564.54C846.656,574.779 843.317,586.922 844.082,597.904" style="fill:none;stroke:black;stroke-width:6.72px;stroke-linecap:round;stroke-miterlimit:1.5;"/>
        <path d="M320.586,279.078C350.01,274.846 374.933,281.904 403.423,287.177C568.043,317.641 657.804,448.019 685.07,589.545C700.419,669.215 698.255,732.777 628.154,789.158C612.475,801.768 594.305,816.584 574.899,824.221C493.861,856.112 400.7,842.126 318.777,822.781C287.84,815.476 255.047,811.454 224.899,801.834C116.604,767.276 56.027,701.549 61.924,595.786C63.49,567.707 68.06,539.824 74.137,512.28C79.178,489.432 88.887,468.713 99.559,447.66C134.497,378.741 214.768,258.905 318.069,281.159" style="fill:rgb(99,93,87);stroke:black;stroke-width:6.72px;stroke-linecap:round;stroke-miterlimit:1.5;"/>
        <path d="M309.641,283.141C372.913,284.476 414.808,329.169 457.215,365.823C480.272,385.752 504.824,406.288 523.627,429.606C589.877,511.766 624.244,637.863 532.211,716.26C515.16,730.785 493.54,741.375 471.807,748.973C443.193,758.976 412.833,766.037 382.178,768.325C344.799,771.115 312.957,761.677 281.811,743.193C184.898,685.676 161.021,566.239 225.697,480.516C239.271,462.524 254.453,444.147 276.17,433.64C330.809,407.204 403.114,430.287 428.936,481.183C440.612,504.197 443.266,530.585 447.296,555.364C450.685,576.198 458.074,601.087 447.546,621.226C441.457,632.874 427.671,638.16 414.726,641.586C380.847,650.554 344.367,646.007 326.332,615.47C313.648,593.994 308.109,547.116 349.581,553.142" style="fill:none;stroke:black;stroke-width:6.72px;stroke-linecap:round;stroke-miterlimit:1.5;"/>
        <path d="M950.455,686.325C928.838,678.633 905.49,678.902 882.648,679.689" style="fill:none;stroke:black;stroke-width:6.72px;stroke-linecap:round;stroke-miterlimit:1.5;"/>
        <path d="M841.707,439.203C829.517,450.8 828.457,472.154 828.065,487.882C827.976,491.465 828.106,495.07 827.847,498.645C827.832,498.86 827.78,504.451 827.838,504.447C831.496,504.221 836.748,498.104 840.062,496.336C848.796,491.673 855.601,488.058 865.887,488.909C871.461,489.37 878.78,493.282 883.955,495.002C887.987,496.341 892.523,497.19 896.067,499.486C897.813,500.617 903.444,506.829 905.967,505.546C912.533,502.207 906.239,488.497 903.91,484.764C902.967,483.253 902.022,481.743 901.072,480.236C895.336,471.125 891.636,460.745 882.656,453.664C873.859,446.727 858.184,444.664 847.157,441.445" style="fill:rgb(135,135,135);"/>
        <path d="M830.107,508.611C840.205,492.758 862.544,488.153 881.458,493.797C889.272,496.129 896.435,500.775 903.992,503.815" style="fill:none;stroke:black;stroke-width:6.72px;stroke-linecap:round;stroke-miterlimit:1.5;"/>
        <path d="M838.09,444.802C843.613,431.552 871.717,445.416 878.635,449.688C880.995,451.145 883.366,452.489 885.561,454.159C909.1,472.075 915.459,513.663 893.04,534.696C888.385,539.062 882.342,540.73 876.559,543.465C872.258,545.5 867.567,548.375 862.671,549.142C846.911,551.61 834.915,541.743 830.14,528.58C824.103,511.936 823.912,493.958 826.219,476.659C827.505,467.021 829.314,456.425 836.849,448.969" style="fill:none;stroke:black;stroke-width:6.72px;stroke-linecap:round;stroke-miterlimit:1.5;"/>
        <path d="M941.567,504.012C941.247,495.18 940.669,485.313 943.46,476.799C945.213,471.45 947.53,465.521 952.11,461.557C973.126,443.367 1000.6,457.171 1014.78,475.505C1021.55,484.261 1018.13,494.443 1013.17,503.058C1012.04,505.03 1011.45,508.659 1009.43,510.147C1007.84,511.313 1004.96,510.103 1003.57,509.364C998.439,506.631 994.292,502.801 989.039,500.148C974.406,492.756 956.085,490.727 943.77,503.543" style="fill:rgb(135,135,135);"/>
        <path d="M941.439,505.944C953.477,490.605 979.826,495.354 995.678,502.502C999.141,504.064 1001.6,507.192 1005.08,508.655" style="fill:none;stroke:black;stroke-width:6.72px;stroke-linecap:round;stroke-miterlimit:1.5;"/>
        <path d="M978.383,452.041C986.184,451.591 994.902,459.44 1000.41,463.519C1006.11,467.743 1013.43,471.211 1016.15,477.795C1020.82,489.128 1015.46,498.146 1011.36,508.581C1005.31,523.931 1002.9,542.629 981.148,543.763C945.631,545.616 938.564,516.014 941.118,489.687C942.264,477.873 946.158,463.325 957.189,455.607C963.328,451.312 972.412,453.812 979.534,453.587" style="fill:none;stroke:black;stroke-width:6.72px;stroke-linecap:round;stroke-miterlimit:1.5;"/>
    </g>
    <g id="Layer2" opacity="0.42">
        <path d="M116.219,873.1C205.441,883.731 297.995,869.448 387.742,870.819C436.703,871.567 483.994,881.874 532.453,883.89C611.953,887.197 691.971,879.508 769.389,862.737" style="fill:none;stroke:black;stroke-opacity:0.09;stroke-width:48.96px;stroke-linecap:round;stroke-miterlimit:1.5;"/>
        <path d="M679.11,661.019C671.454,718.629 641.432,777.582 577.814,799.195C554.634,807.07 531.077,807.335 507.157,811.462C485.972,815.117 464.509,821.646 443.031,823.462C407.096,826.5 342.682,814.713 307.322,805.777C286.36,800.479 267.142,787.619 246.784,780.273C217.146,769.578 190.068,757.233 161.223,745.426C87.586,715.285 81.628,699.008 78.467,626.564" style="fill:none;stroke:black;stroke-opacity:0.09;stroke-width:48.96px;stroke-linecap:round;stroke-miterlimit:1.5;"/>
        <path d="M81.452,626.024C110.727,711.645 194.411,780.534 292.012,798.939C337.272,807.474 390.162,803.804 436.193,802.717C467.411,801.98 509.543,811.524 539.537,801.435C571.532,790.672 597.712,763.622 623.102,743.974" style="fill:none;stroke:black;stroke-opacity:0.09;stroke-width:48.96px;stroke-linecap:round;stroke-miterlimit:1.5;"/>
        <path d="M219.705,522.427C192.759,579.964 236.78,685.622 295.039,718.171C325.704,735.303 369.521,739.766 405.029,736.698C495.307,728.898 534.722,671.003 575.151,606.886" style="fill:none;stroke:black;stroke-opacity:0.09;stroke-width:48.96px;stroke-linecap:round;stroke-miterlimit:1.5;"/>
        <path d="M321.99,567.901C335.48,612.978 379.548,634.86 427.598,622.23" style="fill:none;stroke:black;stroke-opacity:0.09;stroke-width:48.96px;stroke-linecap:round;stroke-miterlimit:1.5;"/>
        <path d="M664.302,777.401C710.708,762.21 712.984,720.697 734.204,687.425C741.825,675.476 756.001,665.403 766.333,655.344C803.774,618.892 840.644,600.776 897.021,612.92" style="fill:none;stroke:white;stroke-opacity:0.09;stroke-width:48.96px;stroke-linecap:round;stroke-miterlimit:1.5;"/>
        <path d="M644.28,509.106C606.245,451.098 567.271,392.878 501.756,356.883C486.772,348.65 469.87,344.203 454.635,336.518C432.392,325.3 415.545,311.946 390.321,305.211" style="fill:none;stroke:white;stroke-opacity:0.09;stroke-width:48.96px;stroke-linecap:round;stroke-miterlimit:1.5;"/>
        <path d="M150.217,393.88C160.289,376.161 174.864,360.34 190.368,346.238C238.32,302.62 309.265,280.781 369.384,320.993C384.045,330.799 392.857,345.5 406.319,356.348C419.737,367.159 436.327,374.425 449.028,386.028C476.784,411.385 518.097,469.088 536.34,501.351" style="fill:none;stroke:white;stroke-opacity:0.09;stroke-width:48.96px;stroke-linecap:round;stroke-miterlimit:1.5;"/>
        <path d="M417.42,573.108C402.916,541.198 416.823,505.383 403.268,478.285C397.448,466.648 382.398,461.711 370.818,456.15C327.002,435.114 280.37,433.392 245.412,469.955" style="fill:none;stroke:white;stroke-opacity:0.09;stroke-width:48.96px;stroke-linecap:round;stroke-miterlimit:1.5;"/>
        <path d="M952.121,484.06C949.831,476.747 953.63,465.072 961.89,461.878C964.154,461.002 967.376,461.609 969.729,461.852C975.292,462.427 981.957,461.665 987.112,463.79C995.073,467.071 1000.11,476.227 1005.25,482.19" style="fill:none;stroke:white;stroke-opacity:0.09;stroke-width:16.32px;stroke-linecap:round;stroke-miterlimit:1.5;"/>
        <path d="M834.349,480.159C829.747,464.365 846.321,443.048 865.69,448.84C879.581,452.993 886.112,467.147 892.149,477.773" style="fill:none;stroke:white;stroke-opacity:0.09;stroke-width:16.32px;stroke-linecap:round;stroke-miterlimit:1.5;"/>
    </g>
</svg>
