<?xml version="1.0" encoding="UTF-8" standalone="no"?>
<!DOCTYPE svg PUBLIC "-//W3C//DTD SVG 1.1//EN" "http://www.w3.org/Graphics/SVG/1.1/DTD/svg11.dtd">
<svg width="100%" height="100%" viewBox="0 0 1067 1067" version="1.1" xmlns="http://www.w3.org/2000/svg" xmlns:xlink="http://www.w3.org/1999/xlink" xml:space="preserve" xmlns:serif="http://www.serif.com/" style="fill-rule:evenodd;clip-rule:evenodd;stroke-linejoin:round;stroke-miterlimit:2;">
    <g id="shell">
        <path d="M320.586,279.078C350.01,274.846 374.933,281.904 403.423,287.177C568.043,317.641 657.804,448.019 685.07,589.545C700.419,669.215 698.255,732.777 628.154,789.158C612.475,801.768 594.305,816.584 574.899,824.221C493.861,856.112 400.7,842.126 318.777,822.781C287.84,815.476 255.047,811.454 224.899,801.834C116.604,767.276 56.027,701.549 61.924,595.786C63.49,567.707 68.06,539.824 74.137,512.28C79.178,489.432 88.887,468.713 99.559,447.66C134.497,378.741 214.768,258.905 318.069,281.159" style="fill:#635d57;stroke:#000;stroke-width:6.72px;stroke-linecap:round;stroke-miterlimit:1.5;"/>
        <path d="M309.641,283.141C372.913,284.476 414.808,329.169 457.215,365.823C480.272,385.752 504.824,406.288 523.627,429.606C589.877,511.766 624.244,637.863 532.211,716.26C515.16,730.785 493.54,741.375 471.807,748.973C443.193,758.976 412.833,766.037 382.178,768.325C344.799,771.115 312.957,761.677 281.811,743.193C184.898,685.676 161.021,566.239 225.697,480.516C239.271,462.524 254.453,444.147 276.17,433.64C330.809,407.204 403.114,430.287 428.936,481.183C440.612,504.197 443.266,530.585 447.296,555.364C450.685,576.198 458.074,601.087 447.546,621.226C441.457,632.874 427.671,638.16 414.726,641.586C380.847,650.554 344.367,646.007 326.332,615.47C313.648,593.994 308.109,547.116 349.581,553.142" style="fill:none;stroke:#000;stroke-width:6.72px;stroke-linecap:round;stroke-miterlimit:1.5;"/>
        <g id="Layer2" opacity="0.42">
            <path d="M679.11,661.019C671.454,718.629 641.432,777.582 577.814,799.195C554.634,807.07 531.077,807.335 507.157,811.462C485.972,815.117 464.509,821.646 443.031,823.462C407.096,826.5 342.682,814.713 307.322,805.777C286.36,800.479 267.142,787.619 246.784,780.273C217.146,769.578 190.068,757.233 161.223,745.426C87.586,715.285 81.628,699.008 78.467,626.564" style="fill:none;stroke:#000;stroke-opacity:0.09;stroke-width:48.96px;stroke-linecap:round;stroke-miterlimit:1.5;"/>
            <path d="M81.452,626.024C110.727,711.645 194.411,780.534 292.012,798.939C337.272,807.474 390.162,803.804 436.193,802.717C467.411,801.98 509.543,811.524 539.537,801.435C571.532,790.672 597.712,763.622 623.102,743.974" style="fill:none;stroke:#000;stroke-opacity:0.09;stroke-width:48.96px;stroke-linecap:round;stroke-miterlimit:1.5;"/>
            <path d="M219.705,522.427C192.759,579.964 236.78,685.622 295.039,718.171C325.704,735.303 369.521,739.766 405.029,736.698C495.307,728.898 534.722,671.003 575.151,606.886" style="fill:none;stroke:#000;stroke-opacity:0.09;stroke-width:48.96px;stroke-linecap:round;stroke-miterlimit:1.5;"/>
            <path d="M321.99,567.901C335.48,612.978 379.548,634.86 427.598,622.23" style="fill:none;stroke:#000;stroke-opacity:0.09;stroke-width:48.96px;stroke-linecap:round;stroke-miterlimit:1.5;"/>
            <path d="M644.28,509.106C606.245,451.098 567.271,392.878 501.756,356.883C486.772,348.65 469.87,344.203 454.635,336.518C432.392,325.3 415.545,311.946 390.321,305.211" style="fill:none;stroke:#fff;stroke-opacity:0.09;stroke-width:48.96px;stroke-linecap:round;stroke-miterlimit:1.5;"/>
            <path d="M150.217,393.88C160.289,376.161 174.864,360.34 190.368,346.238C238.32,302.62 309.265,280.781 369.384,320.993C384.045,330.799 392.857,345.5 406.319,356.348C419.737,367.159 436.327,374.425 449.028,386.028C476.784,411.385 518.097,469.088 536.34,501.351" style="fill:none;stroke:#fff;stroke-opacity:0.09;stroke-width:48.96px;stroke-linecap:round;stroke-miterlimit:1.5;"/>
            <path d="M417.42,573.108C402.916,541.198 416.823,505.383 403.268,478.285C397.448,466.648 382.398,461.711 370.818,456.15C327.002,435.114 280.37,433.392 245.412,469.955" style="fill:none;stroke:#fff;stroke-opacity:0.09;stroke-width:48.96px;stroke-linecap:round;stroke-miterlimit:1.5;"/>
        </g>
    </g>
</svg>
