<?xml version="1.0" encoding="UTF-8" standalone="no"?>
<!DOCTYPE svg PUBLIC "-//W3C//DTD SVG 1.1//EN" "http://www.w3.org/Graphics/SVG/1.1/DTD/svg11.dtd">
<svg width="100%" height="100%" viewBox="0 0 1067 1067" version="1.1" xmlns="http://www.w3.org/2000/svg" xmlns:xlink="http://www.w3.org/1999/xlink" xml:space="preserve" xmlns:serif="http://www.serif.com/" style="fill-rule:evenodd;clip-rule:evenodd;stroke-linejoin:round;stroke-miterlimit:2;">
    <g id="dead">
        <path d="M973.258,543.846C956.963,537.889 916.767,598.76 919.737,601.437" style="fill:none;stroke:#000;stroke-width:6.72px;stroke-linecap:round;stroke-miterlimit:1.5;"/>
        <path d="M642.597,781.753C649.558,765.68 670.782,748.94 681.165,731.798C711.242,682.144 732.628,616.18 799.756,598.284C844.227,586.428 979.278,589.47 972.249,654.353C965.237,719.077 838.113,694.075 821.446,737.389C814.23,756.141 826.367,773.937 826.238,792.801C826.003,827.414 797.286,861.176 768.156,881.426C725.567,911.032 661.396,899.545 611.665,901.613C577.999,903.013 544.064,906.83 510.309,905.847C471.146,904.706 432.748,899.159 393.765,897.286C329.253,894.187 264.494,894.045 200.093,896.801C163.61,898.363 97.9,901.697 96.747,855.189C96.451,843.243 99.569,829.229 106.606,818.94C127.591,788.262 216.577,811.259 253.467,810.241C291.919,809.181 328.927,801.014 367.699,801.971C418.314,803.22 472.339,814.219 522.953,807.066C567.944,800.708 605.441,774.172 648.909,764.462" style="fill:#84796d;stroke:#000;stroke-width:6.72px;stroke-linecap:round;stroke-miterlimit:1.5;"/>
        <path d="M1003.9,455.955C1011.45,457.974 1017.27,468.161 1021.22,473.761C1025.31,479.561 1031.17,485.15 1031.68,492.254C1032.57,504.482 1024.65,511.363 1017.48,519.983C1006.93,532.665 998.767,549.661 977.759,543.916C943.453,534.535 946.027,504.211 956.709,480.013C961.503,469.154 969.763,456.562 982.658,452.693C989.834,450.54 997.676,455.764 1004.51,457.783" style="fill:#878787;stroke:#000;stroke-width:6.72px;stroke-linecap:round;stroke-miterlimit:1.5;"/>
        <path d="M819.644,448.846C821.893,434.669 852.471,441.527 860.2,444.051C862.836,444.912 865.457,445.66 867.983,446.767C895.078,458.639 911.048,497.561 894.209,523.28C890.713,528.619 885.232,531.662 880.256,535.682C876.555,538.673 872.672,542.571 868.094,544.468C853.358,550.577 839.376,543.811 831.637,532.142C821.852,517.386 817.435,499.959 815.605,482.602C814.586,472.933 813.85,462.208 819.418,453.188" style="fill:#878787;stroke:#000;stroke-width:6.72px;stroke-linecap:round;stroke-miterlimit:1.5;"/>
        <path d="M862.861,549.199C858.262,550.254 852.043,561.122 850.695,564.54C846.656,574.779 843.317,586.922 844.082,597.904" style="fill:none;stroke:#000;stroke-width:6.72px;stroke-linecap:round;stroke-miterlimit:1.5;"/>
        <path d="M942.21,689.022C942.225,689.034 942.941,686.55 942.357,685.675C940.803,683.343 938.432,681.393 936.297,679.615C929.965,674.338 923.421,672.067 915.518,670.091C904.501,667.337 891.714,666.312 880.454,668.359C870.646,670.143 863.786,676.584 854.913,676.584" style="fill:none;stroke:#000;stroke-width:6.72px;stroke-linecap:round;stroke-miterlimit:1.5;"/>
        <path d="M822.179,443.317C812.83,456.505 816.402,475.755 819.41,489.841C820.095,493.051 820.999,496.228 821.518,499.469C821.549,499.664 822.703,504.651 822.76,504.634C826.266,503.572 830.052,496.893 832.892,494.539C840.375,488.335 846.21,483.516 856.391,481.853C861.908,480.951 869.864,482.709 875.264,483.021C879.471,483.264 884.063,482.952 888.002,484.16C889.943,484.755 896.754,488.957 898.93,487.221C904.592,482.705 895.52,471.987 892.452,469.215C891.21,468.092 889.966,466.971 888.719,465.853C881.18,459.097 875.347,450.732 865.093,446.545C855.049,442.443 839.37,444.298 827.959,444.029" style="fill:#878787;"/>
        <path d="M840.731,543.262C844.24,529.715 857.583,522.795 870.63,524.156C876.02,524.718 881.42,527.131 886.777,528.269" style="fill:none;stroke:#000;stroke-width:6.72px;stroke-linecap:round;stroke-miterlimit:1.5;"/>
        <path d="M819.644,448.846C821.893,434.669 852.471,441.527 860.2,444.051C862.836,444.912 865.457,445.66 867.983,446.767C895.078,458.639 911.048,497.561 894.209,523.28C890.713,528.619 885.232,531.662 880.256,535.682C876.555,538.673 872.672,542.571 868.094,544.468C853.358,550.577 839.376,543.811 831.637,532.142C821.852,517.386 817.435,499.959 815.605,482.602C814.586,472.933 813.85,462.208 819.418,453.188" style="fill:none;stroke:#000;stroke-width:6.72px;stroke-linecap:round;stroke-miterlimit:1.5;"/>
        <path d="M957.099,480.267C958.793,474.116 960.476,467.176 965.053,462.219C967.929,459.105 971.47,455.77 976.716,454.491C1000.79,448.622 1023.75,466.695 1033.07,483.702C1037.51,491.823 1031.97,497.727 1025.31,502.073C1023.78,503.067 1022.4,505.37 1020.15,505.755C1018.38,506.057 1015.91,504.322 1014.76,503.38C1010.51,499.899 1007.44,495.975 1003.05,492.51C990.827,482.856 973.889,475.72 959.296,480.637" style="fill:#878787;"/>
        <path d="M955.607,521.062C969.038,510.057 986.947,520.753 996.435,531.083C998.508,533.34 999.376,536.775 1001.49,538.945" style="fill:none;stroke:#000;stroke-width:6.72px;stroke-linecap:round;stroke-miterlimit:1.5;"/>
        <path d="M1003.9,455.955C1011.45,457.974 1017.27,468.161 1021.22,473.761C1025.31,479.561 1031.17,485.15 1031.68,492.254C1032.57,504.482 1024.65,511.363 1017.48,519.983C1006.93,532.665 998.767,549.661 977.759,543.916C943.453,534.535 946.027,504.211 956.709,480.013C961.503,469.154 969.763,456.562 982.658,452.693C989.834,450.54 997.676,455.764 1004.51,457.783" style="fill:none;stroke:#000;stroke-width:6.72px;stroke-linecap:round;stroke-miterlimit:1.5;"/>
        <g id="Layer2" opacity="0.42">
            <path d="M122.017,871.61C211.239,882.241 303.794,867.958 393.54,869.33C442.501,870.078 489.793,880.385 538.251,882.4C617.752,885.707 697.77,878.018 775.187,861.248" style="fill:none;stroke:#000;stroke-opacity:0.09;stroke-width:48.96px;stroke-linecap:round;stroke-miterlimit:1.5;"/>
            <path d="M670.1,775.911C716.507,760.72 718.782,719.207 740.002,685.936C747.623,673.986 761.799,663.914 772.132,653.854C809.573,617.402 846.442,599.287 902.819,611.43" style="fill:none;stroke:#fff;stroke-opacity:0.09;stroke-width:48.96px;stroke-linecap:round;stroke-miterlimit:1.5;"/>
            <path d="M957.919,482.57C955.63,475.257 959.428,463.583 967.689,460.388C969.952,459.512 973.174,460.12 975.527,460.363C981.091,460.937 987.756,460.175 992.911,462.3C1000.87,465.582 1005.91,474.737 1011.05,480.7" style="fill:none;stroke:#fff;stroke-opacity:0.09;stroke-width:16.32px;stroke-linecap:round;stroke-miterlimit:1.5;"/>
            <path d="M840.148,478.67C835.545,462.876 852.119,441.559 871.489,447.35C885.379,451.504 891.911,465.657 897.947,476.283" style="fill:none;stroke:#fff;stroke-opacity:0.09;stroke-width:16.32px;stroke-linecap:round;stroke-miterlimit:1.5;"/>
        </g>
    </g>
</svg>
