<?xml version="1.0" encoding="UTF-8" standalone="no"?>
<!DOCTYPE svg PUBLIC "-//W3C//DTD SVG 1.1//EN" "http://www.w3.org/Graphics/SVG/1.1/DTD/svg11.dtd">
<svg width="100%" height="100%" viewBox="0 0 1067 1067" version="1.1" xmlns="http://www.w3.org/2000/svg" xmlns:xlink="http://www.w3.org/1999/xlink" xml:space="preserve" xmlns:serif="http://www.serif.com/" style="fill-rule:evenodd;clip-rule:evenodd;stroke-linejoin:round;stroke-miterlimit:2;">
    <g id="Running0">
        <g>
            <path d="M455.58,512.181C354.273,462.118 216.531,363.079 110.178,438.657C76.277,462.748 37.488,527.814 23.653,594.294C20.953,607.264 12.447,706.285 23.718,717.866C47.831,742.642 124.178,641.38 151.181,621.36C166.038,610.346 178.602,601.002 193.698,591.977C209.307,582.646 227.137,575.509 243.208,568.868C297.577,546.402 351.236,565.265 403.052,575.799" style="fill:rgb(168,141,110);stroke:black;stroke-width:6.67px;stroke-linecap:round;stroke-miterlimit:1.5;"/>
            <path d="M858.868,555.701C829.771,542.268 804.739,522.198 774.144,511.463C722.386,493.301 590.713,483.016 534.895,490.748C516.758,493.26 474.637,495.019 456.531,497.05C427.151,500.345 386.631,513.402 397.547,564.704C406.736,607.893 448.802,610.522 479.216,611.666C533.314,613.701 583.388,627.691 635.345,641.181C646.567,644.094 656.409,650.503 667.831,652.982C696.032,659.104 725.029,659.801 753.708,661.405C773.67,662.522 795.851,666.108 815.44,660.616C828.295,657.013 838.85,649.013 850.514,642.841C881.656,626.362 897.505,620.16 881.082,579.152C876.731,568.287 867.16,553.872 855.6,549.734" style="fill:rgb(111,94,76);stroke:black;stroke-width:6.67px;stroke-linecap:round;stroke-miterlimit:1.5;"/>
            <path d="M796.63,530.886C814.349,527.301 832.676,527.269 850.115,523.84C895.464,514.922 940.858,496.03 987.036,513.695C991.604,515.442 1046.55,588.878 1046.55,589.116C1046.75,597.89 1031.63,612.543 1024.88,617.342C982.369,647.561 907.707,614.817 857.616,629.128" style="fill:rgb(111,94,76);stroke:black;stroke-width:6.67px;stroke-linecap:round;stroke-miterlimit:1.5;"/>
            <path d="M944.476,649.665C957.192,648.243 970.014,652.367 982.713,650.776C1000.67,648.527 1017.71,640.011 1036.02,639.993C1042.32,639.986 1058.93,645.314 1061.56,652.325C1061.64,652.536 1046.24,652.361 1046.15,652.518C1045.16,654.222 1056.56,662.281 1056.06,663.199C1055.28,664.666 1045.01,662.417 1042.94,663.748C1036.87,667.664 1032.58,673.722 1025.99,677.098" style="fill:rgb(111,94,76);stroke:black;stroke-width:6.67px;stroke-linecap:round;stroke-miterlimit:1.5;"/>
            <path d="M911.846,608.108C926.248,641.658 950.033,659.483 986.86,664.168C1011.51,667.304 1040.91,652.584 1054.57,682.199C1059.05,691.935 1035.46,687.704 1031.51,685.17C1029.4,683.812 1025.5,677.883 1025.68,680.391C1026.08,686.147 1039.05,695.316 1036.32,700.879C1030.35,713.038 1015.48,696.354 1011.07,699.153C1009.51,700.14 1020.41,710.641 1015.02,713.712C1001.31,721.517 987.712,711.059 974.34,708.033C944.025,701.171 909.354,710.687 881.113,697.722C849.419,683.172 824.668,654.811 793.25,641.279" style="fill:rgb(111,94,76);stroke:black;stroke-width:6.67px;stroke-linecap:round;stroke-miterlimit:1.5;"/>
            <path d="M948.131,514.402C940.562,460.186 906.948,459.18 912.857,513.993" style="fill:rgb(111,94,76);stroke:black;stroke-width:6.67px;stroke-linecap:round;stroke-miterlimit:1.5;"/>
            <path d="M619.872,620.112C615.427,622.708 604.121,643.214 599.85,646.134C592.709,651.015 584.751,654.298 577.402,658.81C569.892,663.422 563.728,668.577 555.357,671.85C542.723,676.791 527.319,677.225 513.82,677.198C498.81,677.168 481.052,673.62 466.647,669.266C453.577,665.316 443.872,659.023 430.298,664.806C422.964,667.931 423.607,674.953 420.452,680.919C417.352,686.781 415.661,693.159 412.754,699.102C408.368,708.068 402.891,716.432 398.088,725.18C396.037,728.914 394.259,732.745 392.991,736.813C392.762,737.551 392.221,740.73 391.492,741.068C387.789,742.784 385.678,734.542 384.806,732.837C384.673,732.578 381.02,735.843 380.71,736.163C380.335,736.55 379.681,737.864 379.595,737.333C379.245,735.158 379.671,732.599 380.262,730.486C380.343,730.194 381.488,727.048 381.265,726.941C378.134,725.43 372.12,730.895 371.336,729.864C366.495,723.506 375.31,709.859 377.946,703.743C381.629,695.198 384.554,686.337 390.192,678.782C396.328,670.562 404.793,664.421 411.232,656.388C417.067,649.108 419.278,639.828 428.598,636.076" style="fill:rgb(111,94,76);stroke:black;stroke-width:6.67px;stroke-linecap:round;stroke-miterlimit:1.5;"/>
            <path d="M617.899,602.283C584.727,643.379 549.069,674.715 493.587,659.08C465.022,651.03 428.836,623.902 397.778,630.641C367.924,637.118 356.298,678.117 335.564,695.854C333.016,698.034 312.23,713.852 308.406,711.487C303.806,708.642 317.217,690.099 317.517,687.283C317.943,683.278 292.389,694.244 290.565,693.81C290.306,693.749 304.011,678.77 305.432,677.181C308.114,674.186 307.556,669.268 310.404,665.554C316.29,657.883 324.601,652.148 331.008,644.893C343.325,630.943 363.745,608.817 381.307,601.948C432.639,581.87 447.811,608.839 483.948,558.889" style="fill:rgb(111,94,76);stroke:black;stroke-width:6.67px;stroke-linecap:round;stroke-miterlimit:1.5;"/>
            <path d="M999.595,564.957C996.867,551.601 991.206,539.155 975.677,538.565C973.215,538.472 968.804,538.051 966.626,539.372C965.702,539.932 966.258,541.983 966.675,542.98C967.513,544.983 966.695,543.653 967.248,545.749C969.616,554.731 978.936,565.636 988.465,567.687C991.699,568.383 997.077,569.935 998.955,566.402" style="stroke:black;stroke-width:6.67px;stroke-linecap:round;stroke-miterlimit:1.5;"/>
            <path d="M1023.37,594.851C1021.43,591.231 1014.52,590.971 1011.04,590.894C1000.38,590.658 990.226,594.121 979.581,592.727" style="fill:none;stroke:black;stroke-width:2.92px;stroke-linecap:round;stroke-miterlimit:1.5;"/>
            <path d="M1023.05,602.2C1017.15,602.099 1011.34,601.113 1005.46,600.998C997.53,600.842 990.243,601.858 982.557,603.547" style="fill:none;stroke:black;stroke-width:2.92px;stroke-linecap:round;stroke-miterlimit:1.5;"/>
            <path d="M1019.1,607.483C1012.41,610.315 1004.71,609.899 997.631,610.461C992.037,610.904 986.328,612.476 980.73,612.488" style="fill:none;stroke:black;stroke-width:2.92px;stroke-linecap:round;stroke-miterlimit:1.5;"/>
            <path d="M1043.38,599.264C1047.73,598.939 1054.33,597.333 1058.71,598.828" style="fill:none;stroke:black;stroke-width:2.92px;stroke-linecap:round;stroke-miterlimit:1.5;"/>
            <path d="M1037.1,606.91C1043.6,605.982 1050.94,606.104 1057.44,607.123" style="fill:none;stroke:black;stroke-width:2.92px;stroke-linecap:round;stroke-miterlimit:1.5;"/>
            <path d="M1031.59,609.53C1040.05,613.101 1048.54,617.413 1057.26,620.256" style="fill:none;stroke:black;stroke-width:2.92px;stroke-linecap:round;stroke-miterlimit:1.5;"/>
            <path d="M1043.59,596.46C1029.63,590.296 1024.32,597.538 1026.3,610.438" style="fill:rgb(111,94,76);stroke:black;stroke-width:6.67px;stroke-linecap:round;stroke-miterlimit:1.5;"/>
            <path d="M1039.49,597.22C1036.69,598.828 1034.52,600.965 1032.41,603.402C1031.18,604.825 1029.09,607.231 1029.09,607.226C1028.19,605.857 1031.43,600.226 1031.91,598.667" style="fill:none;stroke:black;stroke-width:6.72px;stroke-linecap:round;stroke-miterlimit:1.5;"/>
        </g>
        <g opacity="0.04">
            <path d="M791.37,535.458C779.758,530.603 768.756,523.516 756.806,519.596C713.342,505.338 667.822,503.203 622.784,498.201C570.524,492.397 549.605,486.639 495.967,492.275C466.32,495.39 402.144,511.152 378.924,532.993" style="fill:none;stroke:white;stroke-width:20.42px;stroke-linecap:round;stroke-miterlimit:1.5;"/>
            <path d="M398.638,495.647C367.769,480.047 339.673,470.545 301.715,454.527C255.404,434.984 191.113,417.455 143.625,435.393C126.24,441.959 70.346,503.164 62.358,520.403C38.714,571.435 38.236,582.352 30.656,633.78C29.19,643.729 19.275,703.437 33.741,709.963C48.688,716.706 77.423,671.547 87.647,663.609C111.9,644.781 140.008,616.978 165.837,600.561C183.987,589.025 173.774,592.374 205.786,573.997C219.41,566.176 227.169,560.467 242.607,557.839C285.493,550.538 329.404,544.455 380.393,560.502" style="fill:none;stroke:white;stroke-width:20.42px;stroke-linecap:round;stroke-miterlimit:1.5;"/>
            <path d="M486.342,561.52C477.625,571.401 471.502,583.569 459.081,589.665C446.918,595.633 433.269,595.741 420.165,597.494C386.108,602.05 357.583,615.738 337.13,644.252" style="fill:none;stroke:white;stroke-width:20.42px;stroke-linecap:round;stroke-miterlimit:1.5;"/>
            <path d="M898.861,609.254C905.321,655.757 942.74,664.586 983.09,667.958" style="fill:none;stroke:white;stroke-width:20.42px;stroke-linecap:round;stroke-miterlimit:1.5;"/>
            <path d="M1022.47,581.579C1014.23,565.721 975.234,516.349 956.863,513.101C924.723,507.418 890.065,523.741 858.46,528.035" style="fill:none;stroke:white;stroke-width:20.42px;stroke-linecap:round;stroke-miterlimit:1.5;"/>
            <path d="M926.678,500.397C925.184,495.536 922.353,492.611 920.239,488.117C916.55,480.279 917.261,492.735 916.148,498.506" style="fill:none;stroke:white;stroke-width:20.42px;stroke-linecap:round;stroke-miterlimit:1.5;"/>
            <path d="M783.691,539.015C755.425,509.224 713.53,515.459 676.505,513.048C639.004,510.607 602.51,510.154 564.938,510.145C543.706,510.14 523.347,506.78 502.065,509.491C471.303,513.408 433.414,527.296 402.076,535.701" style="fill:none;stroke:white;stroke-width:44.74px;stroke-linecap:round;stroke-miterlimit:1.5;"/>
            <path d="M791.331,647.435C729.729,649.642 669.373,632.045 609.385,621.475" style="fill:none;stroke:black;stroke-width:44.74px;stroke-linecap:round;stroke-miterlimit:1.5;"/>
            <path d="M802.867,626.749C831.62,655.371 865.056,675.265 904.449,684.393C929.75,690.255 955.694,689.759 980.206,699.414" style="fill:none;stroke:black;stroke-width:44.74px;stroke-linecap:round;stroke-miterlimit:1.5;"/>
            <path d="M603.207,595.008C588.122,615.708 530.096,649.478 503.148,646.701C466.125,642.885 435.224,617.215 394.027,624.062" style="fill:none;stroke:black;stroke-width:22.66px;stroke-linecap:round;stroke-miterlimit:1.5;"/>
            <path d="M1008.86,602.986C985.404,633.253 945.861,613.633 914.734,613.257" style="fill:none;stroke:black;stroke-width:22.66px;stroke-linecap:round;stroke-miterlimit:1.5;"/>
            <path d="M596.865,644.215C590.842,647.402 584.005,649.096 578.311,652.878C566.862,660.485 559.807,669.353 545.56,673.034C537.355,675.154 513.189,672.604 504.484,671.184C488.321,668.549 472.684,664.162 458.326,656.225C452.936,653.246 440.877,645.246 434.257,647.984C427.708,650.693 421.593,658.223 417.334,663.595C413.65,668.243 408.894,671.86 405.996,677.15C398.408,690.999 396.36,707.865 388.77,721.905" style="fill:none;stroke:black;stroke-width:19.84px;stroke-linecap:round;stroke-miterlimit:1.5;"/>
            <path d="M987.889,560.453C987.352,555.579 974.598,534.43 968.316,539.437C959.54,546.432 976.418,565.272 984.581,564.306C993.266,563.279 992.957,552.988 986.577,549.027" style="fill:none;stroke:black;stroke-width:22.66px;stroke-linecap:round;stroke-miterlimit:1.5;"/>
        </g>
        <path d="M977.823,545.168C977.865,540.813 970.921,536.58 968.804,541.81C966.688,547.035 973.468,551.434 976.991,546.908C978.549,544.907 976.033,541.406 973.594,542.38C971.379,543.264 972.366,545.598 974.287,545.989" style="fill:none;stroke:white;stroke-opacity:0.22;stroke-width:6.67px;stroke-linecap:round;stroke-miterlimit:1.5;"/>
    </g>
</svg>
