<?xml version="1.0" encoding="UTF-8" standalone="no"?>
<!DOCTYPE svg PUBLIC "-//W3C//DTD SVG 1.1//EN" "http://www.w3.org/Graphics/SVG/1.1/DTD/svg11.dtd">
<svg width="100%" height="100%" viewBox="0 0 2133 1066" version="1.1" xmlns="http://www.w3.org/2000/svg" xmlns:xlink="http://www.w3.org/1999/xlink" xml:space="preserve" xmlns:serif="http://www.serif.com/" style="fill-rule:evenodd;clip-rule:evenodd;stroke-linecap:round;stroke-linejoin:round;stroke-miterlimit:1.5;">
    <g id="claws-attacking">
        <g>
            <path d="M1509.78,731.033C1512.54,730.457 1519.34,735.166 1521.29,737.616C1527.1,744.911 1530.67,753.402 1534.03,762.195C1536.73,769.236 1537.7,776.186 1537.47,781.043C1537.32,784.158 1537.33,796.945 1537.75,797.257C1538.25,797.629 1540.26,793.943 1540.43,793.405C1542.06,788.28 1544.55,785.661 1544.78,779.577C1545.21,768.2 1541.87,755.851 1538.5,745.178C1536.83,739.922 1534.4,733.262 1530.77,729.441" style="stroke:#000;stroke-width:8.89px;"/>
            <path d="M1531.63,722.586C1531.89,722.115 1526.59,723.693 1526.81,723.926C1528.74,726.006 1532.12,728.547 1533.68,731.064C1540.5,742.067 1545.8,739.727 1552.07,754.643C1556.21,764.501 1563.11,781.113 1563.61,781.13C1563.71,781.133 1564.33,768.609 1564.14,765.995C1562.93,749.406 1555.58,735.936 1543.79,724.488C1541.26,722.038 1539.01,721.803 1535.89,720.787" style="stroke:#000;stroke-width:8.89px;"/>
            <path d="M1536.97,711.644C1538.56,708.928 1545.48,715.604 1546.66,716.739C1555.59,725.32 1562.64,734.557 1570.15,744.917C1572.29,747.871 1574.7,751.117 1576.48,754.41C1576.74,754.892 1579.5,759.435 1579.49,759.664C1579.48,760.486 1580.03,750.063 1579.85,746.867C1578.43,721.596 1552.62,709.339 1536.13,702.375" style="stroke:#000;stroke-width:8.89px;"/>
        </g>
        <g>
            <path d="M1399.66,788.951C1403.55,787.405 1406.52,801.419 1409.4,803.056C1417.95,807.93 1423.39,814.751 1428.54,821.938C1432.67,827.693 1434.36,833.98 1434.25,838.704C1434.18,841.733 1434.78,853.942 1435.38,854.09C1436.1,854.266 1438.79,850.018 1439.01,849.442C1441.07,843.962 1444.48,840.562 1444.54,834.667C1444.64,823.643 1439.35,813.053 1434.1,804.074C1431.51,799.653 1427.76,794.169 1422.45,791.829" style="fill:#cbcbcb;stroke:#cbcbcb;stroke-width:5.81px;"/>
            <path d="M1431.54,788.952C1432.05,788.578 1423.75,788.967 1424.02,789.219C1426.36,791.473 1430.74,794.425 1432.41,797C1439.74,808.256 1448.23,807.18 1453.73,821.859C1457.36,831.561 1463.36,847.893 1464.09,848.004C1464.25,848.028 1468.39,836.851 1468.78,834.456C1471.24,819.254 1463.75,805.668 1449.15,793.04C1446.02,790.338 1442.73,789.686 1438.35,788.161" style="fill:#cbcbcb;stroke:#cbcbcb;stroke-width:5.81px;"/>
            <path d="M1433.33,770.732C1435.99,768.033 1444.41,775.56 1445.84,776.841C1456.7,786.518 1464.87,796.726 1473.48,808.141C1475.93,811.396 1478.7,814.977 1480.59,818.555C1480.87,819.079 1483.9,824.041 1483.86,824.279C1483.71,825.134 1486.25,814.319 1486.55,810.973C1488.9,784.521 1455.34,769.62 1433.75,761.004" style="fill:#cbcbcb;stroke:#cbcbcb;stroke-width:5.81px;"/>
        </g>
        <g>
            <path d="M1399.66,788.951C1403.55,787.405 1406.52,801.419 1409.4,803.056C1417.95,807.93 1423.39,814.751 1428.54,821.938C1432.67,827.693 1434.36,833.98 1434.25,838.704C1434.18,841.733 1434.78,853.942 1435.38,854.09C1436.1,854.266 1438.79,850.018 1439.01,849.442C1441.07,843.962 1444.48,840.562 1444.54,834.667C1444.64,823.643 1439.35,813.053 1434.1,804.074C1431.51,799.653 1427.76,794.169 1422.45,791.829" style="stroke:#000;stroke-width:5.81px;"/>
            <path d="M1431.54,788.952C1432.05,788.578 1423.75,788.967 1424.02,789.219C1426.36,791.473 1430.74,794.425 1432.41,797C1439.74,808.256 1448.23,807.18 1453.73,821.859C1457.36,831.561 1463.36,847.893 1464.09,848.004C1464.25,848.028 1468.39,836.851 1468.78,834.456C1471.24,819.254 1463.75,805.668 1449.15,793.04C1446.02,790.338 1442.73,789.686 1438.35,788.161" style="stroke:#000;stroke-width:5.81px;"/>
            <path d="M1433.33,770.732C1435.99,768.033 1444.41,775.56 1445.84,776.841C1456.7,786.518 1464.87,796.726 1473.48,808.141C1475.93,811.396 1478.7,814.977 1480.59,818.555C1480.87,819.079 1483.9,824.041 1483.86,824.279C1483.71,825.134 1486.25,814.319 1486.55,810.973C1488.9,784.521 1455.34,769.62 1433.75,761.004" style="stroke:#000;stroke-width:5.81px;"/>
        </g>
        <g>
            <path d="M1431.03,625.502C1437.36,645.134 1445.84,669.244 1463.73,681.401C1468.44,684.603 1475.69,686.525 1481.17,688.109C1494.61,691.996 1509.19,691.762 1522.75,695.824C1531.48,698.44 1539.12,704.1 1546.96,708.558C1553.6,712.333 1564.78,717.418 1566.03,726.282C1566.72,731.197 1556.92,727.646 1555.38,726.96C1554.3,726.474 1553.23,725.934 1552.23,725.297C1551.71,724.972 1550.78,723.732 1550.69,724.331C1550.01,728.704 1551.98,733.04 1552.48,737.317C1552.59,738.243 1550.63,737.076 1549.72,736.88C1548.97,736.721 1542.05,733.88 1542.01,733.915C1537.74,737.696 1540.05,742.538 1538.22,746.804C1537.67,748.078 1536.29,744.809 1535.43,743.722C1533.39,741.146 1528.67,740.429 1525.84,738.759C1525.24,738.402 1520.1,737.149 1519.37,737.028C1513.54,736.055 1512.85,736.377 1507.75,736.246C1489.82,735.783 1473.24,731.102 1456.06,726.326C1429.91,719.053 1408.45,706.206 1387.3,689.36C1378.76,682.558 1369.36,675.969 1363.1,666.846C1349.21,646.594 1343.36,623.915 1339.45,600.158" style="fill:#6f5e4c;stroke:#000;stroke-width:6.67px;"/>
            <path d="M990.583,512.542C889.276,462.48 751.534,363.441 645.181,439.019C611.28,463.11 572.492,528.176 558.656,594.656C555.957,607.626 547.45,706.647 558.721,718.228C582.834,743.003 659.181,641.741 686.185,621.722C701.041,610.707 713.605,601.363 728.701,592.339C744.31,583.007 762.14,575.871 778.212,569.23C832.58,546.764 886.24,565.627 938.055,576.16" style="fill:#a88d6e;stroke:#000;stroke-width:6.67px;"/>
            <path d="M1393.87,556.062C1364.77,542.629 1339.74,522.56 1309.15,511.824C1257.39,493.663 1125.72,483.378 1069.9,491.109C1051.76,493.621 1009.64,495.381 991.534,497.412C962.154,500.707 921.634,513.763 932.55,565.065C941.74,608.254 983.805,610.883 1014.22,612.028C1068.32,614.063 1118.39,628.053 1170.35,641.542C1181.57,644.456 1191.41,650.864 1202.83,653.344C1231.04,659.466 1260.03,660.162 1288.71,661.767C1308.67,662.884 1330.85,666.469 1350.44,660.978C1363.3,657.374 1373.85,649.375 1385.52,643.202C1416.66,626.724 1432.51,620.522 1416.09,579.514C1411.73,568.649 1402.16,554.234 1390.6,550.096" style="fill:#6f5e4c;stroke:#000;stroke-width:6.67px;"/>
            <path d="M1331.63,531.247C1349.35,527.663 1367.68,527.63 1385.12,524.201C1430.47,515.284 1475.86,496.391 1522.04,514.056C1526.61,515.804 1581.55,589.239 1581.56,589.477C1581.76,598.252 1566.64,612.905 1559.88,617.704C1517.37,647.922 1442.71,615.179 1392.62,629.489" style="fill:#6f5e4c;stroke:#000;stroke-width:6.67px;"/>
            <path d="M1483.13,514.763C1475.57,460.548 1441.95,459.542 1447.86,514.354" style="fill:#6f5e4c;stroke:#000;stroke-width:6.67px;"/>
            <path d="M1154.88,620.473C1150.43,623.069 1139.12,643.575 1134.85,646.495C1127.71,651.377 1119.75,654.659 1112.4,659.172C1104.89,663.784 1098.73,668.939 1090.36,672.212C1077.73,677.152 1062.32,677.586 1048.82,677.559C1033.81,677.53 1016.06,673.982 1001.65,669.628C988.58,665.678 978.875,659.385 965.302,665.167C957.967,668.292 958.61,675.314 955.456,681.28C952.356,687.143 950.664,693.521 947.757,699.464C943.371,708.43 937.894,716.794 933.091,725.542C931.041,729.276 929.263,733.107 927.995,737.174C927.765,737.912 927.224,741.092 926.495,741.43C922.792,743.145 920.681,734.904 919.809,733.198C919.676,732.939 916.023,736.204 915.713,736.524C915.338,736.911 914.684,738.226 914.598,737.694C914.248,735.52 914.675,732.961 915.265,730.847C915.346,730.556 916.491,727.41 916.269,727.303C913.137,725.792 907.123,731.256 906.339,730.226C901.498,723.868 910.313,710.221 912.949,704.105C916.632,695.559 919.557,686.698 925.196,679.144C931.332,670.923 939.796,664.783 946.235,656.749C952.07,649.469 954.281,640.189 963.601,636.438" style="fill:#6f5e4c;stroke:#000;stroke-width:6.67px;"/>
            <path d="M1152.9,602.645C1119.73,643.741 1084.07,675.076 1028.59,659.441C1000.02,651.391 963.839,624.263 932.781,631.002C902.927,637.48 891.301,678.479 870.567,696.216C868.019,698.395 847.233,714.214 843.41,711.849C838.809,709.003 852.22,690.46 852.52,687.645C852.947,683.639 827.392,694.606 825.568,694.172C825.309,694.11 839.014,679.131 840.436,677.543C843.117,674.547 842.559,669.629 845.407,665.916C851.293,658.245 859.604,652.51 866.011,645.255C878.328,631.305 898.749,609.179 916.31,602.309C967.642,582.231 982.814,609.201 1018.95,559.25" style="fill:#6f5e4c;stroke:#000;stroke-width:6.67px;"/>
            <path d="M1534.6,565.318C1531.87,551.963 1526.21,539.516 1510.68,538.927C1508.22,538.833 1503.81,538.413 1501.63,539.733C1500.7,540.294 1501.26,542.345 1501.68,543.342C1502.52,545.345 1501.7,544.014 1502.25,546.111C1504.62,555.093 1513.94,565.997 1523.47,568.049C1526.7,568.745 1532.08,570.297 1533.96,566.763" style="stroke:#000;stroke-width:6.67px;"/>
            <path d="M1558.37,595.212C1556.43,591.593 1549.52,591.333 1546.05,591.256C1535.39,591.02 1525.23,594.482 1514.59,593.088" style="fill:none;stroke:#000;stroke-width:2.92px;"/>
            <path d="M1558.05,602.562C1552.15,602.46 1546.35,601.474 1540.46,601.359C1532.53,601.204 1525.25,602.22 1517.56,603.908" style="fill:none;stroke:#000;stroke-width:2.92px;"/>
            <path d="M1554.1,607.845C1547.42,610.676 1539.72,610.261 1532.63,610.822C1527.04,611.266 1521.33,612.837 1515.73,612.849" style="fill:none;stroke:#000;stroke-width:2.92px;"/>
            <path d="M1578.38,599.626C1582.74,599.3 1589.33,597.695 1593.71,599.19" style="fill:none;stroke:#000;stroke-width:2.92px;"/>
            <path d="M1572.1,607.272C1578.6,606.344 1585.95,606.466 1592.44,607.484" style="fill:none;stroke:#000;stroke-width:2.92px;"/>
            <path d="M1566.59,609.891C1575.05,613.462 1583.54,617.775 1592.26,620.618" style="fill:none;stroke:#000;stroke-width:2.92px;"/>
            <path d="M1578.59,596.822C1564.63,590.657 1559.32,597.9 1561.3,610.799" style="fill:#6f5e4c;stroke:#000;stroke-width:6.67px;"/>
            <path d="M1574.49,597.581C1571.69,599.19 1569.52,601.327 1567.41,603.764C1566.18,605.186 1564.09,607.593 1564.09,607.588C1563.19,606.219 1566.43,600.588 1566.91,599.029" style="fill:none;stroke:#000;stroke-width:6.72px;"/>
            <path d="M1365.06,611.482C1379.95,653.134 1386.22,698.272 1417.6,731.562C1430.5,745.248 1463.14,758.782 1459.4,781.644C1457.86,791.081 1454.19,791.986 1450.39,788.052C1448.74,786.339 1447.18,784.489 1445.68,782.63C1445.04,781.838 1443.55,779.25 1443.76,780.252C1444.59,784.036 1455.45,796.455 1449.16,800.573C1443.69,804.147 1443.26,806.812 1438.21,803.422C1435.68,801.726 1433.35,799.61 1431.3,797.31C1431.22,797.215 1431.03,796.898 1431.05,797.024C1431.52,799.51 1434.64,802.777 1435.73,805.191C1439.28,813.046 1431.57,821.313 1417.29,813.886C1405.56,807.785 1408.63,798.195 1399.97,788.146C1391.6,778.431 1380.59,770.932 1373.78,759.813C1364.71,744.997 1361.06,727.211 1351.05,713.021C1336.97,693.05 1318.3,676.593 1300.86,659.913" style="fill:#6f5e4c;stroke:#000;stroke-width:6.67px;"/>
        </g>
        <g opacity="0.04">
            <path d="M1324.54,535.125C1312.92,530.27 1301.92,523.183 1289.97,519.263C1246.51,505.004 1200.99,502.869 1155.95,497.867C1103.69,492.063 1082.77,486.306 1029.13,491.942C999.487,495.057 935.311,510.819 912.09,532.659" style="fill:none;stroke:#fff;stroke-width:20.42px;"/>
            <path d="M931.805,495.314C900.936,479.714 872.84,470.212 834.881,454.193C788.57,434.65 724.28,417.121 676.791,435.059C659.406,441.626 603.512,502.83 595.525,520.07C571.881,571.102 571.403,582.019 563.823,633.446C562.357,643.396 552.441,703.104 566.908,709.63C581.855,716.373 610.59,671.214 620.814,663.276C645.066,644.447 673.174,616.645 699.004,600.227C717.153,588.691 706.94,592.04 738.952,573.663C752.577,565.842 760.335,560.134 775.773,557.506C818.659,550.205 862.571,544.122 913.56,560.169" style="fill:none;stroke:#fff;stroke-width:20.42px;"/>
            <path d="M1019.51,561.186C1010.79,571.068 1004.67,583.236 992.248,589.332C980.085,595.3 966.435,595.407 953.332,597.16C919.274,601.717 890.75,615.405 870.297,643.919" style="fill:none;stroke:#fff;stroke-width:20.42px;"/>
            <path d="M1555.63,581.246C1547.4,565.388 1508.4,516.015 1490.03,512.767C1457.89,507.085 1423.23,523.408 1391.63,527.702" style="fill:none;stroke:#fff;stroke-width:20.42px;"/>
            <path d="M1459.85,500.064C1458.35,495.203 1455.52,492.278 1453.4,487.784C1449.72,479.946 1450.43,492.402 1449.32,498.172" style="fill:none;stroke:#fff;stroke-width:20.42px;"/>
            <path d="M1316.86,538.682C1288.59,508.891 1246.7,515.125 1209.67,512.715C1172.17,510.274 1135.68,509.82 1098.1,509.812C1076.87,509.807 1056.51,506.447 1035.23,509.157C1004.47,513.075 966.581,526.963 935.243,535.367" style="fill:none;stroke:#fff;stroke-width:44.74px;"/>
            <path d="M1324.5,647.101C1262.9,649.309 1202.54,631.712 1142.55,621.142" style="fill:none;stroke:#000;stroke-width:48.17px;"/>
            <path d="M1136.37,594.675C1121.29,615.375 1063.26,649.145 1036.31,646.367C999.292,642.552 968.391,616.882 927.193,623.729" style="fill:none;stroke:#000;stroke-width:22.66px;"/>
            <path d="M1542.03,602.653C1518.57,632.919 1479.03,613.299 1447.9,612.924" style="fill:none;stroke:#000;stroke-width:22.66px;"/>
            <path d="M1130.03,643.882C1124.01,647.069 1117.17,648.762 1111.48,652.545C1100.03,660.151 1092.97,669.02 1078.73,672.701C1070.52,674.821 1046.36,672.27 1037.65,670.851C1021.49,668.216 1005.85,663.829 991.492,655.892C986.102,652.912 974.044,644.913 967.424,647.651C960.875,650.36 954.759,657.889 950.5,663.262C946.817,667.909 942.061,671.526 939.162,676.817C931.574,690.665 929.527,707.532 921.937,721.572" style="fill:none;stroke:#000;stroke-width:19.84px;"/>
            <path d="M1521.06,560.12C1520.52,555.246 1507.77,534.097 1501.48,539.104C1492.71,546.099 1509.58,564.938 1517.75,563.973C1526.43,562.946 1526.12,552.654 1519.74,548.694" style="fill:none;stroke:#000;stroke-width:22.66px;"/>
            <path d="M1304.07,650.321C1344.24,678.353 1363.12,720.575 1390.19,759.347C1401.73,775.871 1417.23,789.419 1427.33,806.978" style="fill:none;stroke:#000;stroke-width:16.23px;"/>
            <path d="M1541.01,728.718C1530.49,722.772 1519.78,725.971 1508.55,726.488C1496.28,727.053 1480.34,725.47 1468.24,723.218C1457.95,721.304 1430.68,711.005 1421.97,705.735C1417.06,702.767 1412.84,699.148 1408.15,695.915C1407.76,695.644 1401.03,690.959 1400.65,692.029C1399.43,695.461 1408.71,701.441 1411.18,703.267" style="fill:none;stroke:#000;stroke-width:16.23px;"/>
            <path d="M1354.5,620.158C1361.82,654.772 1382.24,704.245 1405.36,731.332C1414.55,742.108 1424.95,752.036 1435.55,761.429C1442.94,767.983 1452.51,773.705 1458.29,781.875" style="fill:none;stroke:#fff;stroke-width:16.23px;"/>
            <path d="M1428.06,625.512C1441.16,638.023 1453.13,655.042 1471.77,659.662C1490.73,664.362 1511.38,657.01 1530.79,658.3C1541.24,658.995 1550.66,666.802 1561.12,666.417" style="fill:none;stroke:#fff;stroke-width:16.23px;"/>
        </g>
        <path d="M1510.99,544.835C1511.03,540.48 1504.09,536.246 1501.97,541.477C1499.86,546.702 1506.63,551.101 1510.16,546.575C1511.71,544.573 1509.2,541.073 1506.76,542.047C1504.55,542.931 1505.53,545.265 1507.45,545.656" style="fill:none;stroke:#fff;stroke-opacity:0.22;stroke-width:6.67px;"/>
    </g>
</svg>
