<?xml version="1.0" encoding="UTF-8" standalone="no"?>
<!DOCTYPE svg PUBLIC "-//W3C//DTD SVG 1.1//EN" "http://www.w3.org/Graphics/SVG/1.1/DTD/svg11.dtd">
<svg width="100%" height="100%" viewBox="0 0 2133 1066" version="1.1" xmlns="http://www.w3.org/2000/svg" xmlns:xlink="http://www.w3.org/1999/xlink" xml:space="preserve" xmlns:serif="http://www.serif.com/" style="fill-rule:evenodd;clip-rule:evenodd;stroke-linejoin:round;stroke-miterlimit:2;">
    <g id="running2" transform="matrix(1.07732,0,0,1.07732,488.047,-90.8161)">
        <g>
            <g transform="matrix(0.736627,0.391735,-0.607219,1.14183,460.736,-280.564)">
                <path d="M467.489,542.865C347.809,518.023 180.016,462.259 75.352,527.147C41.989,547.831 9.956,598.12 5.613,646.778C4.766,656.271 26.952,717.009 41.251,724.041C71.843,739.083 123.946,669.589 150.385,652.524C164.93,643.136 177.226,635.175 192.362,627.174C208.012,618.901 226.464,611.951 243.063,605.539C299.216,583.847 361.353,591.572 420.098,593.577" style="fill:rgb(168,141,110);stroke:black;stroke-width:5.69px;stroke-linecap:round;stroke-miterlimit:1.5;"/>
            </g>
            <g transform="matrix(0.999383,-0.0351152,0.0351152,0.999383,-20.0847,22.4297)">
                <path d="M838.626,564.285C811.618,551.816 788.382,533.187 759.983,523.222C711.94,506.364 589.717,496.817 537.905,503.994C521.07,506.326 481.972,507.959 465.166,509.844C437.895,512.903 401.269,522.187 411.401,569.807C419.931,609.896 457.992,615.172 486.223,616.234C536.438,618.123 582.918,631.109 631.146,643.63C641.563,646.335 650.698,652.283 661.301,654.585C687.478,660.267 714.393,660.914 741.014,662.404C759.544,663.44 780.132,666.768 798.316,661.671C810.248,658.326 820.045,650.901 830.872,645.171C859.779,629.875 874.491,624.118 859.246,586.054C855.207,575.968 846.324,562.588 835.593,558.747" style="fill:rgb(111,94,76);stroke:black;stroke-width:6.19px;stroke-linecap:round;stroke-miterlimit:1.5;"/>
            </g>
            <g transform="matrix(0.989968,-0.141291,0.141291,0.989968,-71.8765,122.078)">
                <path d="M780.855,541.251C797.303,537.924 814.314,537.894 830.502,534.711C872.596,526.434 914.732,508.897 957.596,525.294C961.836,526.916 1012.84,595.081 1012.84,595.302C1013.03,603.447 998.993,617.048 992.726,621.503C953.264,649.552 883.961,619.159 837.465,632.442" style="fill:rgb(111,94,76);stroke:black;stroke-width:6.19px;stroke-linecap:round;stroke-miterlimit:1.5;"/>
            </g>
            <g transform="matrix(0.788047,-0.112472,0.180094,1.26185,84.8118,-66.0179)">
                <path d="M929.347,541.347C920.521,501.866 881.324,501.133 888.215,541.05" style="fill:rgb(111,94,76);stroke:black;stroke-width:5.82px;stroke-linecap:round;stroke-miterlimit:1.5;"/>
            </g>
            <g transform="matrix(0.989968,-0.141291,0.141291,0.989968,-71.8765,122.078)">
                <path d="M969.253,572.877C966.722,560.48 961.467,548.927 947.053,548.38C944.767,548.293 940.673,547.903 938.651,549.128C937.793,549.648 938.309,551.552 938.696,552.478C939.474,554.337 938.715,553.102 939.228,555.048C941.426,563.386 950.077,573.507 958.922,575.411C961.924,576.058 966.917,577.498 968.659,574.218" style="stroke:black;stroke-width:6.19px;stroke-linecap:round;stroke-miterlimit:1.5;"/>
            </g>
            <g transform="matrix(0.918917,-0.13115,0.13115,0.918917,-27.9479,159.426)">
                <path d="M1026.8,600.546C1024.87,596.927 1017.95,596.667 1014.48,596.59C1003.82,596.354 993.662,599.817 983.018,598.422" style="fill:none;stroke:black;stroke-width:2.92px;stroke-linecap:round;stroke-miterlimit:1.5;"/>
            </g>
            <g transform="matrix(0.918917,-0.13115,0.13115,0.918917,-27.9479,159.426)">
                <path d="M1026.48,607.896C1020.59,607.794 1014.78,606.809 1008.89,606.693C1000.97,606.538 993.679,607.554 985.993,609.242" style="fill:none;stroke:black;stroke-width:2.92px;stroke-linecap:round;stroke-miterlimit:1.5;"/>
            </g>
            <g transform="matrix(0.918917,-0.13115,0.13115,0.918917,-27.9479,159.426)">
                <path d="M1022.54,613.179C1015.85,616.011 1008.15,615.595 1001.07,616.157C995.473,616.6 989.764,618.171 984.166,618.184" style="fill:none;stroke:black;stroke-width:2.92px;stroke-linecap:round;stroke-miterlimit:1.5;"/>
            </g>
            <g transform="matrix(0.918917,-0.13115,0.13115,0.918917,-27.9479,159.426)">
                <path d="M1046.81,604.96C1051.17,604.634 1057.77,603.029 1062.15,604.524" style="fill:none;stroke:black;stroke-width:2.92px;stroke-linecap:round;stroke-miterlimit:1.5;"/>
            </g>
            <g transform="matrix(0.918917,-0.13115,0.13115,0.918917,-27.9479,159.426)">
                <path d="M1040.53,612.606C1047.04,611.678 1054.38,611.8 1060.87,612.819" style="fill:none;stroke:black;stroke-width:2.92px;stroke-linecap:round;stroke-miterlimit:1.5;"/>
            </g>
            <g transform="matrix(0.918917,-0.13115,0.13115,0.918917,-27.9479,159.426)">
                <path d="M1035.02,615.225C1043.49,618.796 1051.97,623.109 1060.69,625.952" style="fill:none;stroke:black;stroke-width:2.92px;stroke-linecap:round;stroke-miterlimit:1.5;"/>
            </g>
            <g transform="matrix(0.989968,-0.141291,0.141291,0.989968,-71.8765,122.078)">
                <path d="M1010.09,602.119C997.131,596.397 992.202,603.12 994.039,615.094" style="fill:rgb(111,94,76);stroke:black;stroke-width:6.19px;stroke-linecap:round;stroke-miterlimit:1.5;"/>
            </g>
            <g transform="matrix(0.918917,-0.13115,0.13115,0.918917,-27.9479,159.426)">
                <path d="M1042.93,602.916C1040.13,604.524 1037.95,606.661 1035.85,609.098C1034.62,610.521 1032.53,612.927 1032.52,612.922C1031.63,611.553 1034.86,605.922 1035.34,604.363" style="fill:none;stroke:black;stroke-width:6.72px;stroke-linecap:round;stroke-miterlimit:1.5;"/>
            </g>
            <g transform="matrix(0.928229,0,0,0.928229,41.8818,83.9887)">
                <path d="M874.711,620.572C879.18,637.772 872.034,651.446 867.328,667.779C856.584,705.065 836.049,744.837 804.996,769.396C799.128,774.037 792.14,782.702 785.286,785.735C784.254,786.192 785.722,783.517 786.054,782.44C786.85,779.866 787.658,777.293 788.472,774.725C788.848,773.539 790.933,771.343 789.697,771.199C786.853,770.867 782.074,774.524 779.351,775.772C777.955,776.411 775.412,779.52 775.312,777.987C774.988,773.034 781.281,768.278 781.143,763.916C781.106,762.752 770,767.733 769.425,767.374C768.092,766.542 772.147,756.345 772.597,755.1C776.996,742.929 783.87,732.034 789.104,720.221C792.754,711.982 788.983,701.733 790.696,693.01C794.294,674.683 801.918,657.004 805.861,638.59" style="fill:rgb(111,94,76);stroke:black;stroke-width:6.67px;stroke-linecap:round;stroke-miterlimit:1.5;"/>
            </g>
            <g transform="matrix(0.928229,0,0,0.928229,38.2108,43.1806)">
                <path d="M900.888,616.54C918.098,647.267 881.404,658.404 864.44,674.984C849.494,689.591 841.659,706.879 829.61,723.184C822.297,733.08 812.112,739.992 803.997,749.127C794.808,759.47 787.105,771.003 777.335,780.859C766.003,792.291 755.7,805.773 743.773,816.388C741.033,818.826 733.306,824.94 729.185,823.037C720.127,818.854 730.418,806.77 731.803,802.24C732.408,800.26 728.347,804.521 726.599,805.63C723.14,807.824 716.855,811.362 712.507,810.077C705.366,807.968 718.454,796.791 719.568,794.773C720.46,793.158 716.45,796.771 714.758,797.506C711.38,798.974 703.223,801.89 701.586,796.291C697.862,783.557 717.837,769.743 724.115,761.053C729.591,753.471 732.776,744.306 739.594,737.62C746.752,730.601 756.697,726.392 762.247,717.759C768.551,707.954 767.946,695.944 773.499,685.892C788.257,659.176 802.779,650.512 776.375,627.266" style="fill:rgb(111,94,76);stroke:black;stroke-width:6.67px;stroke-linecap:round;stroke-miterlimit:1.5;"/>
            </g>
            <g transform="matrix(0.927088,-0.0460112,0.0460112,0.927088,28.6941,111.38)">
                <path d="M398.147,574.464C390.605,584.775 373.741,597.816 372.306,611.374C370.929,624.386 382.346,637.239 389.144,647.112C409.622,676.85 439.788,699.417 466.163,723.735C481.215,737.614 494.748,752.633 509.692,766.567C514.229,770.798 522.8,778.828 522.807,778.822C524.538,777.36 522.277,769.824 523.426,769.176C525.988,767.73 533.497,773.188 535.515,771.663C536.594,770.848 536.321,763.259 536.815,763.149C538.883,762.689 547.182,765.527 547.618,763.294C550.966,746.162 519.214,721.245 510.948,706.424C503.93,693.84 510.392,678.506 504.605,665.992" style="fill:rgb(111,94,76);stroke:black;stroke-width:6.67px;stroke-linecap:round;stroke-miterlimit:1.5;"/>
            </g>
            <g transform="matrix(0.928229,0,0,0.928229,38.2108,43.1806)">
                <path d="M538.865,574.509C578.607,596.672 554.834,625.779 532.141,651.771C525.483,659.397 512.021,671.387 514.6,683.068C517.081,694.305 532.698,702.087 541.933,706.378C566.999,718.025 586.983,731.131 606.452,751.227C613.043,758.03 626.92,770.682 625.111,781.954C624.165,787.847 608.192,775.537 606.678,774.976C604.962,774.34 607.848,778.444 608.35,780.204C608.712,781.475 612.037,790.534 610.857,791.751C607.23,795.493 599.619,792.341 596.1,790.258C594.217,789.143 591.296,784.439 590.687,786.542C589.955,789.064 594.571,800.37 591.34,801.513C577.854,806.284 546.047,762.716 532.064,755.995C521.838,751.079 510.444,750.296 500.123,746.089C464.392,731.527 399.964,696.044 395.108,653.703C393.338,638.273 398.793,626.012 404.612,612.234C408.889,602.103 412.896,591.007 420.156,582.533" style="fill:rgb(111,94,76);stroke:black;stroke-width:6.67px;stroke-linecap:round;stroke-miterlimit:1.5;"/>
            </g>
        </g>
        <g opacity="0.05">
            <g transform="matrix(0.926918,-0.049327,0.049327,0.926918,13.2016,73.2357)">
                <path d="M801.625,545.585C790.013,540.73 779.011,533.643 767.061,529.723C723.597,515.464 678.077,513.329 633.039,508.327C580.779,502.523 559.86,496.766 506.222,502.402C476.575,505.517 412.399,521.279 389.179,543.119" style="fill:none;stroke:white;stroke-width:20.42px;stroke-linecap:round;stroke-miterlimit:1.5;"/>
            </g>
            <g transform="matrix(0.919187,0.129248,-0.128523,0.914032,120.719,-3.71896)">
                <path d="M430.255,501.794C395.111,475.642 360.173,446.191 337.974,431.223C274.805,388.63 193.096,358.485 145.608,376.423C128.223,382.99 76.001,444.499 60.643,455.684C32.256,476.357 14.789,550.6 18.544,603.51C19.258,613.565 48.441,605.522 61.658,596.714C94.279,574.974 123.581,557.078 133.805,549.14C158.057,530.311 161.543,531.432 209.706,521.9C230.773,517.73 235.273,514.999 267.184,512.572C282.843,511.381 291.086,510.532 325.693,525.184C365.781,542.157 343.622,522.995 386.49,551.388" style="fill:none;stroke:white;stroke-width:20.47px;stroke-linecap:round;stroke-miterlimit:1.5;"/>
            </g>
            <g transform="matrix(0.928229,0,0,0.928229,43.1182,24.8445)">
                <path d="M1032.72,591.706C1024.49,575.848 985.489,526.475 967.118,523.227C934.978,517.545 900.32,533.868 868.715,538.162" style="fill:none;stroke:white;stroke-width:20.42px;stroke-linecap:round;stroke-miterlimit:1.5;"/>
            </g>
            <g transform="matrix(0.928229,0,0,0.928229,30.0077,31.0755)">
                <path d="M936.933,510.524C935.439,505.663 932.608,502.738 930.494,498.244C926.805,490.406 927.517,502.862 926.404,508.632" style="fill:none;stroke:white;stroke-width:20.42px;stroke-linecap:round;stroke-miterlimit:1.5;"/>
            </g>
            <g transform="matrix(0.927746,-0.0299623,0.0299623,0.927746,24.2803,70.8827)">
                <path d="M793.946,549.142C765.68,519.351 723.785,525.585 686.76,523.175C649.259,520.734 612.765,520.28 575.193,520.272C553.961,520.267 533.602,516.907 512.32,519.617C481.558,523.535 443.669,537.423 412.331,545.827" style="fill:none;stroke:white;stroke-width:44.74px;stroke-linecap:round;stroke-miterlimit:1.5;"/>
            </g>
            <g transform="matrix(0.928229,0,0,0.928229,4.24453,26.9996)">
                <path d="M801.586,657.561C739.984,659.769 679.628,642.172 619.64,631.602" style="fill:none;stroke:black;stroke-width:44.74px;stroke-linecap:round;stroke-miterlimit:1.5;"/>
            </g>
            <g transform="matrix(0.928229,0,0,1.04733,31.9182,-43.7273)">
                <path d="M998.144,570.58C997.607,565.706 984.853,544.557 978.571,549.564C969.795,556.559 986.673,575.398 994.836,574.433C1003.52,573.406 1003.21,563.114 996.832,559.154" style="fill:none;stroke:black;stroke-width:21.25px;stroke-linecap:round;stroke-miterlimit:1.5;"/>
            </g>
            <g transform="matrix(0.928229,0,0,0.928229,38.2108,43.1806)">
                <path d="M1031.43,586.302C1016.34,595.31 1001.37,598.607 984.167,602.342C971.917,605.001 960.398,608.287 947.763,608.839C932.77,609.494 917.632,608.337 902.601,608.601" style="fill:none;stroke:black;stroke-width:25.6px;stroke-linecap:round;stroke-miterlimit:1.5;"/>
            </g>
            <g transform="matrix(0.928229,0,0,0.928229,38.2108,43.1806)">
                <path d="M803.667,651.654C797.885,671.312 788.733,688.306 779.762,706.522C775.106,715.976 772.046,726.791 765.573,735.281C759.969,742.631 750.702,746.07 744.081,752.455C736.226,760.029 731.108,769.991 723.606,777.939" style="fill:none;stroke:black;stroke-width:25.6px;stroke-linecap:round;stroke-miterlimit:1.5;"/>
            </g>
            <g transform="matrix(0.928229,0,0,0.928229,38.2108,43.1806)">
                <path d="M427.06,593.794C410.047,612.215 396.924,660.472 416.896,679.944C439.191,701.682 493.685,724.615 523.336,739.593C529.193,742.552 535.703,744.142 541.244,747.739C554.843,756.566 564.301,770.149 574.083,782.749" style="fill:none;stroke:black;stroke-width:25.6px;stroke-linecap:round;stroke-miterlimit:1.5;"/>
            </g>
            <g transform="matrix(0.928229,0,0,0.928229,41.8818,83.9887)">
                <path d="M547.348,761.405C537.514,750.917 523.774,742.519 512.319,733.798C501.575,725.619 491.979,716.262 481.063,708.294" style="fill:none;stroke:black;stroke-width:36.11px;stroke-linecap:round;stroke-miterlimit:1.5;"/>
            </g>
            <g transform="matrix(0.928229,0,0,0.928229,41.8818,83.9887)">
                <path d="M473.71,707.695C461.073,697.868 449.934,686.478 437.882,675.998C433.881,672.519 429.697,669.272 425.67,665.826C424.451,664.784 423.255,663.694 422.109,662.573C421.38,661.86 419.136,659.781 419.869,660.49C440.818,680.732 467.935,688.614 489.847,706.555" style="fill:none;stroke:black;stroke-width:2.51px;stroke-linecap:round;stroke-miterlimit:1.5;"/>
            </g>
            <g transform="matrix(0.928229,0,0,0.928229,41.8818,83.9887)">
                <path d="M491.121,706.219C479.671,696.113 461.015,685.242 445.737,681.234" style="fill:none;stroke:black;stroke-width:2.51px;stroke-linecap:round;stroke-miterlimit:1.5;"/>
            </g>
            <g transform="matrix(0.928229,0,0,0.928229,41.8818,83.9887)">
                <path d="M485.328,709.182C473.642,696.876 458.685,687.82 443.945,679.7" style="fill:none;stroke:black;stroke-width:2.51px;stroke-linecap:round;stroke-miterlimit:1.5;"/>
            </g>
            <g transform="matrix(0.928229,0,0,0.928229,41.8818,83.9887)">
                <path d="M868.535,632.373C870.417,653.53 859.92,671.174 851.833,689.578C844.267,706.793 838.427,724.415 825.56,738.629C816.072,749.11 803.41,756.374 794.385,767.16" style="fill:none;stroke:black;stroke-width:20.8px;stroke-linecap:round;stroke-miterlimit:1.5;"/>
            </g>
            <g transform="matrix(0.928229,0,0,0.928229,41.8818,83.9887)">
                <path d="M864.471,631.748C861.77,637.919 861.761,644.881 858.965,651.024C854.039,661.848 846.453,671.218 840.805,681.673C836.944,688.819 834.537,696.549 830.39,703.589C821.363,718.908 809.423,733.728 798.406,747.66C795.108,751.832 792.845,757.072 789.24,760.955" style="fill:none;stroke:black;stroke-width:20.8px;stroke-linecap:round;stroke-miterlimit:1.5;"/>
            </g>
            <g transform="matrix(0.928229,0,0,0.928229,38.2108,43.1806)">
                <path d="M530.921,584.999C546.806,588.865 548.428,605.725 542.825,619.228C533.718,641.175 496.847,656.568 501.951,684.657C504.374,697.993 520.987,708.251 531.021,715.226C546.309,725.855 560.265,738.352 575.691,748.706C584.31,754.491 594.777,757.21 602.504,764.261" style="fill:none;stroke:white;stroke-width:25.6px;stroke-linecap:round;stroke-miterlimit:1.5;"/>
            </g>
            <g transform="matrix(0.928229,0,0,0.928229,38.2108,43.1806)">
                <path d="M894.846,623.665C894.678,652.065 861.828,647.737 846.04,664.723C833.85,677.838 830.685,694.71 821.87,709.619C815.23,720.851 805.385,729.535 798.114,740.261C783.309,762.102 771.824,785.335 748.981,799.881" style="fill:none;stroke:white;stroke-width:25.6px;stroke-linecap:round;stroke-miterlimit:1.5;"/>
            </g>
        </g>
        <g transform="matrix(0.732437,-0.104535,0.104535,0.732437,414.346,286.275)">
            <path d="M672.059,442.48C672.112,437.016 663.4,431.705 660.744,438.266C658.089,444.822 666.596,450.341 671.015,444.663C672.97,442.152 669.814,437.76 666.753,438.982C663.975,440.091 665.213,443.019 667.622,443.509" style="fill:none;stroke:white;stroke-opacity:0.22;stroke-width:8.36px;stroke-linecap:round;stroke-miterlimit:1.5;"/>
        </g>
    </g>
</svg>
