<?xml version="1.0" encoding="UTF-8" standalone="no"?>
<!DOCTYPE svg PUBLIC "-//W3C//DTD SVG 1.1//EN" "http://www.w3.org/Graphics/SVG/1.1/DTD/svg11.dtd">
<svg width="100%" height="100%" viewBox="0 0 2133 1066" version="1.1" xmlns="http://www.w3.org/2000/svg" xmlns:xlink="http://www.w3.org/1999/xlink" xml:space="preserve" xmlns:serif="http://www.serif.com/" style="fill-rule:evenodd;clip-rule:evenodd;stroke-linecap:round;stroke-linejoin:round;stroke-miterlimit:1.5;">
    <g id="running1" transform="matrix(1.07462,0.0762061,-0.0762061,1.07462,532.075,-126.661)">
        <g transform="matrix(1,0,0,1,6.32947,4.11286)">
            <g transform="matrix(0.811113,0.195375,-0.302846,1.25729,259.208,-245.89)">
                <path d="M467.489,542.865C347.809,518.023 180.016,462.259 75.352,527.147C41.989,547.831 9.956,598.12 5.613,646.778C4.766,656.271 11.616,727.468 25.915,734.5C56.507,749.542 123.946,669.589 150.385,652.524C164.93,643.136 177.226,635.175 192.362,627.174C208.012,618.901 226.464,611.951 243.063,605.539C299.216,583.847 361.353,591.572 420.098,593.577" style="fill:rgb(168,141,110);stroke:black;stroke-width:5.69px;"/>
            </g>
            <g transform="matrix(0.908897,-0.188456,0.188456,0.908897,-544.66,329.132)">
                <path d="M1428.98,613.067C1438.45,663.074 1468.19,685.358 1499.45,721.059C1507.51,730.259 1535.11,750.592 1533.49,763.556C1533.33,764.887 1521.06,757.303 1519.68,757.475C1514.83,758.082 1518.79,775.006 1517.2,775.853C1507.82,780.88 1498.97,758.342 1494.24,757.266C1492.8,756.94 1494.35,760.211 1494.37,761.685C1494.39,763.85 1493.89,773.831 1491.11,773.763C1478.44,773.459 1461.54,763.228 1450.4,757.167C1437.73,750.278 1423.97,744.114 1413.62,733.81C1384.91,705.214 1369.28,655.976 1364.09,616.519" style="fill:rgb(111,94,76);stroke:black;stroke-width:6.67px;"/>
            </g>
            <path d="M838.626,564.285C811.618,551.816 788.382,533.187 759.983,523.222C711.94,506.364 589.717,496.817 537.905,503.994C521.07,506.326 481.972,507.959 465.166,509.844C437.895,512.903 400.282,525.022 410.415,572.642C418.945,612.731 457.992,615.172 486.223,616.234C536.438,618.123 582.918,631.109 631.146,643.63C641.563,646.335 650.698,652.283 661.301,654.585C687.478,660.267 714.393,660.914 741.014,662.404C759.544,663.44 780.132,666.768 798.316,661.671C810.248,658.326 820.045,650.901 830.872,645.171C859.779,629.875 874.491,624.118 859.246,586.054C855.207,575.968 846.324,562.588 835.593,558.747" style="fill:rgb(111,94,76);stroke:black;stroke-width:6.19px;"/>
            <path d="M780.855,541.251C797.303,537.924 814.314,537.894 830.502,534.711C872.596,526.434 914.732,508.897 957.596,525.294C961.836,526.916 1012.84,595.081 1012.84,595.302C1013.03,603.447 998.993,617.048 992.726,621.503C953.264,649.552 883.961,619.159 837.465,632.442" style="fill:rgb(111,94,76);stroke:black;stroke-width:6.19px;"/>
            <g transform="matrix(0.906574,0.422047,-0.422047,0.906574,312.393,-271.87)">
                <path d="M867.647,584.381C881.015,615.522 923.249,660.619 957.432,664.968C980.315,667.878 1007.6,654.215 1020.28,681.705C1024.44,690.742 1002.54,686.814 998.879,684.462C996.915,683.202 993.302,677.698 993.464,680.026C993.837,685.37 1005.88,693.88 1003.34,699.044C997.798,710.331 983.994,694.843 979.9,697.442C978.458,698.358 988.578,708.106 983.571,710.956C970.847,718.201 958.223,708.493 945.812,705.684C917.672,699.315 885.489,708.148 859.275,696.114C829.856,682.608 806.881,656.282 777.718,643.722" style="fill:rgb(111,94,76);stroke:black;stroke-width:6.19px;"/>
            </g>
            <g transform="matrix(0.796033,0,0,1.27464,181.693,-164.07)">
                <path d="M929.347,541.347C920.521,501.866 881.324,501.133 888.215,541.05" style="fill:rgb(111,94,76);stroke:black;stroke-width:5.82px;"/>
            </g>
            <g transform="matrix(0.91707,-0.1435,0.1435,0.91707,-51.2865,124.72)">
                <path d="M619.872,620.112C615.427,622.708 604.121,643.214 599.85,646.134C592.709,651.015 584.751,654.298 577.402,658.81C569.892,663.422 563.728,668.577 555.357,671.85C542.723,676.791 527.319,677.225 513.82,677.198C498.81,677.168 481.052,673.62 466.647,669.266C453.577,665.316 443.872,659.023 430.298,664.806C422.964,667.931 423.607,674.953 420.452,680.919C417.352,686.781 415.661,693.159 412.754,699.102C408.368,708.068 402.891,716.432 398.088,725.18C396.037,728.914 394.259,732.745 392.991,736.813C392.762,737.551 392.221,740.73 391.492,741.068C387.789,742.784 385.678,734.542 384.806,732.837C384.673,732.578 381.02,735.843 380.71,736.163C380.335,736.55 379.681,737.864 379.595,737.333C379.245,735.158 379.671,732.599 380.262,730.486C380.343,730.194 381.488,727.048 381.265,726.941C378.134,725.43 372.12,730.895 371.336,729.864C366.495,723.506 375.31,709.859 377.946,703.743C381.629,695.198 384.554,686.337 390.192,678.782C396.328,670.562 404.793,664.421 411.232,656.388C417.067,649.108 419.278,639.828 428.598,636.076" style="fill:rgb(111,94,76);stroke:black;stroke-width:6.67px;"/>
            </g>
            <g transform="matrix(0.991768,-0.128051,0.128051,0.991768,-85.5479,72.6167)">
                <path d="M614.952,607.524C584.161,645.671 551.063,674.757 499.563,660.245C473.048,652.773 439.458,627.591 410.63,633.847C382.918,639.86 372.127,677.916 352.88,694.38C350.516,696.403 331.221,711.086 327.672,708.891C323.402,706.249 335.85,689.038 336.129,686.424C336.525,682.706 312.804,692.885 311.111,692.483C310.871,692.426 323.592,678.521 324.912,677.047C327.401,674.267 326.882,669.701 329.527,666.255C334.99,659.134 342.704,653.811 348.651,647.076C360.085,634.128 379.04,613.589 395.341,607.213C442.988,588.576 457.072,613.61 490.615,567.244" style="fill:rgb(111,94,76);stroke:black;stroke-width:6.19px;"/>
            </g>
            <path d="M969.253,572.877C966.722,560.48 961.467,548.927 947.053,548.38C944.767,548.293 940.673,547.903 938.651,549.128C937.793,549.648 938.309,551.552 938.696,552.478C939.474,554.337 938.715,553.102 939.228,555.048C941.426,563.386 950.077,573.507 958.922,575.411C961.924,576.058 966.917,577.498 968.659,574.218" style="stroke:black;stroke-width:6.19px;"/>
            <g transform="matrix(0.928229,0,0,0.928229,38.2108,43.1806)">
                <path d="M1026.8,600.546C1024.87,596.927 1017.95,596.667 1014.48,596.59C1003.82,596.354 993.662,599.817 983.018,598.422" style="fill:none;stroke:black;stroke-width:2.92px;"/>
            </g>
            <g transform="matrix(0.928229,0,0,0.928229,38.2108,43.1806)">
                <path d="M1026.48,607.896C1020.59,607.794 1014.78,606.809 1008.89,606.693C1000.97,606.538 993.679,607.554 985.993,609.242" style="fill:none;stroke:black;stroke-width:2.92px;"/>
            </g>
            <g transform="matrix(0.928229,0,0,0.928229,38.2108,43.1806)">
                <path d="M1022.54,613.179C1015.85,616.011 1008.15,615.595 1001.07,616.157C995.473,616.6 989.764,618.171 984.166,618.184" style="fill:none;stroke:black;stroke-width:2.92px;"/>
            </g>
            <g transform="matrix(0.928229,0,0,0.928229,38.2108,43.1806)">
                <path d="M1046.81,604.96C1051.17,604.634 1057.77,603.029 1062.15,604.524" style="fill:none;stroke:black;stroke-width:2.92px;"/>
            </g>
            <g transform="matrix(0.928229,0,0,0.928229,38.2108,43.1806)">
                <path d="M1040.53,612.606C1047.04,611.678 1054.38,611.8 1060.87,612.819" style="fill:none;stroke:black;stroke-width:2.92px;"/>
            </g>
            <g transform="matrix(0.928229,0,0,0.928229,38.2108,43.1806)">
                <path d="M1035.02,615.225C1043.49,618.796 1051.97,623.109 1060.69,625.952" style="fill:none;stroke:black;stroke-width:2.92px;"/>
            </g>
            <path d="M1010.09,602.119C997.131,596.397 992.202,603.12 994.039,615.094" style="fill:rgb(111,94,76);stroke:black;stroke-width:6.19px;"/>
            <g transform="matrix(0.928229,0,0,0.928229,38.2108,43.1806)">
                <path d="M1042.93,602.916C1040.13,604.524 1037.95,606.661 1035.85,609.098C1034.62,610.521 1032.53,612.927 1032.52,612.922C1031.63,611.553 1034.86,605.922 1035.34,604.363" style="fill:none;stroke:black;stroke-width:6.72px;"/>
            </g>
        </g>
        <g opacity="0.04">
            <g transform="matrix(0.928229,0,0,0.928229,38.2108,43.1806)">
                <path d="M801.625,545.585C790.013,540.73 779.011,533.643 767.061,529.723C723.597,515.464 678.077,513.329 633.039,508.327C580.779,502.523 559.86,496.766 506.222,502.402C476.575,505.517 412.399,521.279 389.179,543.119" style="fill:none;stroke:white;stroke-width:20.42px;"/>
            </g>
            <g transform="matrix(0.928229,0,0,0.928229,38.2108,43.1806)">
                <path d="M408.893,505.774C378.024,490.174 349.928,480.672 311.97,464.654C265.659,445.11 201.368,427.581 153.88,445.519C136.495,452.086 80.601,513.29 72.613,530.53C48.969,581.562 48.491,592.479 40.911,643.906C39.445,653.856 29.53,713.564 43.996,720.09C58.943,726.833 87.678,681.674 97.902,673.736C122.155,654.907 150.263,627.105 176.092,610.687C194.242,599.151 184.029,602.5 216.041,584.123C229.665,576.302 237.424,570.594 252.862,567.966C295.748,560.665 339.659,554.582 390.648,570.629" style="fill:none;stroke:white;stroke-width:20.42px;"/>
            </g>
            <g transform="matrix(0.91445,-0.159346,0.159346,0.91445,-64.2927,139.365)">
                <path d="M496.597,571.646C487.88,581.528 481.757,593.696 469.336,599.792C457.173,605.76 443.524,605.868 430.42,607.62C396.363,612.177 367.838,625.865 347.385,654.379" style="fill:none;stroke:white;stroke-width:20.42px;"/>
            </g>
            <g transform="matrix(0.928229,0,0,0.928229,38.2108,43.1806)">
                <path d="M1032.72,591.706C1024.49,575.848 985.489,526.475 967.118,523.227C934.978,517.545 900.32,533.868 868.715,538.162" style="fill:none;stroke:white;stroke-width:20.42px;"/>
            </g>
            <g transform="matrix(0.928229,0,0,0.928229,38.2108,43.1806)">
                <path d="M936.933,510.524C935.439,505.663 932.608,502.738 930.494,498.244C926.805,490.406 927.517,502.862 926.404,508.632" style="fill:none;stroke:white;stroke-width:20.42px;"/>
            </g>
            <g transform="matrix(0.928229,0,0,0.928229,38.2108,43.1806)">
                <path d="M793.946,549.142C765.68,519.351 723.785,525.585 686.76,523.175C649.259,520.734 612.765,520.28 575.193,520.272C553.961,520.267 533.602,516.907 512.32,519.617C481.558,523.535 443.669,537.423 412.331,545.827" style="fill:none;stroke:white;stroke-width:44.74px;"/>
            </g>
            <g transform="matrix(0.928229,0,0,0.928229,38.2108,43.1806)">
                <path d="M801.586,657.561C739.984,659.769 679.628,642.172 619.64,631.602" style="fill:none;stroke:black;stroke-width:44.74px;"/>
            </g>
            <g transform="matrix(0.917933,-0.13787,0.13787,0.917933,-44.6139,120.561)">
                <path d="M613.462,605.135C598.377,625.835 540.352,659.605 513.403,656.828C476.38,653.012 445.479,627.342 404.282,634.189" style="fill:none;stroke:black;stroke-width:22.66px;"/>
            </g>
            <g transform="matrix(0.928229,0,0,0.928229,38.2108,43.1806)">
                <path d="M1019.12,613.113C995.659,643.379 956.116,623.759 924.989,623.384" style="fill:none;stroke:black;stroke-width:22.66px;"/>
            </g>
            <g transform="matrix(0.895369,-0.244792,0.244792,0.895369,-103.284,195.664)">
                <path d="M596.865,644.215C590.842,647.402 584.005,649.096 578.311,652.878C566.862,660.485 559.807,669.353 545.56,673.034C537.355,675.154 513.189,672.604 504.484,671.184C488.321,668.549 472.684,664.162 458.326,656.225C452.936,653.246 440.877,645.246 434.257,647.984C427.708,650.693 421.593,658.223 417.334,663.595C413.65,668.243 408.894,671.86 405.996,677.15C398.408,690.999 396.36,707.865 388.77,721.905" style="fill:none;stroke:black;stroke-width:19.84px;"/>
            </g>
            <g transform="matrix(0.928229,0,0,0.928229,38.2108,43.1806)">
                <path d="M998.144,570.58C997.607,565.706 984.853,544.557 978.571,549.564C969.795,556.559 986.673,575.398 994.836,574.433C1003.52,573.406 1003.21,563.114 996.832,559.154" style="fill:none;stroke:black;stroke-width:22.66px;"/>
            </g>
            <g transform="matrix(0.925904,-0.0656599,0.0656599,0.925904,-481.209,149.832)">
                <path d="M1312.02,644.217C1322.22,665.823 1330.95,686.694 1345.11,706.222C1349.4,712.138 1353.21,719.003 1358.88,723.749C1376.42,738.428 1398.86,743.26 1417.68,755.342C1427.8,761.832 1436.16,771.788 1442.82,781.675" style="fill:none;stroke:black;stroke-width:32.5px;"/>
            </g>
            <g transform="matrix(0.925904,-0.0656599,0.0656599,0.925904,-484.334,152.212)">
                <path d="M1418.98,658.931C1424.95,694.029 1456.27,732.968 1489.94,745.186" style="fill:none;stroke:black;stroke-width:32.5px;"/>
            </g>
            <g transform="matrix(0.925904,-0.0656599,0.0656599,0.925904,-484.334,152.212)">
                <path d="M1394.97,618.721C1395.17,653.815 1401.95,676.36 1416.36,701.462C1422.38,711.948 1435.7,731.455 1444.04,740.27C1453.34,750.092 1455.19,751.249 1474.47,761.228" style="fill:none;stroke:white;stroke-width:14.94px;"/>
            </g>
            <g transform="matrix(0.925904,-0.0656599,0.0656599,0.925904,-484.334,152.212)">
                <path d="M1425.53,624.012C1438.63,655.911 1472.37,687.823 1499.98,708.215C1511.08,716.408 1523.35,722.95 1534.45,731.138" style="fill:none;stroke:white;stroke-width:14.94px;"/>
            </g>
        </g>
        <g transform="matrix(0.739859,0,0,0.739859,458.145,231.249)">
            <path d="M672.059,442.48C672.112,437.016 663.4,431.705 660.744,438.266C658.089,444.822 666.596,450.341 671.015,444.663C672.97,442.152 669.814,437.76 666.753,438.982C663.975,440.091 665.213,443.019 667.622,443.509" style="fill:none;stroke:white;stroke-opacity:0.22;stroke-width:8.36px;"/>
        </g>
    </g>
</svg>
