<?xml version="1.0" encoding="UTF-8" standalone="no"?>
<!DOCTYPE svg PUBLIC "-//W3C//DTD SVG 1.1//EN" "http://www.w3.org/Graphics/SVG/1.1/DTD/svg11.dtd">
<svg width="100%" height="100%" viewBox="0 0 1067 1067" version="1.1" xmlns="http://www.w3.org/2000/svg" xmlns:xlink="http://www.w3.org/1999/xlink" xml:space="preserve" xmlns:serif="http://www.serif.com/" style="fill-rule:evenodd;clip-rule:evenodd;stroke-linejoin:round;stroke-miterlimit:2;">
    <g id="Running1">
        <g>
            <path d="M467.106,472.337C388.381,391.271 291.702,251.862 166.195,287.511C126.188,298.875 67.869,347.217 32.592,405.24C25.71,416.559 3.583,500.637 10.331,515.321C24.768,546.736 111.577,483.239 143.721,473.405C161.406,467.995 176.372,463.391 193.617,459.936C211.449,456.364 230.638,455.602 248.006,454.72C306.758,451.735 351.016,487.46 396.323,514.719" style="fill:rgb(168,141,110);stroke:black;stroke-width:6.67px;stroke-linecap:round;stroke-miterlimit:1.5;"/>
            <path d="M857.501,509.497C827.95,497.094 802.229,477.915 771.276,468.261C718.912,451.928 586.959,446.273 531.447,455.96C513.41,459.108 471.376,462.345 453.353,465.01C424.107,469.335 385.025,480.716 397.736,531.604C408.436,574.443 449.614,578.684 480.049,578.759C534.185,578.893 584.719,591.116 637.118,602.773C648.435,605.291 658.496,611.35 669.999,613.427C698.397,618.554 727.4,618.232 756.118,618.829C776.107,619.244 798.4,622.048 817.785,615.873C830.505,611.82 840.772,603.454 852.213,596.876C882.756,579.314 898.378,572.56 880.525,532.154C875.795,521.448 865.725,507.378 854.026,503.649" style="fill:rgb(111,94,76);stroke:black;stroke-width:6.67px;stroke-linecap:round;stroke-miterlimit:1.5;"/>
            <path d="M792.625,499.427C809.66,493.375 827.798,490.753 844.578,484.895C888.212,469.659 930.481,444.542 978.692,455.506C983.461,456.59 1048.23,521.526 1048.27,521.761C1049.71,530.419 1036.81,547.061 1030.8,552.767C992.986,588.688 914.447,566.822 866.88,588.067" style="fill:rgb(111,94,76);stroke:black;stroke-width:6.67px;stroke-linecap:round;stroke-miterlimit:1.5;"/>
            <path d="M940.277,461.703C925.124,409.101 891.705,412.854 905.299,466.282" style="fill:rgb(111,94,76);stroke:black;stroke-width:6.67px;stroke-linecap:round;stroke-miterlimit:1.5;"/>
            <path d="M998.368,504.479C993.781,491.643 986.418,480.121 970.961,481.732C968.51,481.987 964.085,482.194 962.115,483.809C961.279,484.494 962.12,486.446 962.673,487.374C963.785,489.239 962.788,488.037 963.632,490.034C967.245,498.592 978.012,508.07 987.735,508.755C991.035,508.987 996.579,509.763 997.938,506" style="stroke:black;stroke-width:6.67px;stroke-linecap:round;stroke-miterlimit:1.5;"/>
            <path d="M1026.12,530.714C1023.7,527.405 1016.81,528.124 1013.37,528.539C1002.78,529.811 993.213,534.674 982.479,534.798" style="fill:none;stroke:black;stroke-width:2.92px;stroke-linecap:round;stroke-miterlimit:1.5;"/>
            <path d="M1026.85,538.035C1021,538.768 1015.11,538.613 1009.26,539.33C1001.39,540.296 994.324,542.332 986.953,545.089" style="fill:none;stroke:black;stroke-width:2.92px;stroke-linecap:round;stroke-miterlimit:1.5;"/>
            <path d="M1023.69,543.823C1017.47,547.571 1009.78,548.247 1002.85,549.804C997.378,551.034 991.948,553.396 986.408,554.199" style="fill:none;stroke:black;stroke-width:2.92px;stroke-linecap:round;stroke-miterlimit:1.5;"/>
            <path d="M1046.56,532.257C1050.82,531.319 1057.13,528.797 1061.67,529.658" style="fill:none;stroke:black;stroke-width:2.92px;stroke-linecap:round;stroke-miterlimit:1.5;"/>
            <path d="M1041.42,540.713C1047.73,538.876 1055.02,537.959 1061.59,538.05" style="fill:none;stroke:black;stroke-width:2.92px;stroke-linecap:round;stroke-miterlimit:1.5;"/>
            <path d="M1036.34,544.085C1045.22,546.424 1054.23,549.495 1063.27,551.077" style="fill:none;stroke:black;stroke-width:2.92px;stroke-linecap:round;stroke-miterlimit:1.5;"/>
            <path d="M1046.37,529.451C1031.68,525.32 1027.45,533.241 1031.23,545.731" style="fill:rgb(111,94,76);stroke:black;stroke-width:6.67px;stroke-linecap:round;stroke-miterlimit:1.5;"/>
            <path d="M1042.42,530.782C1039.88,532.769 1038.03,535.192 1036.29,537.902C1035.27,539.484 1033.54,542.162 1033.54,542.158C1032.46,540.929 1034.86,534.897 1035.12,533.286" style="fill:none;stroke:black;stroke-width:6.72px;stroke-linecap:round;stroke-miterlimit:1.5;"/>
            <path d="M874.711,620.572C879.18,637.772 872.034,651.446 867.328,667.779C856.584,705.065 836.049,744.837 804.996,769.396C799.128,774.037 792.14,782.702 785.286,785.735C784.254,786.192 785.722,783.517 786.054,782.44C786.85,779.866 787.658,777.293 788.472,774.725C788.848,773.539 790.933,771.343 789.697,771.199C786.853,770.867 782.074,774.524 779.351,775.772C777.955,776.411 775.412,779.52 775.312,777.987C774.988,773.034 781.281,768.278 781.143,763.916C781.106,762.752 770,767.733 769.425,767.374C768.092,766.542 772.147,756.345 772.597,755.1C776.996,742.929 783.87,732.034 789.104,720.221C792.754,711.982 788.983,701.733 790.696,693.01C794.294,674.683 801.918,657.004 805.861,638.59" style="fill:rgb(111,94,76);stroke:black;stroke-width:6.67px;stroke-linecap:round;stroke-miterlimit:1.5;"/>
            <path d="M896.934,572.576C914.144,603.303 877.449,614.441 860.485,631.021C845.539,645.628 837.704,662.916 825.655,679.221C818.342,689.116 808.157,696.028 800.042,705.164C790.854,715.506 783.15,727.039 773.38,736.896C762.048,748.328 751.745,761.81 739.818,772.424C737.078,774.863 729.351,780.976 725.23,779.073C716.173,774.891 726.463,762.807 727.848,758.277C728.453,756.297 724.392,760.558 722.644,761.667C719.185,763.861 712.9,767.398 708.552,766.114C701.411,764.004 714.499,752.827 715.613,750.809C716.505,749.195 712.495,752.808 710.804,753.543C707.425,755.011 699.269,757.926 697.631,752.328C693.907,739.594 713.882,725.78 720.16,717.089C725.637,709.508 728.821,700.343 735.639,693.656C742.797,686.637 752.742,682.428 758.292,673.796C764.596,663.991 763.992,651.98 769.544,641.929C784.302,615.213 798.824,606.549 772.42,583.302" style="fill:rgb(111,94,76);stroke:black;stroke-width:6.67px;stroke-linecap:round;stroke-miterlimit:1.5;"/>
            <path d="M411.925,583.532C404.905,594.204 388.707,608.065 387.946,621.677C387.216,634.742 399.255,647.013 406.535,656.537C428.462,685.224 459.71,706.267 487.257,729.248C502.979,742.363 517.24,756.693 532.856,769.87C537.597,773.87 546.555,781.466 546.562,781.46C548.219,779.913 545.586,772.499 546.703,771.794C549.189,770.224 556.96,775.302 558.9,773.68C559.937,772.812 559.288,765.246 559.776,765.111C561.818,764.549 570.249,766.972 570.574,764.721C573.068,747.444 540.12,724.131 531.129,709.738C523.496,697.518 529.19,681.882 522.79,669.67" style="fill:rgb(111,94,76);stroke:black;stroke-width:6.67px;stroke-linecap:round;stroke-miterlimit:1.5;"/>
            <path d="M534.91,530.546C574.652,552.709 550.879,581.816 528.186,607.808C521.528,615.434 508.066,627.424 510.645,639.105C513.126,650.342 528.743,658.123 537.979,662.415C563.044,674.061 583.028,687.168 602.497,707.263C609.088,714.066 622.965,726.719 621.156,737.991C620.21,743.884 604.237,731.573 602.723,731.012C601.008,730.377 603.893,734.481 604.395,736.24C604.757,737.511 608.082,746.57 606.902,747.788C603.275,751.53 595.664,748.377 592.146,746.295C590.262,745.18 587.341,740.476 586.732,742.578C586,745.1 590.616,756.406 587.385,757.549C573.899,762.321 542.092,718.753 528.109,712.032C517.883,707.116 506.489,706.333 496.168,702.126C460.438,687.563 396.009,652.08 391.153,609.74C389.383,594.309 394.839,582.049 400.657,568.27C404.935,558.139 408.941,547.044 416.201,538.569" style="fill:rgb(111,94,76);stroke:black;stroke-width:6.67px;stroke-linecap:round;stroke-miterlimit:1.5;"/>
        </g>
        <g opacity="0.05">
            <path d="M798.587,490.63C786.733,486.399 775.371,479.907 763.229,476.627C719.069,464.699 673.5,464.986 628.26,462.384C575.765,459.366 554.569,454.728 501.307,463.206C471.868,467.892 408.62,487.043 386.593,510.086" style="fill:none;stroke:white;stroke-width:20.42px;stroke-linecap:round;stroke-miterlimit:1.5;"/>
            <path d="M441.519,459.54C410.338,428.894 379.818,395.029 359.907,377.198C303.251,326.461 226.512,285.4 177.003,296.451C158.878,300.497 98.649,353.794 81.891,362.67C50.918,379.074 23.342,449.749 19.735,502.373C19.049,512.373 49.061,508.517 63.369,501.684C98.683,484.819 130.177,471.276 141.4,464.883C168.024,449.719 171.32,451.309 220.334,448.628C241.773,447.456 246.608,445.393 278.543,447.446C294.215,448.454 302.495,448.766 334.736,468.013C372.084,490.308 352.793,468.354 391.313,502.281" style="fill:none;stroke:white;stroke-width:20.42px;stroke-linecap:round;stroke-miterlimit:1.5;"/>
            <path d="M1034.05,527.989C1025.82,512.13 986.821,462.758 968.45,459.51C936.31,453.827 901.652,470.15 870.047,474.445" style="fill:none;stroke:white;stroke-width:20.42px;stroke-linecap:round;stroke-miterlimit:1.5;"/>
            <path d="M924.141,453.519C922.647,448.658 919.816,445.733 917.702,441.24C914.013,433.402 914.724,445.857 913.611,451.628" style="fill:none;stroke:white;stroke-width:20.42px;stroke-linecap:round;stroke-miterlimit:1.5;"/>
            <path d="M792.296,509.108C763.083,480.245 721.411,487.829 684.328,486.615C646.767,485.386 610.277,486.111 572.724,487.314C551.504,487.995 531.046,485.294 509.863,488.69C479.244,493.598 441.823,508.702 410.773,518.114" style="fill:none;stroke:white;stroke-width:44.74px;stroke-linecap:round;stroke-miterlimit:1.5;"/>
            <path d="M761.039,596.166C699.437,598.373 639.08,580.777 579.093,570.206" style="fill:none;stroke:black;stroke-width:44.74px;stroke-linecap:round;stroke-miterlimit:1.5;"/>
            <path d="M987.411,506.202C986.873,500.702 974.119,476.84 967.837,482.489C959.061,490.382 975.939,511.639 984.102,510.549C992.787,509.391 992.478,497.778 986.098,493.31" style="fill:none;stroke:black;stroke-width:22.66px;stroke-linecap:round;stroke-miterlimit:1.5;"/>
            <path d="M1027.48,542.339C1012.39,551.346 997.416,554.644 980.212,558.378C967.962,561.038 956.443,564.323 943.808,564.875C928.815,565.53 913.677,564.374 898.646,564.638" style="fill:none;stroke:black;stroke-width:25.6px;stroke-linecap:round;stroke-miterlimit:1.5;"/>
            <path d="M799.712,607.691C793.93,627.349 784.778,644.343 775.807,662.559C771.152,672.013 768.091,682.828 761.618,691.318C756.014,698.667 746.747,702.107 740.126,708.492C732.272,716.065 727.153,726.027 719.651,733.976" style="fill:none;stroke:black;stroke-width:25.6px;stroke-linecap:round;stroke-miterlimit:1.5;"/>
            <path d="M423.105,549.83C406.092,568.251 392.97,616.509 412.941,635.981C435.237,657.718 489.73,680.652 519.381,695.629C525.239,698.588 531.748,700.179 537.29,703.775C550.888,712.602 560.346,726.185 570.129,738.786" style="fill:none;stroke:black;stroke-width:25.6px;stroke-linecap:round;stroke-miterlimit:1.5;"/>
            <path d="M547.348,761.405C537.514,750.917 523.774,742.519 512.319,733.798C501.575,725.619 491.979,716.262 481.063,708.294" style="fill:none;stroke:black;stroke-width:36.11px;stroke-linecap:round;stroke-miterlimit:1.5;"/>
            <path d="M473.71,707.695C461.073,697.868 449.934,686.478 437.882,675.998C433.881,672.519 429.697,669.272 425.67,665.826C424.451,664.784 423.255,663.694 422.109,662.573C421.38,661.86 419.136,659.781 419.869,660.49C440.818,680.732 467.935,688.614 489.847,706.555" style="fill:none;stroke:black;stroke-width:2.51px;stroke-linecap:round;stroke-miterlimit:1.5;"/>
            <path d="M491.121,706.219C479.671,696.113 461.015,685.242 445.737,681.234" style="fill:none;stroke:black;stroke-width:2.51px;stroke-linecap:round;stroke-miterlimit:1.5;"/>
            <path d="M485.328,709.182C473.642,696.876 458.685,687.82 443.945,679.7" style="fill:none;stroke:black;stroke-width:2.51px;stroke-linecap:round;stroke-miterlimit:1.5;"/>
            <path d="M868.535,632.373C870.417,653.53 859.92,671.174 851.833,689.578C844.267,706.793 838.427,724.415 825.56,738.629C816.072,749.11 803.41,756.374 794.385,767.16" style="fill:none;stroke:black;stroke-width:20.8px;stroke-linecap:round;stroke-miterlimit:1.5;"/>
            <path d="M864.471,631.748C861.77,637.919 861.761,644.881 858.965,651.024C854.039,661.848 846.453,671.218 840.805,681.673C836.944,688.819 834.537,696.549 830.39,703.589C821.363,718.908 809.423,733.728 798.406,747.66C795.108,751.832 792.845,757.072 789.24,760.955" style="fill:none;stroke:black;stroke-width:20.8px;stroke-linecap:round;stroke-miterlimit:1.5;"/>
            <path d="M526.966,541.036C542.851,544.902 544.473,561.762 538.87,575.265C529.763,597.212 492.893,612.604 497.996,640.694C500.42,654.029 517.032,664.287 527.066,671.263C542.355,681.892 556.31,694.389 571.736,704.742C580.356,710.528 590.822,713.246 598.549,720.298" style="fill:none;stroke:white;stroke-width:25.6px;stroke-linecap:round;stroke-miterlimit:1.5;"/>
            <path d="M890.891,579.702C890.723,608.102 857.873,603.774 842.085,620.76C829.896,633.874 826.73,650.746 817.915,665.656C811.275,676.887 801.431,685.572 794.159,696.298C779.354,718.138 767.87,741.371 745.026,755.918" style="fill:none;stroke:white;stroke-width:25.6px;stroke-linecap:round;stroke-miterlimit:1.5;"/>
        </g>
        <path d="M981.395,491.388C980.821,487.071 973.349,483.861 971.992,489.338C970.636,494.81 977.969,498.207 980.817,493.228C982.077,491.027 979.092,487.917 976.814,489.226C974.747,490.414 976.054,492.585 978.01,492.7" style="fill:none;stroke:white;stroke-opacity:0.22;stroke-width:6.67px;stroke-linecap:round;stroke-miterlimit:1.5;"/>
    </g>
</svg>
