<?xml version="1.0" encoding="UTF-8" standalone="no"?>
<!DOCTYPE svg PUBLIC "-//W3C//DTD SVG 1.1//EN" "http://www.w3.org/Graphics/SVG/1.1/DTD/svg11.dtd">
<svg width="100%" height="100%" viewBox="0 0 2133 1066" version="1.1" xmlns="http://www.w3.org/2000/svg" xmlns:xlink="http://www.w3.org/1999/xlink" xml:space="preserve" xmlns:serif="http://www.serif.com/" style="fill-rule:evenodd;clip-rule:evenodd;stroke-linecap:round;stroke-linejoin:round;stroke-miterlimit:1.5;">
    <g id="pinecone-charging">
        <g>
            <path d="M1356.63,832.569C1355.75,833.223 1357.03,830.263 1356.54,829.282C1355.68,827.557 1354.49,825.937 1353.53,824.259C1350.53,819.013 1346.83,813.222 1345.83,807.181C1344.7,800.411 1343.08,793.667 1345.16,786.754C1347.85,777.775 1356.24,770.458 1357.55,761.304C1358.68,753.356 1347.43,746.233 1350.85,738.533C1356.93,724.85 1372.84,723.447 1386.01,725.473C1389.7,726.041 1402.98,728.266 1406.1,725.138C1406.74,724.502 1404.32,724.692 1403.42,724.803C1401.55,725.037 1399.7,725.935 1398.07,726.813C1392.38,729.876 1386.63,734.186 1381.32,737.863C1373.84,743.044 1371.75,749.35 1369.27,757.621C1368.56,759.979 1367.75,765.962 1363.91,764.318C1358.47,761.988 1353.16,754.884 1348.84,750.923C1340.96,743.699 1333.01,738.097 1322.72,734.849C1318.34,733.466 1312.93,732.8 1308.32,733.51C1303.18,734.301 1295.14,741.895 1289.9,737.528C1276.65,726.487 1281.13,703.523 1262.78,693.326C1249.32,685.846 1235.08,679.806 1228.29,664.862C1226.75,661.47 1223.03,654.272 1226.61,651.132C1238.59,640.657 1254.89,651.975 1266.8,656.49C1273.75,659.126 1281.68,661.292 1288.23,664.862C1295.86,669.024 1301.45,677.008 1307.99,682.61C1311.99,686.044 1316.58,688.338 1319.37,692.991C1324.56,701.645 1321.26,708.6 1323.73,714.757C1325.74,719.797 1330.3,723.001 1333.1,727.482C1337.25,734.119 1340.55,741.02 1342.81,748.579C1344.26,753.388 1339.99,757.041 1341.14,761.639C1342.69,767.839 1358.8,777.709 1362.9,784.745C1364.85,788.075 1366.88,794.004 1362.57,796.465C1359.83,798.034 1354.7,796.269 1351.85,795.796C1345.35,794.711 1339.46,794.35 1333.44,791.107C1330.6,789.577 1328.26,787.332 1325.07,786.419C1318.17,784.45 1310.9,789.551 1304.64,786.419C1293.69,780.945 1289.84,766.542 1282.54,757.621C1264.03,734.996 1246.19,712.981 1229.96,688.637C1220.15,673.917 1207.35,661.451 1201.16,644.435C1199.3,639.31 1196.09,635.743 1192.46,631.71C1192.28,631.517 1187.48,625.347 1187.77,625.347C1189.51,625.347 1194.49,633.815 1195.47,635.058C1202.3,643.754 1209.7,651.937 1216.23,660.843C1236.93,689.074 1256.66,718.023 1277.51,746.235C1285.6,757.172 1295.71,766.799 1304.3,777.378C1311.45,786.18 1323.01,792.317 1331.76,799.479C1341.34,807.312 1348.04,817.726 1358.89,823.925C1365.11,827.481 1372.49,834.847 1377.64,839.998C1379.62,841.98 1381.84,843.529 1383.67,845.356C1384.26,845.953 1387.71,847.7 1387.02,847.7" style="fill:none;stroke:#ff6956;stroke-opacity:0.32;stroke-width:118.72px;"/>
            <path d="M1437.46,768.323C1438.35,768.424 1436.41,763.277 1436.24,762.978C1433.05,757.225 1431.32,751.521 1426.19,746.905C1414.66,736.521 1401.62,725.727 1388.36,717.771C1368.28,705.726 1347.64,698.054 1326.07,688.972C1304.38,679.841 1284.36,668.905 1261.77,661.848C1249.53,658.02 1221.84,646.587 1212.88,661.513C1209.49,667.164 1218.32,670.308 1221.92,672.564C1234.91,680.683 1248.13,690.948 1262.44,696.674C1307.86,714.842 1348.9,734.208 1382.66,771.35C1393.52,783.297 1411.41,803.004 1409.79,820.911C1409.35,825.729 1408.31,835.702 1401.08,833.636C1395.84,832.138 1391.69,825.246 1388.69,821.246C1383.84,814.773 1377.64,809.19 1371.95,803.498C1348.43,779.984 1321.36,760.397 1295.93,739.203C1288.21,732.768 1279.9,724.889 1270.48,721.12C1268.67,720.396 1262.33,718.185 1260.43,719.445C1258.92,720.456 1259.63,725.948 1260.43,727.147C1264.07,732.592 1270.89,736.844 1276.17,740.542C1301,757.92 1321.69,779.668 1341.47,802.493C1347.79,809.785 1353.23,818.159 1358.89,825.934C1360.81,828.574 1362.25,831.997 1363.58,834.975C1364.53,837.126 1365.77,840.428 1365.58,840.333C1361.4,838.241 1357.45,826.899 1355.2,823.255C1349.04,813.245 1340.07,804.322 1331.43,796.465C1314.69,781.251 1296.52,767.535 1279.86,752.263C1261.49,735.427 1250.18,713.942 1236.66,693.661C1232.13,686.862 1226.96,680.968 1223.27,673.568C1216.05,659.144 1213.01,641.434 1208.19,626.017C1207.48,623.73 1204.57,608.323 1203.84,607.599" style="fill:none;stroke:#ff9d29;stroke-opacity:0.32;stroke-width:49.6px;"/>
            <path d="M1411.51,788.609C1410.14,787.953 1411.87,780.46 1411.26,778.936C1409.97,775.691 1407.35,771.933 1405.42,768.848C1395.84,753.519 1384.32,740.109 1370.38,728.498C1357.27,717.573 1341.53,710.04 1327.91,699.828C1315.17,690.274 1298.45,682.96 1283.84,676.467C1277.22,673.523 1268.38,669.565 1261.01,669.565C1260.36,669.565 1259.23,670.772 1259.42,671.158C1264.95,682.214 1290.3,687.849 1300.3,694.519C1336.08,718.373 1352.87,732.944 1381,766.194C1384.98,770.892 1410.27,808.065 1406.49,811.853C1404.77,813.571 1398.26,805.899 1396.93,804.951C1385.9,797.077 1376.68,787.058 1366.67,777.874C1343.61,756.737 1323.36,732.975 1301.36,710.977C1294.34,703.956 1286.05,698.321 1279.06,691.333C1275.52,687.789 1267.91,681.245 1267.91,681.245C1267.91,681.245 1276.78,692.201 1281.19,697.704C1290.43,709.254 1300.42,720.192 1310.39,731.153C1334.55,757.735 1354.29,786.379 1374.1,816.101C1379.98,824.925 1393.21,838.173 1393.21,849.018" style="fill:none;stroke:#ffb200;stroke-opacity:0.32;stroke-width:26.88px;"/>
        </g>
        <g>
            <path d="M1488.5,827.817C1488.55,827.858 1488.07,825.398 1488,825.096C1487.56,823.226 1487.11,821.442 1486.76,819.538C1485.73,813.916 1486.9,808.529 1485.06,803.231C1483.99,800.176 1480.22,797.138 1479.89,794.043C1479.47,790.014 1481.26,785.978 1480.7,782.007C1480.18,778.358 1477.66,775.518 1475.6,772.648C1472.05,767.71 1468.38,760.34 1462.46,758.112" style="fill:none;stroke:#000;stroke-opacity:0.09;stroke-width:20.8px;"/>
            <path d="M1455.18,717.88C1455.88,719.044 1457.96,717.721 1459.23,718.198C1461.6,719.089 1464.13,721.438 1465.77,723.207C1469.46,727.191 1461.16,730.807 1464.22,734.108C1465.41,735.385 1466.93,733.641 1467.75,732.881C1470.03,730.761 1469.85,727.721 1473.4,727.35C1476.89,726.985 1480.15,733.373 1480.41,735.854C1480.52,736.91 1477.71,738.493 1478.09,739.319C1478.35,739.908 1480.79,740.188 1481.3,740.272C1483.86,740.691 1488.75,740.335 1490.1,743.326C1493.44,750.694 1484.12,750.368 1480.45,752.711C1479.95,753.03 1476.92,754.914 1476.95,755.224C1477.17,757.304 1479.75,756.086 1480.78,755.898C1483.35,755.429 1488.9,752.211 1489.84,756.241C1490.29,758.168 1492.34,762.631 1490.81,764.516C1488.62,767.217 1484.84,767.352 1482.73,770.408C1482.43,770.841 1480.27,773.161 1480.49,773.648C1480.6,773.885 1487.4,769.043 1488.46,768.735C1492.79,767.472 1499.2,771.802 1499.66,776.264C1499.8,777.611 1500.59,780.392 1500.44,781.66C1499.87,786.602 1491.49,786.611 1488.28,787.548C1486.1,788.182 1484.03,789.011 1481.85,789.723C1480.66,790.109 1477.44,791.128 1478.6,791.565C1480.39,792.237 1484.48,789.712 1486.46,789.671C1492.4,789.547 1495.68,796.787 1496.15,801.224C1496.69,806.388 1488.86,808.61 1485.69,810.049C1484.67,810.51 1483.55,810.649 1482.47,811.137C1482.44,811.148 1480.72,811.753 1480.93,811.834C1482.91,812.578 1486.26,810.23 1488.12,809.688C1491.25,808.774 1497.65,808.313 1499.77,811.263C1501.63,813.84 1501.64,822.594 1497.72,823.505C1494.85,824.173 1491.56,825.364 1488.58,825.426C1487.45,825.45 1486.38,825.494 1485.25,825.451C1484.61,825.427 1482.78,824.777 1483.38,825.003C1487.49,826.547 1497.12,820.401 1499.23,827.643C1499.62,828.965 1499.68,830.273 1499.53,831.585C1498.15,843.576 1484.11,830.301 1483.06,839.427C1482.46,844.663 1490.2,837.094 1492.62,840.469C1493.6,841.833 1496.39,848.041 1494.85,849.472C1493.84,850.41 1490.43,852.033 1489.37,852.514C1488.79,852.779 1487.5,852.066 1487.5,852.066C1487.5,852.066 1489.88,851.94 1490.96,852.348C1493.74,853.393 1496.04,852.91 1497.47,856.071C1499.32,860.14 1496.06,867.355 1491.01,867.164C1489.3,867.099 1484.07,866.898 1482.73,868.135C1482.37,868.472 1483.64,869.727 1483.79,870.065C1484.64,871.926 1484.77,873.527 1483.23,874.957C1482.51,875.622 1477.17,878.371 1477.55,879.201C1479.17,882.768 1483.35,883.401 1484.7,888.012C1486.36,893.708 1473.03,901.861 1468.78,901.166C1465.93,900.699 1464.27,899.065 1462.27,897.442C1461.84,897.095 1460.9,894.91 1460.32,895.176C1458.46,896.017 1460.62,900.291 1460.98,901.551C1462.06,905.246 1460.79,909.358 1457.73,911.555C1457.24,911.91 1455.35,911.701 1454.55,911.888C1452.91,912.269 1451.72,913.895 1449.79,913.673C1447.61,913.423 1442.89,909.5 1442.08,907.713C1441.51,906.456 1439.72,904.259 1438.53,903.573C1437.76,903.127 1436.24,902.201 1436.24,902.201C1436.24,902.201 1436.43,903.507 1436.86,903.963C1437.9,905.084 1439.49,906.168 1439.42,907.99C1439.25,912.645 1436.49,918.52 1431.28,919.473C1427.78,920.113 1421.4,918.702 1418.54,916.723C1417.38,915.927 1416.48,914.27 1416.11,913.003C1416.05,912.81 1415.86,911.447 1415.63,911.549C1412.81,912.831 1411.36,916.728 1407.38,917.888C1406.45,918.161 1401.33,918.443 1400.76,917.183C1400.42,916.443 1400.51,913.665 1399.22,913.8C1392.4,914.512 1387.97,913.524 1385.11,907.219C1384.56,906.009 1377.13,906.78 1375.36,905.338C1371.67,902.347 1368.22,898.719 1367.71,893.786C1367.47,891.541 1369.87,888.331 1368.97,886.352C1367.95,884.107 1361.11,885.617 1358.94,883.855C1356.89,882.198 1354.9,876.655 1355,873.956C1355.03,873.36 1358.5,873.174 1358.22,872.869C1357.06,871.618 1354.22,872.079 1352.77,871.075C1348.85,868.369 1348.54,861.124 1348.7,856.787C1348.84,853.115 1354.63,850.881 1357.68,851.232C1358.24,851.296 1363.71,851.453 1363.58,851.153C1362.99,849.849 1360.2,850.151 1359.16,850.003C1356.36,849.606 1348.17,849.458 1345.97,847.085C1344.93,845.966 1345.71,843.63 1345.47,842.305C1344.58,837.41 1348.39,832.404 1352.08,829.479C1353.95,827.996 1358.55,829.104 1360.6,829.877C1361.12,830.073 1363.97,831.262 1363.96,831.138C1363.82,829.825 1359.6,827.712 1358.51,827.304C1353.33,825.357 1349.37,826.497 1347.58,820.39C1347.15,818.919 1347.78,817.68 1348.57,816.422C1350.56,813.226 1351.66,810.597 1356.17,811.116C1357.84,811.308 1361.73,812.812 1363.19,811.458C1366.57,808.327 1360.64,802.443 1360.32,799.407C1360.01,796.411 1365.6,789.903 1367.46,788.567C1369.14,787.355 1372.48,788.616 1374,789.495C1377.14,791.315 1383.83,795.235 1387.53,793.559C1388.03,793.33 1384.27,791.105 1384.14,791.012C1382.47,789.771 1379.34,787.481 1378.22,785.724C1375.79,781.909 1377.64,775.885 1381.2,773.063C1386.65,768.737 1390.63,774.44 1394.08,778.162C1394.94,779.097 1398.52,782.281 1399.72,780.794C1400.67,779.624 1397.71,775.602 1397.16,774.726C1393.93,769.665 1390.1,765.905 1386.4,761.243C1385.43,760.013 1384.43,756.46 1385.43,755.009C1386.19,753.917 1387.63,753.418 1388.62,752.635C1395.95,746.817 1400.27,753.938 1404.35,760.335C1405.3,761.818 1408.62,767.305 1410.72,765.792C1413.03,764.133 1411.67,759.735 1410.42,757.769C1409.65,756.568 1408.07,756.023 1407.12,754.998C1404.01,751.64 1399.02,742.981 1402.08,738.557C1405.28,733.918 1412.92,736.291 1414.99,740.86C1415.82,742.683 1416.24,745.132 1417.33,746.844C1417.96,747.829 1419.67,748.898 1420.88,748.944C1421.52,748.968 1422.32,748.106 1422.81,747.883C1426.19,746.351 1424.48,745.292 1422.65,742.208C1421.2,739.768 1415.99,729.674 1418.16,726.997C1421.81,722.502 1429.8,725.745 1433.98,728.352C1434.77,728.841 1438.69,732.522 1439.43,732.187C1439.7,732.063 1437.66,724.316 1439.13,724.163C1441.49,723.917 1446.87,730.829 1448.38,729.426C1449.69,728.214 1450.3,726.133 1449.78,724.34C1449.62,723.781 1448.46,721.601 1449.45,721.153C1450.42,720.713 1451.85,720.619 1452.89,720.149C1454.26,719.526 1453.85,718.472 1455.57,719.117" style="fill:#927147;stroke:#000;stroke-width:6.67px;"/>
            <path d="M1465.28,779.713C1465.31,779.849 1465.03,779.051 1464.74,779.181C1464.14,779.454 1464.21,781.743 1463.35,782.359C1461.69,783.553 1459.53,783.185 1457.66,783.528C1454.82,784.047 1452.76,785.697 1449.63,785.185C1446.14,784.614 1444.67,781.177 1441.81,780.101" style="fill:none;stroke:#000;stroke-width:6.67px;"/>
            <path d="M1434.41,745.956C1434.29,745.973 1434.86,749.46 1435.39,750.035C1438.25,753.119 1446.73,760.797 1449.64,753.055" style="fill:none;stroke:#000;stroke-width:6.67px;"/>
            <path d="M1428.15,803.783C1428.52,803.95 1427.33,803.369 1426.96,803.536C1426.8,803.609 1426.19,804.357 1426,804.538C1424.17,806.231 1420.95,805.302 1418.7,805.3C1411.29,805.294 1405.88,801.688 1402.88,795.068" style="fill:none;stroke:#000;stroke-width:6.67px;"/>
            <path d="M1425.01,816.318C1425.18,816.22 1426.3,817.552 1426.48,817.766C1427.99,819.584 1429.76,820.943 1431.55,822.4C1436.59,826.48 1444.14,828.452 1450.47,826.981C1452.31,826.554 1455.61,826.601 1456.83,825.087" style="fill:none;stroke:#000;stroke-width:6.67px;"/>
            <path d="M1468.79,807.506C1466.26,808.333 1463.63,810.114 1461.05,811.287C1455.61,813.752 1446.44,811.541 1443.83,805.79" style="fill:none;stroke:#000;stroke-width:6.67px;"/>
            <path d="M1427.04,840.077C1427.08,840.003 1427.93,840.704 1427.98,840.723C1428.6,841.034 1429.36,841.243 1430.02,841.493C1431.82,842.17 1435.03,842.735 1436.95,842.736C1441.01,842.739 1445.04,842.89 1448.84,841.167C1451.05,840.163 1452.67,837.871 1454.71,836.948" style="fill:none;stroke:#000;stroke-width:6.67px;"/>
            <path d="M1445.08,852.794C1444.68,852.754 1445.72,853.324 1445.89,853.688C1446.19,854.368 1446.35,855.2 1446.61,855.908C1447.38,858.014 1448.44,860.029 1449.85,861.799C1453.81,866.794 1459.35,868.811 1465.14,866.185C1466.7,865.478 1468.29,865.05 1468.94,863.329" style="fill:none;stroke:#000;stroke-width:6.67px;"/>
            <path d="M1372.03,822.908C1372.02,822.918 1372.85,822.476 1373.1,823.013C1373.61,824.139 1373.47,826.838 1373.54,828.048C1373.72,831.158 1373.22,835.356 1375.39,837.117C1377.93,839.175 1381.9,835.79 1384.39,835.439C1386.88,835.09 1389.21,836.472 1391.13,837.194" style="fill:none;stroke:#000;stroke-width:6.67px;"/>
            <path d="M1390.18,812.207C1390.16,811.724 1390.89,812.923 1391.02,813.388C1391.29,814.302 1391.51,815.258 1391.81,816.175C1392.59,818.569 1392.78,821.497 1394.49,823.343C1395.02,823.909 1395.99,822.885 1396.76,822.885C1399.52,822.888 1402.05,823.152 1404.77,823.538C1405.24,823.604 1409.06,823.991 1408.94,824.317" style="fill:none;stroke:#000;stroke-width:6.67px;"/>
            <path d="M1396.48,845.347C1396.02,845.823 1397.4,846.373 1397.57,847.013C1397.81,847.913 1397.93,848.931 1398.27,849.809C1399.66,853.415 1401.8,857.379 1404.21,860.417C1404.77,861.118 1406.05,863.012 1407.18,862.894C1408.87,862.718 1410.74,859.888 1412.45,859.229C1417.41,857.323 1424.99,854.791 1430.14,856.726" style="fill:none;stroke:#000;stroke-width:6.67px;"/>
            <path d="M1447.77,880.435C1447.16,880.687 1446.05,882.26 1445.48,882.746C1443.49,884.434 1441.29,885.661 1439.03,886.943C1425.97,894.36 1420.96,880.801 1411.48,874.248" style="fill:none;stroke:#000;stroke-width:6.67px;"/>
            <path d="M1377.18,867.747C1376.57,867.822 1378.07,868.627 1378.33,869.186C1378.87,870.371 1379.23,871.485 1379.75,872.643C1381.28,876.011 1382.44,879.258 1384.99,882.013C1385.35,882.392 1386.42,883.668 1387.13,883.594C1389.38,883.359 1391.79,881.459 1393.87,880.677C1396.07,879.85 1398.53,879.745 1400.74,878.975C1401.61,878.675 1404.61,876.772 1404.8,878.552" style="fill:none;stroke:#000;stroke-width:6.67px;"/>
            <path d="M1394.1,893.879C1394.69,893.586 1396.83,897.999 1397.12,898.451C1398.96,901.338 1401.87,905.158 1404.82,906.991C1407.29,908.535 1411.06,906.139 1413.31,905.121C1415.83,903.976 1418.8,903.809 1421.5,903.527C1422.31,903.443 1423.98,902.318 1424.42,902.484" style="fill:none;stroke:#000;stroke-width:6.67px;"/>
            <path d="M1486.98,855.379C1485.96,860.334 1480.29,865.648 1477.68,870.767C1475.63,874.816 1474.72,879.743 1472.44,883.679C1471.08,886.034 1469.35,888.16 1467.95,890.413C1467.55,891.053 1467.1,892.543 1466.57,893.029C1462.09,897.182 1456.69,898.385 1451.1,900.333C1448.17,901.354 1446.31,902.647 1443.16,903.223C1440.21,903.762 1436.88,902.56 1433.89,902.872C1430.24,903.253 1426.56,905.049 1423.09,906.06C1420.19,906.906 1416.4,905.875 1413.55,905.408C1412.52,905.24 1411.5,905.985 1410.46,905.814C1402.88,904.574 1392.98,902.384 1386.19,898.456C1381.79,895.903 1380.19,889.497 1377.35,885.532C1374.76,881.934 1371.01,879.664 1368.13,876.191C1366.23,873.908 1364.95,871 1363.37,868.528C1361.81,866.075 1362.15,863.298 1361.4,860.738C1359.88,855.517 1359.58,850.419 1358.05,845.179C1356.36,839.407 1359.41,833.628 1359.63,827.952C1359.7,825.916 1360.77,824.046 1360.73,821.902C1360.71,821.365 1360.81,819.731 1360.04,820.078" style="fill:none;stroke:#000;stroke-opacity:0.09;stroke-width:20.8px;"/>
            <path d="M1488.48,835.479C1488.37,835.405 1489.42,832.43 1489.47,832.114C1490.1,828.303 1492.24,823.412 1491.46,819.542C1490.6,815.28 1489.42,811.201 1489.22,806.753C1488.96,801.106 1489.38,794.96 1487.9,789.415C1487.25,786.961 1487.28,783.995 1486.51,781.647C1485.15,777.46 1483.1,773.469 1482.64,769.028C1482.01,762.968 1484.23,755.834 1480.68,750.274C1477.69,745.583 1472.94,740.712 1468.1,737.905C1463.3,735.126 1459.94,731.215 1453.94,730.234C1451.37,729.812 1449.18,731.2 1446.75,731.644C1444.17,732.116 1441.67,732.006 1439.11,732.689C1436.9,733.279 1434.31,733.076 1432.08,733.177C1425.87,733.458 1416.46,740.352 1413.68,745.649C1411.8,749.226 1411.17,754.054 1408.88,757.36C1406.66,760.575 1404.11,763.397 1402.31,767.031C1399.34,773.028 1398.38,779.976 1394.08,785.283C1390.81,789.311 1386.93,795.585 1382.22,798.061C1373.69,802.553 1365.96,803.578 1359.56,811.474C1358.42,812.868 1358.49,815.341 1357.9,816.922" style="fill:none;stroke:#fff;stroke-opacity:0.09;stroke-width:20.8px;"/>
            <path d="M1421.71,820.518C1422.47,821.331 1425.4,821.857 1426.49,822.535C1429.04,824.126 1431.33,826.273 1433.88,827.863C1435.74,829.018 1438.75,829.23 1440.84,829.692C1447.51,831.168 1451.82,832.111 1458.49,829.084" style="fill:none;stroke:#000;stroke-opacity:0.09;stroke-width:7.68px;"/>
            <path d="M1454.43,842.285C1454.48,842.28 1455.13,842.849 1454.84,842.985C1452.88,843.871 1448.59,843.967 1446.25,844.458C1440.16,845.737 1433.85,848.414 1427.97,846.202" style="fill:none;stroke:#000;stroke-opacity:0.09;stroke-width:7.68px;"/>
            <path d="M1444.31,859.483C1444.35,859.41 1444.79,863.402 1444.82,863.896C1445.01,867.185 1445.91,869.913 1449,871.538C1452.06,873.146 1455.11,871.522 1458.29,871.309C1462.48,871.028 1466.45,871.528 1470.71,871.083" style="fill:none;stroke:#000;stroke-opacity:0.09;stroke-width:7.68px;"/>
            <path d="M1446.44,882.791C1446.83,882.66 1444.23,885.798 1443.92,886.08C1442.13,887.744 1441.49,890.942 1438.9,891.633C1431.22,893.68 1424.26,891.81 1417.12,889.126" style="fill:none;stroke:#000;stroke-opacity:0.09;stroke-width:7.68px;"/>
            <path d="M1401.6,881.673C1401.41,881.708 1402.12,882.019 1401.89,882.227C1400.71,883.32 1397.13,884.172 1395.61,884.367C1391.42,884.903 1387.39,884.317 1383.27,883.842" style="fill:none;stroke:#000;stroke-opacity:0.09;stroke-width:7.68px;"/>
            <path d="M1393.36,846.319C1395.28,846.943 1395.21,849.602 1395.53,851.239C1396.25,854.956 1397.14,859.565 1399.21,862.807C1402.89,868.578 1407.62,866.508 1412.81,865.178C1415.18,864.568 1417.76,865.305 1420.08,864.584C1422.54,863.819 1424.59,862.126 1427.1,861.543" style="fill:none;stroke:#000;stroke-opacity:0.09;stroke-width:7.68px;"/>
            <path d="M1368.83,825.611C1368.64,825.303 1367.99,827.077 1367.89,827.336C1367.35,828.771 1368.16,830.69 1368.87,832.014C1370.88,835.756 1370.12,842.095 1373.37,845.063C1374.6,846.186 1377.1,843.985 1378.07,843.501C1381.54,841.753 1385.89,841.2 1389.65,840.807" style="fill:none;stroke:#000;stroke-opacity:0.09;stroke-width:7.68px;"/>
            <path d="M1389.02,812.122C1389.2,812.46 1388.34,812.799 1388.5,813.149C1390.32,817.174 1390.94,821.671 1392.78,825.726C1393.38,827.048 1394.58,829.38 1396.23,829.57C1397.54,829.72 1399.16,828.148 1400.41,827.814C1402.84,827.166 1405.55,827.607 1408.03,827.348" style="fill:none;stroke:#000;stroke-opacity:0.09;stroke-width:7.68px;"/>
            <path d="M1400.54,798.248C1400.76,799.599 1402.06,800.527 1402.8,801.682C1406.2,807.025 1411.48,809.671 1417.81,809.676C1421.62,809.679 1425.14,808.272 1429.05,808.42" style="fill:none;stroke:#000;stroke-opacity:0.09;stroke-width:7.68px;"/>
            <path d="M1465.91,786.704C1465.72,786.406 1466.03,785.754 1465.89,785.449C1465.64,784.9 1464.16,785.808 1463.96,785.898C1461.42,787.049 1458.96,788.511 1456.34,789.497C1453.21,790.67 1449.75,789.001 1447.2,787.236" style="fill:none;stroke:#000;stroke-opacity:0.09;stroke-width:7.68px;"/>
            <path d="M1430.22,749.847C1430.8,750.707 1430.74,751.989 1431.33,752.873C1432.09,754.009 1433.67,754.469 1434.72,755.321C1436.53,756.787 1438.26,760.011 1440.61,760.476C1441.88,760.725 1443.58,759.325 1444.73,758.891C1446.48,758.237 1448.89,757.946 1450.74,758.016" style="fill:none;stroke:#000;stroke-opacity:0.09;stroke-width:7.68px;"/>
            <path d="M1469.94,810.416C1470.01,810.52 1465.29,812.853 1463.91,813.104C1460.23,813.778 1457.16,813.249 1453.55,812.538C1450.46,811.929 1449.61,809.172 1446.28,811.566" style="fill:none;stroke:#000;stroke-opacity:0.09;stroke-width:7.68px;"/>
            <path d="M1458.87,818.542C1459.25,818.285 1457.96,818.738 1457.49,818.72C1456.55,818.685 1454.96,818.214 1454.17,817.666C1452.65,816.619 1450.75,816.279 1449.21,815.216C1447.74,814.196 1447.56,812.047 1445.76,811.373" style="fill:none;stroke:#000;stroke-opacity:0.09;stroke-width:7.68px;"/>
            <path d="M1374.9,823.949C1374.42,823.111 1375.12,825.868 1375.33,826.806C1375.86,829.087 1376.64,831.108 1378.18,832.773C1378.33,832.933 1382.34,830.211 1384.13,830.504C1387.05,830.982 1391.01,834.076 1389.72,837.503" style="fill:none;stroke:#fff;stroke-opacity:0.09;stroke-width:7.68px;"/>
            <path d="M1399.02,845.829C1398.51,845.969 1399.72,846.628 1400.03,847.059C1400.6,847.844 1401.33,848.984 1401.73,849.85C1403.34,853.396 1404.94,856.424 1408.99,857.086C1409.52,857.171 1413.43,857.223 1413.76,856.919C1414.94,855.82 1415.07,854.112 1416.79,853.553C1420.49,852.345 1430.18,854.734 1432.87,857.642" style="fill:none;stroke:#fff;stroke-opacity:0.09;stroke-width:7.68px;"/>
            <path d="M1394.52,808.174C1394.14,807.976 1395.41,808.111 1395.82,808.264C1396.71,808.6 1397.89,809.131 1398,810.261C1398.3,813.095 1398.26,815.916 1400.79,817.966C1402.79,819.588 1410.09,817.889 1410.46,821.407" style="fill:none;stroke:#fff;stroke-opacity:0.09;stroke-width:7.68px;"/>
            <path d="M1449.59,836.108C1448.68,837.259 1446.39,837.051 1444.73,837.033C1440.52,836.987 1435.54,836.979 1431.47,837.923" style="fill:none;stroke:#fff;stroke-opacity:0.09;stroke-width:7.68px;"/>
            <path d="M1448.82,853.892C1448.53,853.171 1450.05,854.86 1450.53,855.468C1451.36,856.515 1453.13,857.424 1454.27,858.046C1457.77,859.969 1464.71,865.121 1468.98,863.186" style="fill:none;stroke:#fff;stroke-opacity:0.09;stroke-width:7.68px;"/>
            <path d="M1406.71,792.606C1407.82,792.654 1408.21,794.135 1408.92,794.779C1411.04,796.716 1412.87,798.467 1415.46,799.783C1419.16,801.667 1422.44,798.882 1425.88,800.178" style="fill:none;stroke:#fff;stroke-opacity:0.09;stroke-width:7.68px;"/>
            <path d="M1431.77,816.054C1435.97,820.379 1442.17,823.142 1447.79,825.256" style="fill:none;stroke:#fff;stroke-opacity:0.09;stroke-width:7.68px;"/>
            <path d="M1445.44,798.171C1445.54,797.89 1445.82,798.636 1445.95,798.907C1446.25,799.574 1446.71,800.352 1447.15,800.925C1448.2,802.309 1449.72,803.901 1451.11,804.962C1455.02,807.94 1464.23,811.752 1466.9,804.632" style="fill:none;stroke:#fff;stroke-opacity:0.09;stroke-width:7.68px;"/>
            <path d="M1463.57,776.722C1463.45,776.711 1464.14,777.067 1464.24,776.801C1464.53,776.034 1462.98,777.856 1462.44,778.473C1461.23,779.858 1459.89,781.295 1457.98,781.495C1452.61,782.056 1448.77,779.013 1444.1,777.257" style="fill:none;stroke:#fff;stroke-opacity:0.09;stroke-width:7.68px;"/>
            <path d="M1439.01,745.45C1439.12,745.2 1442.07,748.387 1442.34,748.59C1445.05,750.601 1446.92,752.076 1450.17,753.296" style="fill:none;stroke:#fff;stroke-opacity:0.09;stroke-width:7.68px;"/>
            <path d="M1380.58,864.875C1380.94,864.509 1381.06,865.781 1381.27,866.247C1381.72,867.244 1382.27,868.151 1382.72,869.144C1384.01,871.977 1385.38,876.593 1387.59,878.61C1391.58,882.262 1393.62,876.442 1397.01,874.906C1398.33,874.308 1399.64,875.564 1400.89,874.995" style="fill:none;stroke:#fff;stroke-opacity:0.09;stroke-width:7.68px;"/>
            <path d="M1417.63,872.631C1417.67,873.508 1419.46,872.619 1420.22,873.059C1421.76,873.95 1423.51,875.53 1424.66,876.881C1426.76,879.347 1429.87,885.026 1433.69,885.171C1434.93,885.218 1436.39,883.943 1437.47,883.457C1438.63,882.928 1439.66,882.423 1440.56,881.486C1441.31,880.702 1443.01,879.128 1443.35,878.227" style="fill:none;stroke:#fff;stroke-opacity:0.09;stroke-width:7.68px;"/>
            <path d="M1417.71,899.321C1418.06,899.535 1419.32,899.549 1418.94,899.405C1417.3,898.788 1415.76,899.778 1414.15,900.152C1412.53,900.529 1410.93,900.198 1409.32,900.492C1407.95,900.742 1407.02,902.087 1405.61,902.033C1401.03,901.86 1400.32,894.56 1396.95,893.294" style="fill:none;stroke:#fff;stroke-opacity:0.09;stroke-width:7.68px;"/>
            <path d="M1417,772.734C1417.86,771.462 1423.33,781.029 1424.82,782.64C1428.2,786.285 1430.07,780.381 1433.43,781.642" style="fill:none;stroke:#fff;stroke-opacity:0.09;stroke-width:7.68px;"/>
            <path d="M1412.86,774.578C1412.79,775.05 1413.85,775.037 1413.96,775.502C1414.45,777.649 1415.63,778.933 1416.98,780.626C1418.89,783.044 1420.76,785.096 1422.77,787.274C1423.44,787.992 1424.17,789.312 1425.34,789.356C1426.67,789.407 1429.45,788.19 1430.8,787.578C1431.63,787.199 1435.16,787.007 1435.48,786.148" style="fill:none;stroke:#000;stroke-width:6.67px;"/>
        </g>
        <g>
            <path d="M1369.84,795.965C1371.21,795.665 1377.35,798.146 1376.63,800.321C1375.65,803.273 1369.34,801.069 1367.87,804.009C1367.27,805.216 1369.59,808.494 1370.18,809.079C1371.44,810.34 1367.51,811.871 1367.18,812.537C1366.51,813.875 1367.54,816.273 1365.8,817.146C1362.65,818.719 1355.83,817.496 1354.04,821.064C1353.05,823.052 1359.32,822.088 1360.04,822.447C1362.26,823.56 1368.96,826.33 1367.64,830.283C1366.4,834.007 1358,833.708 1355.19,835.815C1354.12,836.619 1351.54,838.422 1350.82,839.502C1349.75,841.104 1351.42,842.416 1352.43,843.42C1354.74,845.734 1357.57,845.725 1361.19,845.725" style="fill:none;stroke:#ff3900;stroke-opacity:0.33;stroke-width:11.2px;"/>
            <path d="M1377.81,798.74C1377.41,798.3 1381.03,800.453 1381.7,801.013C1383.67,802.652 1391.08,804.492 1392.99,801.935C1393.61,801.112 1393.22,799.201 1393.22,798.247C1393.22,795.763 1393.88,787.366 1392.53,785.341C1391.62,783.973 1389.52,783.484 1388.38,782.344C1387.88,781.844 1387,780.731 1387,780.731C1387,780.731 1388.07,784.027 1388.85,785.571C1389.36,786.611 1391.2,785.664 1392.3,786.032C1394.65,786.816 1403.49,788.712 1404.75,785.571C1405.51,783.662 1403.27,780.608 1402.44,779.118C1399.95,774.625 1392.95,767.034 1394.61,762.063C1395.18,760.34 1392.44,759.225 1394.15,758.375C1395.21,757.841 1396.73,765.206 1396.91,765.75C1399.1,772.319 1404.01,778.983 1411.2,773.586C1413.13,772.139 1419.49,765.271 1418.12,762.523C1416.28,758.858 1410.64,756.518 1409.82,752.383C1409.36,750.088 1410.86,748.684 1411.2,746.621C1411.43,745.248 1410.74,742.472 1410.74,742.472C1410.74,742.472 1410.52,746.136 1411.2,747.773C1412.78,751.565 1416.15,754.776 1419.96,756.301C1420.43,756.49 1422.61,757.801 1423.18,757.223C1424.27,756.143 1422.9,750.898 1423.65,749.156C1425.13,745.688 1426.82,742.16 1428.03,738.554C1428.68,736.595 1426.14,734.713 1426.87,733.253C1427.64,731.727 1431.94,733.945 1431.94,733.945C1431.94,733.945 1429.95,733.714 1428.95,733.714C1426.8,733.714 1425.24,733.273 1423.88,734.636" style="fill:none;stroke:#ff3900;stroke-opacity:0.33;stroke-width:11.2px;"/>
            <path d="M1433.17,737.588C1432.83,737.102 1433.86,738.636 1433.86,739.229C1433.86,740.63 1433.7,741.784 1433.37,743.099C1432.28,747.463 1429.03,751.3 1427.57,755.677C1426.85,757.837 1425.65,758.393 1424.42,760.031C1422.41,762.722 1421.55,766.36 1419.83,769.223C1418.52,771.403 1416.22,772.34 1414.75,774.302C1411.93,778.057 1412.43,782.364 1410.15,786.154C1408.11,789.554 1402.4,788.82 1399.51,790.266C1398.16,790.94 1398.29,794.629 1397.09,795.83C1394.97,797.951 1391.05,801.708 1389.84,804.537C1388.64,807.319 1387.8,810.563 1385.97,813.003C1382.89,817.103 1374.25,816.366 1371.94,820.985C1371.27,822.318 1371.23,824.32 1370.73,825.823C1369.83,828.525 1365.52,830.472 1363.95,833.08C1363.02,834.639 1363.47,837.333 1363.47,839.127C1363.47,839.575 1363.1,842.385 1363.47,842.755C1363.69,842.976 1366.03,838.577 1366.13,838.401C1367.62,835.928 1369.26,833.522 1370.49,830.903C1372.01,827.627 1374.27,823.43 1374.6,819.776C1374.88,816.656 1373.62,812.052 1374.6,809.133C1375.19,807.358 1377.47,806.261 1378.71,805.021C1380.85,802.884 1385.41,799.543 1388.63,801.151C1390.15,801.916 1386.54,804.733 1386.21,805.021C1382.42,808.338 1377.21,809.662 1373.63,813.245C1369.43,817.442 1370.66,822.036 1370,827.274C1369.4,832.094 1368.68,837.232 1366.86,841.787" style="fill:none;stroke:#ff8100;stroke-opacity:0.33;stroke-width:11.2px;"/>
            <path d="M1438.17,742.617C1438.25,742.614 1438.21,745.393 1438.21,745.518C1438.21,748.619 1435.98,751.647 1434.34,754.226C1431.8,758.214 1428,760.47 1424.91,763.901C1421.45,767.742 1419.52,773.219 1416.44,777.447C1413.66,781.272 1410.64,783.348 1409.19,788.089C1406.99,795.223 1402.46,805.426 1396.12,809.859C1391.46,813.122 1385.57,814.276 1381.13,818.083C1376.75,821.834 1377.54,828.344 1374.36,832.596C1372.18,835.493 1367.83,836.688 1366.13,840.094C1364.39,843.581 1364.82,848.045 1363.23,851.221C1362.54,852.605 1364.75,854.053 1363.95,854.849C1363.67,855.128 1362.5,854.852 1362.26,855.333C1361.46,856.931 1364.58,861.234 1363.23,862.589C1361.47,864.345 1358.32,862.861 1357.66,860.896C1357.31,859.834 1357.56,856.404 1357.42,856.542" style="fill:none;stroke:#ff8100;stroke-opacity:0.33;stroke-width:11.2px;"/>
            <path d="M1434.46,745.511C1433.88,745.244 1435.69,745.091 1436.23,744.735C1437.81,743.678 1439.03,742.128 1440.66,741.042C1444.43,738.526 1454.25,739.634 1455.43,738.457C1456.67,737.217 1455.09,733.959 1455.8,732.549C1456.46,731.218 1457.65,728.487 1457.65,728.487C1457.65,728.487 1453.15,729.246 1451,729.964C1446.56,731.445 1439.11,734.54 1436.97,738.826" style="fill:none;stroke:#ff8100;stroke-opacity:0.33;stroke-width:11.2px;"/>
        </g>
        <g>
            <path d="M1429.62,607.085C1441.24,624.127 1456.18,644.858 1476.78,651.464C1482.2,653.204 1489.7,653 1495.4,652.971C1509.4,652.9 1523.32,648.554 1537.47,648.621C1546.58,648.664 1555.51,651.933 1564.29,653.994C1571.72,655.739 1583.89,657.456 1587.59,665.606C1589.65,670.124 1579.24,669.489 1577.57,669.265C1576.39,669.106 1575.22,668.889 1574.07,668.562C1573.49,668.395 1572.24,667.47 1572.32,668.07C1572.91,672.457 1576.02,676.06 1577.71,680.021C1578.08,680.878 1575.87,680.313 1574.94,680.383C1574.18,680.439 1566.74,679.671 1566.71,679.716C1563.68,684.549 1567.27,688.54 1566.72,693.15C1566.55,694.527 1564.3,691.782 1563.17,690.983C1560.48,689.088 1555.75,689.735 1552.57,688.932C1551.89,688.76 1546.61,689.01 1545.88,689.099C1540.01,689.814 1539.44,690.317 1534.51,691.633C1517.17,696.258 1499.94,696.453 1482.12,696.726C1454.98,697.14 1430.77,690.88 1405.71,680.699C1395.6,676.587 1384.72,672.923 1376.14,665.941C1357.09,650.44 1345.07,630.339 1334.61,608.654" style="fill:#6f5e4c;stroke:#000;stroke-width:6.67px;"/>
            <path d="M990.583,512.542C889.276,462.48 751.534,363.441 645.181,439.019C611.28,463.11 572.492,528.176 558.656,594.656C555.957,607.626 547.45,706.647 558.721,718.228C582.834,743.003 659.181,641.741 686.185,621.722C701.041,610.707 713.605,601.363 728.701,592.339C744.31,583.007 762.14,575.871 778.212,569.23C832.58,546.764 886.24,565.627 938.055,576.16" style="fill:#a88d6e;stroke:#000;stroke-width:6.67px;"/>
            <path d="M1393.87,556.062C1364.77,542.629 1339.74,522.56 1309.15,511.824C1257.39,493.663 1125.72,483.378 1069.9,491.109C1051.76,493.621 1009.64,495.381 991.534,497.412C962.154,500.707 921.634,513.763 932.55,565.065C941.74,608.254 983.805,610.883 1014.22,612.028C1068.32,614.063 1118.39,628.053 1170.35,641.542C1181.57,644.456 1191.41,650.864 1202.83,653.344C1231.04,659.466 1260.03,660.162 1288.71,661.767C1308.67,662.884 1330.85,666.469 1350.44,660.978C1363.3,657.374 1373.85,649.375 1385.52,643.202C1416.66,626.724 1432.51,620.522 1416.09,579.514C1411.73,568.649 1402.16,554.234 1390.6,550.096" style="fill:#6f5e4c;stroke:#000;stroke-width:6.67px;"/>
            <path d="M1331.63,531.247C1349.35,527.663 1367.68,527.63 1385.12,524.201C1430.47,515.284 1475.86,496.391 1522.04,514.056C1526.61,515.804 1581.55,589.239 1581.56,589.477C1581.76,598.252 1566.64,612.905 1559.88,617.704C1517.37,647.922 1442.71,615.179 1392.62,629.489" style="fill:#6f5e4c;stroke:#000;stroke-width:6.67px;"/>
            <path d="M1483.13,514.763C1475.57,460.548 1441.95,459.542 1447.86,514.354" style="fill:#6f5e4c;stroke:#000;stroke-width:6.67px;"/>
            <path d="M1154.88,620.473C1150.43,623.069 1139.12,643.575 1134.85,646.495C1127.71,651.377 1119.75,654.659 1112.4,659.172C1104.89,663.784 1098.73,668.939 1090.36,672.212C1077.73,677.152 1062.32,677.586 1048.82,677.559C1033.81,677.53 1016.06,673.982 1001.65,669.628C988.58,665.678 978.875,659.385 965.302,665.167C957.967,668.292 958.61,675.314 955.456,681.28C952.356,687.143 950.664,693.521 947.757,699.464C943.371,708.43 937.894,716.794 933.091,725.542C931.041,729.276 929.263,733.107 927.995,737.174C927.765,737.912 927.224,741.092 926.495,741.43C922.792,743.145 920.681,734.904 919.809,733.198C919.676,732.939 916.023,736.204 915.713,736.524C915.338,736.911 914.684,738.226 914.598,737.694C914.248,735.52 914.675,732.961 915.265,730.847C915.346,730.556 916.491,727.41 916.269,727.303C913.137,725.792 907.123,731.256 906.339,730.226C901.498,723.868 910.313,710.221 912.949,704.105C916.632,695.559 919.557,686.698 925.196,679.144C931.332,670.923 939.796,664.783 946.235,656.749C952.07,649.469 954.281,640.189 963.601,636.438" style="fill:#6f5e4c;stroke:#000;stroke-width:6.67px;"/>
            <path d="M1152.9,602.645C1119.73,643.741 1084.07,675.076 1028.59,659.441C1000.02,651.391 963.839,624.263 932.781,631.002C902.927,637.48 891.301,678.479 870.567,696.216C868.019,698.395 847.233,714.214 843.41,711.849C838.809,709.003 852.22,690.46 852.52,687.645C852.947,683.639 827.392,694.606 825.568,694.172C825.309,694.11 839.014,679.131 840.436,677.543C843.117,674.547 842.559,669.629 845.407,665.916C851.293,658.245 859.604,652.51 866.011,645.255C878.328,631.305 898.749,609.179 916.31,602.309C967.642,582.231 982.814,609.201 1018.95,559.25" style="fill:#6f5e4c;stroke:#000;stroke-width:6.67px;"/>
            <path d="M1534.6,565.318C1531.87,551.963 1526.21,539.516 1510.68,538.927C1508.22,538.833 1503.81,538.413 1501.63,539.733C1500.7,540.294 1501.26,542.345 1501.68,543.342C1502.52,545.345 1501.7,544.014 1502.25,546.111C1504.62,555.093 1513.94,565.997 1523.47,568.049C1526.7,568.745 1532.08,570.297 1533.96,566.763" style="stroke:#000;stroke-width:6.67px;"/>
            <path d="M1558.37,595.212C1556.43,591.593 1549.52,591.333 1546.05,591.256C1535.39,591.02 1525.23,594.482 1514.59,593.088" style="fill:none;stroke:#000;stroke-width:2.92px;"/>
            <path d="M1558.05,602.562C1552.15,602.46 1546.35,601.474 1540.46,601.359C1532.53,601.204 1525.25,602.22 1517.56,603.908" style="fill:none;stroke:#000;stroke-width:2.92px;"/>
            <path d="M1554.1,607.845C1547.42,610.676 1539.72,610.261 1532.63,610.822C1527.04,611.266 1521.33,612.837 1515.73,612.849" style="fill:none;stroke:#000;stroke-width:2.92px;"/>
            <path d="M1578.38,599.626C1582.74,599.3 1589.33,597.695 1593.71,599.19" style="fill:none;stroke:#000;stroke-width:2.92px;"/>
            <path d="M1572.1,607.272C1578.6,606.344 1585.95,606.466 1592.44,607.484" style="fill:none;stroke:#000;stroke-width:2.92px;"/>
            <path d="M1566.59,609.891C1575.05,613.462 1583.54,617.775 1592.26,620.618" style="fill:none;stroke:#000;stroke-width:2.92px;"/>
            <path d="M1578.59,596.822C1564.63,590.657 1559.32,597.9 1561.3,610.799" style="fill:#6f5e4c;stroke:#000;stroke-width:6.67px;"/>
            <path d="M1574.49,597.581C1571.69,599.19 1569.52,601.327 1567.41,603.764C1566.18,605.186 1564.09,607.593 1564.09,607.588C1563.19,606.219 1566.43,600.588 1566.91,599.029" style="fill:none;stroke:#000;stroke-width:6.72px;"/>
            <path d="M1414.34,617.456C1415.54,661.673 1407.48,706.525 1426.96,747.919C1434.97,764.937 1461.79,787.945 1451.13,808.513C1446.73,817.003 1442.96,816.723 1440.57,811.804C1439.53,809.661 1438.63,807.418 1437.78,805.184C1437.41,804.233 1436.8,801.309 1436.69,802.329C1436.3,806.181 1442.77,821.362 1435.51,823.319C1429.2,825.019 1427.97,827.419 1424.22,822.626C1422.34,820.228 1420.79,817.494 1419.55,814.67C1419.5,814.554 1419.42,814.192 1419.4,814.319C1419.07,816.829 1421.02,820.903 1421.31,823.537C1422.24,832.105 1412.34,837.566 1401.08,826.07C1391.83,816.627 1397.73,808.465 1392.62,796.223C1387.68,784.388 1379.55,773.837 1376.53,761.153C1372.52,744.253 1374.58,726.214 1369.47,709.615C1362.29,686.255 1349.66,664.813 1338.27,643.537" style="fill:#6f5e4c;stroke:#000;stroke-width:6.67px;"/>
        </g>
        <g opacity="0.04">
            <path d="M1324.54,535.125C1312.92,530.27 1301.92,523.183 1289.97,519.263C1246.51,505.004 1200.99,502.869 1155.95,497.867C1103.69,492.063 1082.77,486.306 1029.13,491.942C999.487,495.057 935.311,510.819 912.09,532.659" style="fill:none;stroke:#fff;stroke-width:20.42px;"/>
            <path d="M931.805,495.314C900.936,479.714 872.84,470.212 834.881,454.193C788.57,434.65 724.28,417.121 676.791,435.059C659.406,441.626 603.512,502.83 595.525,520.07C571.881,571.102 571.403,582.019 563.823,633.446C562.357,643.396 552.441,703.104 566.908,709.63C581.855,716.373 610.59,671.214 620.814,663.276C645.066,644.447 673.174,616.645 699.004,600.227C717.153,588.691 706.94,592.04 738.952,573.663C752.577,565.842 760.335,560.134 775.773,557.506C818.659,550.205 862.571,544.122 913.56,560.169" style="fill:none;stroke:#fff;stroke-width:20.42px;"/>
            <path d="M1019.51,561.186C1010.79,571.068 1004.67,583.236 992.248,589.332C980.085,595.3 966.435,595.407 953.332,597.16C919.274,601.717 890.75,615.405 870.297,643.919" style="fill:none;stroke:#fff;stroke-width:20.42px;"/>
            <path d="M1555.63,581.246C1547.4,565.388 1508.4,516.015 1490.03,512.767C1457.89,507.085 1423.23,523.408 1391.63,527.702" style="fill:none;stroke:#fff;stroke-width:20.42px;"/>
            <path d="M1459.85,500.064C1458.35,495.203 1455.52,492.278 1453.4,487.784C1449.72,479.946 1450.43,492.402 1449.32,498.172" style="fill:none;stroke:#fff;stroke-width:20.42px;"/>
            <path d="M1316.86,538.682C1288.59,508.891 1246.7,515.125 1209.67,512.715C1172.17,510.274 1135.68,509.82 1098.1,509.812C1076.87,509.807 1056.51,506.447 1035.23,509.157C1004.47,513.075 966.581,526.963 935.243,535.367" style="fill:none;stroke:#fff;stroke-width:44.74px;"/>
            <path d="M1324.5,647.101C1262.9,649.309 1202.54,631.712 1142.55,621.142" style="fill:none;stroke:#000;stroke-width:48.17px;"/>
            <path d="M1136.37,594.675C1121.29,615.375 1063.26,649.145 1036.31,646.367C999.292,642.552 968.391,616.882 927.193,623.729" style="fill:none;stroke:#000;stroke-width:22.66px;"/>
            <path d="M1542.03,602.653C1518.57,632.919 1479.03,613.299 1447.9,612.924" style="fill:none;stroke:#000;stroke-width:22.66px;"/>
            <path d="M1130.03,643.882C1124.01,647.069 1117.17,648.762 1111.48,652.545C1100.03,660.151 1092.97,669.02 1078.73,672.701C1070.52,674.821 1046.36,672.27 1037.65,670.851C1021.49,668.216 1005.85,663.829 991.492,655.892C986.102,652.912 974.044,644.913 967.424,647.651C960.875,650.36 954.759,657.889 950.5,663.262C946.817,667.909 942.061,671.526 939.162,676.817C931.574,690.665 929.527,707.532 921.937,721.572" style="fill:none;stroke:#000;stroke-width:19.84px;"/>
            <path d="M1521.06,560.12C1520.52,555.246 1507.77,534.097 1501.48,539.104C1492.71,546.099 1509.58,564.938 1517.75,563.973C1526.43,562.946 1526.12,552.654 1519.74,548.694" style="fill:none;stroke:#000;stroke-width:22.66px;"/>
            <path d="M1347,641.09C1375.64,680.83 1379.5,726.921 1392.22,772.466C1397.65,791.877 1407.79,809.787 1411.52,829.698" style="fill:none;stroke:#000;stroke-width:16.23px;"/>
            <path d="M1563,671.08C1551.09,669.043 1542.1,675.674 1531.7,679.961C1520.35,684.641 1504.81,688.544 1492.66,690.516C1482.34,692.194 1453.19,691.727 1443.2,689.715C1437.58,688.581 1432.39,686.602 1426.88,685.144C1426.42,685.022 1418.5,682.892 1418.5,684.027C1418.52,687.668 1429.28,690.158 1432.22,691.039" style="fill:none;stroke:#000;stroke-width:16.23px;"/>
            <path d="M1404.94,624.785C1401.21,659.966 1405.36,713.328 1418.98,746.23C1424.4,759.318 1431.23,771.972 1438.4,784.176C1443.41,792.692 1450.75,801.09 1453.73,810.647" style="fill:none;stroke:#fff;stroke-width:16.23px;"/>
            <path d="M1428.06,625.512C1441.16,638.023 1453.13,655.042 1471.77,659.662C1490.73,664.362 1511.38,657.01 1530.79,658.3C1541.24,658.995 1550.66,666.802 1561.12,666.417" style="fill:none;stroke:#fff;stroke-width:16.23px;"/>
        </g>
        <path d="M1510.99,544.835C1511.03,540.48 1504.09,536.246 1501.97,541.477C1499.86,546.702 1506.63,551.101 1510.16,546.575C1511.71,544.573 1509.2,541.073 1506.76,542.047C1504.55,542.931 1505.53,545.265 1507.45,545.656" style="fill:none;stroke:#000;stroke-opacity:0.22;stroke-width:6.67px;"/>
        <path d="M1421.48,788.962C1419.33,777.592 1414.34,769.318 1410.7,758.41C1403.53,736.876 1400.39,710.66 1390.51,690.898C1385.97,681.81 1392.1,662.036 1380.42,656.196C1363.29,647.63 1344.68,647.226 1326.16,641.053C1316.13,637.709 1303,643.625 1292.72,641.053C1279.96,637.864 1266.64,635.481 1253.6,632.22C1238.89,628.542 1224.43,633.434 1209.43,628.434C1204.45,626.774 1196.99,631.95 1190.5,630.327C1183.93,628.684 1177.22,627.172 1170.31,627.172C1164.67,627.172 1131.85,626.513 1129.3,629.065C1126.43,631.931 1121.61,633.599 1118.57,636.636C1113.83,641.381 1113.11,651.569 1107.85,656.827C1101.86,662.819 1092.87,657.922 1081.35,669.446" style="fill:none;stroke:#ff6956;stroke-opacity:0.16;stroke-width:56.64px;"/>
        <path d="M1421.41,662.065C1421.61,660.019 1423.27,666.272 1425.22,666.922C1430.91,668.82 1433.76,676.329 1440.36,677.648C1465.97,682.771 1489.76,688.374 1516.7,688.374C1521.25,688.374 1542.57,691.425 1542.57,682.065" style="fill:none;stroke:#ff6956;stroke-opacity:0.16;stroke-width:56.64px;"/>
    </g>
</svg>
