<?xml version="1.0" encoding="UTF-8" standalone="no"?>
<!DOCTYPE svg PUBLIC "-//W3C//DTD SVG 1.1//EN" "http://www.w3.org/Graphics/SVG/1.1/DTD/svg11.dtd">
<svg width="100%" height="100%" viewBox="0 0 2133 1066" version="1.1" xmlns="http://www.w3.org/2000/svg" xmlns:xlink="http://www.w3.org/1999/xlink" xml:space="preserve" xmlns:serif="http://www.serif.com/" style="fill-rule:evenodd;clip-rule:evenodd;stroke-linecap:round;stroke-linejoin:round;stroke-miterlimit:1.5;">
    <g id="running3" transform="matrix(1.07327,-0.0933829,0.0933829,1.07327,414.223,-24.978)">
        <g>
            <g transform="matrix(0.673765,0.492053,-0.76272,1.04439,585.532,-259.845)">
                <path d="M467.489,542.865C347.809,518.023 180.016,462.259 75.352,527.147C41.989,547.831 9.956,598.12 5.613,646.778C4.766,656.271 26.952,717.009 41.251,724.041C71.843,739.083 123.946,669.589 150.385,652.524C164.93,643.136 177.226,635.175 192.362,627.174C208.012,618.901 226.464,611.951 243.063,605.539C299.216,583.847 361.353,591.572 420.098,593.577" style="fill:rgb(168,141,110);stroke:black;stroke-width:5.69px;"/>
            </g>
            <g transform="matrix(0.999383,-0.0351152,0.0351152,0.999383,-20.0847,22.4297)">
                <path d="M838.626,564.285C811.618,551.816 788.382,533.187 759.983,523.222C711.94,506.364 589.717,496.817 537.905,503.994C521.07,506.326 481.972,507.959 465.166,509.844C437.895,512.903 401.269,522.187 411.401,569.807C419.931,609.896 457.992,615.172 486.223,616.234C536.438,618.123 582.918,631.109 631.146,643.63C641.563,646.335 650.698,652.283 661.301,654.585C687.478,660.267 714.393,660.914 741.014,662.404C759.544,663.44 780.132,666.768 798.316,661.671C810.248,658.326 820.045,650.901 830.872,645.171C859.779,629.875 874.491,624.118 859.246,586.054C855.207,575.968 846.324,562.588 835.593,558.747" style="fill:rgb(111,94,76);stroke:black;stroke-width:6.19px;"/>
            </g>
            <g transform="matrix(0.989968,-0.141291,0.141291,0.989968,-71.8765,122.078)">
                <path d="M780.855,541.251C797.303,537.924 814.314,537.894 830.502,534.711C872.596,526.434 914.732,508.897 957.596,525.294C961.836,526.916 1012.84,595.081 1012.84,595.302C1013.03,603.447 998.993,617.048 992.726,621.503C953.264,649.552 883.961,619.159 837.465,632.442" style="fill:rgb(111,94,76);stroke:black;stroke-width:6.19px;"/>
            </g>
            <g transform="matrix(0.788047,-0.112472,0.180094,1.26185,84.8118,-66.0179)">
                <path d="M929.347,541.347C920.521,501.866 881.324,501.133 888.215,541.05" style="fill:rgb(111,94,76);stroke:black;stroke-width:5.82px;"/>
            </g>
            <g transform="matrix(0.989968,-0.141291,0.141291,0.989968,-71.8765,122.078)">
                <path d="M969.253,572.877C966.722,560.48 961.467,548.927 947.053,548.38C944.767,548.293 940.673,547.903 938.651,549.128C937.793,549.648 938.309,551.552 938.696,552.478C939.474,554.337 938.715,553.102 939.228,555.048C941.426,563.386 950.077,573.507 958.922,575.411C961.924,576.058 966.917,577.498 968.659,574.218" style="stroke:black;stroke-width:6.19px;"/>
            </g>
            <g transform="matrix(0.918917,-0.13115,0.13115,0.918917,-27.9479,159.426)">
                <path d="M1026.8,600.546C1024.87,596.927 1017.95,596.667 1014.48,596.59C1003.82,596.354 993.662,599.817 983.018,598.422" style="fill:none;stroke:black;stroke-width:2.92px;"/>
            </g>
            <g transform="matrix(0.918917,-0.13115,0.13115,0.918917,-27.9479,159.426)">
                <path d="M1026.48,607.896C1020.59,607.794 1014.78,606.809 1008.89,606.693C1000.97,606.538 993.679,607.554 985.993,609.242" style="fill:none;stroke:black;stroke-width:2.92px;"/>
            </g>
            <g transform="matrix(0.918917,-0.13115,0.13115,0.918917,-27.9479,159.426)">
                <path d="M1022.54,613.179C1015.85,616.011 1008.15,615.595 1001.07,616.157C995.473,616.6 989.764,618.171 984.166,618.184" style="fill:none;stroke:black;stroke-width:2.92px;"/>
            </g>
            <g transform="matrix(0.918917,-0.13115,0.13115,0.918917,-27.9479,159.426)">
                <path d="M1046.81,604.96C1051.17,604.634 1057.77,603.029 1062.15,604.524" style="fill:none;stroke:black;stroke-width:2.92px;"/>
            </g>
            <g transform="matrix(0.918917,-0.13115,0.13115,0.918917,-27.9479,159.426)">
                <path d="M1040.53,612.606C1047.04,611.678 1054.38,611.8 1060.87,612.819" style="fill:none;stroke:black;stroke-width:2.92px;"/>
            </g>
            <g transform="matrix(0.918917,-0.13115,0.13115,0.918917,-27.9479,159.426)">
                <path d="M1035.02,615.225C1043.49,618.796 1051.97,623.109 1060.69,625.952" style="fill:none;stroke:black;stroke-width:2.92px;"/>
            </g>
            <g transform="matrix(0.989968,-0.141291,0.141291,0.989968,-71.8765,122.078)">
                <path d="M1010.09,602.119C997.131,596.397 992.202,603.12 994.039,615.094" style="fill:rgb(111,94,76);stroke:black;stroke-width:6.19px;"/>
            </g>
            <g transform="matrix(0.918917,-0.13115,0.13115,0.918917,-27.9479,159.426)">
                <path d="M1042.93,602.916C1040.13,604.524 1037.95,606.661 1035.85,609.098C1034.62,610.521 1032.53,612.927 1032.52,612.922C1031.63,611.553 1034.86,605.922 1035.34,604.363" style="fill:none;stroke:black;stroke-width:6.72px;"/>
            </g>
            <g transform="matrix(0.884255,0.282318,-0.282318,0.884255,269.376,-167.942)">
                <path d="M874.711,620.572C879.18,637.772 872.034,651.446 867.328,667.779C856.584,705.065 836.049,744.837 804.996,769.396C799.128,774.037 792.14,782.702 785.286,785.735C784.254,786.192 785.722,783.517 786.054,782.44C786.85,779.866 787.658,777.293 788.472,774.725C788.848,773.539 790.933,771.343 789.697,771.199C786.853,770.867 782.074,774.524 779.351,775.772C777.955,776.411 775.412,779.52 775.312,777.987C774.988,773.034 781.281,768.278 781.143,763.916C781.106,762.752 770,767.733 769.425,767.374C768.092,766.542 772.147,756.345 772.597,755.1C776.996,742.929 783.87,732.034 789.104,720.221C792.754,711.982 788.983,701.733 790.696,693.01C794.294,674.683 801.918,657.004 805.861,638.59" style="fill:rgb(111,94,76);stroke:black;stroke-width:6.67px;"/>
            </g>
            <g transform="matrix(0.894637,0.247454,-0.247454,0.894637,210.818,-156.038)">
                <path d="M900.888,616.54C918.098,647.267 881.404,658.404 864.44,674.984C849.494,689.591 841.659,706.879 829.61,723.184C822.297,733.08 812.112,739.992 803.997,749.127C794.808,759.47 787.105,771.003 777.335,780.859C766.003,792.291 755.7,805.773 743.773,816.388C741.033,818.826 733.306,824.94 729.185,823.037C720.127,818.854 730.418,806.77 731.803,802.24C732.408,800.26 728.347,804.521 726.599,805.63C723.14,807.824 716.855,811.362 712.507,810.077C705.366,807.968 718.454,796.791 719.568,794.773C720.46,793.158 716.45,796.771 714.758,797.506C711.38,798.974 703.223,801.89 701.586,796.291C697.862,783.557 717.837,769.743 724.115,761.053C729.591,753.471 732.776,744.306 739.594,737.62C746.752,730.601 756.697,726.392 762.247,717.759C768.551,707.954 767.946,695.944 773.499,685.892C788.257,659.176 802.779,650.512 776.375,627.266" style="fill:rgb(111,94,76);stroke:black;stroke-width:6.67px;"/>
            </g>
            <g transform="matrix(0.92808,-0.016673,0.0129725,0.722094,-450.982,186.52)">
                <path d="M908.224,580.799C876.694,626.059 859.885,692.796 880.606,746.322C889.264,768.686 906.67,789.732 921.212,808.532C941.331,834.541 954.016,849.997 982.152,868.531C987.588,872.112 1002.69,883.328 1009.59,880.546C1010.72,880.092 1006.32,874.22 1006.26,873.406C1006.21,872.666 1014.14,873.064 1014.76,871.75C1015.96,869.242 1010.97,865.301 1013.14,863.575C1013.67,863.157 1021,865.829 1022.41,866.096C1022.74,866.159 1026.15,866.672 1026.15,866.485C1026.19,856.364 1014.69,846.06 1007.46,840.35C992.461,828.499 972.117,813.237 962.677,796.362C955.759,783.993 964.756,772.832 966.903,760.862" style="fill:rgb(111,94,76);stroke:black;stroke-width:7.44px;"/>
            </g>
            <g transform="matrix(0.813158,0.191336,-0.163846,0.696328,-224.646,-8.18379)">
                <path d="M919.525,561.762C880.457,602.939 884.144,661.994 888.823,714.173C890.758,735.754 892.708,761.16 909.257,776.835C925.375,792.102 952.722,797.093 972.768,805.62C1007.83,820.536 1039.62,838.814 1075.71,852.211C1089.63,857.379 1103.89,859.794 1118.61,860.373C1120.99,860.467 1130.15,862.299 1131.92,859.313C1134.99,854.122 1126.03,846.768 1122.88,844.521C1121.52,843.546 1120.12,842.631 1118.65,841.832C1117.94,841.449 1115.89,841.307 1116.49,840.775C1121.27,836.528 1134.42,842.118 1138.44,836.647C1140.59,833.737 1128.71,830.953 1131.34,828.469C1133.55,826.372 1146.92,825.959 1147.27,822.668C1149.27,803.886 1104.96,810.563 1093.11,808.588C1073.43,805.307 1064.92,804.053 1047.22,795.768C1038.44,791.655 1022.16,782.012 1013.39,777.987C991.276,767.831 998.61,755.18 1002.88,731.133C1005.93,713.978 1031.83,696.242 1046.38,688.551C1074.65,673.616 1096.71,629.116 1087.69,597.671C1083.3,582.357 1071.71,570.445 1060.99,559.251" style="fill:rgb(111,94,76);stroke:black;stroke-width:7.96px;"/>
            </g>
        </g>
        <g opacity="0.05">
            <g transform="matrix(0.926918,-0.049327,0.049327,0.926918,13.2016,73.2357)">
                <path d="M801.625,545.585C790.013,540.73 779.011,533.643 767.061,529.723C723.597,515.464 678.077,513.329 633.039,508.327C580.779,502.523 559.86,496.766 506.222,502.402C476.575,505.517 412.399,521.279 389.179,543.119" style="fill:none;stroke:white;stroke-width:20.42px;"/>
            </g>
            <g transform="matrix(0.902045,0.218918,-0.21769,0.896986,182.982,-35.5177)">
                <path d="M430.255,501.794C395.111,475.642 360.173,446.191 337.974,431.223C274.805,388.63 193.096,358.485 145.608,376.423C128.223,382.99 76.001,444.499 60.643,455.684C32.256,476.357 14.789,550.6 18.544,603.51C19.258,613.565 48.441,605.522 61.658,596.714C94.279,574.974 123.581,557.078 133.805,549.14C158.057,530.311 161.543,531.432 209.706,521.9C230.773,517.73 235.273,514.999 267.184,512.572C282.843,511.381 291.086,510.532 325.693,525.184C365.781,542.157 343.622,522.995 386.49,551.388" style="fill:none;stroke:white;stroke-width:20.47px;"/>
            </g>
            <g transform="matrix(0.928229,0,0,0.928229,43.1182,24.8445)">
                <path d="M1032.72,591.706C1024.49,575.848 985.489,526.475 967.118,523.227C934.978,517.545 900.32,533.868 868.715,538.162" style="fill:none;stroke:white;stroke-width:20.42px;"/>
            </g>
            <g transform="matrix(0.928229,0,0,0.928229,30.0077,31.0755)">
                <path d="M936.933,510.524C935.439,505.663 932.608,502.738 930.494,498.244C926.805,490.406 927.517,502.862 926.404,508.632" style="fill:none;stroke:white;stroke-width:20.42px;"/>
            </g>
            <g transform="matrix(0.927746,-0.0299623,0.0299623,0.927746,24.2803,70.8827)">
                <path d="M793.946,549.142C765.68,519.351 723.785,525.585 686.76,523.175C649.259,520.734 612.765,520.28 575.193,520.272C553.961,520.267 533.602,516.907 512.32,519.617C481.558,523.535 443.669,537.423 412.331,545.827" style="fill:none;stroke:white;stroke-width:44.74px;"/>
            </g>
            <g transform="matrix(0.928229,0,0,0.928229,4.24453,26.9996)">
                <path d="M801.586,657.561C739.984,659.769 679.628,642.172 619.64,631.602" style="fill:none;stroke:black;stroke-width:44.74px;"/>
            </g>
            <g transform="matrix(0.924736,0.0804596,-0.0666887,0.766464,-392.675,77.3269)">
                <path d="M926.898,553.209C911.106,576.789 903.106,604.159 898.159,631.554C896.908,638.481 894.333,645.014 894.056,652.13C893.647,662.606 895.591,672.939 896.929,683.273C898.351,694.245 895.402,711.904 903.029,721.01C918.044,738.937 940.886,738.038 959.926,748.779C984.751,762.784 1006.47,782.269 1030.3,797.886C1040.68,804.685 1052,808.666 1062.6,814.907" style="fill:none;stroke:black;stroke-width:22.98px;"/>
            </g>
            <g transform="matrix(0.924736,0.0804596,-0.05547,0.637526,-397.371,176.817)">
                <path d="M894.489,730.24C913.959,757.357 932.056,783.84 956.775,806.682C966.145,815.34 977.235,820.682 987.594,827.895C997.754,834.969 1006.92,843.284 1017.41,849.95" style="fill:none;stroke:black;stroke-width:24.57px;"/>
            </g>
            <g transform="matrix(0.924736,0.0804596,-0.0804596,0.924736,-385.056,-10.2302)">
                <path d="M1277.93,592.068C1278.26,602.007 1272.7,610.168 1267.98,618.409C1260.7,631.102 1249.36,644.873 1237.42,653.439C1220.7,665.427 1203.8,671.412 1190.66,688.072" style="fill:none;stroke:black;stroke-width:21.1px;"/>
            </g>
            <g transform="matrix(0.924736,0.0804596,-0.0804596,0.924736,-385.056,-10.2302)">
                <path d="M1380.93,601.049C1364.26,609.386 1353.71,620.07 1339.41,631.754C1331.53,638.194 1322.71,643.682 1315.47,650.877C1304.94,661.332 1295.64,672.763 1284.32,682.467" style="fill:none;stroke:black;stroke-width:21.1px;"/>
            </g>
            <g transform="matrix(0.924736,0.0804596,-0.0804596,0.924736,-385.056,-10.2302)">
                <path d="M1392.6,561.801C1390.65,587.32 1355.36,595.879 1337.56,605.925C1326.43,612.21 1317.89,622.542 1308.19,630.734C1293.05,643.531 1276.48,655.486 1260.64,667.33C1245.54,678.631 1227.6,685.214 1217.59,702.187" style="fill:none;stroke:white;stroke-width:21.1px;"/>
            </g>
            <g transform="matrix(0.924736,0.0804596,-0.0804596,0.924736,-385.056,-10.2302)">
                <path d="M1379.9,609.008C1371.42,633.386 1348.59,648.151 1329.61,663.662C1321.14,670.582 1314.51,679.178 1306.68,686.706" style="fill:none;stroke:white;stroke-width:21.1px;"/>
            </g>
            <g transform="matrix(0.924736,0.0804596,-0.0689833,0.792836,-391.406,62.752)">
                <path d="M1043.76,553.318C1062.53,581.875 1061.98,624.536 1033.97,646.948C1025.4,653.808 1016.16,660.828 1006.14,665.404C997.233,669.474 987.702,671.275 979.61,677.175C960.123,691.383 959.763,729.778 976.401,745.494C987.794,756.255 1003.81,762.381 1016.77,771.26" style="fill:none;stroke:white;stroke-width:22.66px;"/>
            </g>
            <g transform="matrix(0.924736,0.0804596,-0.0804596,0.924736,-385.056,-10.2302)">
                <path d="M1022.82,774.038C1040.23,781.195 1058.48,786.106 1075.49,794.314" style="fill:none;stroke:white;stroke-width:21.1px;"/>
            </g>
            <g transform="matrix(0.928229,0,0,1.04733,31.9182,-43.7273)">
                <path d="M998.144,570.58C997.607,565.706 984.853,544.557 978.571,549.564C969.795,556.559 986.673,575.398 994.836,574.433C1003.52,573.406 1003.21,563.114 996.832,559.154" style="fill:none;stroke:black;stroke-width:21.25px;"/>
            </g>
            <g transform="matrix(0.928229,0,0,0.928229,38.2108,43.1806)">
                <path d="M1031.43,586.302C1016.34,595.31 1001.37,598.607 984.167,602.342C971.917,605.001 960.398,608.287 947.763,608.839C932.77,609.494 917.632,608.337 902.601,608.601" style="fill:none;stroke:black;stroke-width:25.6px;"/>
            </g>
        </g>
        <g transform="matrix(0.732437,-0.104535,0.104535,0.732437,414.346,286.275)">
            <path d="M672.059,442.48C672.112,437.016 663.4,431.705 660.744,438.266C658.089,444.822 666.596,450.341 671.015,444.663C672.97,442.152 669.814,437.76 666.753,438.982C663.975,440.091 665.213,443.019 667.622,443.509" style="fill:none;stroke:white;stroke-opacity:0.22;stroke-width:8.36px;"/>
        </g>
    </g>
</svg>
