<?xml version="1.0" encoding="UTF-8" standalone="no"?>
<!DOCTYPE svg PUBLIC "-//W3C//DTD SVG 1.1//EN" "http://www.w3.org/Graphics/SVG/1.1/DTD/svg11.dtd">
<svg width="100%" height="100%" viewBox="0 0 2133 1066" version="1.1" xmlns="http://www.w3.org/2000/svg" xmlns:xlink="http://www.w3.org/1999/xlink" xml:space="preserve" xmlns:serif="http://www.serif.com/" style="fill-rule:evenodd;clip-rule:evenodd;stroke-linecap:round;stroke-linejoin:round;stroke-miterlimit:1.5;">
    <g id="sword-charging">
        <g>
            <g>
                <path d="M1362.11,457.645C1315.29,434.003 1266.6,410.888 1216.46,396.733C1140.01,375.152 1059.94,363.081 988.558,326.467C987.763,326.059 949.838,367.723 935.15,372.245C924.316,375.581 913.658,372.703 903.811,370.734C900.892,370.151 897.989,369.506 895.095,368.832C893.515,368.463 890.286,365.31 890.366,367.69C891.798,410.366 982.398,440.173 1006.76,447.202C1061.8,463.081 1114.69,486.216 1169.68,501.75C1227.85,518.181 1285.79,526.75 1340.84,552.078" style="fill:#bebebe;stroke:#000;stroke-width:6.67px;"/>
                <path d="M971.466,383.596C979.689,394.882 995.616,400.169 1008.54,403.66C1033.47,410.393 1058.89,416.389 1084.1,422.051C1103.46,426.401 1122.74,431.26 1141.49,437.815C1160.32,444.4 1178.42,453.1 1197.36,459.524C1219.7,467.1 1243.15,472.106 1265.65,479.385C1273.92,482.062 1281.64,487.049 1289.48,490.707C1300.55,495.871 1312.55,499.243 1324.53,501.442" style="fill:none;stroke:#000;stroke-width:6.67px;"/>
                <path d="M1366.61,515.326C1392.58,523.522 1421.23,524.142 1448.12,528.299C1448.2,528.312 1447.51,537.389 1448.2,539.235C1450.06,544.272 1456.57,546.471 1461.31,547.628C1472.76,550.424 1483.43,543.709 1485.24,531.892C1486.73,522.102 1481.03,514.641 1471.47,512.456C1462.45,510.395 1454.01,518.017 1444.17,516.693C1425.08,514.123 1405.97,510.141 1386.94,506.892C1381.14,505.903 1370.94,501.425 1365.09,503.175C1354.57,506.321 1364.24,515.854 1370.29,518.182" style="fill:#535353;stroke:#000;stroke-width:6.67px;"/>
                <path d="M1347.41,553.536C1352.42,540.186 1359.45,527.554 1364.79,514.29C1368.29,505.608 1371.92,496.971 1374.36,487.914C1376.33,480.604 1383.3,458.887 1381.34,452.172C1378.52,442.535 1363.12,455.992 1361.06,460.409C1355.67,472.003 1353.23,484.724 1349.35,496.848C1345.55,508.732 1340.72,520.107 1336.98,532.032C1335.1,538.014 1326.78,551.498 1330.07,557.85C1330.58,558.817 1335.57,557.574 1336.31,557.371C1342.57,555.657 1347.27,551.237 1351.31,546.361" style="fill:#484848;stroke:#000;stroke-width:6.67px;"/>
                <path d="M1461.32,534.63C1463.32,534.851 1465.83,534.972 1467.31,533.352C1469.68,530.755 1469.74,526.179 1465.54,525.665C1463.84,525.458 1461.65,525.271 1460.25,526.504C1456.8,529.534 1460.08,534.217 1463.85,534.421" style="fill:none;stroke:#771a23;stroke-width:10.16px;"/>
            </g>
            <g opacity="0.18">
                <path d="M984.315,339.599C1017.76,367.666 1063.1,367.115 1102.93,379.118C1130.66,387.479 1158.83,393.766 1186.57,401.918C1201.95,406.439 1216.73,412.754 1232.17,417.002C1243.99,420.254 1256.31,421.945 1267.96,425.754C1280.17,429.746 1291.15,437.169 1302.79,442.507C1318.27,449.601 1335.13,454.797 1351.36,459.994" style="fill:none;stroke:#fff;stroke-width:16.79px;"/>
                <path d="M906.284,386.435C919.897,408.782 941.378,422.477 965.054,429.161C971.792,431.063 978.935,431.121 985.677,433.099C1007.93,439.628 1028.75,448.609 1051.45,453.909C1078.87,460.314 1106.97,465.121 1134.11,472.502C1160.51,479.684 1185.95,490.426 1212.3,497.957C1250.46,508.864 1289.49,517.987 1326.09,533.709" style="fill:none;stroke:#fff;stroke-width:16.79px;"/>
                <path d="M919.092,384.409C944.876,372.616 971.023,368.933 988.049,339.906" style="fill:none;stroke:#fff;stroke-width:16.79px;"/>
                <path d="M1334.42,553.786C1336.83,552.278 1339.49,551.31 1341.63,549.275C1356.37,535.231 1359.91,510.956 1366.93,492.6C1371.39,480.916 1377.62,465.826 1376.01,453.2" style="fill:none;stroke:#000;stroke-width:6.67px;"/>
                <path d="M1370.75,504.758C1385.49,510.829 1400.11,512.447 1415.6,515.379C1425.47,517.247 1435.33,520.948 1445.42,521.59C1457.45,522.355 1470.19,509.039 1479.38,522.303C1480.65,524.141 1481.85,526.158 1482.61,528.265" style="fill:none;stroke:#000;stroke-width:6.67px;"/>
            </g>
        </g>
        <g>
            <path d="M1422.71,612.204C1436.85,627.222 1454.85,645.363 1476.23,648.67C1481.86,649.541 1489.23,648.169 1494.86,647.25C1508.67,644.993 1521.74,638.526 1535.73,636.381C1544.73,635 1554.06,636.833 1563.06,637.498C1570.67,638.061 1582.96,637.856 1587.89,645.327C1590.62,649.469 1580.24,650.468 1578.56,650.507C1577.37,650.534 1576.18,650.503 1575,650.359C1574.39,650.285 1573.02,649.566 1573.19,650.146C1574.45,654.388 1578.09,657.461 1580.38,661.109C1580.87,661.899 1578.6,661.686 1577.7,661.9C1576.96,662.074 1569.48,662.479 1569.46,662.527C1567.23,667.773 1571.4,671.155 1571.57,675.795C1571.62,677.18 1568.97,674.821 1567.73,674.208C1564.78,672.756 1560.21,674.134 1556.94,673.838C1556.24,673.775 1551.06,674.847 1550.35,675.049C1544.67,676.672 1544.18,677.258 1539.52,679.328C1523.12,686.605 1506.13,689.488 1488.57,692.542C1461.83,697.192 1436.93,694.791 1410.6,688.648C1399.96,686.167 1388.65,684.247 1379.08,678.692C1357.84,666.358 1342.83,648.381 1329.11,628.596" style="fill:#6f5e4c;stroke:#000;stroke-width:6.67px;"/>
            <path d="M990.583,512.542C889.276,462.48 751.534,363.441 645.181,439.019C611.28,463.11 572.492,528.176 558.656,594.656C555.957,607.626 547.45,706.647 558.721,718.228C582.834,743.003 659.181,641.741 686.185,621.722C701.041,610.707 713.605,601.363 728.701,592.339C744.31,583.007 762.14,575.871 778.212,569.23C832.58,546.764 886.24,565.627 938.055,576.16" style="fill:#a88d6e;stroke:#000;stroke-width:6.67px;"/>
            <path d="M1393.87,556.062C1364.77,542.629 1339.74,522.56 1309.15,511.824C1257.39,493.663 1125.72,483.378 1069.9,491.109C1051.76,493.621 1009.64,495.381 991.534,497.412C962.154,500.707 921.634,513.763 932.55,565.065C941.74,608.254 983.805,610.883 1014.22,612.028C1068.32,614.063 1118.39,628.053 1170.35,641.542C1181.57,644.456 1191.41,650.864 1202.83,653.344C1231.04,659.466 1260.03,660.162 1288.71,661.767C1308.67,662.884 1330.85,666.469 1350.44,660.978C1363.3,657.374 1373.85,649.375 1385.52,643.202C1416.66,626.724 1432.51,620.522 1416.09,579.514C1411.73,568.649 1402.16,554.234 1390.6,550.096" style="fill:#6f5e4c;stroke:#000;stroke-width:6.67px;"/>
            <path d="M1331.63,531.247C1349.35,527.663 1367.68,527.63 1385.12,524.201C1430.47,515.284 1475.86,496.391 1522.04,514.056C1526.61,515.804 1581.55,589.239 1581.56,589.477C1581.76,598.252 1566.64,612.905 1559.88,617.704C1517.37,647.922 1442.71,615.179 1392.62,629.489" style="fill:#6f5e4c;stroke:#000;stroke-width:6.67px;"/>
            <path d="M1483.13,514.763C1475.57,460.548 1441.95,459.542 1447.86,514.354" style="fill:#6f5e4c;stroke:#000;stroke-width:6.67px;"/>
            <path d="M1154.88,620.473C1150.43,623.069 1139.12,643.575 1134.85,646.495C1127.71,651.377 1119.75,654.659 1112.4,659.172C1104.89,663.784 1098.73,668.939 1090.36,672.212C1077.73,677.152 1062.32,677.586 1048.82,677.559C1033.81,677.53 1016.06,673.982 1001.65,669.628C988.58,665.678 978.875,659.385 965.302,665.167C957.967,668.292 958.61,675.314 955.456,681.28C952.356,687.143 950.664,693.521 947.757,699.464C943.371,708.43 937.894,716.794 933.091,725.542C931.041,729.276 929.263,733.107 927.995,737.174C927.765,737.912 927.224,741.092 926.495,741.43C922.792,743.145 920.681,734.904 919.809,733.198C919.676,732.939 916.023,736.204 915.713,736.524C915.338,736.911 914.684,738.226 914.598,737.694C914.248,735.52 914.675,732.961 915.265,730.847C915.346,730.556 916.491,727.41 916.269,727.303C913.137,725.792 907.123,731.256 906.339,730.226C901.498,723.868 910.313,710.221 912.949,704.105C916.632,695.559 919.557,686.698 925.196,679.144C931.332,670.923 939.796,664.783 946.235,656.749C952.07,649.469 954.281,640.189 963.601,636.438" style="fill:#6f5e4c;stroke:#000;stroke-width:6.67px;"/>
            <path d="M1152.9,602.645C1119.73,643.741 1084.07,675.076 1028.59,659.441C1000.02,651.391 963.839,624.263 932.781,631.002C902.927,637.48 891.301,678.479 870.567,696.216C868.019,698.395 847.233,714.214 843.41,711.849C838.809,709.003 852.22,690.46 852.52,687.645C852.947,683.639 827.392,694.606 825.568,694.172C825.309,694.11 839.014,679.131 840.436,677.543C843.117,674.547 842.559,669.629 845.407,665.916C851.293,658.245 859.604,652.51 866.011,645.255C878.328,631.305 898.749,609.179 916.31,602.309C967.642,582.231 982.814,609.201 1018.95,559.25" style="fill:#6f5e4c;stroke:#000;stroke-width:6.67px;"/>
            <path d="M1534.6,565.318C1531.87,551.963 1526.21,539.516 1510.68,538.927C1508.22,538.833 1503.81,538.413 1501.63,539.733C1500.7,540.294 1501.26,542.345 1501.68,543.342C1502.52,545.345 1501.7,544.014 1502.25,546.111C1504.62,555.093 1513.94,565.997 1523.47,568.049C1526.7,568.745 1532.08,570.297 1533.96,566.763" style="stroke:#000;stroke-width:6.67px;"/>
            <path d="M1558.37,595.212C1556.43,591.593 1549.52,591.333 1546.05,591.256C1535.39,591.02 1525.23,594.482 1514.59,593.088" style="fill:none;stroke:#000;stroke-width:2.92px;"/>
            <path d="M1558.05,602.562C1552.15,602.46 1546.35,601.474 1540.46,601.359C1532.53,601.204 1525.25,602.22 1517.56,603.908" style="fill:none;stroke:#000;stroke-width:2.92px;"/>
            <path d="M1554.1,607.845C1547.42,610.676 1539.72,610.261 1532.63,610.822C1527.04,611.266 1521.33,612.837 1515.73,612.849" style="fill:none;stroke:#000;stroke-width:2.92px;"/>
            <path d="M1578.38,599.626C1582.74,599.3 1589.33,597.695 1593.71,599.19" style="fill:none;stroke:#000;stroke-width:2.92px;"/>
            <path d="M1572.1,607.272C1578.6,606.344 1585.95,606.466 1592.44,607.484" style="fill:none;stroke:#000;stroke-width:2.92px;"/>
            <path d="M1566.59,609.891C1575.05,613.462 1583.54,617.775 1592.26,620.618" style="fill:none;stroke:#000;stroke-width:2.92px;"/>
            <path d="M1578.59,596.822C1564.63,590.657 1559.32,597.9 1561.3,610.799" style="fill:#6f5e4c;stroke:#000;stroke-width:6.67px;"/>
            <path d="M1574.49,597.581C1571.69,599.19 1569.52,601.327 1567.41,603.764C1566.18,605.186 1564.09,607.593 1564.09,607.588C1563.19,606.219 1566.43,600.588 1566.91,599.029" style="fill:none;stroke:#000;stroke-width:6.72px;"/>
            <path d="M1266.37,608.775C1266.4,608.016 1267.22,608.976 1267.32,609.04C1269.77,610.675 1272.95,613.725 1275.75,613.725C1283.17,613.725 1294.99,612.31 1301.99,609.977C1314.88,605.68 1336.58,581.513 1344.15,570.155C1354.6,554.478 1368.97,531.93 1375.54,514.404C1379.42,504.07 1380.81,484.157 1394.75,480.672C1403.56,478.471 1400.84,494.787 1400.84,500.817C1400.84,502.853 1397.56,505.971 1397.56,505.971C1397.56,505.971 1400.83,501.761 1402.71,499.88C1406.73,495.865 1412.94,485.083 1420.99,489.105C1426.7,491.961 1420.99,503.976 1420.99,508.313C1420.99,509.25 1420.05,511.124 1420.99,511.124C1421.57,511.124 1421.69,507.848 1421.92,507.376C1423.41,504.408 1425.7,500.788 1428.01,498.475C1432.75,493.743 1443.89,494.955 1445.35,502.223C1447.79,514.447 1433.3,530.681 1427.08,540.64C1413.72,562.006 1401.54,574.143 1384.44,591.238C1380.76,594.922 1376.18,601.127 1374.03,605.419C1371.81,609.864 1370.7,613.25 1370.86,618.41C1371.01,623.453 1374.42,631.938 1371.8,637.166C1370.37,640.024 1366.84,648.475 1360.55,652.142" style="fill:#6f5e4c;stroke:#000;stroke-width:6.67px;"/>
        </g>
        <g opacity="0.04">
            <path d="M1324.54,535.125C1312.92,530.27 1301.92,523.183 1289.97,519.263C1246.51,505.004 1200.99,502.869 1155.95,497.867C1103.69,492.063 1082.77,486.306 1029.13,491.942C999.487,495.057 935.311,510.819 912.09,532.659" style="fill:none;stroke:#fff;stroke-width:20.42px;"/>
            <path d="M931.805,495.314C900.936,479.714 872.84,470.212 834.881,454.193C788.57,434.65 724.28,417.121 676.791,435.059C659.406,441.626 603.512,502.83 595.525,520.07C571.881,571.102 571.403,582.019 563.823,633.446C562.357,643.396 552.441,703.104 566.908,709.63C581.855,716.373 610.59,671.214 620.814,663.276C645.066,644.447 673.174,616.645 699.004,600.227C717.153,588.691 706.94,592.04 738.952,573.663C752.577,565.842 760.335,560.134 775.773,557.506C818.659,550.205 862.571,544.122 913.56,560.169" style="fill:none;stroke:#fff;stroke-width:20.42px;"/>
            <path d="M1019.51,561.186C1010.79,571.068 1004.67,583.236 992.248,589.332C980.085,595.3 966.435,595.407 953.332,597.16C919.274,601.717 890.75,615.405 870.297,643.919" style="fill:none;stroke:#fff;stroke-width:20.42px;"/>
            <path d="M1555.63,581.246C1547.4,565.388 1508.4,516.015 1490.03,512.767C1457.89,507.085 1484.37,510.81 1452.77,515.104" style="fill:none;stroke:#fff;stroke-width:20.42px;"/>
            <path d="M1459.85,500.064C1458.35,495.203 1455.52,492.278 1453.4,487.784C1449.72,479.946 1450.43,492.402 1449.32,498.172" style="fill:none;stroke:#fff;stroke-width:20.42px;"/>
            <path d="M1316.86,538.682C1288.59,508.891 1246.7,515.125 1209.67,512.715C1172.17,510.274 1135.68,509.82 1098.1,509.812C1076.87,509.807 1056.51,506.447 1035.23,509.157C1004.47,513.075 966.581,526.963 935.243,535.367" style="fill:none;stroke:#fff;stroke-width:44.74px;"/>
            <path d="M1324.5,647.101C1262.9,649.309 1202.54,631.712 1142.55,621.142" style="fill:none;stroke:#000;stroke-width:48.17px;"/>
            <path d="M1136.37,594.675C1121.29,615.375 1063.26,649.145 1036.31,646.367C999.292,642.552 968.391,616.882 927.193,623.729" style="fill:none;stroke:#000;stroke-width:22.66px;"/>
            <path d="M1542.03,602.653C1518.57,632.919 1479.03,613.299 1447.9,612.924" style="fill:none;stroke:#000;stroke-width:22.66px;"/>
            <path d="M1130.03,643.882C1124.01,647.069 1117.17,648.762 1111.48,652.545C1100.03,660.151 1092.97,669.02 1078.73,672.701C1070.52,674.821 1046.36,672.27 1037.65,670.851C1021.49,668.216 1005.85,663.829 991.492,655.892C986.102,652.912 974.044,644.913 967.424,647.651C960.875,650.36 954.759,657.889 950.5,663.262C946.817,667.909 942.061,671.526 939.162,676.817C931.574,690.665 929.527,707.532 921.937,721.572" style="fill:none;stroke:#000;stroke-width:19.84px;"/>
            <path d="M1521.06,560.12C1520.52,555.246 1507.77,534.097 1501.48,539.104C1492.71,546.099 1509.58,564.938 1517.75,563.973C1526.43,562.946 1526.12,552.654 1519.74,548.694" style="fill:none;stroke:#000;stroke-width:22.66px;"/>
            <path d="M1564.31,665.906C1552.43,663.685 1543.34,670.176 1532.87,674.301C1521.45,678.806 1505.85,682.468 1493.68,684.253C1483.32,685.77 1454.18,684.853 1444.23,682.687C1438.63,681.467 1433.47,679.407 1427.99,677.865C1427.53,677.736 1419.64,675.483 1419.63,676.618C1419.59,680.259 1430.3,682.915 1433.23,683.841" style="fill:none;stroke:#000;stroke-width:16.23px;"/>
            <path d="M1404.94,624.785C1401.21,659.966 1405.36,713.328 1418.98,746.23C1424.4,759.318 1431.23,771.972 1438.4,784.176C1443.41,792.692 1450.75,801.09 1453.73,810.647" style="fill:none;stroke:#fff;stroke-width:16.23px;"/>
            <path d="M1428.51,632.719C1443.4,643.041 1457.87,657.993 1477,659.66C1496.46,661.356 1515.71,650.886 1535.09,649.144C1545.52,648.205 1556.04,654.453 1566.31,652.448" style="fill:none;stroke:#fff;stroke-width:16.23px;"/>
            <path d="M1388.69,501.477C1388.16,501.574 1388.88,502.662 1388.56,503.095C1386.77,505.471 1385.12,507.74 1383.77,510.428C1379.09,519.788 1377.34,531.451 1371.98,540.396C1369.42,544.66 1365.21,548.869 1363.37,553.467C1361.23,558.808 1360.4,564.744 1356.67,569.407C1352.36,574.8 1346.06,578.101 1342.33,584.073C1340.26,587.388 1330.87,602.394 1327.98,603.839C1324.7,605.477 1321.09,606.318 1317.78,608.302C1313.88,610.639 1310.84,615.596 1306.94,617.547" style="fill:none;stroke:#fff;stroke-width:16.23px;"/>
            <path d="M1428.05,519.166C1428.14,518.866 1427.18,519.262 1423.31,521.586C1419.71,523.743 1417.76,527.275 1415.34,530.513C1407.89,540.433 1405.22,553.695 1396.53,562.394C1391.88,567.04 1389.73,573.438 1386,578.653C1383.16,582.632 1379.44,585.79 1376.76,589.811C1373.65,594.478 1372.9,600.386 1370.06,605.114C1368,608.553 1365.36,611.32 1364.64,615.635C1363.09,624.934 1361.69,634.227 1359.86,643.371C1359.36,645.858 1360.02,653.413 1358.27,655.167" style="fill:none;stroke:#000;stroke-width:16.23px;"/>
        </g>
        <path d="M1510.99,544.835C1511.03,540.48 1504.09,536.246 1501.97,541.477C1499.86,546.702 1506.63,551.101 1510.16,546.575C1511.71,544.573 1509.2,541.073 1506.76,542.047C1504.55,542.931 1505.53,545.265 1507.45,545.656" style="fill:none;stroke:#fff;stroke-opacity:0.22;stroke-width:6.67px;"/>
    </g>
</svg>
