<?xml version="1.0" encoding="UTF-8" standalone="no"?>
<!DOCTYPE svg PUBLIC "-//W3C//DTD SVG 1.1//EN" "http://www.w3.org/Graphics/SVG/1.1/DTD/svg11.dtd">
<svg width="100%" height="100%" viewBox="0 0 1067 1067" version="1.1" xmlns="http://www.w3.org/2000/svg" xmlns:xlink="http://www.w3.org/1999/xlink" xml:space="preserve" xmlns:serif="http://www.serif.com/" style="fill-rule:evenodd;clip-rule:evenodd;stroke-linejoin:round;stroke-miterlimit:2;">
    <g id="Running0">
        <g>
            <path d="M513.148,540.347C389.556,494.904 250.286,492.475 128.471,545.027C89.641,561.779 47.736,597.59 21.436,630.995C14.588,639.693 -1.891,664.793 12.231,674.552C42.445,695.431 126.982,620.924 157.86,606.932C174.848,599.233 193.199,598.355 210.595,592.228C228.583,585.893 245.361,575.757 264.066,571.556C327.34,557.343 392.33,575.424 454.61,586.874" style="fill:rgb(168,141,110);stroke:black;stroke-width:6.67px;stroke-linecap:round;stroke-miterlimit:1.5;"/>
            <path d="M860.695,561.82C831.598,548.387 806.566,528.318 775.971,517.582C724.213,499.421 592.54,489.136 536.722,496.867C518.585,499.379 476.464,501.139 458.358,503.17C428.979,506.465 369.577,518.6 380.493,569.902C389.682,613.091 450.63,616.641 481.044,617.786C535.141,619.821 585.215,633.811 637.172,647.3C648.394,650.214 658.236,656.622 669.659,659.102C697.86,665.224 726.856,665.92 755.536,667.525C775.498,668.642 797.678,672.227 817.268,666.736C830.122,663.132 840.677,655.133 852.342,648.96C883.483,632.482 899.333,626.28 882.909,585.272C878.558,574.407 868.988,559.992 857.428,555.854" style="fill:rgb(111,94,76);stroke:black;stroke-width:6.67px;stroke-linecap:round;stroke-miterlimit:1.5;"/>
            <path d="M798.457,537.005C816.176,533.421 834.503,533.388 851.942,529.959C897.292,521.042 942.685,502.149 988.863,519.814C993.432,521.562 1048.37,594.997 1048.38,595.235C1048.58,604.01 1033.46,618.663 1026.71,623.462C984.197,653.68 909.535,620.937 859.444,635.247" style="fill:rgb(111,94,76);stroke:black;stroke-width:6.67px;stroke-linecap:round;stroke-miterlimit:1.5;"/>
            <path d="M913.673,614.228C928.075,647.777 951.861,665.603 988.687,670.287C1013.34,673.423 1042.74,658.703 1056.39,688.319C1060.88,698.055 1037.29,693.823 1033.34,691.29C1031.22,689.932 1027.33,684.003 1027.51,686.51C1027.91,692.267 1040.88,701.435 1038.14,706.999C1032.17,719.158 1017.3,702.473 1012.89,705.273C1011.34,706.259 1022.24,716.761 1016.85,719.831C1003.14,727.636 989.539,717.179 976.168,714.152C945.853,707.291 911.181,716.806 882.94,703.842C851.247,689.292 826.495,660.931 795.077,647.399" style="fill:rgb(111,94,76);stroke:black;stroke-width:6.67px;stroke-linecap:round;stroke-miterlimit:1.5;"/>
            <path d="M949.958,520.521C942.39,466.306 908.775,465.3 914.684,520.112" style="fill:rgb(111,94,76);stroke:black;stroke-width:6.67px;stroke-linecap:round;stroke-miterlimit:1.5;"/>
            <path d="M619.727,608.403C586.554,649.499 550.897,680.834 495.415,665.199C466.85,657.149 430.663,630.021 399.606,636.76C369.752,643.238 358.126,684.237 337.391,701.974C334.844,704.153 314.057,719.972 310.234,717.607C305.633,714.761 319.044,696.218 319.344,693.403C319.771,689.397 294.216,700.364 292.392,699.93C292.133,699.868 305.838,684.889 307.26,683.301C309.941,680.305 309.383,675.387 312.232,671.674C318.118,664.003 326.428,658.268 332.835,651.013C345.152,637.063 365.573,614.937 383.135,608.067C434.466,587.989 449.639,614.959 485.776,565.008" style="fill:rgb(111,94,76);stroke:black;stroke-width:6.67px;stroke-linecap:round;stroke-miterlimit:1.5;"/>
            <path d="M1001.42,571.076C998.695,557.721 993.034,545.274 977.505,544.685C975.042,544.591 970.632,544.171 968.454,545.491C967.53,546.052 968.086,548.103 968.502,549.1C969.34,551.103 968.523,549.772 969.076,551.869C971.444,560.851 980.763,571.755 990.292,573.807C993.527,574.503 998.905,576.055 1000.78,572.521" style="stroke:black;stroke-width:6.67px;stroke-linecap:round;stroke-miterlimit:1.5;"/>
            <path d="M1025.19,600.97C1023.26,597.351 1016.34,597.091 1012.87,597.014C1002.21,596.778 992.053,600.24 981.409,598.846" style="fill:none;stroke:black;stroke-width:2.92px;stroke-linecap:round;stroke-miterlimit:1.5;"/>
            <path d="M1024.87,608.32C1018.98,608.218 1013.17,607.232 1007.28,607.117C999.357,606.962 992.071,607.978 984.384,609.666" style="fill:none;stroke:black;stroke-width:2.92px;stroke-linecap:round;stroke-miterlimit:1.5;"/>
            <path d="M1020.93,613.603C1014.24,616.434 1006.54,616.019 999.459,616.58C993.864,617.024 988.155,618.595 982.558,618.607" style="fill:none;stroke:black;stroke-width:2.92px;stroke-linecap:round;stroke-miterlimit:1.5;"/>
            <path d="M1045.2,605.384C1049.56,605.058 1056.16,603.453 1060.54,604.948" style="fill:none;stroke:black;stroke-width:2.92px;stroke-linecap:round;stroke-miterlimit:1.5;"/>
            <path d="M1038.92,613.03C1045.43,612.102 1052.77,612.224 1059.26,613.242" style="fill:none;stroke:black;stroke-width:2.92px;stroke-linecap:round;stroke-miterlimit:1.5;"/>
            <path d="M1033.41,615.649C1041.88,619.22 1050.37,623.533 1059.09,626.376" style="fill:none;stroke:black;stroke-width:2.92px;stroke-linecap:round;stroke-miterlimit:1.5;"/>
            <path d="M1045.41,602.58C1031.45,596.415 1026.14,603.658 1028.12,616.557" style="fill:rgb(111,94,76);stroke:black;stroke-width:6.67px;stroke-linecap:round;stroke-miterlimit:1.5;"/>
            <path d="M1041.32,603.339C1038.52,604.948 1036.34,607.085 1034.24,609.522C1033.01,610.944 1030.92,613.351 1030.91,613.346C1030.02,611.977 1033.26,606.346 1033.73,604.787" style="fill:none;stroke:black;stroke-width:6.72px;stroke-linecap:round;stroke-miterlimit:1.5;"/>
        </g>
        <g opacity="0.04">
            <path d="M800.016,546.008C788.404,541.153 777.402,534.067 765.452,530.147C721.988,515.888 676.469,513.753 631.431,508.751C579.171,502.947 558.251,497.19 504.613,502.825C474.967,505.94 410.791,521.703 387.57,543.543" style="fill:none;stroke:white;stroke-width:20.42px;stroke-linecap:round;stroke-miterlimit:1.5;"/>
            <path d="M392.037,520.571C365.479,515.794 337.113,519.286 310.443,521.047C260.287,524.36 216.805,526.342 169.317,544.28C151.932,550.847 131.06,551.617 115.701,562.802C87.314,583.475 53.907,604.23 31.255,631.499C24.828,639.235 11.915,660.555 26.382,667.081C41.328,673.824 54.439,658.787 64.663,650.849C88.916,632.02 116.869,618.125 142.698,601.708C160.848,590.172 183.765,580.091 204.573,574.405C219.727,570.264 235.815,571.017 251.253,568.389C294.139,561.089 337.005,550.814 380.615,555.619" style="fill:none;stroke:white;stroke-width:20.42px;stroke-linecap:round;stroke-miterlimit:1.5;"/>
            <path d="M494.988,572.07C486.271,581.952 480.149,594.12 467.727,600.215C455.565,606.184 441.915,606.291 428.812,608.044C394.754,612.6 366.229,626.288 345.777,654.803" style="fill:none;stroke:white;stroke-width:20.42px;stroke-linecap:round;stroke-miterlimit:1.5;"/>
            <path d="M907.508,619.805C913.967,666.308 951.387,675.137 991.736,678.508" style="fill:none;stroke:white;stroke-width:20.42px;stroke-linecap:round;stroke-miterlimit:1.5;"/>
            <path d="M1031.11,592.13C1022.88,576.271 983.881,526.899 965.509,523.651C933.369,517.969 898.712,534.291 867.107,538.586" style="fill:none;stroke:white;stroke-width:20.42px;stroke-linecap:round;stroke-miterlimit:1.5;"/>
            <path d="M935.324,510.947C933.831,506.087 931,503.161 928.885,498.668C925.197,490.83 925.908,503.285 924.795,509.056" style="fill:none;stroke:white;stroke-width:20.42px;stroke-linecap:round;stroke-miterlimit:1.5;"/>
            <path d="M792.337,549.565C764.071,519.774 722.177,526.009 685.152,523.599C647.65,521.158 611.156,520.704 573.584,520.695C552.353,520.69 531.993,517.331 510.711,520.041C479.95,523.959 442.061,537.847 410.723,546.251" style="fill:none;stroke:white;stroke-width:44.74px;stroke-linecap:round;stroke-miterlimit:1.5;"/>
            <path d="M799.977,657.985C738.376,660.193 678.019,642.596 618.031,632.026" style="fill:none;stroke:black;stroke-width:44.74px;stroke-linecap:round;stroke-miterlimit:1.5;"/>
            <path d="M811.513,637.3C840.266,665.921 873.703,685.816 913.096,694.943C938.396,700.806 964.34,700.309 988.853,709.964" style="fill:none;stroke:black;stroke-width:44.74px;stroke-linecap:round;stroke-miterlimit:1.5;"/>
            <path d="M611.853,605.558C596.768,626.258 538.743,660.029 511.794,657.251C474.771,653.435 443.871,627.766 402.673,634.613" style="fill:none;stroke:black;stroke-width:22.66px;stroke-linecap:round;stroke-miterlimit:1.5;"/>
            <path d="M1017.51,613.537C994.05,643.803 954.508,624.183 923.381,623.808" style="fill:none;stroke:black;stroke-width:22.66px;stroke-linecap:round;stroke-miterlimit:1.5;"/>
            <path d="M996.536,571.004C995.998,566.129 983.245,544.981 976.962,549.988C968.186,556.983 985.064,575.822 993.227,574.857C1001.91,573.83 1001.6,563.538 995.224,559.578" style="fill:none;stroke:black;stroke-width:22.66px;stroke-linecap:round;stroke-miterlimit:1.5;"/>
        </g>
        <path d="M986.47,555.719C986.511,551.364 979.568,547.13 977.45,552.36C975.334,557.586 982.115,561.985 985.637,557.459C987.195,555.457 984.68,551.957 982.24,552.931C980.026,553.815 981.013,556.149 982.933,556.539" style="fill:none;stroke:white;stroke-opacity:0.22;stroke-width:6.67px;stroke-linecap:round;stroke-miterlimit:1.5;"/>
    </g>
</svg>
