<?xml version="1.0" encoding="UTF-8" standalone="no"?>
<!DOCTYPE svg PUBLIC "-//W3C//DTD SVG 1.1//EN" "http://www.w3.org/Graphics/SVG/1.1/DTD/svg11.dtd">
<svg width="100%" height="100%" viewBox="0 0 2133 1066" version="1.1" xmlns="http://www.w3.org/2000/svg" xmlns:xlink="http://www.w3.org/1999/xlink" xml:space="preserve" xmlns:serif="http://www.serif.com/" style="fill-rule:evenodd;clip-rule:evenodd;stroke-linecap:round;stroke-linejoin:round;stroke-miterlimit:1.5;">
    <g id="attacking" transform="matrix(1.07732,0,0,1.07732,481.746,-56.9794)">
        <g transform="matrix(0.967583,-0.252551,0.252551,0.967583,-171.206,247.916)">
            <g>
                <g transform="matrix(0.928229,0,0,0.928229,-454.349,53.0503)">
                    <path d="M1489.94,816.281C1541.75,821.396 1595.17,825.838 1647.24,824.655C1726.63,822.852 1806.54,814.679 1885.71,822.817C1886.59,822.908 1909.93,790.768 1922.53,785.25C1931.82,781.179 1942.84,780.85 1952.82,780.134C1955.78,779.921 1958.74,779.748 1961.7,779.595C1963.32,779.512 1967.36,780.773 1966.55,779.368C1952.12,754.181 1856.74,753.795 1831.39,754.279C1774.14,755.373 1716.7,751.726 1659.6,753.018C1599.19,754.385 1541.41,760.398 1481.25,755.857" style="fill:rgb(190,190,190);stroke:black;stroke-width:6.67px;"/>
                </g>
                <g transform="matrix(0.928229,0,0,0.928229,-447.171,52.8899)">
                    <path d="M1877.46,785.625C1866.17,777.401 1849.39,777.247 1836.02,777.884C1810.23,779.111 1784.19,781.193 1758.46,783.525C1738.69,785.316 1718.85,786.598 1699,786.102C1679.05,785.603 1659.16,782.865 1639.16,782.554C1615.57,782.187 1591.72,784.605 1568.08,784.568C1559.38,784.555 1550.5,782.172 1541.92,781.092C1529.8,779.567 1517.34,780.035 1505.27,781.61" style="fill:none;stroke:black;stroke-width:6.67px;"/>
                </g>
                <g transform="matrix(0.928229,0,0,0.928229,-447.171,52.8899)">
                    <path d="M1460.96,781.286C1433.73,781.44 1406.27,789.627 1379.39,793.908C1379.31,793.921 1377.18,785.07 1375.97,783.522C1372.65,779.298 1365.79,779.198 1360.92,779.549C1349.16,780.396 1341.06,790.058 1342.96,801.859C1344.54,811.636 1352.25,816.992 1362.02,816.143C1371.24,815.342 1376.93,805.502 1386.7,803.748C1405.67,800.343 1425.07,798.281 1444.19,795.542C1450.01,794.708 1461.09,795.845 1466.13,792.387C1475.17,786.171 1463.05,780.058 1456.58,779.693" style="fill:rgb(83,83,83);stroke:black;stroke-width:6.67px;"/>
                </g>
                <g transform="matrix(0.928229,0,0,0.928229,-447.171,52.8899)">
                    <path d="M1467.52,739.033C1466.85,753.274 1464.03,767.453 1463.01,781.715C1462.34,791.051 1461.52,800.387 1461.98,809.755C1462.34,817.316 1462.36,840.124 1466.29,845.914C1471.92,854.225 1482.46,836.696 1483.06,831.863C1484.64,819.174 1483.07,806.317 1483.05,793.588C1483.02,781.112 1484.14,768.803 1484.05,756.306C1484,750.036 1487.79,734.65 1482.71,729.614C1481.93,728.847 1477.57,731.559 1476.92,731.979C1471.48,735.531 1468.37,741.176 1466.01,747.057" style="fill:rgb(72,72,72);stroke:black;stroke-width:6.67px;"/>
                </g>
                <g transform="matrix(0.928229,0,0,0.928229,-447.171,52.8899)">
                    <path d="M1364.89,791.925C1362.92,792.327 1360.49,792.981 1359.58,794.977C1358.12,798.175 1359.46,802.549 1363.62,801.752C1365.29,801.43 1367.44,800.935 1368.4,799.332C1370.75,795.393 1366.19,791.941 1362.54,792.899" style="fill:none;stroke:rgb(119,26,35);stroke-width:10.16px;"/>
                </g>
            </g>
            <g opacity="0.18">
                <g transform="matrix(0.928229,0,0,0.928229,-447.171,52.8899)">
                    <path d="M1875.73,810.701C1835.29,794.231 1792.3,808.646 1750.71,809.421C1721.75,809.96 1693.01,812.604 1664.11,813.341C1648.08,813.751 1632.08,812.269 1616.08,812.954C1603.83,813.479 1591.59,815.643 1579.33,815.587C1566.48,815.529 1553.76,811.826 1541.04,810.312C1524.13,808.299 1506.49,808.519 1489.45,808.544" style="fill:none;stroke:white;stroke-width:16.79px;"/>
                </g>
                <g transform="matrix(0.928229,0,0,0.928229,-447.171,54.7464)">
                    <path d="M1940.74,776.833C1920.67,761.637 1895.7,755.902 1870.79,756.694C1863.7,756.919 1856.8,758.814 1849.68,758.976C1826.19,759.511 1803.32,757.584 1779.79,759.278C1751.36,761.325 1722.76,764.909 1694.3,766.054C1666.6,767.168 1638.74,765.005 1610.99,765.808C1570.79,766.971 1530.32,769.879 1490.14,766.544" style="fill:none;stroke:white;stroke-width:16.79px;"/>
                </g>
                <g transform="matrix(0.928229,0,0,0.928229,-447.171,52.8899)">
                    <path d="M1925.69,771.21C1907.16,781.845 1887.29,787.167 1877.83,808.208" style="fill:none;stroke:white;stroke-width:16.79px;"/>
                </g>
                <g transform="matrix(0.928229,0,0,0.928229,-447.171,52.8899)">
                    <path d="M1479.82,739.695C1477.98,741.706 1475.75,743.31 1474.34,745.705C1464.6,762.237 1468.67,784.594 1467.62,802.73C1466.95,814.274 1465.64,829.313 1471.05,839.965" style="fill:none;stroke:black;stroke-width:6.67px;"/>
                </g>
                <g transform="matrix(0.928229,0,0,0.928229,-447.171,52.8899)">
                    <path d="M1460.26,792.613C1444.37,791.351 1429.95,794.29 1414.31,796.245C1404.34,797.49 1393.82,796.987 1384.01,799.469C1372.33,802.425 1364.28,819.005 1351.47,809.193C1349.7,807.834 1347.94,806.281 1346.57,804.509" style="fill:none;stroke:black;stroke-width:6.67px;"/>
                </g>
            </g>
        </g>
        <g transform="matrix(1,0,0,1,8.03415,4.7579)">
            <g transform="matrix(0.928229,0,0,0.928229,-462.442,45.0175)">
                <path d="M1430.5,615.56C1444.64,630.577 1462.65,648.718 1484.02,652.025C1489.65,652.897 1497.02,651.525 1502.65,650.605C1516.46,648.349 1529.53,641.882 1543.52,639.737C1552.53,638.356 1561.86,640.189 1570.85,640.854C1578.47,641.416 1590.75,641.211 1595.68,648.682C1598.42,652.824 1588.04,653.823 1586.36,653.862C1585.17,653.889 1583.97,653.859 1582.79,653.714C1582.19,653.641 1580.81,652.921 1580.99,653.501C1582.25,657.743 1585.89,660.817 1588.17,664.465C1588.67,665.254 1586.4,665.041 1585.49,665.255C1584.76,665.429 1577.28,665.834 1577.26,665.882C1575.03,671.128 1579.19,674.51 1579.37,679.15C1579.42,680.535 1576.77,678.177 1575.52,677.564C1572.58,676.111 1568,677.489 1564.73,677.194C1564.03,677.13 1558.86,678.202 1558.15,678.404C1552.46,680.027 1551.98,680.613 1547.32,682.683C1530.91,689.96 1513.93,692.844 1496.37,695.897C1469.62,700.547 1444.73,698.146 1418.4,692.003C1407.76,689.522 1396.44,687.603 1386.88,682.047C1365.64,669.713 1350.63,651.736 1336.91,631.951" style="fill:rgb(111,94,76);stroke:black;stroke-width:6.67px;"/>
            </g>
            <g transform="matrix(0.82523,0.122766,-0.190297,1.27917,181.803,-227.918)">
                <path d="M467.489,542.865C347.809,518.023 180.016,462.259 75.352,527.147C41.989,547.831 9.956,598.12 5.613,646.778C4.766,656.271 11.616,727.468 25.915,734.5C56.507,749.542 123.946,669.589 150.385,652.524C164.93,643.136 177.226,635.175 192.362,627.174C208.012,618.901 226.464,611.951 243.063,605.539C299.216,583.847 361.353,591.572 420.098,593.577" style="fill:rgb(168,141,110);stroke:black;stroke-width:5.69px;"/>
            </g>
            <path d="M838.626,564.285C811.618,551.816 788.382,533.187 759.983,523.222C711.94,506.364 589.717,496.817 537.905,503.994C521.07,506.326 481.972,507.959 465.166,509.844C437.895,512.903 400.282,525.022 410.415,572.642C418.945,612.731 457.992,615.172 486.223,616.234C536.438,618.123 582.918,631.109 631.146,643.63C641.563,646.335 650.698,652.283 661.301,654.585C687.478,660.267 714.393,660.914 741.014,662.404C759.544,663.44 780.132,666.768 798.316,661.671C810.248,658.326 820.045,650.901 830.872,645.171C859.779,629.875 874.491,624.118 859.246,586.054C855.207,575.968 846.324,562.588 835.593,558.747" style="fill:rgb(111,94,76);stroke:black;stroke-width:6.19px;"/>
            <path d="M780.855,541.251C797.303,537.924 814.314,537.894 830.502,534.711C872.596,526.434 914.732,508.897 957.596,525.294C961.836,526.916 1012.84,595.081 1012.84,595.302C1013.03,603.447 998.993,617.048 992.726,621.503C953.264,649.552 883.961,619.159 837.465,632.442" style="fill:rgb(111,94,76);stroke:black;stroke-width:6.19px;"/>
            <g transform="matrix(0.796033,0,0,1.27464,181.693,-164.07)">
                <path d="M929.347,541.347C920.521,501.866 881.324,501.133 888.215,541.05" style="fill:rgb(111,94,76);stroke:black;stroke-width:5.82px;"/>
            </g>
            <g transform="matrix(0.928229,0,0,0.928229,41.4004,48.4676)">
                <path d="M619.872,620.112C615.427,622.708 604.121,643.214 599.85,646.134C592.709,651.015 584.751,654.298 577.402,658.81C569.892,663.422 563.728,668.577 555.357,671.85C542.723,676.791 527.319,677.225 513.82,677.198C498.81,677.168 481.052,673.62 466.647,669.266C453.577,665.316 443.872,659.023 430.298,664.806C422.964,667.931 423.607,674.953 420.452,680.919C417.352,686.781 415.661,693.159 412.754,699.102C408.368,708.068 402.891,716.432 398.088,725.18C396.037,728.914 394.259,732.745 392.991,736.813C392.762,737.551 392.221,740.73 391.492,741.068C387.789,742.784 385.678,734.542 384.806,732.837C384.673,732.578 381.02,735.843 380.71,736.163C380.335,736.55 379.681,737.864 379.595,737.333C379.245,735.158 379.671,732.599 380.262,730.486C380.343,730.194 381.488,727.048 381.265,726.941C378.134,725.43 372.12,730.895 371.336,729.864C366.495,723.506 375.31,709.859 377.946,703.743C381.629,695.198 384.554,686.337 390.192,678.782C396.328,670.562 404.793,664.421 411.232,656.388C417.067,649.108 419.278,639.828 428.598,636.076" style="fill:rgb(111,94,76);stroke:black;stroke-width:6.67px;"/>
            </g>
            <path d="M614.952,607.524C584.161,645.671 551.063,674.757 499.563,660.245C473.048,652.773 439.458,627.591 410.63,633.847C382.918,639.86 372.127,677.916 352.88,694.38C350.516,696.403 331.221,711.086 327.672,708.891C323.402,706.249 335.85,689.038 336.129,686.424C336.525,682.706 312.804,692.885 311.111,692.483C310.871,692.426 323.592,678.521 324.912,677.047C327.401,674.267 326.882,669.701 329.527,666.255C334.99,659.134 342.704,653.811 348.651,647.076C360.085,634.128 379.04,613.589 395.341,607.213C442.988,588.576 457.072,613.61 490.615,567.244" style="fill:rgb(111,94,76);stroke:black;stroke-width:6.19px;"/>
            <path d="M969.253,572.877C966.722,560.48 961.467,548.927 947.053,548.38C944.767,548.293 940.673,547.903 938.651,549.128C937.793,549.648 938.309,551.552 938.696,552.478C939.474,554.337 938.715,553.102 939.228,555.048C941.426,563.386 950.077,573.507 958.922,575.411C961.924,576.058 966.917,577.498 968.659,574.218" style="stroke:black;stroke-width:6.19px;"/>
            <g transform="matrix(0.928229,0,0,0.928229,38.2108,43.1806)">
                <path d="M1026.8,600.546C1024.87,596.927 1017.95,596.667 1014.48,596.59C1003.82,596.354 993.662,599.817 983.018,598.422" style="fill:none;stroke:black;stroke-width:2.92px;"/>
            </g>
            <g transform="matrix(0.928229,0,0,0.928229,38.2108,43.1806)">
                <path d="M1026.48,607.896C1020.59,607.794 1014.78,606.809 1008.89,606.693C1000.97,606.538 993.679,607.554 985.993,609.242" style="fill:none;stroke:black;stroke-width:2.92px;"/>
            </g>
            <g transform="matrix(0.928229,0,0,0.928229,38.2108,43.1806)">
                <path d="M1022.54,613.179C1015.85,616.011 1008.15,615.595 1001.07,616.157C995.473,616.6 989.764,618.171 984.166,618.184" style="fill:none;stroke:black;stroke-width:2.92px;"/>
            </g>
            <g transform="matrix(0.928229,0,0,0.928229,38.2108,43.1806)">
                <path d="M1046.81,604.96C1051.17,604.634 1057.77,603.029 1062.15,604.524" style="fill:none;stroke:black;stroke-width:2.92px;"/>
            </g>
            <g transform="matrix(0.928229,0,0,0.928229,38.2108,43.1806)">
                <path d="M1040.53,612.606C1047.04,611.678 1054.38,611.8 1060.87,612.819" style="fill:none;stroke:black;stroke-width:2.92px;"/>
            </g>
            <g transform="matrix(0.928229,0,0,0.928229,38.2108,43.1806)">
                <path d="M1035.02,615.225C1043.49,618.796 1051.97,623.109 1060.69,625.952" style="fill:none;stroke:black;stroke-width:2.92px;"/>
            </g>
            <path d="M1010.09,602.119C997.131,596.397 992.202,603.12 994.039,615.094" style="fill:rgb(111,94,76);stroke:black;stroke-width:6.19px;"/>
            <g transform="matrix(0.928229,0,0,0.928229,38.2108,43.1806)">
                <path d="M1042.93,602.916C1040.13,604.524 1037.95,606.661 1035.85,609.098C1034.62,610.521 1032.53,612.927 1032.52,612.922C1031.63,611.553 1034.86,605.922 1035.34,604.363" style="fill:none;stroke:black;stroke-width:6.72px;"/>
            </g>
            <g transform="matrix(0.875637,0,0,0.928229,-384.822,48.132)">
                <path d="M1418.91,617.456C1420.18,661.673 1411.63,706.525 1432.29,747.919C1440.78,764.937 1469.21,787.945 1457.91,808.513C1453.24,817.003 1449.25,816.723 1446.72,811.804C1445.61,809.661 1444.65,807.418 1443.75,805.184C1443.37,804.233 1442.72,801.309 1442.61,802.329C1442.19,806.181 1449.04,821.362 1441.35,823.319C1434.66,825.019 1433.35,827.419 1429.38,822.626C1427.39,820.228 1425.74,817.494 1424.43,814.67C1424.38,814.554 1424.29,814.192 1424.27,814.319C1423.93,816.829 1425.99,820.903 1426.3,823.537C1427.28,832.105 1416.79,837.566 1404.85,826.07C1395.05,816.627 1401.3,808.465 1395.88,796.223C1390.65,784.388 1382.03,773.837 1378.83,761.153C1374.57,744.253 1376.76,726.214 1371.35,709.615C1363.73,686.255 1350.35,664.813 1338.27,643.537" style="fill:rgb(111,94,76);stroke:black;stroke-width:6.86px;"/>
            </g>
        </g>
        <g opacity="0.04">
            <g transform="matrix(0.928229,0,0,0.928229,38.2108,43.1806)">
                <path d="M801.625,545.585C790.013,540.73 779.011,533.643 767.061,529.723C723.597,515.464 678.077,513.329 633.039,508.327C580.779,502.523 559.86,496.766 506.222,502.402C476.575,505.517 412.399,521.279 389.179,543.119" style="fill:none;stroke:white;stroke-width:20.42px;"/>
            </g>
            <g transform="matrix(0.928229,0,0,0.928229,38.2108,43.1806)">
                <path d="M408.893,505.774C378.024,490.174 349.928,480.672 311.97,464.654C265.659,445.11 201.368,427.581 153.88,445.519C136.495,452.086 80.601,513.29 72.613,530.53C48.969,581.562 48.491,592.479 40.911,643.906C39.445,653.856 29.53,713.564 43.996,720.09C58.943,726.833 87.678,681.674 97.902,673.736C122.155,654.907 150.263,627.105 176.092,610.687C194.242,599.151 184.029,602.5 216.041,584.123C229.665,576.302 237.424,570.594 252.862,567.966C295.748,560.665 339.659,554.582 390.648,570.629" style="fill:none;stroke:white;stroke-width:20.42px;"/>
            </g>
            <g transform="matrix(0.928229,0,0,0.928229,38.2108,43.1806)">
                <path d="M496.597,571.646C487.88,581.528 481.757,593.696 469.336,599.792C457.173,605.76 443.524,605.868 430.42,607.62C396.363,612.177 367.838,625.865 347.385,654.379" style="fill:none;stroke:white;stroke-width:20.42px;"/>
            </g>
            <g transform="matrix(0.928229,0,0,0.928229,38.2108,43.1806)">
                <path d="M1032.72,591.706C1024.49,575.848 985.489,526.475 967.118,523.227C934.978,517.545 900.32,533.868 868.715,538.162" style="fill:none;stroke:white;stroke-width:20.42px;"/>
            </g>
            <g transform="matrix(0.928229,0,0,0.928229,38.2108,43.1806)">
                <path d="M936.933,510.524C935.439,505.663 932.608,502.738 930.494,498.244C926.805,490.406 927.517,502.862 926.404,508.632" style="fill:none;stroke:white;stroke-width:20.42px;"/>
            </g>
            <g transform="matrix(0.928229,0,0,0.928229,38.2108,43.1806)">
                <path d="M793.946,549.142C765.68,519.351 723.785,525.585 686.76,523.175C649.259,520.734 612.765,520.28 575.193,520.272C553.961,520.267 533.602,516.907 512.32,519.617C481.558,523.535 443.669,537.423 412.331,545.827" style="fill:none;stroke:white;stroke-width:44.74px;"/>
            </g>
            <g transform="matrix(0.928229,0,0,0.928229,38.2108,43.1806)">
                <path d="M801.586,657.561C739.984,659.769 679.628,642.172 619.64,631.602" style="fill:none;stroke:black;stroke-width:48.17px;"/>
            </g>
            <g transform="matrix(0.928229,0,0,0.928229,38.2108,43.1806)">
                <path d="M613.462,605.135C598.377,625.835 540.352,659.605 513.403,656.828C476.38,653.012 445.479,627.342 404.282,634.189" style="fill:none;stroke:black;stroke-width:22.66px;"/>
            </g>
            <g transform="matrix(0.928229,0,0,0.928229,38.2108,43.1806)">
                <path d="M1019.12,613.113C995.659,643.379 956.116,623.759 924.989,623.384" style="fill:none;stroke:black;stroke-width:22.66px;"/>
            </g>
            <g transform="matrix(0.928229,0,0,0.928229,47.7298,52.5805)">
                <path d="M596.865,644.215C590.842,647.402 584.005,649.096 578.311,652.878C566.862,660.485 559.807,669.353 545.56,673.034C537.355,675.154 513.189,672.604 504.484,671.184C488.321,668.549 472.684,664.162 458.326,656.225C452.936,653.246 440.877,645.246 434.257,647.984C427.708,650.693 421.593,658.223 417.334,663.595C413.65,668.243 408.894,671.86 405.996,677.15C398.408,690.999 396.36,707.865 388.77,721.905" style="fill:none;stroke:black;stroke-width:19.84px;"/>
            </g>
            <g transform="matrix(0.928229,0,0,0.928229,38.2108,43.1806)">
                <path d="M998.144,570.58C997.607,565.706 984.853,544.557 978.571,549.564C969.795,556.559 986.673,575.398 994.836,574.433C1003.52,573.406 1003.21,563.114 996.832,559.154" style="fill:none;stroke:black;stroke-width:22.66px;"/>
            </g>
            <g transform="matrix(0.928229,0,0,0.928229,-447.171,52.8899)">
                <path d="M1347,641.09C1375.64,680.83 1379.5,726.921 1392.22,772.466C1397.65,791.877 1407.79,809.787 1411.52,829.698" style="fill:none;stroke:black;stroke-width:16.23px;"/>
            </g>
            <g transform="matrix(0.928229,0,0,0.928229,-447.171,52.8899)">
                <path d="M1564.31,665.906C1552.43,663.685 1543.34,670.176 1532.87,674.301C1521.45,678.806 1505.85,682.468 1493.68,684.253C1483.32,685.77 1454.18,684.853 1444.23,682.687C1438.63,681.467 1433.47,679.407 1427.99,677.865C1427.53,677.736 1419.64,675.483 1419.63,676.618C1419.59,680.259 1430.3,682.915 1433.23,683.841" style="fill:none;stroke:black;stroke-width:16.23px;"/>
            </g>
            <g transform="matrix(0.928229,0,0,0.928229,-447.171,52.8899)">
                <path d="M1404.94,624.785C1401.21,659.966 1405.36,713.328 1418.98,746.23C1424.4,759.318 1431.23,771.972 1438.4,784.176C1443.41,792.692 1450.75,801.09 1453.73,810.647" style="fill:none;stroke:white;stroke-width:16.23px;"/>
            </g>
            <g transform="matrix(0.928229,0,0,0.928229,-447.171,52.8899)">
                <path d="M1428.51,632.719C1443.4,643.041 1457.87,657.993 1477,659.66C1496.46,661.356 1515.71,650.886 1535.09,649.144C1545.52,648.205 1556.04,654.453 1566.31,652.448" style="fill:none;stroke:white;stroke-width:16.23px;"/>
            </g>
        </g>
        <g transform="matrix(0.739859,0,0,0.739859,458.145,231.249)">
            <path d="M672.059,442.48C672.112,437.016 663.4,431.705 660.744,438.266C658.089,444.822 666.596,450.341 671.015,444.663C672.97,442.152 669.814,437.76 666.753,438.982C663.975,440.091 665.213,443.019 667.622,443.509" style="fill:none;stroke:white;stroke-opacity:0.22;stroke-width:8.36px;"/>
        </g>
    </g>
</svg>
