<?xml version="1.0" encoding="UTF-8" standalone="no"?>
<!DOCTYPE svg PUBLIC "-//W3C//DTD SVG 1.1//EN" "http://www.w3.org/Graphics/SVG/1.1/DTD/svg11.dtd">
<svg width="100%" height="100%" viewBox="0 0 2133 1066" version="1.1" xmlns="http://www.w3.org/2000/svg" xmlns:xlink="http://www.w3.org/1999/xlink" xml:space="preserve" xmlns:serif="http://www.serif.com/" style="fill-rule:evenodd;clip-rule:evenodd;stroke-linecap:round;stroke-linejoin:round;stroke-miterlimit:1.5;">
    <g id="pinecone-charging0">
        <g>
            <path d="M1342.56,743.299C1342.49,741.275 1338.31,745.287 1337.91,745.731C1335.57,748.33 1334.83,751.983 1335.01,755.406C1335.45,764.24 1342.04,772.558 1351.65,770.5C1361.68,768.35 1358.76,756.204 1357.07,749.02C1355.98,744.426 1354.34,738.85 1348.36,740.506C1340.73,742.619 1337.52,748.836 1337.52,756.18C1337.52,758.583 1337.75,761.715 1340.23,762.953C1346.52,766.097 1353.39,758.594 1353.39,752.697C1353.39,750.532 1353.05,746.395 1350.68,745.344C1347.26,743.823 1344.85,748.281 1344.29,750.955C1343.26,755.88 1344.68,760.698 1349.9,762.566C1354.38,764.166 1358.04,759.794 1358.42,755.6C1358.58,753.857 1357.95,751.286 1359.19,749.794C1361.42,747.125 1367.35,748.992 1365.19,743.602C1364.79,742.595 1364.79,742.398 1364.03,741.473C1364.03,741.473 1362.1,739.538 1362.1,739.538C1360.18,738.145 1357.83,737.292 1355.52,736.829C1340.48,733.821 1336.17,748.033 1336.17,760.244C1336.17,764.369 1336.72,772.655 1341.59,773.983C1348.59,775.895 1357.1,774.907 1361.71,768.758C1363.03,766.993 1363.44,764.63 1364.61,762.76C1366.49,759.76 1368.86,755.94 1367.9,752.117C1367.2,749.308 1364.51,748.046 1362.48,746.311C1359.13,743.44 1356.57,739.812 1352.23,738.184C1348.01,736.603 1345.55,739.194 1342.36,741.473C1335.8,746.159 1330.91,755.314 1333.26,763.534C1334.26,767.004 1336.29,769.434 1339.07,771.661C1339.53,772.03 1340.64,773.596 1341.2,773.596" style="fill:none;stroke:#ff3f3f;stroke-opacity:0.61;stroke-width:16.96px;"/>
            <path d="M1352.84,752.524C1352.4,752.203 1353.41,751.349 1351.84,750.955C1343.18,748.791 1346.48,767.69 1355.32,761.792C1356.18,761.222 1356.62,760.27 1356.87,759.276C1358.18,754.048 1349.24,751.692 1346.04,754.439C1344.57,755.693 1343.82,761.211 1346.62,761.211" style="fill:none;stroke:#ffc288;stroke-opacity:0.61;stroke-width:16.96px;"/>
            <path d="M1336.58,725.007C1335.97,725.387 1337.43,723.744 1338.1,723.477C1339.43,722.944 1340.38,721.91 1341.59,721.155C1345.29,718.837 1349.92,720.145 1353.19,723.09C1364.71,733.45 1374.54,744.085 1371.19,760.824C1370.41,764.721 1367.34,767.331 1364.23,769.532C1356.86,774.734 1345.19,774.79 1336.55,772.435C1333.36,771.565 1329.76,768.65 1329.01,765.275C1328.54,763.179 1330.14,761.916 1330.55,760.05C1330.62,759.775 1330.97,757.728 1330.55,757.728" style="fill:none;stroke:#ffb663;stroke-opacity:0.61;stroke-width:63.68px;"/>
            <path d="M1330.2,757.493C1330.09,757.635 1330.17,757.387 1330.17,757.148" style="fill:none;stroke:#ffb663;stroke-opacity:0.61;stroke-width:63.68px;"/>
            <path d="M1331.17,751.524C1330.5,751.732 1332.57,751.069 1333.07,750.568" style="fill:none;stroke:#ffb663;stroke-opacity:0.61;stroke-width:63.68px;"/>
        </g>
        <g>
            <path d="M1244.24,811.016C1244.22,811.079 1246.24,809.586 1246.48,809.393C1247.98,808.196 1249.4,807.017 1250.96,805.884C1255.6,802.538 1260.97,801.278 1264.96,797.334C1267.26,795.06 1268.38,790.345 1271.03,788.722C1274.49,786.61 1278.9,786.485 1282.24,784.273C1285.32,782.24 1286.8,778.741 1288.5,775.645C1291.43,770.317 1296.51,763.839 1295.97,757.531" style="fill:none;stroke:#000;stroke-opacity:0.09;stroke-width:20.8px;"/>
            <path d="M1329.17,733.664C1328.42,734.79 1330.51,736.108 1330.62,737.458C1330.84,739.982 1329.8,743.272 1328.91,745.514C1326.9,750.562 1320.07,744.623 1318.4,748.805C1317.76,750.424 1319.99,751.045 1321.03,751.458C1323.92,752.611 1326.59,751.134 1328.45,754.183C1330.28,757.183 1325.92,762.867 1323.79,764.167C1322.88,764.721 1320.25,762.866 1319.66,763.56C1319.24,764.054 1320.04,766.371 1320.18,766.871C1320.9,769.365 1323.33,773.622 1321.21,776.132C1315.99,782.318 1312.28,773.763 1308.59,771.453C1308.08,771.138 1305.08,769.215 1304.82,769.377C1303.03,770.468 1305.24,772.276 1305.85,773.124C1307.38,775.236 1312.67,778.87 1309.44,781.448C1307.89,782.682 1304.74,786.453 1302.38,785.884C1299,785.068 1297.26,781.711 1293.59,781.119C1293.07,781.035 1290.05,780.082 1289.7,780.491C1289.53,780.689 1296.83,784.754 1297.56,785.575C1300.57,788.941 1299.41,796.587 1295.58,798.927C1294.43,799.633 1292.25,801.536 1291.05,801.95C1286.34,803.561 1282.73,795.994 1280.5,793.498C1278.99,791.809 1277.35,790.292 1275.77,788.627C1274.91,787.726 1272.61,785.251 1272.71,786.49C1272.87,788.391 1276.91,791.005 1277.8,792.769C1280.47,798.086 1275.34,804.16 1271.54,806.486C1267.11,809.193 1261.73,803.081 1259.07,800.835C1258.22,800.115 1257.61,799.159 1256.71,798.399C1256.68,798.381 1255.4,797.082 1255.41,797.31C1255.59,799.416 1259.15,801.429 1260.44,802.875C1262.61,805.308 1265.78,810.893 1264.03,814.076C1262.5,816.856 1254.61,820.635 1252.1,817.488C1250.26,815.179 1247.77,812.726 1246.43,810.06C1245.92,809.049 1245.42,808.1 1244.98,807.067C1244.73,806.478 1244.53,804.544 1244.58,805.184C1244.95,809.557 1254.64,815.605 1249.01,820.627C1247.98,821.543 1246.83,822.169 1245.58,822.597C1234.16,826.506 1240.11,808.122 1231.42,811.097C1226.43,812.805 1236.59,816.535 1234.59,820.176C1233.78,821.648 1229.37,826.838 1227.42,826.06C1226.14,825.549 1223.21,823.171 1222.32,822.419C1221.82,822.005 1221.91,820.535 1221.91,820.535C1221.91,820.535 1223.05,822.631 1223.15,823.786C1223.4,826.746 1224.83,828.611 1222.59,831.265C1219.71,834.68 1211.79,834.839 1209.79,830.196C1209.12,828.625 1207.05,823.815 1205.36,823.142C1204.9,822.959 1204.31,824.646 1204.07,824.93C1202.75,826.492 1201.37,827.302 1199.41,826.525C1198.5,826.163 1193.73,822.526 1193.14,823.223C1190.62,826.218 1191.84,830.269 1188.26,833.466C1183.83,837.416 1170.74,828.886 1169.54,824.752C1168.74,821.978 1169.5,819.778 1170.1,817.273C1170.23,816.737 1171.8,814.949 1171.31,814.534C1169.75,813.222 1166.82,817.002 1165.84,817.875C1162.96,820.438 1158.71,821.058 1155.41,819.242C1154.88,818.949 1154.25,817.156 1153.74,816.508C1152.69,815.192 1150.71,814.818 1150.08,812.984C1149.37,810.908 1150.88,804.959 1152.15,803.459C1153.04,802.404 1154.25,799.842 1154.36,798.477C1154.43,797.59 1154.61,795.819 1154.61,795.819C1154.61,795.819 1153.52,796.553 1153.29,797.13C1152.72,798.551 1152.43,800.46 1150.75,801.181C1146.48,803.023 1139.99,803.062 1136.89,798.765C1134.8,795.879 1133.33,789.513 1133.89,786.076C1134.11,784.695 1135.22,783.163 1136.2,782.284C1136.35,782.15 1137.5,781.39 1137.31,781.231C1134.94,779.23 1130.8,779.596 1128.04,776.506C1127.39,775.779 1124.94,771.28 1125.83,770.222C1126.35,769.601 1128.9,768.49 1128.22,767.382C1124.64,761.526 1123.63,757.105 1128.1,751.812C1128.95,750.797 1125.06,744.423 1125.6,742.197C1126.71,737.581 1128.51,732.909 1132.74,730.323C1134.67,729.146 1138.6,729.929 1140,728.268C1141.59,726.383 1137.28,720.854 1137.94,718.136C1138.55,715.578 1142.7,711.396 1145.18,710.328C1145.73,710.092 1147.39,713.15 1147.55,712.764C1148.18,711.178 1146.54,708.816 1146.82,707.072C1147.58,702.371 1153.99,698.971 1157.97,697.255C1161.35,695.801 1165.85,700.065 1166.85,702.972C1167.03,703.503 1169.24,708.515 1169.46,708.263C1170.38,707.168 1168.91,704.785 1168.6,703.782C1167.75,701.084 1164.36,693.623 1165.56,690.617C1166.12,689.199 1168.57,688.9 1169.66,688.111C1173.69,685.198 1179.86,686.492 1184.08,688.562C1186.22,689.612 1187.2,694.241 1187.39,696.43C1187.43,696.984 1187.58,700.065 1187.69,700C1188.82,699.312 1188.91,694.59 1188.81,693.433C1188.34,687.919 1185.61,684.832 1190.35,680.597C1191.5,679.577 1192.89,679.61 1194.36,679.777C1198.1,680.2 1200.95,680.065 1202.42,684.365C1202.96,685.949 1203.28,690.109 1205.13,690.846C1209.41,692.549 1212.17,684.665 1214.78,683.074C1217.35,681.503 1225.62,683.752 1227.63,684.856C1229.45,685.858 1229.75,689.413 1229.61,691.16C1229.31,694.782 1228.65,702.505 1231.75,705.12C1232.17,705.477 1232.57,701.126 1232.6,700.973C1233,698.927 1233.72,695.12 1234.83,693.353C1237.22,689.515 1243.46,688.597 1247.54,690.594C1253.78,693.656 1250.35,699.702 1248.47,704.417C1248,705.602 1246.66,710.196 1248.52,710.645C1249.99,710.998 1252.35,706.6 1252.9,705.718C1256.08,700.629 1257.83,695.558 1260.45,690.215C1261.14,688.804 1263.91,686.374 1265.66,686.655C1266.97,686.867 1268.04,687.96 1269.17,688.513C1277.58,692.632 1273.01,699.593 1268.98,706.028C1268.05,707.519 1264.52,712.874 1266.8,714.124C1269.28,715.494 1272.67,712.38 1273.91,710.403C1274.66,709.195 1274.48,707.533 1274.99,706.236C1276.69,701.981 1282.36,693.753 1287.67,694.61C1293.23,695.509 1294.37,703.424 1291.14,707.259C1289.85,708.789 1287.82,710.226 1286.75,711.947C1286.13,712.938 1285.89,714.937 1286.38,716.054C1286.63,716.639 1287.75,716.991 1288.16,717.34C1291,719.731 1291.22,717.734 1293.22,714.753C1294.8,712.394 1301.67,703.352 1305.02,704.16C1310.64,705.519 1311.15,714.126 1310.6,719.027C1310.5,719.946 1308.86,725.07 1309.48,725.594C1309.71,725.787 1315.83,720.617 1316.59,721.873C1317.83,723.898 1313.9,731.722 1315.82,732.485C1317.48,733.145 1319.62,732.807 1321.01,731.564C1321.45,731.176 1322.92,729.193 1323.75,729.893C1324.56,730.579 1325.26,731.834 1326.13,732.567C1327.29,733.54 1328.06,732.719 1328.22,734.547" style="fill:#927147;stroke:#000;stroke-width:6.67px;"/>
            <path d="M1277.69,769.371C1277.58,769.453 1278.17,768.857 1277.93,768.654C1277.43,768.228 1275.39,769.275 1274.47,768.766C1272.68,767.779 1272.08,765.668 1270.96,764.125C1269.27,761.785 1266.9,760.636 1266.02,757.594C1265.03,754.195 1267.5,751.388 1267.24,748.342" style="fill:none;stroke:#000;stroke-width:6.67px;"/>
            <path d="M1294.89,726.985C1294.82,726.884 1291.92,728.891 1291.63,729.62C1290.07,733.527 1286.79,744.484 1295.03,743.783" style="fill:none;stroke:#000;stroke-width:6.67px;"/>
            <path d="M1239.99,746.194C1240,746.599 1240.01,745.275 1239.7,745.014C1239.57,744.9 1238.63,744.676 1238.38,744.577C1236.07,743.657 1235.52,740.348 1234.56,738.317C1231.37,731.619 1232.31,725.19 1236.99,719.633" style="fill:none;stroke:#000;stroke-width:6.67px;"/>
            <path d="M1227.32,748.752C1227.49,748.863 1226.76,750.447 1226.65,750.698C1225.65,752.84 1225.19,755.024 1224.64,757.272C1223.12,763.569 1224.59,771.241 1228.64,776.323C1229.82,777.797 1231.19,780.793 1233.09,781.251" style="fill:none;stroke:#000;stroke-width:6.67px;"/>
            <path d="M1254.1,784.483C1252.27,782.556 1249.53,780.953 1247.36,779.122C1242.8,775.275 1240.85,766.045 1244.92,761.218" style="fill:none;stroke:#000;stroke-width:6.67px;"/>
            <path d="M1206.74,760.795C1206.83,760.799 1206.56,761.876 1206.56,761.92C1206.55,762.621 1206.69,763.393 1206.75,764.1C1206.91,766.017 1207.78,769.155 1208.61,770.893C1210.35,774.558 1211.94,778.26 1215.13,780.949C1216.99,782.516 1219.76,782.994 1221.47,784.435" style="fill:none;stroke:#000;stroke-width:6.67px;"/>
            <path d="M1203.02,782.556C1202.88,782.179 1202.82,783.359 1202.56,783.665C1202.08,784.236 1201.39,784.736 1200.87,785.273C1199.29,786.871 1197.93,788.701 1196.94,790.729C1194.13,796.456 1194.69,802.325 1199.56,806.422C1200.86,807.526 1201.93,808.781 1203.77,808.625" style="fill:none;stroke:#000;stroke-width:6.67px;"/>
            <path d="M1198.59,703.754C1198.58,703.745 1199.34,704.306 1198.95,704.757C1198.16,705.702 1195.66,706.738 1194.6,707.323C1191.87,708.825 1187.86,710.174 1187.21,712.892C1186.44,716.068 1191.2,718.198 1192.59,720.3C1193.98,722.392 1193.73,725.095 1193.91,727.14" style="fill:none;stroke:#000;stroke-width:6.67px;"/>
            <path d="M1216.06,715.535C1216.49,715.31 1215.71,716.483 1215.35,716.805C1214.64,717.439 1213.88,718.051 1213.18,718.715C1211.35,720.449 1208.79,721.878 1207.86,724.216C1207.57,724.933 1208.91,725.371 1209.25,726.068C1210.43,728.557 1211.28,730.962 1212.1,733.583C1212.24,734.029 1213.54,737.648 1213.19,737.678" style="fill:none;stroke:#000;stroke-width:6.67px;"/>
            <path d="M1188.85,735.473C1188.22,735.261 1188.31,736.742 1187.81,737.172C1187.1,737.775 1186.23,738.325 1185.59,739.007C1182.93,741.81 1180.27,745.452 1178.57,748.935C1178.17,749.738 1177.01,751.711 1177.6,752.675C1178.49,754.124 1181.85,754.595 1183.18,755.86C1187.03,759.516 1192.58,765.273 1193.04,770.754" style="fill:none;stroke:#000;stroke-width:6.67px;"/>
            <path d="M1179.22,796.867C1178.73,796.423 1176.83,796.098 1176.15,795.791C1173.77,794.722 1171.72,793.263 1169.59,791.775C1157.28,783.173 1167.36,772.82 1169.2,761.44" style="fill:none;stroke:#000;stroke-width:6.67px;"/>
            <path d="M1160.33,727.681C1160,727.164 1159.91,728.865 1159.52,729.334C1158.68,730.329 1157.83,731.136 1157.01,732.108C1154.63,734.936 1152.19,737.377 1150.8,740.869C1150.61,741.348 1149.92,742.865 1150.29,743.474C1151.47,745.403 1154.22,746.763 1155.83,748.308C1157.52,749.941 1158.67,752.115 1160.32,753.78C1160.96,754.43 1163.97,756.325 1162.44,757.258" style="fill:none;stroke:#000;stroke-width:6.67px;"/>
            <path d="M1144.01,754.193C1144.53,754.601 1141.46,758.43 1141.18,758.885C1139.36,761.788 1137.16,766.057 1136.78,769.504C1136.45,772.406 1140.23,774.778 1142.12,776.367C1144.23,778.154 1145.66,780.764 1147.08,783.08C1147.5,783.775 1149.24,784.799 1149.28,785.271" style="fill:none;stroke:#000;stroke-width:6.67px;"/>
            <path d="M1218.7,821.495C1213.79,822.701 1206.55,819.866 1200.81,819.718C1196.27,819.6 1191.43,820.898 1186.9,820.533C1184.19,820.315 1181.53,819.673 1178.89,819.375C1178.14,819.29 1176.6,819.523 1175.93,819.258C1170.26,817 1166.85,812.638 1162.69,808.427C1160.51,806.219 1158.54,805.097 1156.66,802.5C1154.91,800.071 1154.56,796.546 1152.99,793.981C1151.08,790.854 1147.88,788.299 1145.48,785.606C1143.46,783.351 1142.76,779.481 1141.96,776.706C1141.67,775.702 1140.56,775.109 1140.26,774.09C1138.13,766.719 1135.85,756.84 1136.48,749.023C1136.88,743.944 1141.98,739.753 1144.34,735.476C1146.47,731.594 1146.91,727.229 1148.81,723.137C1150.06,720.447 1152.13,718.033 1153.68,715.547C1155.22,713.08 1157.88,712.196 1159.87,710.421C1163.93,706.801 1168.4,704.335 1172.47,700.702C1176.96,696.699 1183.49,696.967 1188.7,694.721C1190.58,693.915 1192.72,694.075 1194.64,693.112C1195.12,692.871 1196.63,692.251 1195.99,691.709" style="fill:none;stroke:#000;stroke-opacity:0.09;stroke-width:20.8px;"/>
            <path d="M1237.31,814.287C1237.33,814.163 1240.47,813.831 1240.78,813.742C1244.49,812.666 1249.82,812.496 1252.98,810.128C1256.46,807.519 1259.63,804.699 1263.56,802.604C1268.55,799.945 1274.28,797.68 1278.65,793.961C1280.59,792.315 1283.28,791.068 1285.07,789.368C1288.26,786.335 1290.99,782.773 1294.8,780.445C1300,777.268 1307.39,776.205 1310.88,770.613C1313.83,765.895 1316.19,759.517 1316.64,753.933C1317.09,748.404 1319.17,743.689 1317.48,737.855C1316.76,735.349 1314.56,733.974 1313.12,731.971C1311.58,729.844 1310.61,727.542 1308.89,725.524C1307.41,723.781 1306.47,721.352 1305.42,719.379C1302.5,713.896 1292.23,708.368 1286.25,708.132C1282.21,707.972 1277.58,709.479 1273.62,708.839C1269.76,708.216 1266.11,707.122 1262.06,707.062C1255.37,706.963 1248.68,709.081 1242.04,707.477C1237,706.261 1229.67,705.451 1225.41,702.269C1217.68,696.496 1213.43,689.956 1203.55,687.571C1201.81,687.149 1199.6,688.274 1197.92,688.418" style="fill:none;stroke:#fff;stroke-opacity:0.09;stroke-width:20.8px;"/>
            <path d="M1222.11,747.576C1221.7,748.608 1222.49,751.482 1222.34,752.757C1222.01,755.747 1221.05,758.739 1220.71,761.726C1220.47,763.898 1221.57,766.705 1222.05,768.788C1223.59,775.444 1224.59,779.746 1230.19,784.469" style="fill:none;stroke:#000;stroke-opacity:0.09;stroke-width:7.68px;"/>
            <path d="M1216.53,786.478C1216.55,786.52 1216.32,787.355 1216.07,787.143C1214.43,785.759 1212.5,781.926 1211.05,780.027C1207.28,775.081 1202.15,770.535 1201.61,764.271" style="fill:none;stroke:#000;stroke-opacity:0.09;stroke-width:7.68px;"/>
            <path d="M1196.65,784.73C1196.73,784.741 1193.32,786.853 1192.88,787.092C1190,788.68 1187.92,790.659 1187.78,794.149C1187.64,797.603 1190.42,799.661 1191.98,802.439C1194.04,806.105 1195.3,809.904 1197.53,813.558" style="fill:none;stroke:#000;stroke-opacity:0.09;stroke-width:7.68px;"/>
            <path d="M1176.52,796.679C1176.81,796.978 1172.85,795.973 1172.47,795.82C1170.19,794.915 1167.03,795.714 1165.3,793.67C1160.15,787.622 1158.84,780.532 1158.19,772.933" style="fill:none;stroke:#000;stroke-opacity:0.09;stroke-width:7.68px;"/>
            <path d="M1158.25,755.711C1158.14,755.562 1158.16,756.33 1157.88,756.217C1156.38,755.623 1154.07,752.753 1153.24,751.46C1150.96,747.911 1149.76,744.024 1148.41,740.097" style="fill:none;stroke:#000;stroke-opacity:0.09;stroke-width:7.68px;"/>
            <path d="M1186.63,733.078C1186.89,735.079 1184.46,736.152 1183.12,737.144C1180.07,739.394 1176.29,742.18 1174.25,745.441C1170.63,751.245 1174.53,754.633 1177.96,758.74C1179.54,760.625 1179.98,763.267 1181.63,765.052C1183.37,766.943 1185.78,768.066 1187.39,770.081" style="fill:none;stroke:#000;stroke-opacity:0.09;stroke-width:7.68px;"/>
            <path d="M1194.78,702.023C1194.97,701.718 1193.09,701.891 1192.81,701.915C1191.29,702.045 1189.9,703.603 1189.01,704.814C1186.5,708.235 1180.45,710.272 1179.16,714.483C1178.68,716.075 1181.74,717.393 1182.6,718.054C1185.67,720.442 1188.04,724.127 1190.01,727.358" style="fill:none;stroke:#000;stroke-opacity:0.09;stroke-width:7.68px;"/>
            <path d="M1215.64,714.454C1215.41,714.764 1214.73,714.128 1214.48,714.422C1211.63,717.8 1207.84,720.29 1204.97,723.694C1204.03,724.804 1202.44,726.891 1202.98,728.463C1203.41,729.707 1205.53,730.498 1206.37,731.486C1208,733.4 1208.76,736.035 1210.06,738.163" style="fill:none;stroke:#000;stroke-opacity:0.09;stroke-width:7.68px;"/>
            <path d="M1233.11,718.886C1231.99,719.671 1231.71,721.239 1230.98,722.401C1227.62,727.774 1227.51,733.676 1230.22,739.392C1231.86,742.839 1234.64,745.406 1236.19,749.003" style="fill:none;stroke:#000;stroke-opacity:0.09;stroke-width:7.68px;"/>
            <path d="M1271.64,772.94C1271.83,772.639 1272.55,772.64 1272.77,772.384C1273.16,771.923 1271.7,770.975 1271.53,770.833C1269.4,769.038 1267.03,767.448 1265.01,765.501C1262.61,763.185 1262.62,759.344 1263.12,756.279" style="fill:none;stroke:#000;stroke-opacity:0.09;stroke-width:7.68px;"/>
            <path d="M1289.58,724.876C1289.05,725.763 1287.86,726.26 1287.32,727.175C1286.62,728.352 1286.88,729.971 1286.57,731.286C1286.02,733.549 1283.85,736.499 1284.45,738.826C1284.77,740.079 1286.76,741.008 1287.65,741.865C1288.99,743.156 1290.29,745.211 1291.02,746.914" style="fill:none;stroke:#000;stroke-opacity:0.09;stroke-width:7.68px;"/>
            <path d="M1251.97,786.774C1251.9,786.881 1247.77,783.622 1246.95,782.492C1244.76,779.454 1243.92,776.458 1243.01,772.892C1242.23,769.84 1244.35,767.886 1240.76,765.909" style="fill:none;stroke:#000;stroke-opacity:0.09;stroke-width:7.68px;"/>
            <path d="M1239.87,780.275C1240.27,780.512 1239.3,779.535 1239.12,779.11C1238.75,778.242 1238.49,776.607 1238.64,775.655C1238.94,773.836 1238.43,771.974 1238.72,770.129C1239.01,768.357 1240.87,767.269 1240.71,765.361" style="fill:none;stroke:#000;stroke-opacity:0.09;stroke-width:7.68px;"/>
            <path d="M1198.88,706.788C1199.44,705.999 1197.25,707.809 1196.49,708.409C1194.66,709.868 1193.17,711.437 1192.33,713.546C1192.25,713.749 1196.43,716.199 1196.94,717.938C1197.76,720.782 1196.67,725.688 1193.02,725.998" style="fill:none;stroke:#fff;stroke-opacity:0.09;stroke-width:7.68px;"/>
            <path d="M1189.5,737.975C1189.16,737.573 1189.08,738.952 1188.83,739.418C1188.36,740.265 1187.65,741.419 1187.04,742.146C1184.53,745.123 1182.49,747.877 1183.63,751.819C1183.78,752.325 1185.41,755.882 1185.83,756.047C1187.33,756.645 1188.92,756.025 1190.17,757.334C1192.85,760.158 1194.86,769.933 1193.39,773.618" style="fill:none;stroke:#fff;stroke-opacity:0.09;stroke-width:7.68px;"/>
            <path d="M1221.57,717.723C1221.58,717.291 1222.01,718.499 1222.04,718.93C1222.12,719.883 1222.15,721.171 1221.18,721.763C1218.75,723.249 1216.18,724.426 1215.42,727.588C1214.81,730.092 1219.49,735.958 1216.47,737.802" style="fill:none;stroke:#fff;stroke-opacity:0.09;stroke-width:7.68px;"/>
            <path d="M1220.02,779.45C1218.59,779.12 1217.8,776.971 1217.1,775.464C1215.33,771.636 1213.19,767.137 1210.6,763.875" style="fill:none;stroke:#fff;stroke-opacity:0.09;stroke-width:7.68px;"/>
            <path d="M1203.63,786.402C1204.16,785.833 1203.29,787.93 1202.95,788.627C1202.36,789.826 1202.3,791.813 1202.23,793.104C1202,797.097 1200.33,805.579 1203.91,808.599" style="fill:none;stroke:#fff;stroke-opacity:0.09;stroke-width:7.68px;"/>
            <path d="M1240.86,722.028C1241.29,723.05 1240.13,724.045 1239.85,724.958C1239.01,727.707 1238.22,730.11 1238.14,733.014C1238.04,737.17 1241.96,738.929 1242.27,742.598" style="fill:none;stroke:#fff;stroke-opacity:0.09;stroke-width:7.68px;"/>
            <path d="M1230.46,754.736C1228.37,760.391 1228.54,767.174 1229.05,773.16" style="fill:none;stroke:#fff;stroke-opacity:0.09;stroke-width:7.68px;"/>
            <path d="M1252.49,759.392C1252.79,759.36 1252.24,759.937 1252.04,760.165C1251.57,760.724 1251.07,761.474 1250.74,762.116C1249.94,763.665 1249.16,765.718 1248.8,767.432C1247.79,772.242 1248.31,782.192 1255.89,781.548" style="fill:none;stroke:#fff;stroke-opacity:0.09;stroke-width:7.68px;"/>
            <path d="M1279.65,766.534C1279.61,766.425 1279.59,767.205 1279.87,767.181C1280.69,767.111 1278.37,766.493 1277.58,766.271C1275.81,765.774 1273.94,765.186 1272.94,763.539C1270.12,758.933 1271.22,754.158 1270.8,749.186" style="fill:none;stroke:#fff;stroke-opacity:0.09;stroke-width:7.68px;"/>
            <path d="M1297.33,730.92C1297.6,730.909 1295.99,734.939 1295.92,735.274C1295.27,738.588 1294.74,740.91 1295.04,744.364" style="fill:none;stroke:#fff;stroke-opacity:0.09;stroke-width:7.68px;"/>
            <path d="M1164.38,729.514C1164.86,729.679 1163.77,730.332 1163.43,730.723C1162.73,731.561 1162.15,732.451 1161.44,733.284C1159.44,735.662 1155.86,738.883 1154.99,741.745C1153.41,746.925 1159.54,746.262 1162.38,748.659C1163.49,749.593 1162.92,751.316 1163.98,752.203" style="fill:none;stroke:#fff;stroke-opacity:0.09;stroke-width:7.68px;"/>
            <path d="M1173.31,766.296C1172.53,766.712 1174.11,767.95 1174.04,768.825C1173.89,770.598 1173.22,772.858 1172.49,774.476C1171.17,777.427 1167.38,782.68 1168.89,786.189C1169.38,787.333 1171.16,788.105 1172.06,788.863C1173.04,789.689 1173.94,790.398 1175.17,790.806C1176.2,791.148 1178.35,792.007 1179.31,791.926" style="fill:none;stroke:#fff;stroke-opacity:0.09;stroke-width:7.68px;"/>
            <path d="M1149.25,777.849C1149.2,778.256 1149.73,779.399 1149.69,778.991C1149.55,777.244 1147.99,776.284 1146.96,774.992C1145.93,773.691 1145.54,772.104 1144.58,770.779C1143.77,769.651 1142.15,769.387 1141.59,768.09C1139.78,763.877 1146.06,760.098 1145.76,756.512" style="fill:none;stroke:#fff;stroke-opacity:0.09;stroke-width:7.68px;"/>
            <path d="M1263.23,722.78C1264.75,723.009 1258.46,732.057 1257.65,734.098C1255.81,738.717 1261.94,737.868 1262.25,741.439" style="fill:none;stroke:#fff;stroke-opacity:0.09;stroke-width:7.68px;"/>
            <path d="M1259.78,719.833C1259.32,719.969 1259.79,720.921 1259.42,721.219C1257.69,722.593 1257.04,724.207 1256.09,726.149C1254.73,728.92 1253.68,731.483 1252.58,734.242C1252.22,735.152 1251.34,736.379 1251.81,737.456C1252.33,738.682 1254.62,740.662 1255.76,741.617C1256.46,742.208 1258.15,745.311 1259.06,745.233" style="fill:none;stroke:#000;stroke-width:6.67px;"/>
        </g>
        <g>
            <path d="M1371.61,634.031C1379.62,650.458 1388.95,670.892 1384.14,686.235C1382.87,690.275 1379.02,694.337 1376.19,697.501C1369.25,705.264 1370.34,700.147 1363.43,708.078C1358.98,713.185 1348.84,722.162 1346.18,728.261C1343.92,733.425 1332.94,738.696 1337.67,745.518C1340.3,749.3 1342.7,751.289 1343.34,750.229C1343.79,749.478 1349.74,751.306 1350.04,750.477C1350.19,750.055 1354.31,742.656 1354.75,743.051C1358,745.938 1350.29,752.16 1352.65,755.414C1353.16,756.119 1358.62,758.336 1359.13,757.858C1359.55,757.469 1362.56,748.452 1362.61,748.462C1367.98,749.596 1362.18,759.218 1366.16,761.6C1367.35,762.311 1372.21,756.469 1372.12,755.371C1371.92,752.768 1376.1,752.614 1377.02,750.37C1377.21,749.89 1380.01,747.09 1380.44,746.734C1383.91,743.878 1384.59,743.854 1388.08,741.872C1400.33,734.902 1408.97,725.407 1417.95,715.625C1431.64,700.728 1438.52,683.571 1442.64,663.657C1444.31,655.616 1446.71,647.41 1445.31,638.549C1442.2,618.879 1431.93,600.445 1419.62,581.957" style="fill:#6f5e4c;stroke:#000;stroke-width:6.67px;"/>
            <path d="M990.583,512.542C889.276,462.48 751.534,363.441 645.181,439.019C611.28,463.11 572.492,528.176 558.656,594.656C555.957,607.626 547.45,706.647 558.721,718.228C582.834,743.003 659.181,641.741 686.185,621.722C701.041,610.707 713.605,601.363 728.701,592.339C744.31,583.007 762.14,575.871 778.212,569.23C832.58,546.764 886.24,565.627 938.055,576.16" style="fill:#a88d6e;stroke:#000;stroke-width:6.67px;"/>
            <path d="M1393.87,556.062C1364.77,542.629 1339.74,522.56 1309.15,511.824C1257.39,493.663 1125.72,483.378 1069.9,491.109C1051.76,493.621 1009.64,495.381 991.534,497.412C962.154,500.707 921.634,513.763 932.55,565.065C941.74,608.254 983.805,610.883 1014.22,612.028C1068.32,614.063 1118.39,628.053 1170.35,641.542C1181.57,644.456 1191.41,650.864 1202.83,653.344C1231.04,659.466 1260.03,660.162 1288.71,661.767C1308.67,662.884 1330.85,666.469 1350.44,660.978C1363.3,657.374 1373.85,649.375 1385.52,643.202C1416.66,626.724 1432.51,620.522 1416.09,579.514C1411.73,568.649 1402.16,554.234 1390.6,550.096" style="fill:#6f5e4c;stroke:#000;stroke-width:6.67px;"/>
            <path d="M1331.63,531.247C1349.35,527.663 1367.68,527.63 1385.12,524.201C1430.47,515.284 1475.86,496.391 1522.04,514.056C1526.61,515.804 1581.55,589.239 1581.56,589.477C1581.76,598.252 1566.64,612.905 1559.88,617.704C1517.37,647.922 1442.71,615.179 1392.62,629.489" style="fill:#6f5e4c;stroke:#000;stroke-width:6.67px;"/>
            <path d="M1483.13,514.763C1475.57,460.548 1441.95,459.542 1447.86,514.354" style="fill:#6f5e4c;stroke:#000;stroke-width:6.67px;"/>
            <path d="M1154.88,620.473C1150.43,623.069 1139.12,643.575 1134.85,646.495C1127.71,651.377 1119.75,654.659 1112.4,659.172C1104.89,663.784 1098.73,668.939 1090.36,672.212C1077.73,677.152 1062.32,677.586 1048.82,677.559C1033.81,677.53 1016.06,673.982 1001.65,669.628C988.58,665.678 978.875,659.385 965.302,665.167C957.967,668.292 958.61,675.314 955.456,681.28C952.356,687.143 950.664,693.521 947.757,699.464C943.371,708.43 937.894,716.794 933.091,725.542C931.041,729.276 929.263,733.107 927.995,737.174C927.765,737.912 927.224,741.092 926.495,741.43C922.792,743.145 920.681,734.904 919.809,733.198C919.676,732.939 916.023,736.204 915.713,736.524C915.338,736.911 914.684,738.226 914.598,737.694C914.248,735.52 914.675,732.961 915.265,730.847C915.346,730.556 916.491,727.41 916.269,727.303C913.137,725.792 907.123,731.256 906.339,730.226C901.498,723.868 910.313,710.221 912.949,704.105C916.632,695.559 919.557,686.698 925.196,679.144C931.332,670.923 939.796,664.783 946.235,656.749C952.07,649.469 954.281,640.189 963.601,636.438" style="fill:#6f5e4c;stroke:#000;stroke-width:6.67px;"/>
            <path d="M1152.9,602.645C1119.73,643.741 1084.07,675.076 1028.59,659.441C1000.02,651.391 963.839,624.263 932.781,631.002C902.927,637.48 891.301,678.479 870.567,696.216C868.019,698.395 847.233,714.214 843.41,711.849C838.809,709.003 852.22,690.46 852.52,687.645C852.947,683.639 827.392,694.606 825.568,694.172C825.309,694.11 839.014,679.131 840.436,677.543C843.117,674.547 842.559,669.629 845.407,665.916C851.293,658.245 859.604,652.51 866.011,645.255C878.328,631.305 898.749,609.179 916.31,602.309C967.642,582.231 982.814,609.201 1018.95,559.25" style="fill:#6f5e4c;stroke:#000;stroke-width:6.67px;"/>
            <path d="M1534.6,565.318C1531.87,551.963 1526.21,539.516 1510.68,538.927C1508.22,538.833 1503.81,538.413 1501.63,539.733C1500.7,540.294 1501.26,542.345 1501.68,543.342C1502.52,545.345 1501.7,544.014 1502.25,546.111C1504.62,555.093 1513.94,565.997 1523.47,568.049C1526.7,568.745 1532.08,570.297 1533.96,566.763" style="stroke:#000;stroke-width:6.67px;"/>
            <path d="M1558.37,595.212C1556.43,591.593 1549.52,591.333 1546.05,591.256C1535.39,591.02 1525.23,594.482 1514.59,593.088" style="fill:none;stroke:#000;stroke-width:2.92px;"/>
            <path d="M1558.05,602.562C1552.15,602.46 1546.35,601.474 1540.46,601.359C1532.53,601.204 1525.25,602.22 1517.56,603.908" style="fill:none;stroke:#000;stroke-width:2.92px;"/>
            <path d="M1554.1,607.845C1547.42,610.676 1539.72,610.261 1532.63,610.822C1527.04,611.266 1521.33,612.837 1515.73,612.849" style="fill:none;stroke:#000;stroke-width:2.92px;"/>
            <path d="M1578.38,599.626C1582.74,599.3 1589.33,597.695 1593.71,599.19" style="fill:none;stroke:#000;stroke-width:2.92px;"/>
            <path d="M1572.1,607.272C1578.6,606.344 1585.95,606.466 1592.44,607.484" style="fill:none;stroke:#000;stroke-width:2.92px;"/>
            <path d="M1566.59,609.891C1575.05,613.462 1583.54,617.775 1592.26,620.618" style="fill:none;stroke:#000;stroke-width:2.92px;"/>
            <path d="M1578.59,596.822C1564.63,590.657 1559.32,597.9 1561.3,610.799" style="fill:#6f5e4c;stroke:#000;stroke-width:6.67px;"/>
            <path d="M1574.49,597.581C1571.69,599.19 1569.52,601.327 1567.41,603.764C1566.18,605.186 1564.09,607.593 1564.09,607.588C1563.19,606.219 1566.43,600.588 1566.91,599.029" style="fill:none;stroke:#000;stroke-width:6.72px;"/>
            <path d="M1405.56,624.902C1372.57,654.366 1333.1,677.16 1314.07,718.759C1306.24,735.861 1305.98,771.197 1283.39,776.333C1274.07,778.453 1271.85,775.396 1274.06,770.395C1275.03,768.216 1276.15,766.078 1277.31,763.986C1277.81,763.095 1279.64,760.739 1278.8,761.317C1275.6,763.503 1268.18,778.24 1262,773.959C1256.63,770.241 1254,770.846 1255.24,764.888C1255.86,761.907 1256.94,758.955 1258.3,756.19C1258.36,756.076 1258.58,755.779 1258.47,755.848C1256.35,757.219 1254.49,761.338 1252.67,763.256C1246.72,769.498 1236.16,765.464 1237.67,749.443C1238.91,736.282 1248.95,735.515 1255.01,723.713C1260.86,712.305 1263.66,699.279 1271.41,688.789C1281.72,674.812 1300.46,666.514 1306.21,650.126C1311.44,635.216 1317.29,624.009 1306.41,609.426" style="fill:#6f5e4c;stroke:#000;stroke-width:6.67px;"/>
        </g>
        <g opacity="0.04">
            <path d="M1324.54,535.125C1312.92,530.27 1301.92,523.183 1289.97,519.263C1246.51,505.004 1200.99,502.869 1155.95,497.867C1103.69,492.063 1082.77,486.306 1029.13,491.942C999.487,495.057 935.311,510.819 912.09,532.659" style="fill:none;stroke:#fff;stroke-width:20.42px;"/>
            <path d="M931.805,495.314C900.936,479.714 872.84,470.212 834.881,454.193C788.57,434.65 724.28,417.121 676.791,435.059C659.406,441.626 603.512,502.83 595.525,520.07C571.881,571.102 571.403,582.019 563.823,633.446C562.357,643.396 552.441,703.104 566.908,709.63C581.855,716.373 610.59,671.214 620.814,663.276C645.066,644.447 673.174,616.645 699.004,600.227C717.153,588.691 706.94,592.04 738.952,573.663C752.577,565.842 760.335,560.134 775.773,557.506C818.659,550.205 862.571,544.122 913.56,560.169" style="fill:none;stroke:#fff;stroke-width:20.42px;"/>
            <path d="M1019.51,561.186C1010.79,571.068 1004.67,583.236 992.248,589.332C980.085,595.3 966.435,595.407 953.332,597.16C919.274,601.717 890.75,615.405 870.297,643.919" style="fill:none;stroke:#fff;stroke-width:20.42px;"/>
            <path d="M1555.63,581.246C1547.4,565.388 1508.4,516.015 1490.03,512.767C1457.89,507.085 1423.23,523.408 1391.63,527.702" style="fill:none;stroke:#fff;stroke-width:20.42px;"/>
            <path d="M1459.85,500.064C1458.35,495.203 1455.52,492.278 1453.4,487.784C1449.72,479.946 1450.43,492.402 1449.32,498.172" style="fill:none;stroke:#fff;stroke-width:20.42px;"/>
            <path d="M1316.86,538.682C1288.59,508.891 1246.7,515.125 1209.67,512.715C1172.17,510.274 1135.68,509.82 1098.1,509.812C1076.87,509.807 1056.51,506.447 1035.23,509.157C1004.47,513.075 966.581,526.963 935.243,535.367" style="fill:none;stroke:#fff;stroke-width:44.74px;"/>
            <path d="M1324.5,647.101C1262.9,649.309 1202.54,631.712 1142.55,621.142" style="fill:none;stroke:#000;stroke-width:48.17px;"/>
            <path d="M1136.37,594.675C1121.29,615.375 1063.26,649.145 1036.31,646.367C999.292,642.552 968.391,616.882 927.193,623.729" style="fill:none;stroke:#000;stroke-width:22.66px;"/>
            <path d="M1542.03,602.653C1518.57,632.919 1479.03,613.299 1447.9,612.924" style="fill:none;stroke:#000;stroke-width:22.66px;"/>
            <path d="M1130.03,643.882C1124.01,647.069 1117.17,648.762 1111.48,652.545C1100.03,660.151 1092.97,669.02 1078.73,672.701C1070.52,674.821 1046.36,672.27 1037.65,670.851C1021.49,668.216 1005.85,663.829 991.492,655.892C986.102,652.912 974.044,644.913 967.424,647.651C960.875,650.36 954.759,657.889 950.5,663.262C946.817,667.909 942.061,671.526 939.162,676.817C931.574,690.665 929.527,707.532 921.937,721.572" style="fill:none;stroke:#000;stroke-width:19.84px;"/>
            <path d="M1521.06,560.12C1520.52,555.246 1507.77,534.097 1501.48,539.104C1492.71,546.099 1509.58,564.938 1517.75,563.973C1526.43,562.946 1526.12,552.654 1519.74,548.694" style="fill:none;stroke:#000;stroke-width:22.66px;"/>
            <path d="M1307.16,601.856C1343.34,655.452 1298.37,670.854 1272.51,710.444C1261.49,727.317 1254.7,746.75 1242.18,762.674" style="fill:none;stroke:#000;stroke-width:16.23px;"/>
            <path d="M1396,630.375C1389.67,637.734 1392.08,647.148 1391.9,656.44C1391.69,666.584 1389.21,679.284 1386.32,688.701C1383.86,696.711 1372.34,716.854 1366.76,722.877C1363.62,726.269 1359.89,728.961 1356.51,732.118C1356.23,732.383 1351.33,736.911 1352.33,737.444C1355.55,739.155 1361.84,732.818 1363.74,731.176" style="fill:none;stroke:#000;stroke-width:16.23px;"/>
            <path d="M1393.71,613.76C1364.88,634.27 1327.66,672.732 1312.04,704.733C1305.83,717.463 1300.87,730.959 1296.48,744.419C1293.42,753.811 1291.99,764.868 1286.8,773.434" style="fill:none;stroke:#fff;stroke-width:16.23px;"/>
            <path d="M1373.36,738.365C1388.81,728.907 1408.33,721.698 1417.57,704.866C1426.98,687.743 1425.16,665.905 1431.39,647.476C1434.74,637.55 1444.7,630.441 1447.01,620.241" style="fill:none;stroke:#fff;stroke-width:16.23px;"/>
        </g>
        <path d="M1510.99,544.835C1511.03,540.48 1504.09,536.246 1501.97,541.477C1499.86,546.702 1506.63,551.101 1510.16,546.575C1511.71,544.573 1509.2,541.073 1506.76,542.047C1504.55,542.931 1505.53,545.265 1507.45,545.656" style="fill:none;stroke:#000;stroke-opacity:0.22;stroke-width:6.67px;"/>
    </g>
</svg>
