<?xml version="1.0" encoding="UTF-8" standalone="no"?>
<!DOCTYPE svg PUBLIC "-//W3C//DTD SVG 1.1//EN" "http://www.w3.org/Graphics/SVG/1.1/DTD/svg11.dtd">
<svg width="100%" height="100%" viewBox="0 0 1067 1067" version="1.1" xmlns="http://www.w3.org/2000/svg" xmlns:xlink="http://www.w3.org/1999/xlink" xml:space="preserve" xmlns:serif="http://www.serif.com/" style="fill-rule:evenodd;clip-rule:evenodd;stroke-linejoin:round;stroke-miterlimit:2;">
    <g id="Sitting">
        <g>
            <path d="M398.914,661.986C379.81,656.706 363.8,632.539 352.973,617.402C333.249,589.826 326.432,555.724 315.434,524.376C302.649,487.934 285.401,455.324 291.764,415.211C298.47,372.94 343.431,323.024 388.02,350.376C395.684,355.078 402.185,361.598 406.348,369.607C413.902,384.142 418.615,406.523 413.81,422.626C402.453,460.686 358.043,503.89 401.005,539.261" style="fill:rgb(168,141,110);stroke:black;stroke-width:6.67px;stroke-linecap:round;stroke-miterlimit:1.5;"/>
            <path d="M622.266,466.745C608.997,451.896 588.205,435.612 569.399,428.458C512.549,406.83 428.34,426.666 397.83,482.397C379.332,516.188 391.7,564.492 392.937,600.61C394.051,633.162 393.263,679.557 415.789,706.078C436.466,730.423 521.176,716.859 545.565,701.302C579.487,679.664 607.522,646.927 610.561,605.693C611.966,586.632 605.694,567.488 610.072,548.508C614.391,529.789 636.078,529.087 645.456,514.963C657.555,496.743 638.537,483.475 628.872,471.19" style="fill:rgb(111,94,76);stroke:black;stroke-width:6.67px;stroke-linecap:round;stroke-miterlimit:1.5;"/>
            <path d="M716.138,521.106C723.363,512.876 746.505,496.845 757.95,507.108C760.556,509.444 753.89,517.269 753.891,517.27C758.637,521.378 766.85,515.45 771.469,523.299C774.978,529.262 767.124,530.628 763.99,532.986C763.156,533.614 766.079,533.114 767.109,533.289C768.717,533.562 772.17,534.082 773.326,535.452C775.413,537.927 767.245,543.545 766.072,544.195C753.804,550.987 736.739,546.715 723.425,550.097" style="fill:rgb(111,94,76);stroke:black;stroke-width:6.67px;stroke-linecap:round;stroke-miterlimit:1.5;"/>
            <path d="M630.012,495.83C657.226,513.203 666.529,537.227 704.074,520.588C730.843,508.724 749.993,525.792 733.039,526.398C731.234,526.462 736.654,526.622 738.43,526.95C739.988,527.237 751.638,529.181 751.38,531.223C750.934,534.757 740.302,533.646 739.404,535.606C739.346,535.733 751.007,539.817 751.181,542.42C751.65,549.489 736.738,543.887 734.436,544.317C733.594,544.474 735.623,545.553 736.172,546.21C738.105,548.522 737.999,549.143 735.398,550.742C727.097,555.846 716.225,553.092 707.297,557.856C678.994,572.957 664.985,607.017 629.844,611.522C606.883,614.465 585.387,597.888 565.757,588.239" style="fill:rgb(111,94,76);stroke:black;stroke-width:6.67px;stroke-linecap:round;stroke-miterlimit:1.5;"/>
            <path d="M560.705,649.925C544.179,703.727 617.724,685.163 645.03,681.416C650.62,680.649 677.899,688.178 674.192,695.565C671.79,700.352 662.109,698.457 658.345,697.44C657.528,697.219 656.258,695.895 655.926,696.672C655.493,697.684 664.118,704.47 665.352,705.944C667.314,708.286 652.453,709.933 651.006,709.724C641.824,708.396 643.486,715.399 633.788,715.067C625.778,714.792 619.19,708.074 610.939,708.102C576.475,708.219 538.902,727.257 509.872,699.869" style="fill:rgb(111,94,76);stroke:black;stroke-width:6.67px;stroke-linecap:round;stroke-miterlimit:1.5;"/>
            <path d="M556.752,616.395C569.185,642.509 558.561,667.681 537.348,685.839C532.854,689.686 524.258,692.056 520.811,696.65C519.077,698.961 526.562,697.916 529.433,697.575C535.077,696.906 540.589,695.544 546.26,695.011C557.635,693.943 604.706,692.999 600.695,715.731C598.668,727.214 587.647,720.137 582.208,715.379C582.075,715.263 580,713.296 579.904,713.357C578.726,714.093 577.795,716.666 576.86,717.83C569.314,727.229 567.551,716.858 559.847,715.515C559.603,715.472 558.746,716.817 558.605,717.013C555.57,721.221 551.915,724.11 546.456,724.109C537.064,724.107 527.867,718.926 518.255,718.669C479.408,717.633 462.581,732.697 433.191,696.182" style="fill:rgb(111,94,76);stroke:black;stroke-width:6.67px;stroke-linecap:round;stroke-miterlimit:1.5;"/>
            <path d="M550.646,443.83C576.3,377.141 668.177,359.01 719.884,407.347C729.342,416.188 760.505,484.782 749.284,495.296C742.943,501.238 733.599,500.374 725.866,503.075C716.108,506.483 704.856,516.541 694.518,516.836C672.437,517.466 648.908,506.363 627.348,512.382" style="fill:rgb(111,94,76);stroke:black;stroke-width:6.67px;stroke-linecap:round;stroke-miterlimit:1.5;"/>
            <path d="M644.736,401.687C643.496,393.961 623.493,355.799 612.616,363.85C595.631,376.423 608.907,407.747 616.591,422.521" style="fill:rgb(111,94,76);stroke:black;stroke-width:6.67px;stroke-linecap:round;stroke-miterlimit:1.5;"/>
            <path d="M681.004,382.739C691.505,351.654 654.277,344.175 651.167,376.762" style="fill:rgb(111,94,76);stroke:black;stroke-width:6.67px;stroke-linecap:round;stroke-miterlimit:1.5;"/>
            <path d="M693.9,445.03C692.344,436.184 688.09,425.427 677.622,424.87C675.147,424.738 672.678,425.534 670.323,426.162C668.539,426.638 665.715,426.769 664.184,427.761C664.055,427.844 664.493,431.179 664.523,431.556C664.863,435.782 665.631,440.428 668.651,443.618C674.767,450.079 686.953,450.031 694.684,446.513" style="stroke:black;stroke-width:6.67px;stroke-linecap:round;stroke-miterlimit:1.5;"/>
            <path d="M748.91,493.196C745.976,489.806 739.933,489.504 736.204,491.716C734.783,492.56 732.07,496.083 732.781,497.85C732.812,497.926 736.59,496.092 736.955,495.907C739.516,494.606 741.796,494.433 744.384,493.575" style="fill:none;stroke:black;stroke-width:6.67px;stroke-linecap:round;stroke-miterlimit:1.5;"/>
            <path d="M734.27,483.079C730.477,478.71 724.373,477.336 719.05,475.846C706.294,472.276 695.022,472.734 681.928,473.849" style="fill:none;stroke:black;stroke-width:2.83px;stroke-linecap:round;stroke-miterlimit:1.5;"/>
            <path d="M730.583,488.14C721.239,487.819 711.618,484.8 702.46,482.942C698.005,482.039 692.682,480.785 688.193,482.23" style="fill:none;stroke:black;stroke-width:2.83px;stroke-linecap:round;stroke-miterlimit:1.5;"/>
            <path d="M723.179,496.632C715.665,495.96 707.925,495.609 700.38,495.902C696.149,496.066 691.625,497.343 687.42,496.991" style="fill:none;stroke:black;stroke-width:2.83px;stroke-linecap:round;stroke-miterlimit:1.5;"/>
            <path d="M752.973,484.481C759.354,479.74 768.502,476.772 776.267,475.305" style="fill:none;stroke:black;stroke-width:2.83px;stroke-linecap:round;stroke-miterlimit:1.5;"/>
            <path d="M750.944,492.299C757.873,489.927 764.874,486.547 771.398,483.223" style="fill:none;stroke:black;stroke-width:2.83px;stroke-linecap:round;stroke-miterlimit:1.5;"/>
            <path d="M747.57,496.427C754.283,494.979 764.379,492.905 771.198,494.418" style="fill:none;stroke:black;stroke-width:2.83px;stroke-linecap:round;stroke-miterlimit:1.5;"/>
        </g>
        <g opacity="0.04">
            <path d="M542.258,439.782C524.068,435.796 509.174,439.123 491.911,444.819C409.1,472.144 415.426,516.214 421.456,592.777C423.545,619.285 420.937,637.579 426.506,664.209" style="fill:none;stroke:white;stroke-width:66.19px;stroke-linecap:round;stroke-miterlimit:1.5;"/>
            <path d="M739.479,488.257C734.901,463.419 719.295,416.189 698.295,401.093C666.941,378.553 624.399,391.781 594.935,409.659" style="fill:none;stroke:white;stroke-width:27.79px;stroke-linecap:round;stroke-miterlimit:1.5;"/>
            <path d="M374.583,469.597C385.287,460.064 386.593,446.101 390.759,433.131C394.576,421.246 400.875,407.913 401.086,395.242C401.419,375.259 377.476,356.39 358.542,358.129C314.178,362.203 296.124,400.635 303.449,441.983C309.849,478.111 323.939,512.716 337.947,546.442C341.933,556.038 343.664,566.57 348.234,575.907C357.572,594.984 371.192,611.626 380.447,630.771" style="fill:none;stroke:white;stroke-width:27.79px;stroke-linecap:round;stroke-miterlimit:1.5;"/>
            <path d="M724.561,494.583C710.667,501.243 689.97,509.063 674.341,507.898C653.097,506.314 645.777,494.066 622.549,501.047" style="fill:none;stroke:black;stroke-width:20.43px;stroke-linecap:round;stroke-miterlimit:1.5;"/>
            <path d="M707.755,551.628C695.881,558.312 682.558,561.138 672.348,570.793C663.151,579.491 655.818,595.298 643.573,600.054C628.968,605.726 586.673,593.062 571.266,586.367" style="fill:none;stroke:black;stroke-width:20.43px;stroke-linecap:round;stroke-miterlimit:1.5;"/>
            <path d="M600.624,616.19C591.107,635.407 582.578,651.194 567.618,666.761" style="fill:none;stroke:white;stroke-width:20.43px;stroke-linecap:round;stroke-miterlimit:1.5;"/>
            <path d="M531.423,681.665C550.509,660.818 557.943,620.172 532.228,600.586C519.663,591.016 497.671,587.176 482.352,584.031" style="fill:none;stroke:white;stroke-width:20.43px;stroke-linecap:round;stroke-miterlimit:1.5;"/>
            <path d="M700.823,532.232C689.138,532.831 676.178,536.69 664.656,534.172C655.117,532.087 647.871,522.909 638.641,519.301C617.29,510.955 596.957,512.404 574.951,517.315" style="fill:none;stroke:white;stroke-width:20.43px;stroke-linecap:round;stroke-miterlimit:1.5;"/>
            <path d="M696.456,445.942C694.406,434.305 686.032,421.277 672.701,422.254C669.179,422.512 665.269,424.269 662.139,425.872" style="fill:none;stroke:black;stroke-width:6.67px;stroke-linecap:round;stroke-miterlimit:1.5;"/>
            <path d="M696.485,447.352C689.184,453.707 673.766,449.027 667.018,443.111C664.347,440.769 663.165,437.657 662.308,434.311C662.24,434.043 661.278,429.285 660.989,429.418C656.052,431.689 661.866,440.997 663.944,443.011C670.919,449.771 684.016,455.727 693.314,451.192C703.472,446.238 695.019,432.437 689.292,427.54C680.817,420.293 670.018,422.443 660.603,425.83" style="fill:none;stroke:black;stroke-width:6.67px;stroke-linecap:round;stroke-miterlimit:1.5;"/>
        </g>
        <path d="M677.442,434.915C677.484,430.56 670.541,426.326 668.423,431.556C666.307,436.782 673.087,441.181 676.61,436.655C678.168,434.653 675.653,431.153 673.213,432.127C670.999,433.011 671.985,435.345 673.906,435.735" style="fill:none;stroke:white;stroke-opacity:0.22;stroke-width:6.67px;stroke-linecap:round;stroke-miterlimit:1.5;"/>
    </g>
</svg>
