<?xml version="1.0" encoding="UTF-8" standalone="no"?>
<!DOCTYPE svg PUBLIC "-//W3C//DTD SVG 1.1//EN" "http://www.w3.org/Graphics/SVG/1.1/DTD/svg11.dtd">
<svg width="100%" height="100%" viewBox="0 0 2133 1066" version="1.1" xmlns="http://www.w3.org/2000/svg" xmlns:xlink="http://www.w3.org/1999/xlink" xml:space="preserve" xmlns:serif="http://www.serif.com/" style="fill-rule:evenodd;clip-rule:evenodd;stroke-linecap:round;stroke-linejoin:round;stroke-miterlimit:1.5;">
    <g id="sword-attacking">
        <g>
            <g>
                <path d="M1491.24,820.144C1543.43,814.955 1596.92,808.322 1646.82,793.345C1722.91,770.512 1796.94,737.713 1876.82,730.281C1877.71,730.199 1887.34,674.688 1897.3,662.987C1904.65,654.357 1915.19,651.063 1924.55,647.438C1927.33,646.364 1930.12,645.349 1932.93,644.365C1934.46,643.827 1938.88,644.754 1937.53,642.789C1913.41,607.552 1820.98,631.042 1796.64,638.191C1741.69,654.34 1684.65,663.214 1629.91,679.631C1572.01,696.997 1518.53,720.873 1458.48,729.058" style="fill:#bebebe;stroke:#000;stroke-width:6.67px;"/>
                <path d="M1860.57,672.907C1847.57,667.8 1831.3,671.889 1818.52,675.883C1793.87,683.584 1769.2,692.175 1744.9,700.928C1726.23,707.653 1707.35,713.904 1688.02,718.439C1668.59,722.994 1648.65,725.367 1629.22,730.117C1606.31,735.72 1583.84,744.084 1560.95,750.02C1552.53,752.203 1543.34,752.139 1534.76,753.262C1522.65,754.846 1510.72,758.447 1499.43,763.019" style="fill:none;stroke:#000;stroke-width:6.67px;"/>
                <path d="M1456.48,773.896C1430.17,780.922 1405.66,795.78 1380.74,806.709C1380.67,806.742 1376.37,798.715 1374.81,797.524C1370.53,794.275 1363.86,795.912 1359.24,797.481C1348.08,801.271 1342.68,812.665 1347.5,823.603C1351.5,832.665 1360.31,835.899 1369.55,832.611C1378.26,829.508 1381.29,818.548 1390.3,814.383C1407.79,806.299 1426.05,799.403 1443.85,791.926C1449.28,789.648 1460.29,787.949 1464.28,783.332C1471.46,775.033 1458.19,772.18 1451.84,773.46" style="fill:#535353;stroke:#000;stroke-width:6.67px;"/>
                <path d="M1452.16,731.355C1455.1,745.306 1455.95,759.736 1458.57,773.795C1460.28,782.997 1461.85,792.235 1464.65,801.185C1466.91,808.409 1472.69,830.473 1477.96,835.084C1485.51,841.702 1491.28,822.08 1490.64,817.251C1488.96,804.573 1484.19,792.532 1480.95,780.222C1477.78,768.156 1475.75,755.964 1472.51,743.895C1470.88,737.84 1470.66,721.995 1464.47,718.406C1463.53,717.86 1459.99,721.588 1459.47,722.156C1455.1,726.967 1453.52,733.216 1452.72,739.501" style="fill:#484848;stroke:#000;stroke-width:6.67px;"/>
                <path d="M1366.21,808.453C1364.4,809.339 1362.22,810.585 1361.84,812.747C1361.24,816.21 1363.64,820.103 1367.46,818.282C1369,817.547 1370.95,816.526 1371.48,814.733C1372.75,810.329 1367.47,808.14 1364.19,809.988" style="fill:none;stroke:#771a23;stroke-width:10.16px;"/>
            </g>
            <g opacity="0.18">
                <path d="M1873.35,716.924C1830.06,711.2 1792.11,736.006 1752.06,747.257C1724.17,755.094 1697.04,764.909 1669.26,772.923C1653.85,777.367 1637.99,779.976 1622.68,784.679C1610.97,788.279 1599.67,793.466 1587.79,796.508C1575.35,799.696 1562.1,799.327 1549.41,801.074C1532.55,803.395 1515.53,808.064 1499.05,812.391" style="fill:none;stroke:#fff;stroke-width:16.79px;"/>
                <path d="M1914.04,635.519C1890.56,623.973 1865.08,623.951 1841.52,631.022C1834.81,633.035 1828.76,636.82 1822.01,638.771C1799.73,645.208 1777.34,648.811 1755.35,656.521C1728.77,665.837 1702.49,676.868 1675.62,685.211C1649.49,693.328 1622.27,697.918 1595.99,705.709C1557.94,716.994 1520.12,730.249 1480.8,736.633" style="fill:none;stroke:#fff;stroke-width:16.79px;"/>
                <path d="M1904.32,644.104C1888.9,667.896 1868.82,685.04 1870.03,718.67" style="fill:none;stroke:#fff;stroke-width:16.79px;"/>
                <path d="M1462.99,724.167C1461.76,726.736 1460.04,728.98 1459.33,731.843C1454.42,751.609 1464.47,773.987 1468.41,793.24C1470.91,805.496 1473.76,821.57 1481.9,831.356" style="fill:none;stroke:#000;stroke-width:6.67px;"/>
                <path d="M1458.66,785.033C1442.96,787.825 1429.76,794.31 1415.11,800.153C1405.79,803.874 1395.48,806.045 1386.62,810.922C1376.06,816.733 1372.46,834.808 1357.59,828.55C1355.53,827.683 1353.43,826.624 1351.66,825.256" style="fill:none;stroke:#000;stroke-width:6.67px;"/>
            </g>
        </g>
        <g>
            <path d="M1429.62,607.085C1441.24,624.127 1456.18,644.858 1476.78,651.464C1482.2,653.204 1489.7,653 1495.4,652.971C1509.4,652.9 1523.32,648.554 1537.47,648.621C1546.58,648.664 1555.51,651.933 1564.29,653.994C1571.72,655.739 1583.89,657.456 1587.59,665.606C1589.65,670.124 1579.24,669.489 1577.57,669.265C1576.39,669.106 1575.22,668.889 1574.07,668.562C1573.49,668.395 1572.24,667.47 1572.32,668.07C1572.91,672.457 1576.02,676.06 1577.71,680.021C1578.08,680.878 1575.87,680.313 1574.94,680.383C1574.18,680.439 1566.74,679.671 1566.71,679.716C1563.68,684.549 1567.27,688.54 1566.72,693.15C1566.55,694.527 1564.3,691.782 1563.17,690.983C1560.48,689.088 1555.75,689.735 1552.57,688.932C1551.89,688.76 1546.61,689.01 1545.88,689.099C1540.01,689.814 1539.44,690.317 1534.51,691.633C1517.17,696.258 1499.94,696.453 1482.12,696.726C1454.98,697.14 1430.77,690.88 1405.71,680.699C1395.6,676.587 1384.72,672.923 1376.14,665.941C1357.09,650.44 1345.07,630.339 1334.61,608.654" style="fill:#6f5e4c;stroke:#000;stroke-width:6.67px;"/>
            <path d="M990.583,512.542C889.276,462.48 751.534,363.441 645.181,439.019C611.28,463.11 572.492,528.176 558.656,594.656C555.957,607.626 547.45,706.647 558.721,718.228C582.834,743.003 659.181,641.741 686.185,621.722C701.041,610.707 713.605,601.363 728.701,592.339C744.31,583.007 762.14,575.871 778.212,569.23C832.58,546.764 886.24,565.627 938.055,576.16" style="fill:#a88d6e;stroke:#000;stroke-width:6.67px;"/>
            <path d="M1393.87,556.062C1364.77,542.629 1339.74,522.56 1309.15,511.824C1257.39,493.663 1125.72,483.378 1069.9,491.109C1051.76,493.621 1009.64,495.381 991.534,497.412C962.154,500.707 921.634,513.763 932.55,565.065C941.74,608.254 983.805,610.883 1014.22,612.028C1068.32,614.063 1118.39,628.053 1170.35,641.542C1181.57,644.456 1191.41,650.864 1202.83,653.344C1231.04,659.466 1260.03,660.162 1288.71,661.767C1308.67,662.884 1330.85,666.469 1350.44,660.978C1363.3,657.374 1373.85,649.375 1385.52,643.202C1416.66,626.724 1432.51,620.522 1416.09,579.514C1411.73,568.649 1402.16,554.234 1390.6,550.096" style="fill:#6f5e4c;stroke:#000;stroke-width:6.67px;"/>
            <path d="M1331.63,531.247C1349.35,527.663 1367.68,527.63 1385.12,524.201C1430.47,515.284 1475.86,496.391 1522.04,514.056C1526.61,515.804 1581.55,589.239 1581.56,589.477C1581.76,598.252 1566.64,612.905 1559.88,617.704C1517.37,647.922 1442.71,615.179 1392.62,629.489" style="fill:#6f5e4c;stroke:#000;stroke-width:6.67px;"/>
            <path d="M1483.13,514.763C1475.57,460.548 1441.95,459.542 1447.86,514.354" style="fill:#6f5e4c;stroke:#000;stroke-width:6.67px;"/>
            <path d="M1154.88,620.473C1150.43,623.069 1139.12,643.575 1134.85,646.495C1127.71,651.377 1119.75,654.659 1112.4,659.172C1104.89,663.784 1098.73,668.939 1090.36,672.212C1077.73,677.152 1062.32,677.586 1048.82,677.559C1033.81,677.53 1016.06,673.982 1001.65,669.628C988.58,665.678 978.875,659.385 965.302,665.167C957.967,668.292 958.61,675.314 955.456,681.28C952.356,687.143 950.664,693.521 947.757,699.464C943.371,708.43 937.894,716.794 933.091,725.542C931.041,729.276 929.263,733.107 927.995,737.174C927.765,737.912 927.224,741.092 926.495,741.43C922.792,743.145 920.681,734.904 919.809,733.198C919.676,732.939 916.023,736.204 915.713,736.524C915.338,736.911 914.684,738.226 914.598,737.694C914.248,735.52 914.675,732.961 915.265,730.847C915.346,730.556 916.491,727.41 916.269,727.303C913.137,725.792 907.123,731.256 906.339,730.226C901.498,723.868 910.313,710.221 912.949,704.105C916.632,695.559 919.557,686.698 925.196,679.144C931.332,670.923 939.796,664.783 946.235,656.749C952.07,649.469 954.281,640.189 963.601,636.438" style="fill:#6f5e4c;stroke:#000;stroke-width:6.67px;"/>
            <path d="M1152.9,602.645C1119.73,643.741 1084.07,675.076 1028.59,659.441C1000.02,651.391 963.839,624.263 932.781,631.002C902.927,637.48 891.301,678.479 870.567,696.216C868.019,698.395 847.233,714.214 843.41,711.849C838.809,709.003 852.22,690.46 852.52,687.645C852.947,683.639 827.392,694.606 825.568,694.172C825.309,694.11 839.014,679.131 840.436,677.543C843.117,674.547 842.559,669.629 845.407,665.916C851.293,658.245 859.604,652.51 866.011,645.255C878.328,631.305 898.749,609.179 916.31,602.309C967.642,582.231 982.814,609.201 1018.95,559.25" style="fill:#6f5e4c;stroke:#000;stroke-width:6.67px;"/>
            <path d="M1534.6,565.318C1531.87,551.963 1526.21,539.516 1510.68,538.927C1508.22,538.833 1503.81,538.413 1501.63,539.733C1500.7,540.294 1501.26,542.345 1501.68,543.342C1502.52,545.345 1501.7,544.014 1502.25,546.111C1504.62,555.093 1513.94,565.997 1523.47,568.049C1526.7,568.745 1532.08,570.297 1533.96,566.763" style="stroke:#000;stroke-width:6.67px;"/>
            <path d="M1558.37,595.212C1556.43,591.593 1549.52,591.333 1546.05,591.256C1535.39,591.02 1525.23,594.482 1514.59,593.088" style="fill:none;stroke:#000;stroke-width:2.92px;"/>
            <path d="M1558.05,602.562C1552.15,602.46 1546.35,601.474 1540.46,601.359C1532.53,601.204 1525.25,602.22 1517.56,603.908" style="fill:none;stroke:#000;stroke-width:2.92px;"/>
            <path d="M1554.1,607.845C1547.42,610.676 1539.72,610.261 1532.63,610.822C1527.04,611.266 1521.33,612.837 1515.73,612.849" style="fill:none;stroke:#000;stroke-width:2.92px;"/>
            <path d="M1578.38,599.626C1582.74,599.3 1589.33,597.695 1593.71,599.19" style="fill:none;stroke:#000;stroke-width:2.92px;"/>
            <path d="M1572.1,607.272C1578.6,606.344 1585.95,606.466 1592.44,607.484" style="fill:none;stroke:#000;stroke-width:2.92px;"/>
            <path d="M1566.59,609.891C1575.05,613.462 1583.54,617.775 1592.26,620.618" style="fill:none;stroke:#000;stroke-width:2.92px;"/>
            <path d="M1578.59,596.822C1564.63,590.657 1559.32,597.9 1561.3,610.799" style="fill:#6f5e4c;stroke:#000;stroke-width:6.67px;"/>
            <path d="M1574.49,597.581C1571.69,599.19 1569.52,601.327 1567.41,603.764C1566.18,605.186 1564.09,607.593 1564.09,607.588C1563.19,606.219 1566.43,600.588 1566.91,599.029" style="fill:none;stroke:#000;stroke-width:6.72px;"/>
            <path d="M1414.34,617.456C1415.54,661.673 1407.48,706.525 1426.96,747.919C1434.97,764.937 1461.79,787.945 1451.13,808.513C1446.73,817.003 1442.96,816.723 1440.57,811.804C1439.53,809.661 1438.63,807.418 1437.78,805.184C1437.41,804.233 1436.8,801.309 1436.69,802.329C1436.3,806.181 1442.77,821.362 1435.51,823.319C1429.2,825.019 1427.97,827.419 1424.22,822.626C1422.34,820.228 1420.79,817.494 1419.55,814.67C1419.5,814.554 1419.42,814.192 1419.4,814.319C1419.07,816.829 1421.02,820.903 1421.31,823.537C1422.24,832.105 1412.34,837.566 1401.08,826.07C1391.83,816.627 1397.73,808.465 1392.62,796.223C1387.68,784.388 1379.55,773.837 1376.53,761.153C1372.52,744.253 1374.58,726.214 1369.47,709.615C1362.29,686.255 1349.66,664.813 1338.27,643.537" style="fill:#6f5e4c;stroke:#000;stroke-width:6.67px;"/>
        </g>
        <g opacity="0.04">
            <path d="M1324.54,535.125C1312.92,530.27 1301.92,523.183 1289.97,519.263C1246.51,505.004 1200.99,502.869 1155.95,497.867C1103.69,492.063 1082.77,486.306 1029.13,491.942C999.487,495.057 935.311,510.819 912.09,532.659" style="fill:none;stroke:#fff;stroke-width:20.42px;"/>
            <path d="M931.805,495.314C900.936,479.714 872.84,470.212 834.881,454.193C788.57,434.65 724.28,417.121 676.791,435.059C659.406,441.626 603.512,502.83 595.525,520.07C571.881,571.102 571.403,582.019 563.823,633.446C562.357,643.396 552.441,703.104 566.908,709.63C581.855,716.373 610.59,671.214 620.814,663.276C645.066,644.447 673.174,616.645 699.004,600.227C717.153,588.691 706.94,592.04 738.952,573.663C752.577,565.842 760.335,560.134 775.773,557.506C818.659,550.205 862.571,544.122 913.56,560.169" style="fill:none;stroke:#fff;stroke-width:20.42px;"/>
            <path d="M1019.51,561.186C1010.79,571.068 1004.67,583.236 992.248,589.332C980.085,595.3 966.435,595.407 953.332,597.16C919.274,601.717 890.75,615.405 870.297,643.919" style="fill:none;stroke:#fff;stroke-width:20.42px;"/>
            <path d="M1555.63,581.246C1547.4,565.388 1508.4,516.015 1490.03,512.767C1457.89,507.085 1423.23,523.408 1391.63,527.702" style="fill:none;stroke:#fff;stroke-width:20.42px;"/>
            <path d="M1459.85,500.064C1458.35,495.203 1455.52,492.278 1453.4,487.784C1449.72,479.946 1450.43,492.402 1449.32,498.172" style="fill:none;stroke:#fff;stroke-width:20.42px;"/>
            <path d="M1316.86,538.682C1288.59,508.891 1246.7,515.125 1209.67,512.715C1172.17,510.274 1135.68,509.82 1098.1,509.812C1076.87,509.807 1056.51,506.447 1035.23,509.157C1004.47,513.075 966.581,526.963 935.243,535.367" style="fill:none;stroke:#fff;stroke-width:44.74px;"/>
            <path d="M1324.5,647.101C1262.9,649.309 1202.54,631.712 1142.55,621.142" style="fill:none;stroke:#000;stroke-width:48.17px;"/>
            <path d="M1136.37,594.675C1121.29,615.375 1063.26,649.145 1036.31,646.367C999.292,642.552 968.391,616.882 927.193,623.729" style="fill:none;stroke:#000;stroke-width:22.66px;"/>
            <path d="M1542.03,602.653C1518.57,632.919 1479.03,613.299 1447.9,612.924" style="fill:none;stroke:#000;stroke-width:22.66px;"/>
            <path d="M1130.03,643.882C1124.01,647.069 1117.17,648.762 1111.48,652.545C1100.03,660.151 1092.97,669.02 1078.73,672.701C1070.52,674.821 1046.36,672.27 1037.65,670.851C1021.49,668.216 1005.85,663.829 991.492,655.892C986.102,652.912 974.044,644.913 967.424,647.651C960.875,650.36 954.759,657.889 950.5,663.262C946.817,667.909 942.061,671.526 939.162,676.817C931.574,690.665 929.527,707.532 921.937,721.572" style="fill:none;stroke:#000;stroke-width:19.84px;"/>
            <path d="M1521.06,560.12C1520.52,555.246 1507.77,534.097 1501.48,539.104C1492.71,546.099 1509.58,564.938 1517.75,563.973C1526.43,562.946 1526.12,552.654 1519.74,548.694" style="fill:none;stroke:#000;stroke-width:22.66px;"/>
            <path d="M1347,641.09C1375.64,680.83 1379.5,726.921 1392.22,772.466C1397.65,791.877 1407.79,809.787 1411.52,829.698" style="fill:none;stroke:#000;stroke-width:16.23px;"/>
            <path d="M1563,671.08C1551.09,669.043 1542.1,675.674 1531.7,679.961C1520.35,684.641 1504.81,688.544 1492.66,690.516C1482.34,692.194 1453.19,691.727 1443.2,689.715C1437.58,688.581 1432.39,686.602 1426.88,685.144C1426.42,685.022 1418.5,682.892 1418.5,684.027C1418.52,687.668 1429.28,690.158 1432.22,691.039" style="fill:none;stroke:#000;stroke-width:16.23px;"/>
            <path d="M1404.94,624.785C1401.21,659.966 1405.36,713.328 1418.98,746.23C1424.4,759.318 1431.23,771.972 1438.4,784.176C1443.41,792.692 1450.75,801.09 1453.73,810.647" style="fill:none;stroke:#fff;stroke-width:16.23px;"/>
            <path d="M1428.06,625.512C1441.16,638.023 1453.13,655.042 1471.77,659.662C1490.73,664.362 1511.38,657.01 1530.79,658.3C1541.24,658.995 1550.66,666.802 1561.12,666.417" style="fill:none;stroke:#fff;stroke-width:16.23px;"/>
        </g>
        <path d="M1510.99,544.835C1511.03,540.48 1504.09,536.246 1501.97,541.477C1499.86,546.702 1506.63,551.101 1510.16,546.575C1511.71,544.573 1509.2,541.073 1506.76,542.047C1504.55,542.931 1505.53,545.265 1507.45,545.656" style="fill:none;stroke:#fff;stroke-opacity:0.22;stroke-width:6.67px;"/>
    </g>
</svg>
